<?xml version="1.0" encoding="UTF-8"?>
<svg width="100mm" height="140mm" version="1.1" viewBox="0 0 100 140" xmlns="http://www.w3.org/2000/svg">
 <path transform="matrix(1.4157,0,0,1.4658,-3.0876,-3.2921)" d="M 37.5,88.005 C 30.9577,75.246 21.049,60.633 11.995,50 21.0491,39.367 30.958,24.754 37.5,11.995 44.0423,24.754 53.951,39.367 63.005,50 53.9509,60.633 44.042,75.246 37.5,88.005 Z M 37.499998,50 37.5,75.951 37.500002,50 37.5,24.049 Z" fill="#1020ff" fill-rule="evenodd" stroke="#1020ff" stroke-linecap="round" stroke-linejoin="round" stroke-width="1.3884" style="paint-order:markers fill stroke"/>
 <g fill="#fff" aria-label="K">
  <path d="m57.251 87.529-9.9121-16.382-3.4912 4.1992v12.183h-4.4922v-35.547h4.4922v17.114l2.9297-3.833 9.5703-13.281h5.3711l-11.548 15.649 12.427 19.897z"/>
 </g>
</svg>
