<svg xmlns="http://www.w3.org/2000/svg" id="deck" width="75mm" height="100mm" version="1.1" viewBox="0 0 75 100">
 <g>
  <path transform="translate(0,1.5875)" d="m37.5 13.758c-11.265 0.20671-21.074 13.487-12.249 28.022-11.51-3.5414-22.888 9.1261-18.525 21.689 4.3627 12.563 19.787 15.523 28.274 2.7869 0.0432 5.195-5.2648 13.158-8.6956 16.816l11.196 4.18e-4 11.196-4.18e-4c-3.4308-3.658-8.7388-11.621-8.6956-16.816 8.487 12.736 23.911 9.7765 28.274-2.7869s-7.0147-25.231-18.525-21.689c8.8242-14.535-0.98384-27.815-12.249-28.022z" fill-rule="evenodd" stroke="#000" stroke-linecap="round" stroke-linejoin="round" stroke-width="1.0583" style="paint-order:stroke markers fill"/>
  <text x="37.5" y="62.518311" fill="#ffffff" font-family="'Open Sans'" font-size="35px" letter-spacing="-5px" text-align="center" text-anchor="middle" xml:space="preserve"><tspan x="35" y="62.518311">4</tspan></text>
 </g>
</svg>