<?xml version="1.0" encoding="UTF-8"?>
<svg width="100mm" height="140mm" version="1.1" viewBox="0 0 100 140" xmlns="http://www.w3.org/2000/svg">
 <path transform="matrix(1.273,0,0,1.3802,2.2612,1.8434)" d="m37.5 13.758c-11.265 0.20671-21.074 13.487-12.249 28.022-11.51-3.5414-22.888 9.1261-18.525 21.689 4.3627 12.563 19.787 15.523 28.274 2.7869 0.0432 5.195-5.7897 13.344-9.2205 17.002l11.721-0.08251m1e-6 -69.418c11.265 0.20671 21.074 13.487 12.249 28.022 11.51-3.5414 22.888 9.1261 18.525 21.689s-19.787 15.523-28.274 2.7869c-0.0432 5.195 5.7897 13.344 9.2205 17.002l-11.721-0.08251" fill-rule="evenodd" stroke="#000" stroke-linecap="round" stroke-linejoin="round" stroke-width="1.5088" style="paint-order:stroke markers fill"/>
 <g fill="#fff" aria-label="8">
  <path d="m58.643 77.91q0 4.8828-2.7344 7.4951-2.71 2.6123-6.7627 2.6123-4.0283 0-6.7627-2.6123-2.71-2.6367-2.71-7.4951 0-2.9785 1.3184-5.249 1.3428-2.2949 3.6377-3.4668-4.2969-2.4902-4.2969-7.959 0-4.6631 2.4902-7.2021 2.4902-2.5391 6.3477-2.5391 3.8574 0 6.3232 2.5391 2.4902 2.5391 2.4902 7.2021 0 2.6367-1.1963 4.7363-1.1719 2.0752-3.1738 3.2471 2.2949 1.1719 3.6621 3.4668 1.3672 2.2705 1.3672 5.2246zm-4.9805-16.602q0-2.6611-1.2207-4.3701-1.2207-1.7334-3.2715-1.7334-2.0508 0-3.2959 1.6602-1.2207 1.6357-1.2207 4.4434 0 2.7588 1.2207 4.4189t3.2959 1.6602q2.0508 0 3.2715-1.6602t1.2207-4.4189zm0.68359 16.504q0-2.9785-1.4404-4.8584-1.416-1.8799-3.7842-1.8799-2.417 0-3.7842 1.8799-1.3672 1.8799-1.3672 4.8584 0 3.0762 1.3428 4.7852 1.3672 1.709 3.833 1.709 2.4902 0 3.833-1.709 1.3672-1.709 1.3672-4.7852z"/>
 </g>
</svg>
