<?xml version="1.0" encoding="UTF-8"?>
<svg width="100mm" height="140mm" version="1.1" viewBox="0 0 100 140" xmlns="http://www.w3.org/2000/svg">
 <path transform="matrix(1.273,0,0,1.3802,2.2612,1.8434)" d="m37.5 13.758c-11.265 0.20671-21.074 13.487-12.249 28.022-11.51-3.5414-22.888 9.1261-18.525 21.689 4.3627 12.563 19.787 15.523 28.274 2.7869 0.0432 5.195-5.7897 13.344-9.2205 17.002l11.721-0.08251m1e-6 -69.418c11.265 0.20671 21.074 13.487 12.249 28.022 11.51-3.5414 22.888 9.1261 18.525 21.689s-19.787 15.523-28.274 2.7869c-0.0432 5.195 5.7897 13.344 9.2205 17.002l-11.721-0.08251" fill-rule="evenodd" stroke="#000" stroke-linecap="round" stroke-linejoin="round" stroke-width="1.5088" style="paint-order:stroke markers fill"/>
 <g fill="#fff" aria-label="3">
  <path d="m45.215 71.245v-3.7109h2.7832q2.7832 0 4.126-1.7334 1.3672-1.7334 1.3672-4.3457 0-6.25-4.8096-6.25-2.2705 0-3.6377 1.6602-1.3428 1.6357-1.3428 4.4189h-4.2969q0-4.0771 2.5146-6.9336 2.5146-2.8564 6.7627-2.8564 4.0527 0 6.5918 2.5635 2.5391 2.5391 2.5391 7.4951 0 1.9775-1.0742 4.2236-1.0742 2.2217-3.5156 3.4912 3.0029 1.123 4.0039 3.54 1.001 2.3926 1.001 4.8096 0 4.9805-2.7588 7.6904-2.7344 2.71-6.8115 2.71-3.9795 0-6.7139-2.5635-2.7344-2.5879-2.7344-7.3242h4.3213q0 2.8076 1.3428 4.4922 1.3672 1.6846 3.7842 1.6846 2.3926 0 3.8086-1.6357 1.4404-1.6357 1.4404-4.9561 0-6.4697-6.1279-6.4697z"/>
 </g>
</svg>
