<?xml version="1.0" encoding="UTF-8"?>
<svg width="100mm" height="140mm" version="1.1" viewBox="0 0 100 140" xmlns="http://www.w3.org/2000/svg">
 <path transform="matrix(1.273,0,0,1.3802,2.2612,1.8434)" d="m37.5 13.758c-11.265 0.20671-21.074 13.487-12.249 28.022-11.51-3.5414-22.888 9.1261-18.525 21.689 4.3627 12.563 19.787 15.523 28.274 2.7869 0.0432 5.195-5.7897 13.344-9.2205 17.002l11.721-0.08251m1e-6 -69.418c11.265 0.20671 21.074 13.487 12.249 28.022 11.51-3.5414 22.888 9.1261 18.525 21.689s-19.787 15.523-28.274 2.7869c-0.0432 5.195 5.7897 13.344 9.2205 17.002l-11.721-0.08251" fill-rule="evenodd" stroke="#000" stroke-linecap="round" stroke-linejoin="round" stroke-width="1.5088" style="paint-order:stroke markers fill"/>
 <g fill="#fff" aria-label="4">
  <path d="m38.281 76.616 13.208-24.634h4.5654v23.584h3.9551v3.7109h-3.9551v8.252h-4.3213v-8.252h-13.452zm4.8096-1.0498h8.6426v-16.968l-0.24414 0.5127z"/>
 </g>
</svg>
