<?xml version="1.0" encoding="UTF-8"?>
<svg width="100mm" height="140mm" version="1.1" viewBox="0 0 100 140" xmlns="http://www.w3.org/2000/svg">
 <path transform="matrix(1.4157,0,0,1.4658,-3.0876,-3.2921)" d="M 37.5,88.005 C 30.9577,75.246 21.049,60.633 11.995,50 21.0491,39.367 30.958,24.754 37.5,11.995 44.0423,24.754 53.951,39.367 63.005,50 53.9509,60.633 44.042,75.246 37.5,88.005 Z M 37.499998,50 37.5,75.951 37.500002,50 37.5,24.049 Z" fill="#c00" fill-rule="evenodd" stroke="#c00" stroke-linecap="round" stroke-linejoin="round" stroke-width="1.3884" style="paint-order:markers fill stroke"/>
 <g fill="#fff" aria-label="4">
  <path d="m38.281 76.616 13.208-24.634h4.5654v23.584h3.9551v3.7109h-3.9551v8.252h-4.3213v-8.252h-13.452zm4.8096-1.0498h8.6426v-16.968l-0.24414 0.5127z"/>
 </g>
</svg>
