<?xml version="1.0" encoding="UTF-8"?>
<svg width="100mm" height="140mm" version="1.1" viewBox="0 0 100 140" xmlns="http://www.w3.org/2000/svg">
 <path transform="matrix(1.273,0,0,1.3802,2.2612,1.8434)" d="m37.5 13.758c-11.265 0.20671-21.074 13.487-12.249 28.022-11.51-3.5414-22.888 9.1261-18.525 21.689 4.3627 12.563 19.787 15.523 28.274 2.7869 0.0432 5.195-5.7897 13.344-9.2205 17.002l11.721-0.08251m1e-6 -69.418c11.265 0.20671 21.074 13.487 12.249 28.022 11.51-3.5414 22.888 9.1261 18.525 21.689s-19.787 15.523-28.274 2.7869c-0.0432 5.195 5.7897 13.344 9.2205 17.002l-11.721-0.08251" fill="#187800" fill-rule="evenodd" stroke="#187800" stroke-linecap="round" stroke-linejoin="round" stroke-width="1.5088" style="paint-order:stroke markers fill"/>
 <g fill="#fff" aria-label="5">
  <path d="m44.897 70.61-3.4424-0.92774 1.5137-17.7h15.479v4.1748h-11.841l-0.83008 9.668q2.2705-1.5381 4.7363-1.5381 4.1748 0 6.543 3.2471 2.3682 3.2227 2.3682 8.667 0 5.1025-2.417 8.4717-2.417 3.3447-7.251 3.3447-3.6133 0-6.2988-2.417-2.6855-2.4414-3.1006-7.4219h4.0771q0.70801 6.1279 5.3223 6.1279 2.5146 0 3.9307-2.1729t1.416-5.8838q0-3.3447-1.4648-5.6152-1.4648-2.2949-4.1748-2.2949-1.8311 0-2.71 0.61035-0.85449 0.61035-1.8555 1.6602z"/>
 </g>
</svg>
