<svg xmlns="http://www.w3.org/2000/svg" id="deck" width="100mm" height="140mm" version="1.1" viewBox="0 0 100 140">
 <style>@import url('https://fonts.googleapis.com/css2?family=Roboto+Condensed&amp;display=swap');</style>
 <g>
  <path transform="matrix(1.273 0 0 1.3802 2.2612 1.8434)" d="m37.5 13.758c-11.265 0.20671-21.074 13.487-12.249 28.022-11.51-3.5414-22.888 9.1261-18.525 21.689 4.3627 12.563 19.787 15.523 28.274 2.7869 0.0432 5.195-5.7897 13.344-9.2205 17.002l11.721-0.082509m1e-6 -69.418c11.265 0.20671 21.074 13.487 12.249 28.022 11.51-3.5414 22.888 9.1261 18.525 21.689s-19.787 15.523-28.274 2.7869c-0.0432 5.195 5.7897 13.344 9.2205 17.002l-11.721-0.08251" fill-rule="evenodd" stroke="#187800" stroke-linecap="round" stroke-linejoin="round" stroke-width="1.5088" style="paint-order:stroke markers fill" fill="#187800"/>
  <text x="49.157642" y="87.529297" fill="#ffffff" font-family="'Roboto Condensed'" font-size="50px" letter-spacing="0px" text-align="center" text-anchor="middle" xml:space="preserve"><tspan x="49.157642" y="87.529297">J</tspan></text>
 </g>
</svg>