<?xml version="1.0" encoding="UTF-8"?>
<svg width="100mm" height="140mm" version="1.1" viewBox="0 0 100 140" xmlns="http://www.w3.org/2000/svg">
 <path transform="matrix(1.273,0,0,1.3802,2.2612,1.8434)" d="m37.5 13.758c-11.265 0.20671-21.074 13.487-12.249 28.022-11.51-3.5414-22.888 9.1261-18.525 21.689 4.3627 12.563 19.787 15.523 28.274 2.7869 0.0432 5.195-5.7897 13.344-9.2205 17.002l11.721-0.08251m1e-6 -69.418c11.265 0.20671 21.074 13.487 12.249 28.022 11.51-3.5414 22.888 9.1261 18.525 21.689s-19.787 15.523-28.274 2.7869c-0.0432 5.195 5.7897 13.344 9.2205 17.002l-11.721-0.08251" fill="#187800" fill-rule="evenodd" stroke="#187800" stroke-linecap="round" stroke-linejoin="round" stroke-width="1.5088" style="paint-order:stroke markers fill"/>
 <g fill="#fff" aria-label="9">
  <path d="m58.252 67.51q0 3.4668-0.43945 7.0068-0.43945 3.5156-1.8555 6.4941-1.416 2.9541-4.2725 4.7607-2.8564 1.8066-8.0811 1.8066l-0.02441-3.833q4.3945 0 6.4941-1.6113 2.124-1.6113 2.9297-4.2236 0.80566-2.6367 0.92774-5.6152-2.5879 3.3447-6.0791 3.3447-3.0273 0-4.9072-1.7578-1.8555-1.7578-2.7344-4.4678-0.85449-2.7344-0.85449-5.6396 0-5.0781 2.3193-8.667 2.3438-3.6133 7.0312-3.6133 3.4912 0 5.5908 2.0996 2.0996 2.0996 3.0273 5.3955 0.92774 3.2959 0.92774 6.8848zm-14.673-3.9795q0 3.1738 1.1963 5.7617 1.2207 2.5879 3.8086 2.5879 1.6357 0 3.125-1.3672 1.4893-1.3916 2.2461-3.418v-1.8311q0-4.8584-1.6602-7.4463-1.6357-2.5879-3.5889-2.5879-2.4658 0-3.8086 2.3926-1.3184 2.3682-1.3184 5.9082z"/>
 </g>
</svg>
