<?xml version="1.0" encoding="UTF-8"?>
<svg width="100mm" height="140mm" version="1.1" viewBox="0 0 100 140" xmlns="http://www.w3.org/2000/svg">
 <path transform="matrix(1.3327 0 0 1.4311 .022343 -2.3254)" d="m37.5 87.506c-6.2271-11.679-19.614-22.969-25.816-36.169-5.4902-10.062-4.2817-20.099 1.4757-26.125 8.9949-8.1419 21.772-4.3456 24.341 7.54 2.569-11.886 15.346-15.682 24.341-7.54 5.7575 6.0257 6.966 16.063 1.4757 26.125-6.202 13.2-19.589 24.49-25.816 36.169z" fill="#c00" fill-rule="evenodd" stroke="#c00" stroke-linecap="round" stroke-linejoin="round" stroke-width="1.4482" style="paint-order:stroke markers fill"/>
 <g fill="#fff" aria-label="5">
  <path d="m44.897 70.61-3.4424-0.92774 1.5137-17.7h15.479v4.1748h-11.841l-0.83008 9.668q2.2705-1.5381 4.7363-1.5381 4.1748 0 6.543 3.2471 2.3682 3.2227 2.3682 8.667 0 5.1025-2.417 8.4717-2.417 3.3447-7.251 3.3447-3.6133 0-6.2988-2.417-2.6855-2.4414-3.1006-7.4219h4.0771q0.70801 6.1279 5.3223 6.1279 2.5146 0 3.9307-2.1729t1.416-5.8838q0-3.3447-1.4648-5.6152-1.4648-2.2949-4.1748-2.2949-1.8311 0-2.71 0.61035-0.85449 0.61035-1.8555 1.6602z"/>
 </g>
</svg>
