<?xml version="1.0" encoding="UTF-8"?>
<svg width="100mm" height="140mm" version="1.1" viewBox="0 0 100 140" xmlns="http://www.w3.org/2000/svg">
 <path transform="matrix(1.3327 0 0 1.4311 .022343 -2.3254)" d="m37.5 87.506c-6.2271-11.679-19.614-22.969-25.816-36.169-5.4902-10.062-4.2817-20.099 1.4757-26.125 8.9949-8.1419 21.772-4.3456 24.341 7.54 2.569-11.886 15.346-15.682 24.341-7.54 5.7575 6.0257 6.966 16.063 1.4757 26.125-6.202 13.2-19.589 24.49-25.816 36.169z" fill="#c00" fill-rule="evenodd" stroke="#c00" stroke-linecap="round" stroke-linejoin="round" stroke-width="1.4482" style="paint-order:stroke markers fill"/>
 <g fill="#fff" aria-label="2">
  <path d="m59.546 83.818v3.7109h-19.873v-3.2471l9.8633-13.062q2.6367-3.54 3.4912-5.5664 0.87891-2.0508 0.87891-4.126 0-2.6123-1.2695-4.4678-1.2451-1.8555-3.5156-1.8555-2.9785 0-4.3213 2.0264-1.3428 2.0264-1.3428 5.2002h-4.3213q0-4.4922 2.4902-7.7148 2.5146-3.2227 7.4951-3.2227 4.2969 0 6.6895 2.6123 2.417 2.6123 2.417 6.8848 0 3.125-1.5625 6.2744t-3.8574 6.1279l-7.959 10.425z"/>
 </g>
</svg>
