<?xml version="1.0" encoding="UTF-8"?>
<svg width="100mm" height="140mm" version="1.1" viewBox="0 0 100 140" xmlns="http://www.w3.org/2000/svg">
 <path transform="matrix(1.3327 0 0 1.4311 .022343 -2.3254)" d="m37.5 87.506c-6.2271-11.679-19.614-22.969-25.816-36.169-5.4902-10.062-4.2817-20.099 1.4757-26.125 8.9949-8.1419 21.772-4.3456 24.341 7.54 2.569-11.886 15.346-15.682 24.341-7.54 5.7575 6.0257 6.966 16.063 1.4757 26.125-6.202 13.2-19.589 24.49-25.816 36.169z" fill="#c00" fill-rule="evenodd" stroke="#c00" stroke-linecap="round" stroke-linejoin="round" stroke-width="1.4482" style="paint-order:stroke markers fill"/>
 <g fill="#fff" aria-label="J">
  <path d="m53.186 51.982h4.4678v25.269q-0.02441 5.2246-2.71 8.0078-2.6611 2.7588-6.8604 2.7588-4.1504 0-6.8604-2.5391-2.71-2.5391-2.71-7.7881h4.4922q0 3.3691 1.4404 4.9316 1.4648 1.5625 3.6377 1.5625 2.1973 0 3.6377-1.7822 1.4648-1.7822 1.4648-5.249z"/>
 </g>
</svg>
