<?xml version="1.0" encoding="UTF-8"?>
<svg width="100mm" height="140mm" version="1.1" viewBox="0 0 100 140" xmlns="http://www.w3.org/2000/svg">
 <path transform="matrix(1.3327 0 0 1.4311 .022343 -2.3254)" d="m37.5 87.506c-6.2271-11.679-19.614-22.969-25.816-36.169-5.4902-10.062-4.2817-20.099 1.4757-26.125 8.9949-8.1419 21.772-4.3456 24.341 7.54 2.569-11.886 15.346-15.682 24.341-7.54 5.7575 6.0257 6.966 16.063 1.4757 26.125-6.202 13.2-19.589 24.49-25.816 36.169z" fill="#c00" fill-rule="evenodd" stroke="#c00" stroke-linecap="round" stroke-linejoin="round" stroke-width="1.4482" style="paint-order:stroke markers fill"/>
 <g fill="#fff" aria-label="8">
  <path d="m58.643 77.91q0 4.8828-2.7344 7.4951-2.71 2.6123-6.7627 2.6123-4.0283 0-6.7627-2.6123-2.71-2.6367-2.71-7.4951 0-2.9785 1.3184-5.249 1.3428-2.2949 3.6377-3.4668-4.2969-2.4902-4.2969-7.959 0-4.6631 2.4902-7.2021 2.4902-2.5391 6.3477-2.5391 3.8574 0 6.3232 2.5391 2.4902 2.5391 2.4902 7.2021 0 2.6367-1.1963 4.7363-1.1719 2.0752-3.1738 3.2471 2.2949 1.1719 3.6621 3.4668 1.3672 2.2705 1.3672 5.2246zm-4.9805-16.602q0-2.6611-1.2207-4.3701-1.2207-1.7334-3.2715-1.7334-2.0508 0-3.2959 1.6602-1.2207 1.6357-1.2207 4.4434 0 2.7588 1.2207 4.4189t3.2959 1.6602q2.0508 0 3.2715-1.6602t1.2207-4.4189zm0.68359 16.504q0-2.9785-1.4404-4.8584-1.416-1.8799-3.7842-1.8799-2.417 0-3.7842 1.8799-1.3672 1.8799-1.3672 4.8584 0 3.0762 1.3428 4.7852 1.3672 1.709 3.833 1.709 2.4902 0 3.833-1.709 1.3672-1.709 1.3672-4.7852z"/>
 </g>
</svg>
