<?xml version="1.0" encoding="UTF-8"?>
<svg width="100mm" height="140mm" version="1.1" viewBox="0 0 100 140" xmlns="http://www.w3.org/2000/svg">
 <path transform="matrix(1.3327 0 0 1.4311 .022343 -2.3254)" d="m37.5 87.506c-6.2271-11.679-19.614-22.969-25.816-36.169-5.4902-10.062-4.2817-20.099 1.4757-26.125 8.9949-8.1419 21.772-4.3456 24.341 7.54 2.569-11.886 15.346-15.682 24.341-7.54 5.7575 6.0257 6.966 16.063 1.4757 26.125-6.202 13.2-19.589 24.49-25.816 36.169z" fill="#c00" fill-rule="evenodd" stroke="#c00" stroke-linecap="round" stroke-linejoin="round" stroke-width="1.4482" style="paint-order:stroke markers fill"/>
 <g fill="#fff" aria-label="K">
  <path d="m57.251 87.529-9.9121-16.382-3.4912 4.1992v12.183h-4.4922v-35.547h4.4922v17.114l2.9297-3.833 9.5703-13.281h5.3711l-11.548 15.649 12.427 19.897z"/>
 </g>
</svg>
