<svg xmlns="http://www.w3.org/2000/svg" id="deck" width="100mm" height="140mm" version="1.1" viewBox="0 0 100 140">
 <style>@import url('https://fonts.googleapis.com/css2?family=Roboto+Condensed&amp;display=swap');</style>
 <g>
  <path transform="matrix(1.3327 0 0 1.4005 .023011 .40962)" d="m37.5 12.473c-10.278 17.175-28.398 24.757-28.5 41.075-0.06926 11.021 7.1325 18.702 15.091 18.686 5.4108-0.01077 8.7069-2.6807 10.91-5.9769 0.0432 5.195-5.2648 13.159-8.6956 16.817h22.391c-3.4308-3.658-8.7388-11.622-8.6956-16.817 2.2028 3.2963 5.4989 5.9662 10.91 5.9769 7.9581 0.01584 15.16-7.6646 15.091-18.686-0.10255-16.318-18.223-23.901-28.5-41.075z" fill-rule="evenodd" stroke="#000" stroke-linecap="round" stroke-linejoin="round" stroke-width="1.4639" style="paint-order:stroke markers fill"/>
  <text x="49.157642" y="87.529297" fill="#ffffff" font-family="'Roboto Condensed'" font-size="50px" letter-spacing="0px" text-align="center" text-anchor="middle" xml:space="preserve"><tspan x="49.157642" y="87.529297">7</tspan></text>
 </g>
</svg>