<?xml version="1.0" encoding="UTF-8"?>
<svg width="100mm" height="140mm" version="1.1" viewBox="0 0 100 140" xmlns="http://www.w3.org/2000/svg">
 <path transform="matrix(1.3327 0 0 1.4005 .023011 .40962)" d="m37.5 12.473c-10.278 17.175-28.398 24.757-28.5 41.075-0.06926 11.021 7.1325 18.702 15.091 18.686 5.4108-0.01077 8.7069-2.6807 10.91-5.9769 0.0432 5.195-5.2648 13.159-8.6956 16.817h22.391c-3.4308-3.658-8.7388-11.622-8.6956-16.817 2.2028 3.2963 5.4989 5.9662 10.91 5.9769 7.9581 0.01584 15.16-7.6646 15.091-18.686-0.10255-16.318-18.223-23.901-28.5-41.075z" fill-rule="evenodd" stroke="#000" stroke-linecap="round" stroke-linejoin="round" stroke-width="1.4639" style="paint-order:stroke markers fill"/>
 <g fill="#fff" aria-label="K">
  <path d="m57.251 87.529-9.9121-16.382-3.4912 4.1992v12.183h-4.4922v-35.547h4.4922v17.114l2.9297-3.833 9.5703-13.281h5.3711l-11.548 15.649 12.427 19.897z"/>
 </g>
</svg>
