<?xml version="1.0" encoding="UTF-8"?>
<svg width="100mm" height="140mm" version="1.1" viewBox="0 0 100 140" xmlns="http://www.w3.org/2000/svg">
 <path transform="matrix(1.3327 0 0 1.4005 .023011 .40962)" d="m37.5 12.473c-10.278 17.175-28.398 24.757-28.5 41.075-0.06926 11.021 7.1325 18.702 15.091 18.686 5.4108-0.01077 8.7069-2.6807 10.91-5.9769 0.0432 5.195-5.2648 13.159-8.6956 16.817h22.391c-3.4308-3.658-8.7388-11.622-8.6956-16.817 2.2028 3.2963 5.4989 5.9662 10.91 5.9769 7.9581 0.01584 15.16-7.6646 15.091-18.686-0.10255-16.318-18.223-23.901-28.5-41.075z" fill-rule="evenodd" stroke="#000" stroke-linecap="round" stroke-linejoin="round" stroke-width="1.4639" style="paint-order:stroke markers fill"/>
 <g fill="#fff" aria-label="2">
  <path d="m59.546 83.818v3.7109h-19.873v-3.2471l9.8633-13.062q2.6367-3.54 3.4912-5.5664 0.87891-2.0508 0.87891-4.126 0-2.6123-1.2695-4.4678-1.2451-1.8555-3.5156-1.8555-2.9785 0-4.3213 2.0264-1.3428 2.0264-1.3428 5.2002h-4.3213q0-4.4922 2.4902-7.7148 2.5146-3.2227 7.4951-3.2227 4.2969 0 6.6895 2.6123 2.417 2.6123 2.417 6.8848 0 3.125-1.5625 6.2744t-3.8574 6.1279l-7.959 10.425z"/>
 </g>
</svg>
