<?xml version="1.0" encoding="UTF-8"?>
<svg width="100mm" height="140mm" version="1.1" viewBox="0 0 100 140" xmlns="http://www.w3.org/2000/svg">
 <path transform="matrix(1.3327 0 0 1.4005 .023011 .40962)" d="m37.5 12.473c-10.278 17.175-28.398 24.757-28.5 41.075-0.06926 11.021 7.1325 18.702 15.091 18.686 5.4108-0.01077 8.7069-2.6807 10.91-5.9769 0.0432 5.195-5.2648 13.159-8.6956 16.817h22.391c-3.4308-3.658-8.7388-11.622-8.6956-16.817 2.2028 3.2963 5.4989 5.9662 10.91 5.9769 7.9581 0.01584 15.16-7.6646 15.091-18.686-0.10255-16.318-18.223-23.901-28.5-41.075z" fill-rule="evenodd" stroke="#000" stroke-linecap="round" stroke-linejoin="round" stroke-width="1.4639" style="paint-order:stroke markers fill"/>
 <g fill="#fff" aria-label="6">
  <path d="m59.058 75.933q0 5.0537-2.3682 8.5693t-7.0557 3.5156q-3.3203 0-5.4443-2.0264-2.124-2.0508-3.1494-5.1758-1.001-3.1494-1.001-6.4453v-2.124q0-3.7598 0.53711-7.373 0.53711-3.6133 2.0264-6.543 1.5137-2.9297 4.3457-4.6631 2.832-1.7334 7.7637-1.7334v3.833q-4.0283 0-6.1279 1.6113-2.0752 1.6113-3.0029 4.2236-0.92773 2.6123-1.123 5.5664 2.2949-2.9541 6.0303-2.9541 3.0273 0 4.9072 1.709 1.9043 1.709 2.7832 4.4189 0.87891 2.6855 0.87891 5.5908zm-14.673-1.416q0 4.7363 1.6357 7.251 1.6602 2.5146 3.6133 2.5146 2.4902 0 3.8086-2.2705 1.3428-2.2949 1.3428-5.8594 0-3.1738-1.2207-5.6885-1.2207-2.5146-3.7842-2.5146-1.8311 0-3.3203 1.3916-1.4648 1.3672-2.0752 3.3447z"/>
 </g>
</svg>
