<?xml version="1.0" encoding="UTF-8"?>
<svg width="100mm" height="140mm" version="1.1" viewBox="0 0 100 140" xmlns="http://www.w3.org/2000/svg">
 <path transform="matrix(1.3327 0 0 1.4005 .023011 .40962)" d="m37.5 12.473c-10.278 17.175-28.398 24.757-28.5 41.075-0.06926 11.021 7.1325 18.702 15.091 18.686 5.4108-0.01077 8.7069-2.6807 10.91-5.9769 0.0432 5.195-5.2648 13.159-8.6956 16.817h22.391c-3.4308-3.658-8.7388-11.622-8.6956-16.817 2.2028 3.2963 5.4989 5.9662 10.91 5.9769 7.9581 0.01584 15.16-7.6646 15.091-18.686-0.10255-16.318-18.223-23.901-28.5-41.075z" fill-rule="evenodd" stroke="#000" stroke-linecap="round" stroke-linejoin="round" stroke-width="1.4639" style="paint-order:stroke markers fill"/>
 <g fill="#fff" aria-label="Q">
  <path d="m61.377 90.605-3.0518 2.9297-6.3721-5.835q-1.416 0.31738-3.0029 0.31738-5.249 0-8.5693-3.7109-3.2959-3.7109-3.3936-11.035v-6.5918q0-7.5439 3.2959-11.353 3.2959-3.833 8.6426-3.833 5.4688 0 8.667 3.7598 3.2227 3.7354 3.2959 11.084v6.4941q0 9.2041-4.8096 12.964zm-4.9316-23.975q0-5.8594-1.9531-8.4961-1.9287-2.6367-5.5664-2.6367-3.4424 0-5.4688 2.6367-2.002 2.6367-2.002 8.4961v6.2012q0 5.9082 2.0264 8.5693 2.0508 2.6367 5.4688 2.6367 3.6621 0 5.5664-2.6123 1.9043-2.6123 1.9287-8.4473z"/>
 </g>
</svg>
