<?xml version="1.0" encoding="UTF-8"?>
<svg width="100mm" height="140mm" version="1.1" viewBox="0 0 100 140" xmlns="http://www.w3.org/2000/svg">
 <path transform="matrix(1.3327 0 0 1.4005 .023011 .40962)" d="m37.5 12.473c-10.278 17.175-28.398 24.757-28.5 41.075-0.06926 11.021 7.1325 18.702 15.091 18.686 5.4108-0.01077 8.7069-2.6807 10.91-5.9769 0.0432 5.195-5.2648 13.159-8.6956 16.817h22.391c-3.4308-3.658-8.7388-11.622-8.6956-16.817 2.2028 3.2963 5.4989 5.9662 10.91 5.9769 7.9581 0.01584 15.16-7.6646 15.091-18.686-0.10255-16.318-18.223-23.901-28.5-41.075z" fill-rule="evenodd" stroke="#000" stroke-linecap="round" stroke-linejoin="round" stroke-width="1.4639" style="paint-order:stroke markers fill"/>
 <g fill="#fff" aria-label="3">
  <path d="m45.215 71.245v-3.7109h2.7832q2.7832 0 4.126-1.7334 1.3672-1.7334 1.3672-4.3457 0-6.25-4.8096-6.25-2.2705 0-3.6377 1.6602-1.3428 1.6357-1.3428 4.4189h-4.2969q0-4.0771 2.5146-6.9336 2.5146-2.8564 6.7627-2.8564 4.0527 0 6.5918 2.5635 2.5391 2.5391 2.5391 7.4951 0 1.9775-1.0742 4.2236-1.0742 2.2217-3.5156 3.4912 3.0029 1.123 4.0039 3.54 1.001 2.3926 1.001 4.8096 0 4.9805-2.7588 7.6904-2.7344 2.71-6.8115 2.71-3.9795 0-6.7139-2.5635-2.7344-2.5879-2.7344-7.3242h4.3213q0 2.8076 1.3428 4.4922 1.3672 1.6846 3.7842 1.6846 2.3926 0 3.8086-1.6357 1.4404-1.6357 1.4404-4.9561 0-6.4697-6.1279-6.4697z"/>
 </g>
</svg>
