<svg xmlns="http://www.w3.org/2000/svg" id="deck" width="75mm" height="100mm" version="1.1" viewBox="0 0 75 100">
 <g>
  <path transform="translate(0,1.5875)" d="m37.5 12.473v-4e-6c-9.6356 17.99-28.398 24.757-28.5 41.075-0.06926 11.021 7.1325 18.702 15.091 18.686 5.4108-0.01077 8.7069-2.6807 10.91-5.9769 0.0432 5.195-5.2648 13.159-8.6956 16.817h22.391c-3.4308-3.658-8.7388-11.622-8.6956-16.817 2.2028 3.2963 5.4989 5.9662 10.91 5.9769 7.9581 0.01584 15.16-7.6646 15.091-18.686-0.10255-16.318-18.865-23.086-28.5-41.075v4e-6" fill-rule="evenodd" stroke="#000" stroke-linecap="round" stroke-linejoin="round" stroke-width="1.0583" style="paint-order:stroke markers fill"/>
  <text x="37.5" y="62.518311" fill="#ffffff" font-family="'Open Sans'" font-size="35px" letter-spacing="-5px" text-align="center" text-anchor="middle" xml:space="preserve"><tspan x="35" y="62.518311">7</tspan></text>
 </g>
</svg>