<?xml version="1.0" encoding="UTF-8"?>
<svg width="100mm" height="140mm" version="1.1" viewBox="0 0 100 140" xmlns="http://www.w3.org/2000/svg">
  <g fill-rule="evenodd" stroke-linecap="round" stroke-linejoin="round">
    <path d="m26.563 126.85c-4.2604-8.6034-10.713-18.457-16.609-25.626 5.8961-7.1695 12.349-17.023 16.609-25.626 4.2604 8.6033 10.713 18.457 16.609 25.626-5.8961 7.1695-12.349 17.023-16.609 25.626zm-1e-6 -25.626 1e-6 17.499 1e-6 -17.499-1e-6 -17.498z" fill="#c00" stroke="#c00" stroke-width=".92" style="paint-order:markers fill stroke"/>
    <path d="m72.33 77.952c-6.597 0.13123-12.341 8.5627-7.1731 17.79-6.7403-2.2483-13.403 5.7939-10.848 13.77s11.587 9.8551 16.557 1.7694c0.0253 3.2982-3.3904 8.472-5.3995 10.794l6.8635-0.0524m0-44.072c6.597 0.13123 12.341 8.5627 7.1731 17.79 6.7403-2.2483 13.403 5.7939 10.848 13.77-2.5548 7.9762-11.587 9.855-16.557 1.7693-0.0253 3.2982 3.3904 8.472 5.3995 10.794l-6.8635-0.0524" stroke="#000" stroke-width=".91999" style="paint-order:stroke markers fill"/>
    <path d="m72.33 60.647c-3.8176-7.688-12.025-15.12-15.827-23.81-3.3658-6.6238-2.625-13.231 0.90471-17.198 5.5144-5.3598 13.347-2.8607 14.922 4.9635 1.5749-7.8242 9.4078-10.323 14.922-4.9635 3.5297 3.9667 4.2706 10.574 0.90472 17.198-3.8022 8.6895-12.009 16.122-15.827 23.81z" fill="#c00" stroke="#c00" stroke-width=".92" style="paint-order:stroke markers fill"/>
    <path d="m26.563 15.47c-6.3008 11.065-17.409 15.949-17.472 26.462-0.042458 7.1002 4.3726 12.048 9.2513 12.038 3.3171-0.0069 5.3378-1.727 6.6882-3.8505 0.02648 3.3468-3.2276 8.4772-5.3308 10.834h13.727c-2.1033-2.3566-5.3573-7.487-5.3308-10.834 1.3504 2.1236 3.3711 3.8436 6.6882 3.8505 4.8788 0.01024 9.2938-4.9378 9.2513-12.038-0.062871-10.513-11.171-15.398-17.472-26.462z" stroke="#000" stroke-width=".92" style="paint-order:stroke markers fill"/>
  </g>
</svg>
