<?xml version="1.0" encoding="UTF-8" ?>
<!DOCTYPE svg PUBLIC "-//W3C//DTD SVG 1.1//EN" "http://www.w3.org/Graphics/SVG/1.1/DTD/svg11.dtd">
<svg width="446pt" height="619pt" viewBox="0 0 446 619" version="1.1" xmlns="http://www.w3.org/2000/svg">
<g id="#000000ff">
<path fill="#000000" opacity="1.00" d=" M 410.99 51.78 C 412.55 50.83 414.19 49.92 416.02 49.62 C 417.37 50.22 418.04 51.58 418.83 52.74 C 410.68 58.25 402.86 64.23 394.66 69.68 C 346.63 100.90 301.90 139.00 269.99 187.03 C 253.56 211.58 241.18 238.95 234.31 267.70 C 240.73 263.97 247.11 260.15 253.61 256.53 C 255.31 255.51 257.29 255.17 259.23 254.90 C 258.71 257.59 255.95 258.58 253.94 259.95 C 242.46 267.27 231.49 275.37 220.78 283.76 C 193.32 303.11 168.04 325.62 146.14 351.11 C 110.37 393.28 83.58 442.83 66.41 495.33 C 55.80 527.23 48.35 560.14 43.65 593.42 C 44.81 592.46 45.98 591.51 47.15 590.57 C 46.53 594.09 45.89 597.62 45.27 601.14 C 43.70 602.67 42.13 604.21 40.60 605.78 C 38.73 606.04 37.12 605.41 36.09 603.80 C 41.53 560.22 51.58 517.18 66.83 475.97 C 75.37 452.32 85.99 429.41 98.81 407.77 C 110.55 387.91 123.33 368.58 138.20 350.91 C 163.78 320.90 193.51 294.39 226.44 272.67 C 231.46 247.62 240.94 223.57 253.10 201.15 C 280.17 153.98 319.82 115.29 363.39 83.30 C 378.73 72.02 394.79 61.78 410.99 51.78 Z" />
</g>
<g id="#4f352dff">
<path fill="#4f352d" opacity="1.00" d=" M 418.83 52.74 L 420.30 51.73 C 400.63 94.41 379.43 136.49 354.26 176.23 C 343.29 194.00 331.72 211.42 318.93 227.94 C 301.17 250.96 282.84 273.62 262.33 294.28 C 260.19 296.53 257.53 298.49 256.34 301.47 C 245.04 330.63 231.58 358.94 216.27 386.21 C 194.16 426.87 167.96 465.18 139.94 501.98 C 109.81 541.31 77.18 578.70 43.06 614.61 C 43.70 610.11 44.47 605.62 45.27 601.14 C 45.89 597.62 46.53 594.09 47.15 590.57 C 45.98 591.51 44.81 592.46 43.65 593.42 C 48.35 560.14 55.80 527.23 66.41 495.33 C 83.58 442.83 110.37 393.28 146.14 351.11 C 168.04 325.62 193.32 303.11 220.78 283.76 C 231.49 275.37 242.46 267.27 253.94 259.95 C 255.95 258.58 258.71 257.59 259.23 254.90 C 257.29 255.17 255.31 255.51 253.61 256.53 C 247.11 260.15 240.73 263.97 234.31 267.70 C 241.18 238.95 253.56 211.58 269.99 187.03 C 301.90 139.00 346.63 100.90 394.66 69.68 C 402.86 64.23 410.68 58.25 418.83 52.74 Z" />
</g>
</svg>
