<?xml version="1.0" encoding="UTF-8" ?>
<!DOCTYPE svg PUBLIC "-//W3C//DTD SVG 1.1//EN" "http://www.w3.org/Graphics/SVG/1.1/DTD/svg11.dtd">
<svg width="446pt" height="619pt" viewBox="0 0 446 619" version="1.1" xmlns="http://www.w3.org/2000/svg">
<g id="#000000ff">
<path fill="#000000" opacity="1.00" d=" M 412.04 51.17 C 414.00 49.75 416.47 49.40 418.36 51.15 C 397.58 67.38 374.51 80.41 354.00 97.00 C 346.41 102.66 339.08 108.69 332.12 115.12 C 326.69 118.96 322.82 124.55 317.33 128.33 C 312.56 132.89 307.64 137.37 303.68 142.68 C 283.59 163.56 266.79 187.53 253.00 212.98 C 247.32 225.62 241.56 238.28 237.56 251.57 C 235.95 257.04 233.56 262.46 233.95 268.29 C 240.77 266.72 246.03 261.63 252.36 258.88 C 249.97 261.43 246.82 263.04 243.97 265.00 C 235.33 270.93 226.91 277.19 218.72 283.73 C 205.62 292.76 193.26 302.83 181.25 313.24 C 177.21 317.92 171.89 321.19 167.74 325.74 C 164.03 329.70 159.79 333.18 156.57 337.58 C 153.69 341.33 149.79 344.17 147.00 348.00 C 130.18 367.34 115.63 388.57 102.72 410.70 C 96.73 421.50 90.30 432.12 85.57 443.58 C 76.69 463.09 68.52 483.00 62.63 503.64 C 54.62 528.18 49.11 553.46 44.82 578.90 C 43.06 586.90 40.61 595.42 43.32 603.51 C 41.67 604.98 39.14 606.89 37.05 604.99 C 35.31 602.06 37.03 598.50 37.22 595.36 C 43.91 546.75 56.56 498.90 75.63 453.66 C 86.88 426.93 101.55 401.77 117.80 377.80 C 139.60 345.94 166.94 318.12 197.01 294.03 C 205.41 287.35 213.97 280.84 223.04 275.08 C 224.60 274.00 226.63 272.98 226.76 270.83 C 232.04 246.19 241.42 222.51 253.51 200.43 C 280.56 153.61 320.00 115.16 363.33 83.34 C 379.02 71.81 395.45 61.33 412.04 51.17 Z" />
<path fill="#000000" opacity="1.00" d=" M 256.20 256.20 C 256.86 256.85 256.86 256.85 256.20 256.20 Z" />
<path fill="#000000" opacity="1.00" d=" M 253.20 258.20 C 253.86 258.85 253.86 258.85 253.20 258.20 Z" />
</g>
<g id="#fae8d3ff">
<path fill="#fae8d3" opacity="1.00" d=" M 418.36 51.15 C 419.17 51.66 420.06 51.99 421.03 52.15 C 418.13 57.65 415.17 63.16 412.99 69.00 C 404.69 85.68 396.31 102.32 388.01 119.00 C 375.39 142.35 362.01 165.32 347.68 187.68 C 335.06 207.96 320.58 227.03 305.69 245.69 C 298.17 254.83 290.98 264.25 282.83 272.83 C 280.33 276.90 276.40 279.74 273.28 283.28 C 269.24 289.13 263.58 293.59 258.73 298.74 C 256.32 300.78 255.94 304.09 254.88 306.89 C 251.00 315.42 247.90 324.30 243.71 332.69 C 241.50 339.16 237.50 344.83 235.29 351.31 C 232.57 356.84 230.04 362.49 226.68 367.67 C 197.76 424.64 160.86 477.21 121.01 527.00 C 112.66 536.99 104.65 547.26 95.83 556.83 C 93.69 560.59 89.82 562.91 87.59 566.60 C 85.68 569.31 82.76 571.16 81.00 574.00 C 78.82 577.42 75.18 579.58 73.00 583.00 C 70.38 586.97 66.07 589.50 63.59 593.60 C 60.38 597.68 56.17 600.86 52.83 604.83 C 50.21 608.88 46.47 612.01 43.01 615.31 C 42.01 611.26 45.22 607.38 43.32 603.51 C 40.61 595.42 43.06 586.90 44.82 578.90 C 49.11 553.46 54.62 528.18 62.63 503.64 C 68.52 483.00 76.69 463.09 85.57 443.58 C 90.30 432.12 96.73 421.50 102.72 410.70 C 115.63 388.57 130.18 367.34 147.00 348.00 C 149.79 344.17 153.69 341.33 156.57 337.58 C 159.79 333.18 164.03 329.70 167.74 325.74 C 171.89 321.19 177.21 317.92 181.25 313.24 C 193.26 302.83 205.62 292.76 218.72 283.73 C 226.91 277.19 235.33 270.93 243.97 265.00 C 246.82 263.04 249.97 261.43 252.36 258.88 C 246.03 261.63 240.77 266.72 233.95 268.29 C 233.56 262.46 235.95 257.04 237.56 251.57 C 241.56 238.28 247.32 225.62 253.00 212.98 C 266.79 187.53 283.59 163.56 303.68 142.68 C 307.64 137.37 312.56 132.89 317.33 128.33 C 322.82 124.55 326.69 118.96 332.12 115.12 C 339.08 108.69 346.41 102.66 354.00 97.00 C 374.51 80.41 397.58 67.38 418.36 51.15 M 256.20 256.20 C 256.86 256.85 256.86 256.85 256.20 256.20 M 253.20 258.20 C 253.86 258.85 253.86 258.85 253.20 258.20 Z" />
</g>
</svg>
