<?xml version="1.0" encoding="UTF-8" standalone="no"?>
<svg
   xmlns:dc="http://purl.org/dc/elements/1.1/"
   xmlns:cc="http://creativecommons.org/ns#"
   xmlns:rdf="http://www.w3.org/1999/02/22-rdf-syntax-ns#"
   xmlns:svg="http://www.w3.org/2000/svg"
   xmlns="http://www.w3.org/2000/svg"
   xmlns:sodipodi="http://sodipodi.sourceforge.net/DTD/sodipodi-0.dtd"
   xmlns:inkscape="http://www.inkscape.org/namespaces/inkscape"
   sodipodi:docname="epilogue.svg"
   inkscape:version="1.0 (4035a4fb49, 2020-05-01)"
   id="svg2102"
   version="1.1"
   viewBox="0 0 105.56277 106.10321"
   height="401.02002"
   width="398.97742">
  <defs
     id="defs2096" />
  <sodipodi:namedview
     inkscape:window-maximized="0"
     inkscape:window-y="0"
     inkscape:window-x="-1"
     inkscape:window-height="1308"
     inkscape:window-width="1563"
     units="px"
     fit-margin-bottom="0"
     fit-margin-right="0"
     fit-margin-left="0"
     fit-margin-top="0"
     showgrid="false"
     inkscape:document-rotation="0"
     inkscape:current-layer="layer1"
     inkscape:document-units="mm"
     inkscape:cy="230.70588"
     inkscape:cx="573.69243"
     inkscape:zoom="0.7"
     inkscape:pageshadow="2"
     inkscape:pageopacity="0.0"
     borderopacity="1.0"
     bordercolor="#666666"
     pagecolor="#ffffff"
     id="base" />
  <metadata
     id="metadata2099">
    <rdf:RDF>
      <cc:Work
         rdf:about="">
        <dc:format>image/svg+xml</dc:format>
        <dc:type
           rdf:resource="http://purl.org/dc/dcmitype/StillImage" />
        <dc:title></dc:title>
      </cc:Work>
    </rdf:RDF>
  </metadata>
  <g
     transform="translate(-41.38585,-64.061407)"
     id="layer1"
     inkscape:groupmode="layer"
     inkscape:label="Lager 1">
    <g
       transform="matrix(1.5771909,0,0,1.5771909,-176.77869,-83.645549)"
       id="g1472">
      <path
         inkscape:transform-center-x="1.7399082e-06"
         d="m 200.92049,144.10707 c -0.84076,1.45625 -2.28984,0.60387 -3.27822,1.96425 -0.98837,1.36039 0.27007,2.47514 -0.85509,3.72476 -1.12516,1.24962 -2.36535,0.11459 -3.61497,1.23975 -1.24961,1.12516 -0.25044,2.4772 -1.61082,3.46558 -1.36038,0.98837 -2.33749,-0.3797 -3.79373,0.46106 -1.45625,0.84076 -0.76001,2.371 -2.29616,3.05494 -1.53615,0.68393 -2.20747,-0.8574 -3.80669,-0.33778 -1.59923,0.51962 -1.23636,2.16117 -2.88114,2.51078 -1.64478,0.34961 -1.98097,-1.29761 -3.65328,-1.12185 -1.67231,0.17577 -1.65867,1.8569 -3.3402,1.8569 -1.68152,0 -1.66788,-1.68113 -3.3402,-1.8569 -1.67231,-0.17576 -2.0085,1.47146 -3.65328,1.12185 -1.64478,-0.34961 -1.28191,-1.99116 -2.88113,-2.51078 -1.59923,-0.51962 -2.27055,1.02171 -3.80669,0.33778 -1.53615,-0.68394 -0.83992,-2.21418 -2.29616,-3.05494 -1.45625,-0.84076 -2.43335,0.52731 -3.79373,-0.46106 -1.36039,-0.98838 -0.36121,-2.34042 -1.61083,-3.46558 -1.24961,-1.12516 -2.48981,0.01 -3.61497,-1.23975 -1.12516,-1.24962 0.13329,-2.36437 -0.85509,-3.72476 -0.98837,-1.36038 -2.43745,-0.508 -3.27821,-1.96425 -0.84077,-1.45624 0.62195,-2.28499 -0.062,-3.82114 -0.68393,-1.53615 -2.27857,-1.00368 -2.79819,-2.60291 -0.51962,-1.59922 1.08344,-2.10575 0.73384,-3.75053 -0.34961,-1.64478 -2.0201,-1.45549 -2.19587,-3.1278 -0.17577,-1.67231 1.49757,-1.83448 1.49757,-3.516 0,-1.68153 -1.67334,-1.84369 -1.49757,-3.516 0.17577,-1.67231 1.84626,-1.48303 2.19587,-3.1278 0.3496,-1.64478 -1.25346,-2.15131 -0.73384,-3.75053 0.51962,-1.59923 2.11426,-1.06676 2.79819,-2.60291 0.68394,-1.53615 -0.77878,-2.3649 0.062,-3.82115 0.84076,-1.45624 2.28984,-0.60386 3.27821,-1.96425 0.98838,-1.36038 -0.27007,-2.47514 0.85509,-3.72475 1.12516,-1.24962 2.36536,-0.11459 3.61497,-1.23975 1.24962,-1.12516 0.25044,-2.4772 1.61083,-3.46558 1.36038,-0.988374 2.33749,0.3797 3.79373,-0.46106 1.45624,-0.840763 0.76001,-2.371001 2.29616,-3.054938 1.53614,-0.683938 2.20746,0.857394 3.80669,0.337775 1.59922,-0.51962 1.23636,-2.161174 2.88113,-2.510783 1.64478,-0.349608 1.98097,1.297617 3.65328,1.12185 1.67232,-0.175768 1.65868,-1.856894 3.3402,-1.856894 1.68153,0 1.66789,1.681126 3.3402,1.856894 1.67231,0.175767 2.0085,-1.471458 3.65328,-1.12185 1.64478,0.349609 1.28191,1.991163 2.88114,2.510783 1.59922,0.519619 2.27054,-1.021713 3.80669,-0.337775 1.53615,0.683938 0.83991,2.214176 2.29616,3.054938 1.45624,0.84076 2.43335,-0.527314 3.79373,0.46106 1.36038,0.98838 0.36121,2.34042 1.61082,3.46558 1.24962,1.12516 2.48981,-0.01 3.61497,1.23975 1.12516,1.24961 -0.13328,2.36437 0.85509,3.72475 0.98838,1.36039 2.43746,0.50801 3.27822,1.96425 0.84076,1.45625 -0.62196,2.285 0.062,3.82115 0.68394,1.53615 2.27857,1.00368 2.79819,2.60291 0.51962,1.59922 -1.08344,2.10575 -0.73383,3.75053 0.34961,1.64478 2.0201,1.45549 2.19586,3.1278 0.17577,1.67231 -1.49757,1.83447 -1.49757,3.516 0,1.68152 1.67334,1.84369 1.49757,3.516 -0.17576,1.67231 -1.84625,1.48302 -2.19586,3.1278 -0.34961,1.64478 1.25345,2.15131 0.73383,3.75053 -0.51962,1.59923 -2.11425,1.06676 -2.79819,2.60291 -0.68394,1.53615 0.77878,2.3649 -0.062,3.82114 z"
         inkscape:randomized="0"
         inkscape:rounded="0.44"
         inkscape:flatsided="false"
         sodipodi:arg2="0.62831854"
         sodipodi:arg1="0.52359878"
         sodipodi:r2="31.954927"
         sodipodi:r1="33.636768"
         sodipodi:cy="127.28869"
         sodipodi:cx="171.79019"
         sodipodi:sides="30"
         id="path4732"
         style="opacity:1;fill:#c59117;fill-opacity:1;fill-rule:evenodd;stroke:none;stroke-width:0.0669309;stroke-linecap:butt;stroke-linejoin:round;stroke-miterlimit:4;stroke-dasharray:none;stroke-dashoffset:0;stroke-opacity:1;paint-order:normal"
         sodipodi:type="star" />
      <circle
         r="30.002392"
         cy="127.28869"
         cx="171.79019"
         id="path4699"
         style="opacity:0.99;fill:#ffffac;fill-opacity:1;fill-rule:evenodd;stroke:none;stroke-width:1.36342;stroke-linecap:butt;stroke-linejoin:round;stroke-miterlimit:4;stroke-dasharray:none;stroke-dashoffset:0;stroke-opacity:1" />
      <ellipse
         ry="27.454708"
         rx="27.454704"
         cy="127.28869"
         cx="171.79019"
         id="path4701"
         style="opacity:1;fill:none;fill-opacity:1;fill-rule:evenodd;stroke:#8a5300;stroke-width:1.53524;stroke-linecap:butt;stroke-linejoin:round;stroke-miterlimit:4;stroke-dasharray:none;stroke-dashoffset:0;stroke-opacity:1" />
      <ellipse
         style="opacity:1;fill:none;fill-opacity:1;fill-rule:evenodd;stroke:#c6941b;stroke-width:0.503439;stroke-linecap:butt;stroke-linejoin:round;stroke-miterlimit:4;stroke-dasharray:none;stroke-dashoffset:0;stroke-opacity:1"
         id="ellipse4722"
         cx="171.79019"
         cy="127.28869"
         rx="25.936623"
         ry="25.936626" />
      <g
         id="g4856"
         style="fill:#a26b00;fill-opacity:1">
        <path
           sodipodi:type="star"
           style="opacity:1;fill:#a26b00;fill-opacity:1;fill-rule:evenodd;stroke:none;stroke-width:1.2985;stroke-linecap:butt;stroke-linejoin:round;stroke-miterlimit:4;stroke-dasharray:none;stroke-dashoffset:0;stroke-opacity:1"
           id="path4730"
           sodipodi:sides="5"
           sodipodi:cx="171.79019"
           sodipodi:cy="105.54191"
           sodipodi:r1="2.953217"
           sodipodi:r2="1.1517546"
           sodipodi:arg1="-1.5707963"
           sodipodi:arg2="-0.9424778"
           inkscape:flatsided="false"
           inkscape:rounded="0"
           inkscape:randomized="0"
           d="m 171.79019,102.58869 0.67699,2.02143 2.13169,0.0192 -1.71329,1.26851 0.64047,2.03329 -1.73586,-1.23745 -1.73586,1.23745 0.64048,-2.03329 -1.71329,-1.26851 2.13169,-0.0192 z"
           inkscape:transform-center-x="1.2702269e-06"
           inkscape:transform-center-y="-0.28200814" />
        <path
           inkscape:transform-center-y="-0.25970103"
           inkscape:transform-center-x="1.2721611e-06"
           d="m 178.12129,104.11664 0.62344,1.86153 1.96307,0.0177 -1.57777,1.16817 0.58981,1.87245 -1.59855,-1.13956 -1.59855,1.13956 0.58981,-1.87245 -1.57777,-1.16817 1.96308,-0.0177 z"
           inkscape:randomized="0"
           inkscape:rounded="0"
           inkscape:flatsided="false"
           sodipodi:arg2="-0.9424778"
           sodipodi:arg1="-1.5707963"
           sodipodi:r2="1.0606498"
           sodipodi:r1="2.7196147"
           sodipodi:cy="106.83625"
           sodipodi:cx="178.12129"
           sodipodi:sides="5"
           id="path4738"
           style="opacity:1;fill:#a26b00;fill-opacity:1;fill-rule:evenodd;stroke:none;stroke-width:1.19579;stroke-linecap:butt;stroke-linejoin:round;stroke-miterlimit:4;stroke-dasharray:none;stroke-dashoffset:0;stroke-opacity:1"
           sodipodi:type="star" />
        <path
           sodipodi:type="star"
           style="opacity:1;fill:#a26b00;fill-opacity:1;fill-rule:evenodd;stroke:none;stroke-width:1.19579;stroke-linecap:butt;stroke-linejoin:round;stroke-miterlimit:4;stroke-dasharray:none;stroke-dashoffset:0;stroke-opacity:1"
           id="path4742"
           sodipodi:sides="5"
           sodipodi:cx="165.45909"
           sodipodi:cy="106.83625"
           sodipodi:r1="2.7196147"
           sodipodi:r2="1.0606498"
           sodipodi:arg1="-1.5707963"
           sodipodi:arg2="-0.9424778"
           inkscape:flatsided="false"
           inkscape:rounded="0"
           inkscape:randomized="0"
           d="m 165.45909,104.11664 0.62344,1.86153 1.96307,0.0177 -1.57777,1.16817 0.58981,1.87245 -1.59855,-1.13956 -1.59855,1.13956 0.58981,-1.87245 -1.57777,-1.16817 1.96308,-0.0177 z"
           inkscape:transform-center-x="1.2721611e-06"
           inkscape:transform-center-y="-0.25970103" />
        <path
           inkscape:transform-center-y="-0.28200814"
           inkscape:transform-center-x="1.2702269e-06"
           d="m 171.79019,145.67798 0.67699,2.02143 2.13169,0.0192 -1.71329,1.26851 0.64047,2.03329 -1.73586,-1.23745 -1.73586,1.23745 0.64048,-2.03329 -1.71329,-1.26851 2.13169,-0.0192 z"
           inkscape:randomized="0"
           inkscape:rounded="0"
           inkscape:flatsided="false"
           sodipodi:arg2="-0.9424778"
           sodipodi:arg1="-1.5707963"
           sodipodi:r2="1.1517546"
           sodipodi:r1="2.953217"
           sodipodi:cy="148.6312"
           sodipodi:cx="171.79019"
           sodipodi:sides="5"
           id="path4740"
           style="opacity:1;fill:#a26b00;fill-opacity:1;fill-rule:evenodd;stroke:none;stroke-width:1.2985;stroke-linecap:butt;stroke-linejoin:round;stroke-miterlimit:4;stroke-dasharray:none;stroke-dashoffset:0;stroke-opacity:1"
           sodipodi:type="star" />
        <path
           sodipodi:type="star"
           style="opacity:1;fill:#a26b00;fill-opacity:1;fill-rule:evenodd;stroke:none;stroke-width:1.19579;stroke-linecap:butt;stroke-linejoin:round;stroke-miterlimit:4;stroke-dasharray:none;stroke-dashoffset:0;stroke-opacity:1"
           id="path4744"
           sodipodi:sides="5"
           sodipodi:cx="178.12129"
           sodipodi:cy="147.71455"
           sodipodi:r1="2.7196147"
           sodipodi:r2="1.0606498"
           sodipodi:arg1="-1.5707963"
           sodipodi:arg2="-0.9424778"
           inkscape:flatsided="false"
           inkscape:rounded="0"
           inkscape:randomized="0"
           d="m 178.12129,144.99494 0.62344,1.86153 1.96307,0.0177 -1.57777,1.16816 0.58981,1.87246 -1.59855,-1.13957 -1.59855,1.13957 0.58981,-1.87246 -1.57777,-1.16816 1.96308,-0.0177 z"
           inkscape:transform-center-x="1.2721611e-06"
           inkscape:transform-center-y="-0.25970103" />
        <path
           inkscape:transform-center-y="-0.25970103"
           inkscape:transform-center-x="1.2721611e-06"
           d="m 165.45909,144.99494 0.62344,1.86153 1.96307,0.0177 -1.57777,1.16816 0.58981,1.87246 -1.59855,-1.13957 -1.59855,1.13957 0.58981,-1.87246 -1.57777,-1.16816 1.96308,-0.0177 z"
           inkscape:randomized="0"
           inkscape:rounded="0"
           inkscape:flatsided="false"
           sodipodi:arg2="-0.9424778"
           sodipodi:arg1="-1.5707963"
           sodipodi:r2="1.0606498"
           sodipodi:r1="2.7196147"
           sodipodi:cy="147.71455"
           sodipodi:cx="165.45909"
           sodipodi:sides="5"
           id="path4746"
           style="opacity:1;fill:#a26b00;fill-opacity:1;fill-rule:evenodd;stroke:none;stroke-width:1.19579;stroke-linecap:butt;stroke-linejoin:round;stroke-miterlimit:4;stroke-dasharray:none;stroke-dashoffset:0;stroke-opacity:1"
           sodipodi:type="star" />
      </g>
      <g
         id="text4726"
         style="font-style:normal;font-variant:normal;font-weight:normal;font-stretch:normal;font-size:7.58026px;line-height:125%;font-family:'Hyde BRK';-inkscape-font-specification:'Hyde BRK';font-variant-ligatures:normal;font-variant-caps:normal;font-variant-numeric:normal;font-feature-settings:normal;text-align:center;letter-spacing:0px;word-spacing:0px;writing-mode:lr-tb;text-anchor:middle;fill:#442400;fill-opacity:1;stroke:#442400;stroke-width:0.165754;stroke-linecap:round;stroke-linejoin:round;stroke-miterlimit:4;stroke-dasharray:none;stroke-opacity:1"
         transform="matrix(1.1057657,0,0,0.90435074,-0.00165761,0)"
         aria-label="SPNatI">
        <path
           inkscape:connector-curvature="0"
           id="path2317"
           style="font-style:normal;font-variant:normal;font-weight:600;font-stretch:normal;font-size:7.58026px;font-family:'URW Bookman';-inkscape-font-specification:'URW Bookman Semi-Bold';font-variant-ligatures:normal;font-variant-caps:normal;font-variant-numeric:normal;font-feature-settings:normal;text-align:center;writing-mode:lr-tb;text-anchor:middle;fill:#442400;fill-opacity:1;stroke:#442400;stroke-width:0.165754;stroke-linecap:round;stroke-linejoin:round;stroke-miterlimit:4;stroke-dasharray:none;stroke-opacity:1"
           d="m 145.67251,125.54997 c -0.30321,-0.21225 -0.77318,-0.34111 -1.22042,-0.34111 -1.12946,0 -1.94813,0.6898 -1.94813,1.65249 0,0.47756 0.21225,0.89447 0.5761,1.12946 0.26531,0.16677 0.41692,0.21983 1.31139,0.43966 l 0.75045,0.1895 c 0.56852,0.14403 0.7277,0.25773 0.7277,0.5382 0,0.39418 -0.39417,0.67465 -0.95511,0.67465 -0.53062,0 -1.06124,-0.23499 -1.44025,-0.62917 -0.20467,-0.2274 -0.34869,-0.41691 -0.54578,-0.77318 l -0.56852,0.1895 0.62916,1.93297 h 0.44724 l 0.10612,-0.37143 c 0.31837,0.23499 0.84141,0.38659 1.35687,0.38659 1.23558,0 2.14521,-0.77318 2.14521,-1.81926 0,-0.46998 -0.20466,-0.88689 -0.55336,-1.1143 -0.2274,-0.1516 -0.43207,-0.22741 -1.08397,-0.40175 l -0.68981,-0.18193 c -0.0152,-0.008 -0.15918,-0.0379 -0.37143,-0.0834 -0.14403,-0.0303 -0.28047,-0.0758 -0.39418,-0.12887 -0.18192,-0.0758 -0.27288,-0.20466 -0.27288,-0.36385 0,-0.31079 0.34869,-0.53062 0.83382,-0.53062 0.43208,0 0.90206,0.20467 1.19011,0.51546 0.12886,0.13644 0.2274,0.25773 0.46997,0.59126 l 0.54578,-0.20467 -0.5003,-1.53879 h -0.45481 z" />
        <path
           inkscape:connector-curvature="0"
           id="path2319"
           style="font-style:normal;font-variant:normal;font-weight:600;font-stretch:normal;font-size:7.58026px;font-family:'URW Bookman';-inkscape-font-specification:'URW Bookman Semi-Bold';font-variant-ligatures:normal;font-variant-caps:normal;font-variant-numeric:normal;font-feature-settings:normal;text-align:center;writing-mode:lr-tb;text-anchor:middle;fill:#442400;fill-opacity:1;stroke:#442400;stroke-width:0.165754;stroke-linecap:round;stroke-linejoin:round;stroke-miterlimit:4;stroke-dasharray:none;stroke-opacity:1"
           d="m 149.34894,128.37741 h 0.72013 c 1.38718,0 2.12247,-0.53062 2.12247,-1.53122 0,-0.50029 -0.21225,-0.94753 -0.59126,-1.21284 -0.33353,-0.24257 -0.72771,-0.32595 -1.52363,-0.32595 h -2.72132 v 0.62158 l 0.15161,0.0152 c 0.43965,0.0606 0.52304,0.15919 0.51546,0.63674 v 2.61519 c 0.008,0.47756 -0.0758,0.5761 -0.51546,0.63675 l -0.15161,0.0152 v 0.62158 h 2.66067 v -0.62158 l -0.1516,-0.0152 c -0.43966,-0.0607 -0.52304,-0.15919 -0.51546,-0.63675 z m 0,-1.81927 c 0,-0.27289 0.008,-0.35627 0.0531,-0.41691 0.0531,-0.0834 0.22741,-0.13645 0.4624,-0.13645 0.52304,0 0.87173,0.33354 0.87173,0.81867 0,0.56852 -0.40933,0.87931 -1.13704,0.87931 -0.0758,0 -0.12886,0 -0.25015,-0.0152 z" />
        <path
           inkscape:connector-curvature="0"
           id="path2321"
           style="font-style:normal;font-variant:normal;font-weight:600;font-stretch:normal;font-size:7.58026px;font-family:'URW Bookman';-inkscape-font-specification:'URW Bookman Semi-Bold';font-variant-ligatures:normal;font-variant-caps:normal;font-variant-numeric:normal;font-feature-settings:normal;text-align:center;writing-mode:lr-tb;text-anchor:middle;fill:#442400;fill-opacity:1;stroke:#442400;stroke-width:0.165754;stroke-linecap:round;stroke-linejoin:round;stroke-miterlimit:4;stroke-dasharray:none;stroke-opacity:1"
           d="m 154.6248,125.3074 h -2.23618 v 0.62158 l 0.15161,0.0152 c 0.43965,0.0606 0.52304,0.15919 0.51546,0.63674 v 2.61519 c 0.008,0.47756 -0.0758,0.5761 -0.51546,0.63675 l -0.15161,0.0152 v 0.62158 h 2.03909 v -0.62158 l -0.1516,-0.0152 c -0.43966,-0.0607 -0.52304,-0.15919 -0.51546,-0.63675 v -2.71373 l 2.35746,3.98722 h 0.93996 v -3.88868 c -0.008,-0.47755 0.0758,-0.5761 0.51545,-0.63674 l 0.15161,-0.0152 v -0.62158 h -2.03909 v 0.62158 l 0.1516,0.0152 c 0.43966,0.0606 0.52304,0.15919 0.51546,0.63674 v 1.70556 z" />
        <path
           inkscape:connector-curvature="0"
           id="path2323"
           style="font-style:normal;font-variant:normal;font-weight:600;font-stretch:normal;font-size:7.58026px;font-family:'URW Bookman';-inkscape-font-specification:'URW Bookman Semi-Bold';font-variant-ligatures:normal;font-variant-caps:normal;font-variant-numeric:normal;font-feature-settings:normal;text-align:center;writing-mode:lr-tb;text-anchor:middle;fill:#442400;fill-opacity:1;stroke:#442400;stroke-width:0.165754;stroke-linecap:round;stroke-linejoin:round;stroke-miterlimit:4;stroke-dasharray:none;stroke-opacity:1"
           d="m 161.78814,129.63573 c -0.13645,0.12886 -0.13645,0.12886 -0.18951,0.12886 -0.0531,0 -0.1137,-0.0379 -0.12886,-0.0834 -0.0227,-0.0531 -0.0227,-0.0531 -0.0303,-0.34111 v -1.49331 c 0,-0.40176 -0.0834,-0.64432 -0.28805,-0.84141 -0.26531,-0.25773 -0.76561,-0.40934 -1.36445,-0.40934 -0.97785,0 -1.68282,0.43966 -1.68282,1.04608 0,0.32595 0.24257,0.56852 0.56094,0.56852 0.37143,0 0.59126,-0.21983 0.58368,-0.58368 0,-0.10612 0.0152,-0.15919 0.0682,-0.19709 0.091,-0.0834 0.25773,-0.13644 0.41692,-0.13644 0.32595,0 0.47755,0.12886 0.47755,0.40933 v 0.3866 c -0.41691,0.0379 -0.78076,0.10612 -1.10671,0.20466 -0.75803,0.22741 -1.13704,0.62917 -1.13704,1.20527 0,0.62158 0.48513,1.03849 1.20526,1.03849 0.43207,0 0.81867,-0.12886 1.20526,-0.38659 0.18193,0.23499 0.51546,0.38659 0.87173,0.38659 0.34111,0 0.62158,-0.1137 0.96269,-0.38659 z m -1.5767,-0.18193 c -0.19708,0.18193 -0.38659,0.26531 -0.59884,0.26531 -0.21224,0 -0.35627,-0.1516 -0.35627,-0.37901 0,-0.32595 0.30321,-0.52304 0.95511,-0.64432 z" />
        <path
           inkscape:connector-curvature="0"
           id="path2325"
           style="font-style:normal;font-variant:normal;font-weight:600;font-stretch:normal;font-size:7.58026px;font-family:'URW Bookman';-inkscape-font-specification:'URW Bookman Semi-Bold';font-variant-ligatures:normal;font-variant-caps:normal;font-variant-numeric:normal;font-feature-settings:normal;text-align:center;writing-mode:lr-tb;text-anchor:middle;fill:#442400;fill-opacity:1;stroke:#442400;stroke-width:0.165754;stroke-linecap:round;stroke-linejoin:round;stroke-miterlimit:4;stroke-dasharray:none;stroke-opacity:1"
           d="m 165.00975,127.30859 v -0.64432 h -1.0385 V 125.459 h -0.71254 c -0.0758,0.78077 -0.43208,1.19769 -1.09156,1.28865 v 0.59884 h 0.5761 v 1.91781 c 0,0.46239 0.0303,0.64432 0.12128,0.82625 0.16677,0.30321 0.4624,0.44723 0.90963,0.44723 0.68223,0 1.15979,-0.22741 1.59944,-0.75803 l -0.45482,-0.53819 c -0.34111,0.32595 -0.47755,0.41691 -0.67464,0.41691 -0.20467,0 -0.27289,-0.12128 -0.27289,-0.51546 v -1.83442 z" />
        <path
           inkscape:connector-curvature="0"
           id="path2327"
           style="font-style:normal;font-variant:normal;font-weight:600;font-stretch:normal;font-size:7.58026px;font-family:'URW Bookman';-inkscape-font-specification:'URW Bookman Semi-Bold';font-variant-ligatures:normal;font-variant-caps:normal;font-variant-numeric:normal;font-feature-settings:normal;text-align:center;writing-mode:lr-tb;text-anchor:middle;fill:#442400;fill-opacity:1;stroke:#442400;stroke-width:0.165754;stroke-linecap:round;stroke-linejoin:round;stroke-miterlimit:4;stroke-dasharray:none;stroke-opacity:1"
           d="m 168.36022,130.46956 v -0.62158 l -0.18193,-0.0152 c -0.43965,-0.0607 -0.52304,-0.15919 -0.51546,-0.63675 v -2.61519 c -0.008,-0.47755 0.0758,-0.5761 0.51546,-0.63674 l 0.18193,-0.0152 v -0.62158 h -2.72132 v 0.62158 l 0.18193,0.0152 c 0.43965,0.0606 0.52304,0.15919 0.51546,0.63674 v 2.61519 c 0.008,0.47756 -0.0758,0.5761 -0.51546,0.63675 l -0.18193,0.0152 v 0.62158 z" />
      </g>
      <text
         transform="scale(0.92666054,1.0791438)"
         xml:space="preserve"
         style="font-style:normal;font-variant:normal;font-weight:bold;font-stretch:normal;font-size:9.71029px;line-height:125%;font-family:AustralianFlyingCorpsStencil;-inkscape-font-specification:'AustralianFlyingCorpsStencil Bold';font-variant-ligatures:normal;font-variant-caps:normal;font-variant-numeric:normal;font-feature-settings:normal;text-align:center;letter-spacing:0.182068px;word-spacing:0px;writing-mode:lr-tb;text-anchor:middle;fill:#361c00;fill-opacity:1;stroke:none;stroke-width:0.306952;stroke-linecap:butt;stroke-linejoin:miter;stroke-miterlimit:4;stroke-dasharray:none;stroke-opacity:1;paint-order:stroke markers fill"
         x="185.39117"
         y="120.79852"
         id="text965"><tspan
           dx="0"
           sodipodi:role="line"
           id="tspan963"
           x="185.48221"
           y="120.79852"
           style="font-style:normal;font-variant:normal;font-weight:normal;font-stretch:normal;font-family:AustralianFlyingCorpsStencil;-inkscape-font-specification:AustralianFlyingCorpsStencil;fill:#361c00;fill-opacity:1;stroke:none;stroke-width:0.306952;stroke-miterlimit:4;stroke-dasharray:none;stroke-opacity:1">EPILOGUE</tspan></text>
      <text
         xml:space="preserve"
         style="font-style:normal;font-variant:normal;font-weight:bold;font-stretch:normal;font-size:8.67731px;line-height:125%;font-family:'Dancing Script';-inkscape-font-specification:'Dancing Script Bold';font-variant-ligatures:normal;font-variant-caps:normal;font-variant-numeric:normal;font-variant-east-asian:normal;text-align:center;letter-spacing:0px;word-spacing:0px;text-anchor:middle;fill:#361c00;fill-opacity:1;stroke:none;stroke-width:0.210735;stroke-linecap:butt;stroke-linejoin:round;stroke-miterlimit:4;stroke-dasharray:none;stroke-opacity:1;paint-order:markers stroke fill"
         x="171.67909"
         y="141.70555"
         id="text1640"><tspan
           sodipodi:role="line"
           id="tspan1638"
           x="171.67909"
           y="141.70555"
           style="font-style:normal;font-variant:normal;font-weight:bold;font-stretch:normal;font-size:8.67731px;font-family:'Dancing Script';-inkscape-font-specification:'Dancing Script Bold';font-variant-ligatures:normal;font-variant-caps:normal;font-variant-numeric:normal;font-variant-east-asian:normal;fill:#361c00;fill-opacity:1;stroke:none;stroke-width:0.210735;stroke-linejoin:round;stroke-miterlimit:4;stroke-dasharray:none;stroke-opacity:1;paint-order:markers stroke fill"
           dx="0 0 0 0 0 0 0 0 0">available</tspan></text>
    </g>
  </g>
</svg>
