<?xml version="1.0" encoding="UTF-8"?>
<svg width="400" height="400" version="1.1" viewBox="0 0 400 400" xmlns="http://www.w3.org/2000/svg">
  <g fill="none">
    <g stroke-width="24.051">
      <g stroke="#7ba1e4">
        <path d="m72.718 145.64c0-33.207 26.92-60.128 60.128-60.128 33.207 0 60.128 26.92 60.128 60.128"/>
        <path d="m174.01 104.39 62.13-62.13" stroke-linejoin="bevel"/>
        <path d="m198.08 42.526h37.88v37.881" stroke-linecap="square"/>
      </g>
      <g stroke="#ef8398">
        <path d="m192.97 145.64c0 33.207-26.92 60.127-60.127 60.127-33.207 0-60.127-26.92-60.127-60.127"/>
        <path d="m92.619 190.33-58.679 65.226" stroke-linejoin="bevel"/>
        <path d="m34.192 209.1 45.944 41.284" stroke-linejoin="bevel"/>
      </g>
    </g>
    <g stroke="#7ba1e4" stroke-width="25">
      <circle cx="207" cy="313.69" r="62.5"/>
      <path d="m249.79 270.8 64.581-64.581" stroke-linejoin="bevel"/>
      <path d="m274.81 206.5h39.375v39.375" stroke-linecap="square"/>
    </g>
    <g stroke="#ef8398" stroke-width="25">
      <circle cx="306.6" cy="106.2" r="62.5"/>
      <path d="m264.79 152.65-60.994 67.8" stroke-linejoin="bevel"/>
      <path d="m204.05 172.16 47.758 42.913" stroke-linejoin="bevel"/>
    </g>
  </g>
</svg>
