<?xml version="1.0" encoding="UTF-8"?>
<svg width="491.94" height="442.51" version="1.1" viewBox="0 0 130.159 117.081" xmlns="http://www.w3.org/2000/svg" xmlns:xlink="http://www.w3.org/1999/xlink">
  <defs>
    <linearGradient id="a" x1="89.6256" x2="115.322" y1="159.088" y2="159.24" gradientTransform="matrix(1.07807 0 0 1.0427 -13.2724 -67.6625)" gradientUnits="userSpaceOnUse" spreadMethod="reflect">
      <stop stop-color="#9e9e9e" offset="0"/>
      <stop stop-color="#dedede" offset=".145634"/>
      <stop stop-color="#a7a7a7" offset="1"/>
    </linearGradient>
  </defs>
  <g>
    <g>
      <path d="m107.615 84.8691c-1.32605 2.29677-3.61152 0.952417-5.17038 3.098-1.55885 2.14558 0.42596 3.90377-1.34864 5.87465-1.77459 1.97088-3.73061 0.180728-5.7015 1.95532-1.97088 1.77459-0.394994 3.90702-2.54058 5.46588-2.14558 1.55886-3.68667-0.59886-5.98344 0.72719-2.29677 1.32604-1.19868 3.73952-3.62148 4.81822-2.4228 1.0787-3.4816-1.35228-6.00388-0.53274s-1.94997 3.40858-4.5441 3.95998-3.12436-2.04659-5.76192-1.76937-2.61605 2.92868-5.26813 2.92868c-2.65209 0-2.63058-2.65146-5.26813-2.92868-2.63756-0.27722-3.16778 2.32077-5.76192 1.76937s-2.02182-3.14044-4.5441-3.95998-3.58108 1.61144-6.00388 0.53274c-2.4228-1.0787-1.3247-3.49218-3.62148-4.81822-2.29677-1.32605-3.83786 0.83167-5.98344-0.72719-2.14558-1.55885-0.569693-3.69128-2.54058-5.46588-1.97088-1.77459-3.92691 0.01556-5.7015-1.95532-1.77459-1.97088 0.210218-3.72907-1.34864-5.87465-1.55886-2.14558-3.84433-0.801225-5.17037-3.098-1.32604-2.29677 0.980941-3.60387-0.09776-6.02668-1.0787-2.4228-3.59374-1.583-4.41328-4.10528-0.819539-2.52228 1.70879-3.32117 1.15739-5.9153-0.551399-2.59413-3.18608-2.29558-3.4633-4.93314-0.277218-2.63756 2.36196-2.89332 2.36196-5.5454 0-2.65209-2.63918-2.90785-2.36196-5.5454 0.277218-2.63756 2.9119-2.33901 3.4633-4.93314 0.551399-2.59413-1.97693-3.39302-1.15739-5.9153 0.81954-2.52228 3.33458-1.68248 4.41328-4.10528 1.0787-2.4228-1.22828-3.7299 0.09776-6.02667 1.32604-2.29677 3.61152-0.952416 5.17037-3.098 1.55886-2.14558-0.425953-3.90377 1.34864-5.87465 1.77459-1.97088 3.73062-0.180727 5.7015-1.95532 1.97088-1.77459 0.394994-3.90702 2.54058-5.46588 2.14558-1.55886 3.68667 0.59886 5.98344-0.727183 2.29677-1.32604 1.19868-3.73952 3.62148-4.81822 2.4228-1.0787 3.48159 1.35227 6.00388 0.532736 2.52228-0.81954 1.94997-3.40858 4.5441-3.95998 2.59413-0.5514 3.12436 2.04659 5.76192 1.76937s2.61605-2.92868 5.26813-2.92868c2.65209 1e-7 2.63058 2.65146 5.26813 2.92868 2.63756 0.277218 3.16778-2.32077 5.76192-1.76937 2.59413 0.5514 2.02182 3.14044 4.54411 3.95998 2.52228 0.819539 3.58108-1.61144 6.00388-0.532736 2.4228 1.0787 1.32471 3.49218 3.62148 4.81822 2.29677 1.32604 3.83786-0.831675 5.98344 0.727182 2.14558 1.55886 0.569693 3.69129 2.54058 5.46588 1.97088 1.77459 3.92691-0.01556 5.70149 1.95532 1.7746 1.97088-0.21021 3.72907 1.34864 5.87465 1.55886 2.14558 3.84433 0.801226 5.17038 3.098 1.32604 2.29677-0.98095 3.60387 0.0978 6.02667 1.0787 2.4228 3.59373 1.583 4.41327 4.10528s-1.70879 3.32117-1.15739 5.9153 3.18608 2.29559 3.4633 4.93314-2.36196 2.89332-2.36196 5.5454c0 2.65208 2.63918 2.90784 2.36196 5.5454s-2.9119 2.33901-3.4633 4.93314 1.97693 3.39302 1.15739 5.9153-3.33457 1.68248-4.41328 4.10528c-1.0787 2.4228 1.22829 3.7299-0.0977 6.02667z" fill="#c59117" fill-rule="evenodd" style="paint-order:normal"/>
      <circle cx="61.6714" cy="58.3433" r="47.3195" fill="#ffffac" fill-rule="evenodd" opacity=".99"/>
      <ellipse cx="61.6714" cy="58.3433" rx="43.3013" ry="43.3013" fill="none" stroke="#8a5300" stroke-linejoin="round" stroke-width="2.42137"/>
      <ellipse cx="61.6714" cy="58.3433" rx="40.907" ry="40.907" fill="none" stroke="#c6941b" stroke-linejoin="round" stroke-width=".794019"/>
      <g fill="#a26b00" fill-rule="evenodd">
        <path d="m61.6714 19.3867 1.06773 3.18818 3.36208 0.03027-2.70219 2.00068 1.01015 3.20689-2.73778-1.95169-2.73778 1.95169 1.01015-3.20689-2.70219-2.00068 3.36208-0.03027z"/>
        <path d="m71.6568 21.7965 0.983274 2.93599 3.09614 0.02788-2.48844 1.84242 0.930245 2.95322-2.52122-1.79731-2.52122 1.79731 0.930245-2.95322-2.48844-1.84242 3.09614-0.02788z"/>
        <path d="m51.686 21.7965 0.983275 2.93599 3.09614 0.02788-2.48844 1.84242 0.930245 2.95322-2.52122-1.79731-2.52122 1.79731 0.930246-2.95322-2.48844-1.84242 3.09614-0.02788z"/>
        <path d="m61.6714 87.3467 1.06773 3.18818 3.36208 0.03027-2.70219 2.00068 1.01015 3.20689-2.73778-1.95169-2.73778 1.95169 1.01015-3.20689-2.70219-2.00068 3.36208-0.03027z"/>
        <path d="m71.6568 86.2694 0.983274 2.93599 3.09614 0.02788-2.48844 1.84242 0.930245 2.95322-2.52122-1.79731-2.52122 1.79731 0.930245-2.95322-2.48844-1.84242 3.09614-0.02788z"/>
        <path d="m51.686 86.2694 0.983275 2.93599 3.09614 0.02788-2.48844 1.84242 0.930245 2.95322-2.52122-1.79731-2.52122 1.79731 0.930246-2.95322-2.48844-1.84242 3.09614-0.02788z"/>
      </g>
      <g fill="#442400" stroke="#442400" stroke-linecap="round" stroke-linejoin="round" stroke-width=".261426">
        <path d="m44.7762 36.6609c-0.528799-0.30274-1.34843-0.48654-2.12842-0.48654-1.96978 0-3.39755 0.98389-3.39755 2.357 0 0.68116 0.370165 1.27582 1.00472 1.61099 0.462701 0.23787 0.72711 0.31355 2.28707 0.6271l1.30879 0.27029c0.991501 0.20544 1.26911 0.36761 1.26911 0.76765 0 0.56224-0.687434 0.96228-1.66572 0.96228-0.925403 0-1.85081-0.33517-2.5118-0.89741-0.356945-0.32434-0.608117-0.59465-0.951842-1.10281l-0.991501 0.27029 1.09726 2.75706h0.779988l0.185074-0.52978c0.555238 0.33517 1.46742 0.55141 2.36639 0.55141 2.15486 0 3.74125-1.10282 3.74125-2.59488 0-0.67035-0.356928-1.265-0.965062-1.58936-0.396586-0.21623-0.753531-0.32436-1.89045-0.57303l-1.20303-0.25949c-0.02651-0.0114-0.277611-0.0541-0.647776-0.11896-0.251189-0.0432-0.48914-0.10812-0.687451-0.18381-0.317269-0.10812-0.475904-0.29191-0.475904-0.51897 0-0.44329 0.608117-0.75684 1.45418-0.75684 0.753549 0 1.5732 0.29192 2.07556 0.73521 0.224733 0.19461 0.396587 0.36761 0.81963 0.84334l0.951842-0.29193-0.872525-2.19483h-0.79319z" style="font-feature-settings:normal;font-variant-caps:normal;font-variant-ligatures:normal;font-variant-numeric:normal"/>
        <path d="m51.1879 40.6938h1.25591c2.41925 0 3.7016-0.75684 3.7016-2.18403 0-0.71358-0.370165-1.35149-1.03116-1.72992-0.581677-0.34598-1.26913-0.46491-2.65722-0.46491h-4.74599v0.88658l0.264408 0.0217c0.766752 0.0864 0.912184 0.22706 0.898964 0.90821v3.73013c0.01395 0.68116-0.132195 0.82171-0.898964 0.90822l-0.264408 0.0217v0.88658h4.64022v-0.88658l-0.264391-0.0217c-0.766769-0.0866-0.912184-0.22706-0.898964-0.90822zm0-2.59489c0-0.38923 0.01395-0.50816 0.09261-0.59465 0.09261-0.11896 0.396603-0.19462 0.806427-0.19462 0.912184 0 1.5203 0.47574 1.5203 1.16769 0 0.8109-0.713873 1.25419-1.983 1.25419-0.132195 0-0.224732 0-0.436262-0.0217z" style="font-feature-settings:normal;font-variant-caps:normal;font-variant-ligatures:normal;font-variant-numeric:normal"/>
        <path d="m60.3891 36.3149h-3.89991v0.88658l0.264408 0.0217c0.766751 0.0864 0.912184 0.22706 0.898964 0.90821v3.73013c0.01395 0.68116-0.132195 0.82171-0.898964 0.90822l-0.264408 0.0217v0.88658h3.55618v-0.88658l-0.264391-0.0217c-0.766768-0.0866-0.912183-0.22706-0.898964-0.90822v-3.87069l4.11142 5.68711h1.63929v-5.54655c-0.01395-0.68115 0.132196-0.82172 0.898947-0.90821l0.264409-0.0217v-0.88658h-3.55618v0.88658l0.264391 0.0217c0.766769 0.0864 0.912184 0.22706 0.898964 0.90821v2.43269z" style="font-feature-settings:normal;font-variant-caps:normal;font-variant-ligatures:normal;font-variant-numeric:normal"/>
        <path d="m72.882 42.4885c-0.23797 0.1838-0.23797 0.1838-0.330507 0.1838-0.09261 0-0.198293-0.0541-0.224732-0.11895-0.03959-0.0757-0.03959-0.0757-0.05284-0.48654v-2.12996c0-0.57304-0.14545-0.91902-0.50236-1.20013-0.462702-0.36761-1.33523-0.58386-2.37961-0.58386-1.70537 0-2.93484 0.62711-2.93484 1.49206 0 0.46492 0.423043 0.8109 0.978281 0.8109 0.647775 0 1.03116-0.31355 1.01794-0.83252 0-0.15136 0.02651-0.22706 0.118941-0.28112 0.158705-0.11895 0.449482-0.19461 0.72711-0.19461 0.568458 0 0.832849 0.1838 0.832849 0.58385v0.55142c-0.727092 0.0541-1.36165 0.15136-1.93011 0.29191-1.32201 0.32436-1.983 0.89741-1.983 1.71912 0 0.88658 0.846069 1.48123 2.10198 1.48123 0.753531 0 1.42776-0.1838 2.10198-0.55141 0.317286 0.33518 0.898964 0.55141 1.5203 0.55141 0.594897 0 1.08404-0.16217 1.67894-0.55141zm-2.74977-0.25949c-0.343708 0.25949-0.674214 0.37842-1.04438 0.37842-0.370147 0-0.621336-0.21623-0.621336-0.54059 0-0.46492 0.528799-0.74603 1.66572-0.91902z" style="font-feature-settings:normal;font-variant-caps:normal;font-variant-ligatures:normal;font-variant-numeric:normal"/>
        <path d="m78.5005 39.1693v-0.91902h-1.81115v-1.71912h-1.24267c-0.132196 1.11364-0.753549 1.70831-1.90368 1.83805v0.85414h1.00472v2.73544c0 0.65952 0.05284 0.91902 0.211513 1.17851 0.290847 0.43248 0.806427 0.6379 1.5864 0.6379 1.18981 0 2.02268-0.32436 2.78943-1.08121l-0.793208-0.76763c-0.594897 0.46491-0.832849 0.59465-1.17658 0.59465-0.356945 0-0.475921-0.17299-0.475921-0.73522v-2.61649z" style="font-feature-settings:normal;font-variant-caps:normal;font-variant-ligatures:normal;font-variant-numeric:normal"/>
        <path d="m84.3437 43.6779v-0.88658l-0.317287-0.0217c-0.766751-0.0866-0.912183-0.22705-0.898964-0.90821v-3.73014c-0.01395-0.68114 0.132196-0.82171 0.898964-0.9082l0.317287-0.0217v-0.88658h-4.74599v0.88658l0.317286 0.0217c0.766752 0.0864 0.912184 0.22706 0.898965 0.9082v3.73014c0.01395 0.68116-0.132196 0.82171-0.898965 0.90821l-0.317286 0.0217v0.88658z" style="font-feature-settings:normal;font-variant-caps:normal;font-variant-ligatures:normal;font-variant-numeric:normal"/>
      </g>
      <g fill="#361c00">
        <path d="m35.1168 54.79q0 0.66108-0.397373 0.66108-0.241268 0-0.496712-0.79331-0.354799-1.07426-0.638626-1.52048-0.567684-0.85941-1.51852-0.99162v-1.38829h3.05123zm-1.27727 5.27213q0 1.07426-0.411564 1.07426-0.241253 0-0.383167-0.49581t-0.283842-1.00815q-0.241268-0.6115-0.695391-0.80982v-1.40481q0.454123-0.19832 0.695391-0.80982 0.141914-0.49582 0.283842-0.99163 0.141914-0.51234 0.383167-0.51234 0.411564 0 0.411564 1.15689zm-2.24229 5.86711h-3.50538q-0.596052 0-0.596052-0.62803 0-0.38013 0.269651-0.6115 0.36899-0.33055 0.425755-0.44623 0.05671-0.28096 0.05671-0.66108v-10.4782q0-0.38013-0.05671-0.6611-0.05671-0.0992-0.425755-0.44621-0.269651-0.24792-0.269651-0.6115 0-0.62805 0.596052-0.62805h3.50538zm3.6189-3.52027-0.01461 3.52027h-3.13638v-1.4048q1.05019-0.13224 1.60367-1.02468 0.298019-0.46276 0.596052-1.5866 0.21287-0.82635 0.46833-0.82635 0.482521 0 0.482521 1.32216z" style="font-feature-settings:normal;font-variant-caps:normal;font-variant-ligatures:normal;font-variant-numeric:normal;paint-order:stroke markers fill"/>
        <path d="m44.636 55.451q0 2.446-1.05019 3.56985-0.993425 1.09078-3.09381 1.09078v-1.2891q0.894086-0.066 0.894086-1.90063v-2.95834q0-1.8345-0.894086-1.91713v-1.28913h0.298019q3.84598 0 3.84598 4.6937zm-3.67567 9.88318q0 0.59498-0.681215 0.59498h-3.775q-0.553492 0-0.553492-0.62803 0-0.3636 0.26965-0.59497 0.383182-0.34708 0.439947-0.46276 0.04253-0.21485 0.04253-0.66108v-10.4782q0-0.44623-0.04253-0.6611-0.05671-0.11573-0.439947-0.44621-0.26965-0.24792-0.26965-0.6115 0-0.62805 0.596066-0.62805h3.50537v13.0894q0 0.46276 0.454138 0.74373 0.454138 0.28095 0.454138 0.74371z" style="font-feature-settings:normal;font-variant-caps:normal;font-variant-ligatures:normal;font-variant-numeric:normal;paint-order:stroke markers fill"/>
        <path d="m50.1956 65.3012q0 0.62803-0.610244 0.62803h-3.67568q-0.596052 0-0.596052-0.62803 0-0.38013 0.269651-0.6115 0.383181-0.33055 0.439946-0.44623 0.05671-0.28096 0.05671-0.66108v-10.4782q0-0.38013-0.05671-0.6611-0.05671-0.0992-0.439946-0.44621-0.269651-0.24792-0.269651-0.6115 0-0.62805 0.596052-0.62805h3.67568q0.610244 0 0.610244 0.62805 0 0.36358-0.269636 0.59497-0.383182 0.34706-0.454138 0.46274-0.05671 0.42971-0.05671 0.6611v10.5277q0 0.4297 0.04253 0.57844 0.04253 0.14876 0.411549 0.44624 0.326416 0.2479 0.326416 0.64455z" style="font-feature-settings:normal;font-variant-caps:normal;font-variant-ligatures:normal;font-variant-numeric:normal;paint-order:stroke markers fill"/>
        <path d="m55.7694 51.3854q0 0.36358-0.26965 0.6115-0.383182 0.33053-0.439947 0.44621-0.04253 0.21487-0.04253 0.82637v12.6597h-3.51956q-0.596052 0-0.596052-0.62803 0-0.38013 0.269636-0.6115 0.383181-0.33055 0.439947-0.44623 0.05671-0.42971 0.05671-0.66108v-10.4782q0-0.23139-0.05671-0.6611-0.05671-0.0992-0.439947-0.44621-0.269636-0.24792-0.269636-0.6115 0-0.62805 0.596052-0.62805h3.67567q0.596066 0 0.596066 0.62805zm2.65386 14.5438h-2.98028v-1.4048q0.950851-0.0827 1.47595-1.09078 0.269636-0.52887 0.581861-1.8345 0.227076-0.97511 0.468329-0.97511 0.454139 0 0.454139 1.27258z" style="font-feature-settings:normal;font-variant-caps:normal;font-variant-ligatures:normal;font-variant-numeric:normal;paint-order:stroke markers fill"/>
        <path d="m68.0701 58.3433q0 3.00792-0.865688 5.02423-1.10697 2.56169-3.40603 2.84266v-1.28913q0.681201-0.0992 0.681201-1.78492v-9.5857q0-1.68576-0.681201-1.78492v-1.28911q2.29906 0.28095 3.40603 2.84266 0.865688 2.01631 0.865688 5.02423zm-4.71166 7.86689q-2.28488-0.26445-3.39184-2.84266-0.865703-2.01631-0.865703-5.02423t0.865703-5.02423q1.10696-2.56171 3.39184-2.84266v1.28911q-0.468329 0.066-0.610243 0.7272-0.07103 0.33053-0.07103 1.12384v9.45347q0 0.7933 0.07103 1.12385 0.141914 0.66108 0.610243 0.72718z" style="font-feature-settings:normal;font-variant-caps:normal;font-variant-ligatures:normal;font-variant-numeric:normal;paint-order:stroke markers fill"/>
        <path d="m76.8796 55.2858q0 1.17342-0.553478 1.17342-0.31221 0-0.667009-1.17342-0.510904-1.70229-0.766363-2.21461-0.596052-1.22302-1.51852-1.30565v-1.28911q0.354799 0.0495 1.13535 0.42971 0.737966 0.38011 1.00762 0.38011 0.127736 0 0.368975-0.38011 0.241268-0.38013 0.510904-0.38013 0.312224 0 0.411564 0.26444 0.07103 0.16527 0.07103 0.59498zm0.525095 3.53681q0 0.34705-0.170296 0.52886-0.227062 0.23138-0.269636 0.36359-0.11356 0.33055-0.11356 1.5866 0 0.44623 0.02835 1.35521 0.04253 0.89247 0.04253 1.33871-1.58949 2.09892-3.54796 2.1981v-1.3387q0.581861-0.066 0.581861-1.223v-3.2889q0-0.16526-0.05671-0.52886-0.04253-0.066-0.46833-0.41317-0.255445-0.21486-0.255445-0.62802 0-0.59498 0.624435-0.59498h3.06542q0.539286 0 0.539286 0.64456zm-4.45622 7.3876q-2.25649-0.33055-3.33506-2.89224-0.837319-1.99978-0.837319-4.97465t0.837319-4.97465q1.07857-2.52864 3.33506-2.89224v1.28911q-0.454138 0.0992-0.596052 0.74373-0.07103 0.33053-0.07103 1.10731v9.45347q0 0.76024 0.07103 1.10732 0.141914 0.66108 0.596052 0.74371z" style="font-feature-settings:normal;font-variant-caps:normal;font-variant-ligatures:normal;font-variant-numeric:normal;paint-order:stroke markers fill"/>
        <path d="m87.4206 51.4184q0 0.33053-0.454138 0.76024-0.496713 0.49581-0.624449 1.12384-0.08521 0.41318-0.08521 1.42132v5.73491q0 2.33031-0.425756 3.52026-0.610243 1.71881-2.27068 2.06587v-1.48742q1.06438-0.21487 1.47595-1.30565 0.269636-0.76024 0.269636-2.24769v-6.8422q0-0.95856-0.298018-1.48743-0.127737-0.23139-0.567684-0.64455-0.298019-0.28097-0.298019-0.6115 0-0.69415 0.581861-0.69415h2.11457q0.581876 0 0.581876 0.69415zm-4.25754-0.0992q0 0.39666-0.312225 0.62805-0.496712 0.39663-0.539286 0.44621-0.05671 0.36361-0.05671 0.56192v9.60223q0 0.909 0.09938 1.25606 0.184503 0.62802 0.780555 0.71067l0.01461 1.58659q-0.894085 0.0495-0.936659 0.0495-1.80236 0-2.61128-1.18997-0.73798-1.09077-0.73798-3.25582v-8.64365q0-0.44624-0.04253-0.6611-0.07103-0.13224-0.439947-0.46274-0.269651-0.24792-0.269651-0.59498 0-0.62804 0.610258-0.62804h3.70405q0.73798 0 0.73798 0.59497z" style="font-feature-settings:normal;font-variant-caps:normal;font-variant-ligatures:normal;font-variant-numeric:normal;paint-order:stroke markers fill"/>
        <path d="m95.7476 54.79q0 0.66108-0.397373 0.66108-0.241268 0-0.496713-0.79331-0.354798-1.07426-0.63864-1.52048-0.567669-0.85941-1.51852-0.99162v-1.38829h3.05125zm-1.27727 5.27213q0 1.07426-0.411564 1.07426-0.241253 0-0.383182-0.49581-0.141913-0.49581-0.283827-1.00815-0.241268-0.6115-0.695406-0.80982v-1.40481q0.454138-0.19832 0.695406-0.80982 0.141914-0.49582 0.283827-0.99163 0.141914-0.51234 0.383182-0.51234 0.411564 0 0.411564 1.15689zm-2.24231 5.86711h-3.50537q-0.596052 0-0.596052-0.62803 0-0.38013 0.26965-0.6115 0.368976-0.33055 0.425741-0.44623 0.05671-0.28096 0.05671-0.66108v-10.4782q0-0.38013-0.05671-0.6611-0.05671-0.0992-0.425741-0.44621-0.26965-0.24792-0.26965-0.6115 0-0.62805 0.596052-0.62805h3.50537zm3.61892-3.52027-0.01462 3.52027h-3.13639v-1.4048q1.0502-0.13224 1.60368-1.02468 0.298018-0.46276 0.596052-1.5866 0.21287-0.82635 0.468329-0.82635 0.482521 0 0.482521 1.32216z" style="font-feature-settings:normal;font-variant-caps:normal;font-variant-ligatures:normal;font-variant-numeric:normal;paint-order:stroke markers fill"/>
      </g>
      <g fill="#361c00">
        <path d="m41.2345 77.4821c0-0.65691-0.629542-1.09486-1.40963-1.09486-1.88863 0-3.87305 2.53186-3.87305 4.13308 0 0.80746 0.520057 1.20435 1.12223 1.20435 0.697971 0 1.25908-0.54743 1.98443-1.42332 0 0.56112 0.355829 1.19066 1.13591 1.19066 1.02643 0 2.1076-1.02643 2.7782-2.51817l-0.260029-0.26003c-0.821142 1.56017-1.69703 2.13497-2.13497 2.13497-0.301085 0-0.410571-0.26003-0.410571-0.49268 0-0.60217 0.780085-1.45069 0.780085-1.80652 0-0.23265-0.314771-0.35582-0.492685-0.41057 0.478999-0.0137 0.780085-0.1916 0.780085-0.65691zm-1.04011 0.68428c-0.697971 0.93063-1.99811 2.86032-2.83294 2.86032-0.218972 0-0.314771-0.12318-0.314771-0.43795 0-1.25908 1.5328-3.69514 2.80557-3.69514 0.465314 0 0.5748 0.34215 0.5748 0.71166 0 0.1916-0.01369 0.32846-0.06843 0.50637-0.01369 0-0.04106-0.0137-0.05474-0.0137-0.04106 0-0.08211 0.0274-0.109485 0.0684z" style="font-variant-caps:normal;font-variant-east-asian:normal;font-variant-ligatures:normal;font-variant-numeric:normal;paint-order:markers stroke fill"/>
        <path d="m48.3785 78.7822c-0.383199 0.75271-0.711656 1.01274-1.06748 1.01274-0.533742 0-0.588485-0.5748-0.588485-0.958 0-1.16328 0.437942-1.27277 0.437942-1.69702 0-0.21897-0.136857-0.60217-0.588485-0.60217-0.396885 0-0.670599 0.32845-0.711656 1.56017-0.533743 1.19065-1.50543 2.79188-2.14866 2.79188-0.218972 0-0.246343-0.24634-0.246343-0.82114 0-0.58849 0.06843-1.23172 0.06843-1.77914 0-0.52006-0.01369-0.65692-0.451629-0.65692-0.478999 0-0.50637 0.16423-0.520056 0.71166-0.04106 0.93063-0.05474 1.437-0.05474 1.6286 0 0.97168 0.218971 1.64228 0.903256 1.64228 0.875885 0 1.83388-1.39594 2.50448-2.62765 0.1916 0.73902 0.561114 1.27277 1.16328 1.27277 0.478999 0 1.02643-0.35583 1.45068-1.35489z" style="font-variant-caps:normal;font-variant-east-asian:normal;font-variant-ligatures:normal;font-variant-numeric:normal;paint-order:markers stroke fill"/>
        <path d="m52.9495 77.4821c0-0.65691-0.629543-1.09486-1.40963-1.09486-1.88863 0-3.87305 2.53186-3.87305 4.13308 0 0.80746 0.520057 1.20435 1.12223 1.20435 0.69797 0 1.25908-0.54743 1.98443-1.42332 0 0.56112 0.355828 1.19066 1.13591 1.19066 1.02643 0 2.1076-1.02643 2.7782-2.51817l-0.260029-0.26003c-0.821142 1.56017-1.69703 2.13497-2.13497 2.13497-0.301085 0-0.410571-0.26003-0.410571-0.49268 0-0.60217 0.780085-1.45069 0.780085-1.80652 0-0.23265-0.314771-0.35582-0.492685-0.41057 0.478999-0.0137 0.780085-0.1916 0.780085-0.65691zm-1.04011 0.68428c-0.69797 0.93063-1.99811 2.86032-2.83294 2.86032-0.218971 0-0.314771-0.12318-0.314771-0.43795 0-1.25908 1.5328-3.69514 2.80557-3.69514 0.465314 0 0.574799 0.34215 0.574799 0.71166 0 0.1916-0.01368 0.32846-0.06843 0.50637-0.01369 0-0.04106-0.0137-0.05474-0.0137-0.04106 0-0.08211 0.0274-0.109486 0.0684z" style="font-variant-caps:normal;font-variant-east-asian:normal;font-variant-ligatures:normal;font-variant-numeric:normal;paint-order:markers stroke fill"/>
        <path d="m56.0425 76.4283c-1.02643 0-2.03917 2.80557-2.03917 3.84568 0 0.6706 0.396885 1.21803 1.20434 1.21803 1.13591 0 2.16234-0.93063 2.80557-2.54554l-0.205286-0.21897c-0.79377 1.56017-1.5328 2.09391-2.14866 2.09391-0.396885 0-0.615856-0.13686-0.615856-0.72534 0-1.20434 1.40963-2.80557 1.40963-3.27088 0-0.26003-0.1916-0.39689-0.410571-0.39689zm0.780085-1.10854c0.492685 0 0.999056-0.43794 0.999056-0.82114s-0.260028-0.50637-0.588485-0.50637c-0.506371 0-1.09486 0.35582-1.09486 0.79377 0 0.36951 0.342142 0.53374 0.684285 0.53374z" style="font-variant-caps:normal;font-variant-east-asian:normal;font-variant-ligatures:normal;font-variant-numeric:normal;paint-order:markers stroke fill"/>
        <path d="m62.42 72.3226c-0.01369-0.42426-0.232657-1.09486-0.574799-1.09486-1.04011 0-4.35205 6.1312-4.35205 8.81359 0 0.79378 0.2874 1.45069 1.1496 1.45069 1.0538 0 2.05286-0.99906 2.83294-2.62766l-0.328457-0.17791c-0.506371 1.08117-1.30014 2.17603-1.98443 2.17603-0.355829 0-0.588486-0.2874-0.588486-0.94432 0-0.35582 0.06843-0.82114 0.150543-1.28645 2.08023-1.64229 3.69514-5.09108 3.69514-6.30911zm-0.629542 0.15054c0 0.91694-1.27277 3.62671-2.81925 5.31005 0.780085-2.47711 2.47711-5.31005 2.81925-5.31005z" style="font-variant-caps:normal;font-variant-east-asian:normal;font-variant-ligatures:normal;font-variant-numeric:normal;paint-order:markers stroke fill"/>
        <path d="m65.7593 77.4821c0-0.65691-0.629542-1.09486-1.40963-1.09486-1.88863 0-3.87305 2.53186-3.87305 4.13308 0 0.80746 0.520056 1.20435 1.12223 1.20435 0.697971 0 1.25908-0.54743 1.98443-1.42332 0 0.56112 0.355828 1.19066 1.13591 1.19066 1.02643 0 2.1076-1.02643 2.7782-2.51817l-0.260028-0.26003c-0.821142 1.56017-1.69703 2.13497-2.13497 2.13497-0.301085 0-0.410571-0.26003-0.410571-0.49268 0-0.60217 0.780085-1.45069 0.780085-1.80652 0-0.23265-0.314771-0.35582-0.492685-0.41057 0.479-0.0137 0.780085-0.1916 0.780085-0.65691zm-1.04011 0.68428c-0.697971 0.93063-1.99811 2.86032-2.83294 2.86032-0.218971 0-0.314771-0.12318-0.314771-0.43795 0-1.25908 1.5328-3.69514 2.80557-3.69514 0.465314 0 0.5748 0.34215 0.5748 0.71166 0 0.1916-0.01369 0.32846-0.06843 0.50637-0.01369 0-0.04106-0.0137-0.05474-0.0137-0.04106 0-0.08211 0.0274-0.109485 0.0684z" style="font-variant-caps:normal;font-variant-east-asian:normal;font-variant-ligatures:normal;font-variant-numeric:normal;paint-order:markers stroke fill"/>
        <path d="m71.6852 72.2541c-0.01369-0.42426-0.191599-0.94431-0.561113-0.94431-1.2454 0-4.35205 6.25436-4.35205 8.95045 0 1.13591 0.547428 1.82019 1.58754 1.82019 1.01274 0 1.76546-0.65691 2.28551-1.47805 0.0958 0.0137 0.1916 0.0137 0.2874 0.0137 1.08117 0 1.68334-0.5748 2.14866-1.65597l-0.205286-0.2874c-0.287399 0.58849-0.807456 1.51912-1.76546 1.51912-0.109486 0-0.150543-0.0137-0.246343-0.0137 0.273714-0.58848 0.410571-1.19065 0.410571-1.7244 0-0.93062-0.424256-1.36857-1.01274-1.36857-0.69797 0-1.2454 0.60217-1.2454 1.49174 0 0.72535 0.355828 1.437 1.02643 1.80652-0.342142 0.62954-0.957999 1.12222-1.437 1.12222-0.533743 0-0.711657-0.60217-0.711657-1.32751 0-1.12223 0.424257-2.38131 0.615857-2.73714 1.69703-0.97168 3.17508-3.90042 3.17508-5.18688zm-0.643228 0.34214c-0.01368 0.64323-1.08117 2.88769-2.27183 3.98254 0.615857-1.90231 1.92968-3.85936 2.27183-3.98254zm-1.35488 6.04908c0-0.45162 0.1916-0.83482 0.437942-0.83482 0.218972 0 0.396886 0.30108 0.396886 0.95799 0 0.43795-0.08211 0.79378-0.246343 1.16329-0.451628-0.31477-0.588485-0.90326-0.588485-1.28646z" style="font-variant-caps:normal;font-variant-east-asian:normal;font-variant-ligatures:normal;font-variant-numeric:normal;paint-order:markers stroke fill"/>
        <path d="m77.4879 72.3226c-0.01369-0.42426-0.232657-1.09486-0.5748-1.09486-1.04011 0-4.35205 6.1312-4.35205 8.81359 0 0.79378 0.2874 1.45069 1.1496 1.45069 1.0538 0 2.05286-0.99906 2.83294-2.62766l-0.328457-0.17791c-0.506371 1.08117-1.30014 2.17603-1.98443 2.17603-0.355828 0-0.588485-0.2874-0.588485-0.94432 0-0.35582 0.06843-0.82114 0.150542-1.28645 2.08023-1.64229 3.69514-5.09108 3.69514-6.30911zm-0.629543 0.15054c0 0.91694-1.27277 3.62671-2.81925 5.31005 0.780085-2.47711 2.47711-5.31005 2.81925-5.31005z" style="font-variant-caps:normal;font-variant-east-asian:normal;font-variant-ligatures:normal;font-variant-numeric:normal;paint-order:markers stroke fill"/>
        <path d="m80.2113 77.0578c0-0.72534-0.520057-0.91694-0.999056-0.91694-1.69703 0-3.5446 2.27183-3.5446 3.88674 0 0.94431 0.643228 1.65597 1.8202 1.65597 1.46437 0 2.94243-1.09486 3.68145-2.73714l-0.273714-0.21897c-0.697971 1.31382-1.97074 2.36762-3.10665 2.36762-1.04011 0-1.0538-0.87588-1.0538-1.06748 0-0.17792 0.01369-0.24634 0.02737-0.31477 1.64228-0.17792 3.4488-1.27277 3.4488-2.65503zm-0.971685-0.32845c0.164229 0 0.232657 0.0547 0.232657 0.26002 0 1.02643-1.60123 2.1076-2.55923 2.21709 0.3832-1.13592 1.49174-2.47711 2.32657-2.47711z" style="font-variant-caps:normal;font-variant-east-asian:normal;font-variant-ligatures:normal;font-variant-numeric:normal;paint-order:markers stroke fill"/>
        <path d="m87.2731 73.1163c0-1.21803-0.821142-1.88863-2.05286-1.88863-1.84757 0-3.02454 1.49175-3.02454 3.05191 0 0.58849 0.232657 1.01275 1.12223 1.1496-0.109486-0.35582-0.150543-0.61585-0.150543-0.93062 0-1.49175 1.06748-2.72346 2.0118-2.72346 0.602171 0 1.0538 0.53374 1.0538 1.51911 0 2.28552-2.60028 3.24352-2.60028 5.39217 0 0.41057 0.123171 0.53374 0.574799 0.7664 0.218971-0.60217 0.177914-0.98537 0.369514-1.61491 0.615856-2.05286 2.69608-2.69609 2.69608-4.72157zm-3.65408 8.10194c0.424257 0 0.821142-0.35583 0.821142-0.71166 0-0.27372-0.205286-0.39689-0.479-0.39689-0.396885 0-0.88957 0.2874-0.88957 0.65692 0 0.30108 0.260028 0.45163 0.547428 0.45163z" style="font-variant-caps:normal;font-variant-east-asian:normal;font-variant-ligatures:normal;font-variant-numeric:normal;paint-order:markers stroke fill"/>
      </g>
    </g>
    <g>
      <path d="m99.206 67.2477a13.5005 13.5005 0 0 0-13.4732 13.5005 13.5005 13.5005 0 0 0 0 0.0273v13.4732h27.0009v-13.5005a13.5005 13.5005 0 0 0-13.5004-13.5005 13.5005 13.5005 0 0 0-0.02726 0zm0.02726 4.76487a8.73559 8.73559 0 0 1 8.73558 8.7356v11.9122h-17.4711v-11.9122a8.73559 8.73559 0 0 1 8.7356-8.7356z" fill="#b8b8b8" fill-rule="evenodd" style="paint-order:markers stroke fill"/>
      <rect x="83.3504" y="86.3071" width="31.7658" height="23.8244" rx=".48213" ry=".361729" fill="url(#a)" fill-rule="evenodd" style="mix-blend-mode:normal;paint-order:markers stroke fill"/>
      <text x="99.170174" y="107.05202" fill="#000000" font-family="'URW Bookman'" font-size="25.4px" font-weight="bold" letter-spacing="0px" stroke-width=".264583px" text-align="center" text-anchor="middle" word-spacing="0px" style="line-height:125%" xml:space="preserve"><tspan x="99.170174" y="107.05202" fill="#000000" stroke-width=".264583px">?</tspan></text>
    </g>
  </g>
</svg>
