<?xml version="1.0" encoding="UTF-8"?>
<svg width="491.94" height="442.51" version="1.1" viewBox="0 0 130.159 117.081" xmlns="http://www.w3.org/2000/svg">
  <g>
    <g>
      <path d="m107.615 84.869c-1.32604 2.29677-3.61151 0.952417-5.17037 3.098-1.55885 2.14558 0.42595 3.90376-1.34864 5.87464-1.77459 1.97088-3.73061 0.180728-5.70149 1.95532-1.97088 1.77459-0.394995 3.90702-2.54057 5.46587-2.14558 1.55885-3.68666-0.59886-5.98343 0.72718s-1.19868 3.73952-3.62148 4.81822-3.48159-1.35228-6.00387-0.53274c-2.52228 0.81954-1.94997 3.40858-4.5441 3.95998s-3.12436-2.04659-5.76191-1.76937-2.61604 2.92867-5.26813 2.92867c-2.65208 0-2.63057-2.65145-5.26813-2.92867-2.63755-0.27722-3.16778 2.32077-5.76191 1.76937s-2.02182-3.14044-4.5441-3.95998c-2.52228-0.81954-3.58107 1.61144-6.00387 0.53274-2.4228-1.0787-1.3247-3.49218-3.62148-4.81822-2.29677-1.32604-3.83785 0.83167-5.98343-0.72718-2.14558-1.55886-0.569693-3.69128-2.54058-5.46587-1.97088-1.77459-3.9269 0.01556-5.70149-1.95532-1.77459-1.97088 0.210217-3.72906-1.34864-5.87464-1.55886-2.14558-3.84433-0.801226-5.17037-3.098-1.32604-2.29677 0.980939-3.60387-0.09776-6.02667-1.0787-2.4228-3.59373-1.583-4.41327-4.10528-0.819539-2.52228 1.70879-3.32117 1.15739-5.9153s-3.18608-2.29558-3.4633-4.93314 2.36196-2.89331 2.36196-5.5454c0-2.65208-2.63918-2.90784-2.36196-5.5454 0.277218-2.63755 2.9119-2.33901 3.4633-4.93314s-1.97693-3.39302-1.15739-5.9153c0.819539-2.52228 3.33457-1.68248 4.41327-4.10528 1.0787-2.4228-1.22828-3.7299 0.09776-6.02667 1.32604-2.29677 3.61151-0.952417 5.17037-3.098 1.55886-2.14558-0.425951-3.90376 1.34864-5.87464 1.77459-1.97088 3.73061-0.180728 5.70149-1.95532 1.97088-1.77459 0.394995-3.90702 2.54057-5.46587 2.14558-1.55886 3.68666 0.598859 5.98343-0.727183 2.29677-1.32604 1.19868-3.73952 3.62148-4.81821 2.4228-1.0787 3.48159 1.35227 6.00387 0.532734 2.52228-0.819538 1.94997-3.40858 4.5441-3.95998s3.12436 2.04659 5.76191 1.76937 2.61604-2.92867 5.26813-2.92867c2.65208 1e-7 2.63057 2.65145 5.26813 2.92867 2.63755 0.277218 3.16778-2.32077 5.76191-1.76937 2.59413 0.551399 2.02182 3.14044 4.5441 3.95998 2.52228 0.819539 3.58107-1.61143 6.00387-0.532734 2.4228 1.0787 1.3247 3.49217 3.62148 4.81821 2.29677 1.32604 3.83785-0.831673 5.98343 0.727182 2.14558 1.55886 0.569693 3.69128 2.54058 5.46587 1.97088 1.77459 3.9269-0.01556 5.70149 1.95532 1.77459 1.97088-0.21021 3.72906 1.34864 5.87464 1.55886 2.14558 3.84433 0.801226 5.17037 3.098 1.32604 2.29677-0.98094 3.60387 0.0978 6.02667 1.0787 2.4228 3.59373 1.583 4.41327 4.10528 0.81954 2.52228-1.70879 3.32117-1.15739 5.9153s3.18608 2.29558 3.4633 4.93314c0.27721 2.63755-2.36196 2.89332-2.36196 5.5454 0 2.65208 2.63917 2.90784 2.36196 5.5454-0.27722 2.63755-2.9119 2.33901-3.4633 4.93314s1.97693 3.39302 1.15739 5.9153-3.33457 1.68248-4.41327 4.10528 1.22828 3.7299-0.0978 6.02667z" fill="#c59117" fill-rule="evenodd" style="paint-order:normal"/>
      <circle cx="61.6713" cy="58.3432" r="47.3194" fill="#ffffac" fill-rule="evenodd" opacity=".99"/>
      <ellipse cx="61.6713" cy="58.3432" rx="43.3013" ry="43.3013" fill="none" stroke="#8a5300" stroke-linejoin="round" stroke-width="2.42136"/>
      <ellipse cx="61.6713" cy="58.3432" rx="40.907" ry="40.907" fill="none" stroke="#c6941b" stroke-linejoin="round" stroke-width=".794019"/>
      <g fill="#a26b00" fill-rule="evenodd">
        <path d="m61.6713 19.3866 1.06773 3.18817 3.36208 0.03027-2.70219 2.00067 1.01015 3.20688-2.73778-1.95169-2.73778 1.95169 1.01015-3.20688-2.70219-2.00067 3.36208-0.03027z"/>
        <path d="m71.6567 21.7965 0.983274 2.93599 3.09614 0.02788-2.48844 1.84242 0.930244 2.95322-2.52122-1.79731-2.52122 1.79731 0.930245-2.95322-2.48844-1.84242 3.09614-0.02788z"/>
        <path d="m51.686 21.7965 0.983273 2.93599 3.09614 0.02788-2.48844 1.84242 0.930244 2.95322-2.52121-1.79731-2.52122 1.79731 0.930245-2.95322-2.48844-1.84242 3.09614-0.02788z"/>
        <path d="m61.6713 87.3466 1.06773 3.18818 3.36208 0.03027-2.70219 2.00067 1.01015 3.20688-2.73778-1.95169-2.73778 1.95169 1.01015-3.20688-2.70219-2.00067 3.36208-0.03027z"/>
        <path d="m71.6567 86.2693 0.983274 2.93599 3.09614 0.02788-2.48844 1.84242 0.930244 2.95322-2.52122-1.79731-2.52122 1.79731 0.930245-2.95322-2.48844-1.84242 3.09614-0.02788z"/>
        <path d="m51.686 86.2693 0.983273 2.93599 3.09614 0.02788-2.48844 1.84242 0.930244 2.95322-2.52121-1.79731-2.52122 1.79731 0.930245-2.95322-2.48844-1.84242 3.09614-0.02788z"/>
      </g>
      <g fill="#442400" stroke="#442400" stroke-linecap="round" stroke-linejoin="round" stroke-width=".261425">
        <path d="m44.7762 36.6608c-0.528799-0.30274-1.34843-0.48653-2.12841-0.48653-1.96978 0-3.39754 0.98388-3.39754 2.357 0 0.68116 0.370165 1.27581 1.00472 1.61098 0.462701 0.23787 0.727109 0.31355 2.28707 0.6271l1.30879 0.27029c0.9915 0.20544 1.26911 0.36761 1.26911 0.76765 0 0.56224-0.687433 0.96228-1.66571 0.96228-0.925402 0-1.8508-0.33517-2.5118-0.89741-0.356944-0.32434-0.608115-0.59465-0.951841-1.10281l-0.9915 0.27029 1.09726 2.75706h0.779988l0.185073-0.52978c0.555238 0.33517 1.46742 0.5514 2.36638 0.5514 2.15485 0 3.74125-1.10281 3.74125-2.59487 0-0.67034-0.356928-1.265-0.965061-1.58936-0.396586-0.21623-0.753531-0.32436-1.89045-0.57303l-1.20303-0.25949c-0.02651-0.0114-0.277611-0.0541-0.647775-0.11896-0.251188-0.0432-0.48914-0.10811-0.687451-0.18381-0.317268-0.10811-0.475903-0.29191-0.475903-0.51897 0-0.44329 0.608116-0.75684 1.45418-0.75684 0.753548 0 1.57319 0.29193 2.07555 0.73522 0.224732 0.19461 0.396586 0.36761 0.819628 0.84333l0.951841-0.29193-0.872524-2.19482h-0.793189z" style="font-feature-settings:normal;font-variant-caps:normal;font-variant-ligatures:normal;font-variant-numeric:normal"/>
        <path d="m51.1879 40.6937h1.25591c2.41924 0 3.70159-0.75684 3.70159-2.18403 0-0.71358-0.370164-1.35149-1.03116-1.72991-0.581677-0.34598-1.26913-0.46491-2.65721-0.46491h-4.74599v0.88658l0.264408 0.0217c0.76675 0.0864 0.912183 0.22706 0.898963 0.9082v3.73013c0.01395 0.68116-0.132195 0.82171-0.898963 0.90822l-0.264408 0.0217v0.88658h4.64021v-0.88658l-0.264391-0.0217c-0.766767-0.0866-0.912182-0.22706-0.898963-0.90822zm0-2.59488c0-0.38923 0.01395-0.50816 0.09261-0.59465 0.09261-0.11896 0.396603-0.19463 0.806426-0.19463 0.912183 0 1.5203 0.47574 1.5203 1.1677 0 0.8109-0.713872 1.25419-1.983 1.25419-0.132195 0-0.224732 0-0.436262-0.0217z" style="font-feature-settings:normal;font-variant-caps:normal;font-variant-ligatures:normal;font-variant-numeric:normal"/>
        <path d="m60.389 36.3148h-3.8999v0.88658l0.264408 0.0217c0.766751 0.0864 0.912183 0.22706 0.898964 0.9082v3.73013c0.01395 0.68116-0.132196 0.82171-0.898964 0.90822l-0.264408 0.0217v0.88658h3.55618v-0.88658l-0.264391-0.0217c-0.766768-0.0866-0.912183-0.22706-0.898963-0.90822v-3.87068l4.11141 5.6871h1.63929v-5.54655c-0.01395-0.68114 0.132195-0.82171 0.898946-0.9082l0.264408-0.0217v-0.88658h-3.55618v0.88658l0.264391 0.0217c0.766768 0.0864 0.912183 0.22706 0.898963 0.9082v2.4327z" style="font-feature-settings:normal;font-variant-caps:normal;font-variant-ligatures:normal;font-variant-numeric:normal"/>
        <path d="m72.8819 42.4885c-0.23797 0.1838-0.23797 0.1838-0.3305 0.1838-0.0926 0-0.1983-0.0541-0.22474-0.11895-0.0396-0.0757-0.0396-0.0757-0.0528-0.48654v-2.12996c0-0.57304-0.14545-0.91901-0.50236-1.20013-0.4627-0.36761-1.33522-0.58385-2.3796-0.58385-1.70538 0-2.93484 0.6271-2.93484 1.49206 0 0.46491 0.423043 0.81089 0.978281 0.81089 0.647774 0 1.03116-0.31355 1.01794-0.83252 0-0.15136 0.0265-0.22706 0.11894-0.28111 0.1587-0.11896 0.44948-0.19461 0.72711-0.19461 0.56845 0 0.83284 0.18379 0.83284 0.58384v0.55142c-0.72709 0.0541-1.36164 0.15136-1.9301 0.29191-1.32201 0.32436-1.983 0.89741-1.983 1.71912 0 0.88658 0.846067 1.48123 2.10198 1.48123 0.753535 0 1.42776-0.1838 2.10198-0.55141 0.31729 0.33518 0.89896 0.55141 1.5203 0.55141 0.5949 0 1.08404-0.16218 1.67893-0.55141zm-2.74977-0.25949c-0.3437 0.25949-0.67421 0.37842-1.04437 0.37842-0.37015 0-0.62134-0.21623-0.62134-0.54059 0-0.46492 0.5288-0.74603 1.66571-0.91902z" style="font-feature-settings:normal;font-variant-caps:normal;font-variant-ligatures:normal;font-variant-numeric:normal"/>
        <path d="m78.5004 39.1692v-0.91902h-1.81114v-1.71911h-1.24267c-0.1322 1.11364-0.75355 1.7083-1.90368 1.83804v0.85415h1.00471v2.73543c0 0.65952 0.0529 0.91902 0.21152 1.17851 0.29084 0.43248 0.80642 0.6379 1.58639 0.6379 1.18981 0 2.02268-0.32437 2.78943-1.08121l-0.79321-0.76763c-0.59489 0.46491-0.83285 0.59465-1.17657 0.59465-0.35695 0-0.47592-0.17299-0.47592-0.73522v-2.61649z" style="font-feature-settings:normal;font-variant-caps:normal;font-variant-ligatures:normal;font-variant-numeric:normal"/>
        <path d="m84.3436 43.6778v-0.88658l-0.31729-0.0217c-0.76675-0.0866-0.91218-0.22706-0.89896-0.90821v-3.73013c-0.014-0.68115 0.1322-0.82171 0.89896-0.90821l0.31729-0.0217v-0.88658h-4.74599v0.88658l0.31729 0.0217c0.76675 0.0864 0.91218 0.22706 0.89896 0.90821v3.73013c0.0139 0.68115-0.13219 0.82171-0.89896 0.90821l-0.31729 0.0217v0.88658z" style="font-feature-settings:normal;font-variant-caps:normal;font-variant-ligatures:normal;font-variant-numeric:normal"/>
      </g>
      <g fill="#361c00">
        <path d="m35.1168 54.7899q0 0.66108-0.397372 0.66108-0.241268 0-0.496712-0.79331-0.354798-1.07426-0.638625-1.52048-0.567683-0.85941-1.51852-0.99162v-1.38829h3.05123zm-1.27726 5.27212q0 1.07426-0.411564 1.07426-0.241253 0-0.383166-0.49581-0.141914-0.49581-0.283842-1.00815-0.241267-0.6115-0.695391-0.80982v-1.40481q0.454124-0.19832 0.695391-0.80982 0.141914-0.49581 0.283842-0.99163 0.141913-0.51234 0.383166-0.51234 0.411564 0 0.411564 1.1569zm-2.24229 5.8671h-3.50538q-0.596051 0-0.596051-0.62802 0-0.38013 0.26965-0.6115 0.36899-0.33055 0.425755-0.44624 0.05671-0.28095 0.05671-0.66108v-10.4781q0-0.38013-0.05671-0.6611-0.05671-0.0992-0.425755-0.44621-0.26965-0.24792-0.26965-0.6115 0-0.62805 0.596051-0.62805h3.50538zm3.6189-3.52026-0.01462 3.52026h-3.13638v-1.40479q1.05019-0.13225 1.60367-1.02468 0.298018-0.46276 0.596051-1.5866 0.212871-0.82635 0.468329-0.82635 0.482521 0 0.482521 1.32216z" style="font-feature-settings:normal;font-variant-caps:normal;font-variant-ligatures:normal;font-variant-numeric:normal;paint-order:stroke markers fill"/>
        <path d="m44.6359 55.451q0 2.446-1.05019 3.56984-0.993424 1.09078-3.0938 1.09078v-1.2891q0.894084-0.066 0.894084-1.90062v-2.95834q0-1.8345-0.894084-1.91713v-1.28913h0.298018q3.84597 0 3.84597 4.6937zm-3.67566 9.88317q0 0.59497-0.681214 0.59497h-3.775q-0.553492 0-0.553492-0.62802 0-0.36361 0.26965-0.59498 0.383181-0.34707 0.439947-0.46276 0.04253-0.21484 0.04253-0.66108v-10.4781q0-0.44623-0.04253-0.6611-0.05671-0.11573-0.439947-0.44621-0.26965-0.24792-0.26965-0.6115 0-0.62805 0.596066-0.62805h3.50537v13.0894q0 0.46276 0.454137 0.74373 0.454138 0.28095 0.454138 0.74371z" style="font-feature-settings:normal;font-variant-caps:normal;font-variant-ligatures:normal;font-variant-numeric:normal;paint-order:stroke markers fill"/>
        <path d="m50.1955 65.3011q0 0.62802-0.610243 0.62802h-3.67568q-0.596052 0-0.596052-0.62802 0-0.38013 0.269651-0.6115 0.383181-0.33055 0.439946-0.44624 0.05671-0.28095 0.05671-0.66108v-10.4781q0-0.38013-0.05671-0.6611-0.05671-0.0992-0.439946-0.44621-0.269651-0.24792-0.269651-0.6115 0-0.62805 0.596052-0.62805h3.67568q0.610243 0 0.610243 0.62805 0 0.36358-0.269636 0.59497-0.383181 0.34706-0.454138 0.46274-0.05671 0.42971-0.05671 0.6611v10.5277q0 0.42971 0.04253 0.57845 0.04253 0.14875 0.411549 0.44623 0.326415 0.2479 0.326415 0.64456z" style="font-feature-settings:normal;font-variant-caps:normal;font-variant-ligatures:normal;font-variant-numeric:normal;paint-order:stroke markers fill"/>
        <path d="m55.7693 51.3853q0 0.36358-0.26965 0.6115-0.383181 0.33053-0.439946 0.44621-0.04253 0.21487-0.04253 0.82637v12.6597h-3.51956q-0.596051 0-0.596051-0.62802 0-0.38013 0.269636-0.6115 0.383181-0.33055 0.439946-0.44624 0.05671-0.42971 0.05671-0.66108v-10.4781q0-0.23139-0.05671-0.6611-0.05671-0.0992-0.439946-0.44621-0.269636-0.24792-0.269636-0.6115 0-0.62805 0.596051-0.62805h3.67566q0.596066 0 0.596066 0.62805zm2.65386 14.5438h-2.98027v-1.40479q0.950849-0.0827 1.47594-1.09079 0.269635-0.52886 0.58186-1.8345 0.227076-0.9751 0.468329-0.9751 0.454138 0 0.454138 1.27258z" style="font-feature-settings:normal;font-variant-caps:normal;font-variant-ligatures:normal;font-variant-numeric:normal;paint-order:stroke markers fill"/>
        <path d="m68.07 58.3432q0 3.00792-0.865687 5.02423-1.10697 2.56168-3.40603 2.84265v-1.28912q0.6812-0.0992 0.6812-1.78492v-9.58569q0-1.68576-0.6812-1.78492v-1.28911q2.29906 0.28095 3.40603 2.84266 0.865687 2.0163 0.865687 5.02422zm-4.71166 7.86688q-2.28488-0.26444-3.39184-2.84265-0.865701-2.01631-0.865701-5.02423t0.865701-5.02422q1.10696-2.56171 3.39184-2.84266v1.28911q-0.468329 0.066-0.610243 0.7272-0.07103 0.33053-0.07103 1.12384v9.45346q0 0.79329 0.07103 1.12384 0.141914 0.66108 0.610243 0.72719z" style="font-feature-settings:normal;font-variant-caps:normal;font-variant-ligatures:normal;font-variant-numeric:normal;paint-order:stroke markers fill"/>
        <path d="m76.8796 55.2857q0 1.17342-0.55348 1.17342-0.31221 0-0.66701-1.17342-0.5109-1.70229-0.76636-2.21461-0.59605-1.22302-1.51852-1.30565v-1.28911q0.3548 0.0495 1.13536 0.42971 0.73796 0.38011 1.00761 0.38011 0.12774 0 0.36898-0.38011 0.24126-0.38013 0.5109-0.38013 0.31222 0 0.41156 0.26444 0.071 0.16527 0.071 0.59498zm0.52509 3.5368q0 0.34706-0.17029 0.52887-0.22706 0.23137-0.26964 0.36358-0.11356 0.33055-0.11356 1.5866 0 0.44623 0.0284 1.35521 0.0425 0.89247 0.0425 1.3387-1.58949 2.09893-3.54796 2.1981v-1.3387q0.58186-0.066 0.58186-1.223v-3.28888q0-0.16527-0.0567-0.52887-0.0425-0.066-0.46832-0.41317-0.25545-0.21486-0.25545-0.62802 0-0.59497 0.62444-0.59497h3.06541q0.53929 0 0.53929 0.64455zm-4.45621 7.38759q-2.25648-0.33055-3.33506-2.89223-0.83731-1.99978-0.83731-4.97465 0-2.97486 0.83731-4.97464 1.07858-2.52864 3.33506-2.89224v1.28911q-0.45414 0.0992-0.59605 0.74373-0.071 0.33053-0.071 1.10731v9.45346q0 0.76024 0.071 1.10732 0.14191 0.66107 0.59605 0.74371z" style="font-feature-settings:normal;font-variant-caps:normal;font-variant-ligatures:normal;font-variant-numeric:normal;paint-order:stroke markers fill"/>
        <path d="m87.4205 51.4184q0 0.33053-0.45414 0.76024-0.49671 0.49581-0.62444 1.12384-0.0852 0.41318-0.0852 1.42132v5.7349q0 2.33031-0.42576 3.52026-0.61024 1.71881-2.27067 2.06587v-1.48743q1.06438-0.21486 1.47594-1.30565 0.26964-0.76023 0.26964-2.24768v-6.84219q0-0.95856-0.29802-1.48743-0.12774-0.23139-0.56768-0.64455-0.29802-0.28097-0.29802-0.6115 0-0.69415 0.58186-0.69415h2.11457q0.58187 0 0.58187 0.69415zm-4.25753-0.0992q0 0.39666-0.31223 0.62805-0.49671 0.39663-0.53928 0.44621-0.0567 0.3636-0.0567 0.56192v9.60222q0 0.909 0.0994 1.25605 0.1845 0.62803 0.78056 0.71068l0.0146 1.58658q-0.89408 0.0495-0.93666 0.0495-1.80236 0-2.61128-1.18996-0.73798-1.09077-0.73798-3.25582v-8.64364q0-0.44624-0.0425-0.6611-0.071-0.13224-0.43995-0.46274-0.26965-0.24792-0.26965-0.59497 0-0.62805 0.61026-0.62805h3.70405q0.73798 0 0.73798 0.59498z" style="font-feature-settings:normal;font-variant-caps:normal;font-variant-ligatures:normal;font-variant-numeric:normal;paint-order:stroke markers fill"/>
        <path d="m95.7475 54.7899q0 0.66108-0.39738 0.66108-0.24126 0-0.49671-0.79331-0.3548-1.07426-0.63864-1.52048-0.56767-0.85941-1.51852-0.99162v-1.38829h3.05125zm-1.27727 5.27212q0 1.07426-0.41156 1.07426-0.24126 0-0.38318-0.49581t-0.28383-1.00815q-0.24127-0.6115-0.69541-0.80982v-1.40481q0.45414-0.19832 0.69541-0.80982 0.14191-0.49581 0.28383-0.99163 0.14191-0.51234 0.38318-0.51234 0.41156 0 0.41156 1.1569zm-2.2423 5.8671h-3.50537q-0.59605 0-0.59605-0.62802 0-0.38013 0.26965-0.6115 0.36897-0.33055 0.42574-0.44624 0.0567-0.28095 0.0567-0.66108v-10.4781q0-0.38013-0.0567-0.6611-0.0567-0.0992-0.42574-0.44621-0.26965-0.24792-0.26965-0.6115 0-0.62805 0.59605-0.62805h3.50537zm3.61891-3.52026-0.0146 3.52026h-3.13639v-1.40479q1.0502-0.13225 1.60368-1.02468 0.29802-0.46276 0.59605-1.5866 0.21287-0.82635 0.46833-0.82635 0.48252 0 0.48252 1.32216z" style="font-feature-settings:normal;font-variant-caps:normal;font-variant-ligatures:normal;font-variant-numeric:normal;paint-order:stroke markers fill"/>
      </g>
      <g fill="#361c00">
        <path d="m44.285 77.482c0-0.65692-0.629547-1.09486-1.40965-1.09486-1.88862 0-3.87307 2.53186-3.87307 4.1331 0 0.80745 0.520066 1.20434 1.12224 1.20434 0.697975 0 1.25909-0.54744 1.98443-1.42332 0 0.56112 0.355835 1.19066 1.13592 1.19066 1.02644 0 2.1076-1.02643 2.77822-2.51818l-0.260033-0.26004c-0.821152 1.56018-1.69704 2.13498-2.13498 2.13498-0.301086 0-0.410567-0.26001-0.410567-0.49267 0-0.60218 0.780081-1.4507 0.780081-1.80652 0-0.23266-0.314781-0.35584-0.492691-0.41058 0.478996-0.0132 0.780099-0.19159 0.780099-0.65691zm-1.04013 0.68428c-0.697974 0.93063-1.99812 2.86033-2.83295 2.86033-0.218963 0-0.314766-0.12321-0.314766-0.43794 0-1.2591 1.53281-3.69516 2.80558-3.69516 0.465316 0 0.574798 0.34214 0.574798 0.71165 0 0.19161-0.01325 0.32846-0.06839 0.50637-0.01325 0-0.04107-0.0132-0.05482-0.0132-0.04107 0-0.08214 0.0273-0.109465 0.0684z" style="font-variant-caps:normal;font-variant-east-asian:normal;font-variant-ligatures:normal;font-variant-numeric:normal;paint-order:markers stroke fill"/>
        <path d="m51.4289 78.7822c-0.383193 0.75271-0.711654 1.01274-1.06749 1.01274-0.533744 0-0.588477-0.5748-0.588477-0.95801 0-1.16329 0.437942-1.27277 0.437942-1.69704 0-0.21896-0.136789-0.60217-0.588493-0.60217-0.396889 0-0.6706 0.32846-0.711654 1.56018-0.533744 1.19067-1.50543 2.7919-2.14867 2.7919-0.218963 0-0.246338-0.24635-0.246338-0.82115 0-0.58849 0.06839-1.23172 0.06839-1.77914 0-0.52007-0.01325-0.65692-0.451621-0.65692-0.479012 0-0.506386 0.16428-0.520065 0.71165-0.04107 0.93063-0.05482 1.437-0.05482 1.62861 0 0.97168 0.21898 1.64228 0.903259 1.64228 0.875901 0 1.83389-1.39593 2.50449-2.62765 0.191605 0.73903 0.561119 1.27277 1.16329 1.27277 0.479012 0 1.02644-0.35583 1.4507-1.35489z" style="font-variant-caps:normal;font-variant-east-asian:normal;font-variant-ligatures:normal;font-variant-numeric:normal;paint-order:markers stroke fill"/>
        <path d="m56 77.482c0-0.65692-0.629547-1.09486-1.40964-1.09486-1.88862 0-3.87307 2.53186-3.87307 4.1331 0 0.80745 0.520065 1.20434 1.12224 1.20434 0.697975 0 1.25909-0.54744 1.98443-1.42332 0 0.56112 0.355836 1.19066 1.13592 1.19066 1.02644 0 2.10762-1.02643 2.77822-2.51818l-0.260033-0.26004c-0.821152 1.56018-1.69704 2.13498-2.13498 2.13498-0.301086 0-0.410568-0.26001-0.410568-0.49267 0-0.60218 0.780082-1.4507 0.780082-1.80652 0-0.23266-0.314765-0.35584-0.492691-0.41058 0.479012-0.0132 0.780098-0.19159 0.780098-0.65691zm-1.04013 0.68428c-0.697958 0.93063-1.9981 2.86033-2.83294 2.86033-0.218979 0-0.314782-0.12321-0.314782-0.43794 0-1.2591 1.53281-3.69516 2.80558-3.69516 0.465316 0 0.574798 0.34214 0.574798 0.71165 0 0.19161-0.01325 0.32846-0.06839 0.50637-0.01325 0-0.04107-0.0132-0.05482-0.0132-0.04107 0-0.08214 0.0273-0.109465 0.0684z" style="font-variant-caps:normal;font-variant-east-asian:normal;font-variant-ligatures:normal;font-variant-numeric:normal;paint-order:markers stroke fill"/>
        <path d="m59.0929 76.4282c-1.02644 0-2.03918 2.80558-2.03918 3.84569 0 0.6706 0.396888 1.21804 1.20434 1.21804 1.13592 0 2.16235-0.93063 2.80558-2.54556l-0.205284-0.21896c-0.793777 1.56018-1.5328 2.09392-2.14866 2.09392-0.396888 0-0.615868-0.13679-0.615868-0.72535 0-1.20434 1.40963-2.80557 1.40963-3.27089 0-0.26003-0.191588-0.39689-0.410568-0.39689zm0.780082-1.10854c0.492691 0 0.999061-0.43794 0.999061-0.82115 0-0.3832-0.260016-0.50637-0.588477-0.50637-0.50637 0-1.09486 0.35583-1.09486 0.79377 0 0.36952 0.34214 0.53375 0.684279 0.53375z" style="font-variant-caps:normal;font-variant-east-asian:normal;font-variant-ligatures:normal;font-variant-numeric:normal;paint-order:markers stroke fill"/>
        <path d="m65.4705 72.3225c-0.01325-0.42427-0.232658-1.09487-0.574798-1.09487-1.04011 0-4.35206 6.13122-4.35206 8.81363 0 0.79377 0.28739 1.45069 1.1496 1.45069 1.05381 0 2.05287-0.99906 2.83295-2.62767l-0.32846-0.1779c-0.50637 1.08116-1.30015 2.17603-1.98443 2.17603-0.355835 0-0.588494-0.28741-0.588494-0.94432 0-0.35583 0.06839-0.82115 0.150535-1.28646 2.08025-1.64229 3.69516-5.09109 3.69516-6.30913zm-0.629547 0.15053c0 0.91694-1.27277 3.62671-2.81926 5.31007 0.780082-2.47713 2.47712-5.31007 2.81926-5.31007z" style="font-variant-caps:normal;font-variant-east-asian:normal;font-variant-ligatures:normal;font-variant-numeric:normal;paint-order:markers stroke fill"/>
        <path d="m68.8098 77.482c0-0.65692-0.629548-1.09486-1.40963-1.09486-1.88864 0-3.87307 2.53186-3.87307 4.1331 0 0.80745 0.520049 1.20434 1.12222 1.20434 0.697975 0 1.25909-0.54744 1.98444-1.42332 0 0.56112 0.355819 1.19066 1.13592 1.19066 1.02642 0 2.10761-1.02643 2.77821-2.51818l-0.26003-0.26004c-0.82114 1.56018-1.69704 2.13498-2.13498 2.13498-0.301086 0-0.410567-0.26001-0.410567-0.49267 0-0.60218 0.78008-1.4507 0.78008-1.80652 0-0.23266-0.314764-0.35584-0.492673-0.41058 0.478993-0.0132 0.780083-0.19159 0.780083-0.65691zm-1.04012 0.68428c-0.697975 0.93063-1.99812 2.86033-2.83295 2.86033-0.218979 0-0.314781-0.12321-0.314781-0.43794 0-1.2591 1.5328-3.69516 2.80558-3.69516 0.465316 0 0.574814 0.34214 0.574814 0.71165 0 0.19161-0.01325 0.32846-0.06839 0.50637-0.01325 0-0.04107-0.0132-0.05482-0.0132-0.04107 0-0.08214 0.0273-0.109464 0.0684z" style="font-variant-caps:normal;font-variant-east-asian:normal;font-variant-ligatures:normal;font-variant-numeric:normal;paint-order:markers stroke fill"/>
        <path d="m74.7357 72.254c-0.0132-0.42427-0.1916-0.94431-0.56112-0.94431-1.2454 0-4.35206 6.25438-4.35206 8.95047 0 1.13592 0.54742 1.8202 1.58754 1.8202 1.01275 0 1.76546-0.6569 2.28553-1.47806 0.0959 0.0132 0.1916 0.0132 0.2874 0.0132 1.08117 0 1.68334-0.5748 2.14866-1.65596l-0.20528-0.28741c-0.28741 0.58849-0.80746 1.51913-1.76547 1.51913-0.10946 0-0.15053-0.0132-0.24633-0.0132 0.27371-0.58848 0.41056-1.19065 0.41056-1.7244 0-0.93063-0.42426-1.36857-1.01275-1.36857-0.69796 0-1.2454 0.60217-1.2454 1.49173 0 0.72535 0.35583 1.43701 1.02643 1.80654-0.34214 0.62953-0.958 1.12222-1.437 1.12222-0.53374 0-0.71165-0.60217-0.71165-1.32752 0-1.12222 0.42424-2.38132 0.61585-2.73715 1.69703-0.97169 3.17509-3.90043 3.17509-5.1869zm-0.64323 0.34214c-0.0132 0.64322-1.08118 2.8877-2.27183 3.98256 0.61585-1.90232 1.92969-3.85939 2.27183-3.98256zm-1.35489 6.0491c0-0.45163 0.1916-0.83484 0.43794-0.83484 0.21898 0 0.39689 0.30109 0.39689 0.95801 0 0.43794-0.0821 0.79378-0.24634 1.16329-0.45164-0.31476-0.58849-0.90325-0.58849-1.28646z" style="font-variant-caps:normal;font-variant-east-asian:normal;font-variant-ligatures:normal;font-variant-numeric:normal;paint-order:markers stroke fill"/>
        <path d="m80.5385 72.3225c-0.0132-0.42427-0.23266-1.09487-0.5748-1.09487-1.04011 0-4.35208 6.13122-4.35208 8.81363 0 0.79377 0.28741 1.45069 1.14962 1.45069 1.05379 0 2.05285-0.99906 2.83295-2.62767l-0.32846-0.1779c-0.50637 1.08116-1.30015 2.17603-1.98444 2.17603-0.35582 0-0.58848-0.28741-0.58848-0.94432 0-0.35583 0.0684-0.82115 0.15053-1.28646 2.08025-1.64229 3.69516-5.09109 3.69516-6.30913zm-0.62954 0.15053c0 0.91694-1.27278 3.62671-2.81926 5.31007 0.78008-2.47713 2.47712-5.31007 2.81926-5.31007z" style="font-variant-caps:normal;font-variant-east-asian:normal;font-variant-ligatures:normal;font-variant-numeric:normal;paint-order:markers stroke fill"/>
        <path d="m83.2619 77.0577c0-0.72535-0.52005-0.91696-0.99906-0.91696-1.69704 0-3.54461 2.27184-3.54461 3.88677 0 0.94431 0.64323 1.65596 1.82022 1.65596 1.46436 0 2.94243-1.09484 3.68146-2.73715l-0.27371-0.21896c-0.69798 1.31383-1.97075 2.36764-3.10667 2.36764-1.04013 0-1.05381-0.87589-1.05381-1.06749 0-0.17791 0.0132-0.24636 0.0273-0.31479 1.64228-0.1779 3.4488-1.27277 3.4488-2.65502zm-0.97169-0.32846c0.16428 0 0.23266 0.0548 0.23266 0.26003 0 1.02644-1.60123 2.1076-2.55924 2.21708 0.38321-1.13591 1.49175-2.47711 2.32658-2.47711z" style="font-variant-caps:normal;font-variant-east-asian:normal;font-variant-ligatures:normal;font-variant-numeric:normal;paint-order:markers stroke fill"/>
      </g>
      <path d="m38.2994 78.719h46.6798" fill="none" stroke="#000102" stroke-linecap="round" stroke-linejoin="bevel" stroke-width=".769234" style="paint-order:markers fill stroke"/>
    </g>
    <g>
      <path d="m73.7807 109.061 20.2277-35.0354 20.2277 35.0354z" fill="#fff" fill-opacity=".8" fill-rule="evenodd" stroke="#d00" stroke-linecap="round" stroke-linejoin="round" stroke-width="4.66678" style="paint-order:markers fill stroke"/>
      <path d="m96.6885 87.254-0.7219 13.3331h-3.41258l-0.72189-13.3331zm-0.36096 14.1644v3.54383h-4.13446v-3.54383z" stroke-width="1.05563"/>
    </g>
  </g>
</svg>
