<?xml version="1.0" encoding="UTF-8"?>
<svg width="491.94" height="442.51" version="1.1" viewBox="0 0 130.159 117.081" xmlns="http://www.w3.org/2000/svg">
  <g>
    <path d="m107.615 84.8691c-1.32604 2.29677-3.61152 0.952417-5.17038 3.098-1.55885 2.14558 0.42596 3.90377-1.34863 5.87465-1.7746 1.97088-3.73062 0.180728-5.7015 1.95532-1.97088 1.77459-0.394994 3.90702-2.54058 5.46588-2.14558 1.55886-3.68667-0.59886-5.98344 0.72719-2.29677 1.32604-1.19868 3.73952-3.62148 4.81822s-3.4816-1.35228-6.00388-0.53274-1.94997 3.40858-4.5441 3.95998-3.12436-2.04659-5.76192-1.76937-2.61605 2.92868-5.26813 2.92868c-2.65208 0-2.63058-2.65146-5.26813-2.92868s-3.16779 2.32077-5.76192 1.76937-2.02182-3.14044-4.5441-3.95998-3.58108 1.61144-6.00388 0.53274c-2.4228-1.0787-1.32471-3.49218-3.62148-4.81822-2.29677-1.32605-3.83786 0.83167-5.98344-0.72719-2.14558-1.55885-0.569693-3.69128-2.54058-5.46588-1.97088-1.77459-3.92691 0.01556-5.7015-1.95532-1.77459-1.97088 0.210218-3.72907-1.34864-5.87465-1.55886-2.14558-3.84433-0.801225-5.17037-3.098-1.32604-2.29677 0.980941-3.60387-0.09776-6.02668-1.0787-2.4228-3.59374-1.583-4.41328-4.10528-0.81954-2.52228 1.70879-3.32117 1.15739-5.9153-0.5514-2.59413-3.18608-2.29558-3.4633-4.93314s2.36196-2.89332 2.36196-5.5454c0-2.65209-2.63918-2.90785-2.36196-5.5454s2.9119-2.33901 3.4633-4.93314-1.97693-3.39302-1.15739-5.9153c0.819539-2.52228 3.33458-1.68248 4.41328-4.10528 1.0787-2.4228-1.22828-3.7299 0.09776-6.02667 1.32604-2.29677 3.61152-0.952416 5.17037-3.098 1.55886-2.14558-0.425953-3.90377 1.34864-5.87465 1.77459-1.97088 3.73062-0.180727 5.7015-1.95532 1.97088-1.77459 0.394994-3.90702 2.54058-5.46588 2.14558-1.55886 3.68667 0.59886 5.98344-0.727183 2.29677-1.32604 1.19868-3.73952 3.62148-4.81822 2.4228-1.0787 3.4816 1.35227 6.00388 0.532736 2.52228-0.81954 1.94997-3.40858 4.5441-3.95998 2.59413-0.5514 3.12436 2.04659 5.76192 1.76937s2.61605-2.92868 5.26813-2.92868c2.65208 1e-7 2.63058 2.65146 5.26813 2.92868 2.63756 0.277218 3.16779-2.32077 5.76192-1.76937 2.59413 0.5514 2.02182 3.14044 4.5441 3.95998 2.52228 0.819539 3.58108-1.61144 6.00388-0.532736 2.4228 1.0787 1.3247 3.49218 3.62148 4.81822 2.29677 1.32604 3.83786-0.831675 5.98344 0.727182s0.569693 3.69129 2.54058 5.46588c1.97088 1.77459 3.92691-0.01556 5.7015 1.95532 1.77459 1.97088-0.21022 3.72907 1.34864 5.87465 1.55885 2.14558 3.84433 0.801226 5.17037 3.098s-0.98094 3.60387 0.0978 6.02667c1.0787 2.4228 3.59374 1.583 4.41328 4.10528 0.81953 2.52228-1.7088 3.32117-1.1574 5.9153s3.18609 2.29559 3.4633 4.93314c0.27722 2.63756-2.36196 2.89332-2.36196 5.5454 0 2.65208 2.63918 2.90784 2.36196 5.5454-0.27721 2.63756-2.9119 2.33901-3.4633 4.93314s1.97693 3.39302 1.1574 5.9153c-0.81954 2.52228-3.33458 1.68248-4.41328 4.10528-1.0787 2.4228 1.22828 3.7299-0.0978 6.02667z" fill="#c59117" fill-rule="evenodd" style="paint-order:normal"/>
    <circle cx="61.6714" cy="58.3433" r="47.3195" fill="#ffffac" fill-rule="evenodd" opacity=".99"/>
    <ellipse cx="61.6714" cy="58.3433" rx="43.3013" ry="43.3013" fill="none" stroke="#8a5300" stroke-linejoin="round" stroke-width="2.42137"/>
    <ellipse cx="61.6714" cy="58.3433" rx="40.907" ry="40.907" fill="none" stroke="#c6941b" stroke-linejoin="round" stroke-width=".794019"/>
    <g fill="#a26b00" fill-rule="evenodd">
      <path d="m61.6714 19.3867 1.06773 3.18818 3.36208 0.03027-2.70219 2.00068 1.01015 3.20689-2.73778-1.95169-2.73778 1.95169 1.01015-3.20689-2.70219-2.00068 3.36208-0.03027z"/>
      <path d="m71.6567 21.7965 0.983275 2.93599 3.09614 0.02788-2.48844 1.84242 0.930245 2.95322-2.52122-1.79731-2.52122 1.79731 0.930245-2.95322-2.48844-1.84242 3.09614-0.02788z"/>
      <path d="m51.686 21.7965 0.983275 2.93599 3.09614 0.02788-2.48844 1.84242 0.930245 2.95322-2.52122-1.79731-2.52122 1.79731 0.930245-2.95322-2.48844-1.84242 3.09614-0.02788z"/>
      <path d="m61.6714 87.3467 1.06773 3.18818 3.36208 0.03027-2.70219 2.00068 1.01015 3.20689-2.73778-1.95169-2.73778 1.95169 1.01015-3.20689-2.70219-2.00068 3.36208-0.03027z"/>
      <path d="m71.6567 86.2694 0.983275 2.93599 3.09614 0.02788-2.48844 1.84242 0.930245 2.95322-2.52122-1.79731-2.52122 1.79731 0.930245-2.95322-2.48844-1.84242 3.09614-0.02788z"/>
      <path d="m51.686 86.2694 0.983275 2.93599 3.09614 0.02788-2.48844 1.84242 0.930245 2.95322-2.52122-1.79731-2.52122 1.79731 0.930245-2.95322-2.48844-1.84242 3.09614-0.02788z"/>
    </g>
    <g fill="#442400" stroke="#442400" stroke-linecap="round" stroke-linejoin="round" stroke-width=".261426">
      <path d="m44.7762 36.6609c-0.528799-0.30274-1.34843-0.48654-2.12842-0.48654-1.96978 0-3.39755 0.98389-3.39755 2.35701 0 0.68116 0.370165 1.27581 1.00472 1.61098 0.462701 0.23787 0.72711 0.31355 2.28707 0.6271l1.30879 0.2703c0.991501 0.20543 1.26911 0.36761 1.26911 0.76765 0 0.56223-0.687434 0.96228-1.66572 0.96228-0.925403 0-1.85081-0.33518-2.5118-0.89741-0.356945-0.32435-0.608117-0.59465-0.951842-1.10282l-0.991501 0.2703 1.09726 2.75706h0.779988l0.185074-0.52978c0.555238 0.33517 1.46742 0.5514 2.36639 0.5514 2.15486 0 3.74125-1.10281 3.74125-2.59487 0-0.67035-0.356928-1.265-0.965062-1.58937-0.396586-0.21623-0.753531-0.32436-1.89045-0.57303l-1.20303-0.25949c-0.02651-0.0114-0.277611-0.0541-0.647776-0.11896-0.251189-0.0432-0.48914-0.10811-0.687451-0.18381-0.317269-0.10811-0.475904-0.29191-0.475904-0.51897 0-0.44329 0.608117-0.75684 1.45418-0.75684 0.753549 0 1.5732 0.29193 2.07556 0.73522 0.224733 0.19461 0.396587 0.36761 0.81963 0.84333l0.951842-0.29193-0.872525-2.19482h-0.79319z" style="font-feature-settings:normal;font-variant-caps:normal;font-variant-ligatures:normal;font-variant-numeric:normal"/>
      <path d="m51.1879 40.6937h1.25591c2.41925 0 3.7016-0.75684 3.7016-2.18403 0-0.71358-0.370165-1.35149-1.03116-1.72991-0.581677-0.34599-1.26913-0.46492-2.65722-0.46492h-4.74599v0.88659l0.264408 0.0217c0.766752 0.0864 0.912184 0.22705 0.898964 0.9082v3.73014c0.01395 0.68116-0.132195 0.82171-0.898964 0.90821l-0.264408 0.0217v0.88659h4.64022v-0.88659l-0.264391-0.0217c-0.766769-0.0866-0.912184-0.22705-0.898964-0.90821zm0-2.59488c0-0.38923 0.01395-0.50816 0.09261-0.59466 0.09261-0.11895 0.396603-0.19462 0.806427-0.19462 0.912184 0 1.5203 0.47574 1.5203 1.1677 0 0.8109-0.713873 1.25419-1.983 1.25419-0.132195 0-0.224732 0-0.436262-0.0217z" style="font-feature-settings:normal;font-variant-caps:normal;font-variant-ligatures:normal;font-variant-numeric:normal"/>
      <path d="m60.3891 36.3149h-3.89991v0.88659l0.264408 0.0217c0.766751 0.0864 0.912184 0.22705 0.898964 0.9082v3.73014c0.01395 0.68116-0.132195 0.82171-0.898964 0.90821l-0.264408 0.0217v0.88659h3.55618v-0.88659l-0.26439-0.0217c-0.76677-0.0866-0.91218-0.22705-0.89896-0.90821v-3.87069l4.11142 5.68711h1.63929v-5.54656c-0.014-0.68115 0.13219-0.82171 0.89895-0.9082l0.2644-0.0217v-0.88659h-3.55618v0.88659l0.26439 0.0217c0.76677 0.0864 0.91219 0.22705 0.89897 0.9082v2.4327z" style="font-feature-settings:normal;font-variant-caps:normal;font-variant-ligatures:normal;font-variant-numeric:normal"/>
      <path d="m72.8819 42.4885c-0.23797 0.1838-0.23797 0.1838-0.33051 0.1838-0.0926 0-0.19829-0.0541-0.22473-0.11896-0.0396-0.0757-0.0396-0.0757-0.0528-0.48653v-2.12997c0-0.57304-0.14545-0.91901-0.50236-1.20013-0.4627-0.36761-1.33523-0.58385-2.37961-0.58385-1.70537 0-2.93484 0.6271-2.93484 1.49206 0 0.46491 0.42304 0.8109 0.97828 0.8109 0.64777 0 1.03116-0.31356 1.01794-0.83253 0-0.15136 0.0265-0.22706 0.11894-0.28111 0.1587-0.11896 0.44948-0.19461 0.72711-0.19461 0.56846 0 0.83285 0.1838 0.83285 0.58384v0.55142c-0.72709 0.0541-1.36165 0.15136-1.93011 0.29191-1.32201 0.32437-1.983 0.89741-1.983 1.71912 0 0.88658 0.84607 1.48124 2.10198 1.48124 0.75353 0 1.42776-0.1838 2.10198-0.55141 0.31728 0.33518 0.89896 0.55141 1.5203 0.55141 0.59489 0 1.08403-0.16218 1.67893-0.55141zm-2.74977-0.25949c-0.34371 0.25949-0.67422 0.37842-1.04438 0.37842-0.37015 0-0.62134-0.21623-0.62134-0.5406 0-0.46491 0.5288-0.74603 1.66572-0.91901z" style="font-feature-settings:normal;font-variant-caps:normal;font-variant-ligatures:normal;font-variant-numeric:normal"/>
      <path d="m78.5004 39.1693v-0.91902h-1.81115v-1.71911h-1.24267c-0.1322 1.11364-0.75355 1.7083-1.90369 1.83804v0.85415h1.00472v2.73544c0 0.65952 0.0529 0.91901 0.21152 1.17851 0.29084 0.43248 0.80642 0.6379 1.58639 0.6379 1.18982 0 2.02268-0.32437 2.78943-1.08121l-0.7932-0.76764c-0.5949 0.46492-0.83285 0.59466-1.17658 0.59466-0.35694 0-0.47592-0.17299-0.47592-0.73522v-2.6165z" style="font-feature-settings:normal;font-variant-caps:normal;font-variant-ligatures:normal;font-variant-numeric:normal"/>
      <path d="m84.3437 43.6779v-0.88658l-0.31729-0.0217c-0.76675-0.0866-0.91218-0.22706-0.89896-0.90822v-3.73013c-0.0139-0.68115 0.13219-0.82172 0.89896-0.90821l0.31729-0.0217v-0.88658h-4.74599v0.88658l0.31728 0.0217c0.76676 0.0864 0.91219 0.22706 0.89897 0.90821v3.73013c0.0139 0.68116-0.1322 0.82171-0.89897 0.90822l-0.31728 0.0217v0.88658z" style="font-feature-settings:normal;font-variant-caps:normal;font-variant-ligatures:normal;font-variant-numeric:normal"/>
    </g>
    <g fill="#361c00">
      <path d="m35.1168 54.79q0 0.66108-0.397373 0.66108-0.241268 0-0.496712-0.79331-0.354799-1.07426-0.638626-1.52048-0.567684-0.85941-1.51852-0.99162v-1.38829h3.05123zm-1.27727 5.27213q0 1.07426-0.411564 1.07426-0.241253 0-0.383167-0.49581t-0.283842-1.00815q-0.241268-0.6115-0.695391-0.80982v-1.40481q0.454123-0.19832 0.695391-0.80982 0.141914-0.49582 0.283842-0.99163 0.141914-0.51234 0.383167-0.51234 0.411564 0 0.411564 1.15689zm-2.24229 5.86711h-3.50538q-0.596052 0-0.596052-0.62803 0-0.38013 0.269651-0.6115 0.36899-0.33055 0.425755-0.44623 0.05671-0.28096 0.05671-0.66108v-10.4782q0-0.38013-0.05671-0.6611-0.05671-0.0992-0.425755-0.44621-0.269651-0.24792-0.269651-0.6115 0-0.62805 0.596052-0.62805h3.50538zm3.6189-3.52027-0.01462 3.52027h-3.13638v-1.4048q1.05019-0.13224 1.60367-1.02468 0.298019-0.46276 0.596052-1.5866 0.21287-0.82635 0.46833-0.82635 0.482521 0 0.482521 1.32216z" style="font-feature-settings:normal;font-variant-caps:normal;font-variant-ligatures:normal;font-variant-numeric:normal;paint-order:stroke markers fill"/>
      <path d="m44.636 55.4511q0 2.446-1.05019 3.56985-0.993425 1.09078-3.09381 1.09078v-1.2891q0.894086-0.066 0.894086-1.90063v-2.95834q0-1.8345-0.894086-1.91713v-1.28913h0.298019q3.84598 0 3.84598 4.6937zm-3.67567 9.88318q0 0.59498-0.681215 0.59498h-3.775q-0.553492 0-0.553492-0.62803 0-0.3636 0.26965-0.59497 0.383182-0.34708 0.439947-0.46276 0.04253-0.21485 0.04253-0.66108v-10.4782q0-0.44623-0.04253-0.6611-0.05671-0.11573-0.439947-0.44621-0.26965-0.24792-0.26965-0.6115 0-0.62805 0.596066-0.62805h3.50537v13.0894q0 0.46276 0.454138 0.74373 0.454138 0.28095 0.454138 0.74371z" style="font-feature-settings:normal;font-variant-caps:normal;font-variant-ligatures:normal;font-variant-numeric:normal;paint-order:stroke markers fill"/>
      <path d="m50.1956 65.3012q0 0.62803-0.610244 0.62803h-3.67568q-0.596052 0-0.596052-0.62803 0-0.38013 0.269651-0.6115 0.383181-0.33055 0.439946-0.44623 0.05671-0.28096 0.05671-0.66108v-10.4782q0-0.38013-0.05671-0.6611-0.05671-0.0992-0.439946-0.44621-0.269651-0.24792-0.269651-0.6115 0-0.62805 0.596052-0.62805h3.67568q0.610244 0 0.610244 0.62805 0 0.36358-0.269636 0.59497-0.383182 0.34706-0.454138 0.46274-0.05671 0.42971-0.05671 0.6611v10.5277q0 0.4297 0.04253 0.57844 0.04253 0.14876 0.411549 0.44624 0.326416 0.2479 0.326416 0.64455z" style="font-feature-settings:normal;font-variant-caps:normal;font-variant-ligatures:normal;font-variant-numeric:normal;paint-order:stroke markers fill"/>
      <path d="m55.7694 51.3854q0 0.36358-0.26965 0.6115-0.383182 0.33053-0.439947 0.44621-0.04253 0.21487-0.04253 0.82637v12.6597h-3.51956q-0.596052 0-0.596052-0.62803 0-0.38013 0.269636-0.6115 0.383181-0.33055 0.439947-0.44623 0.05671-0.42971 0.05671-0.66108v-10.4782q0-0.23139-0.05671-0.6611-0.05671-0.0992-0.439947-0.44621-0.269636-0.24792-0.269636-0.6115 0-0.62805 0.596052-0.62805h3.67567q0.596066 0 0.596066 0.62805zm2.65386 14.5438h-2.98028v-1.4048q0.950851-0.0827 1.47595-1.09078 0.269636-0.52887 0.581861-1.8345 0.227076-0.97511 0.468329-0.97511 0.454139 0 0.454139 1.27258z" style="font-feature-settings:normal;font-variant-caps:normal;font-variant-ligatures:normal;font-variant-numeric:normal;paint-order:stroke markers fill"/>
      <path d="m68.0701 58.3433q0 3.00792-0.86569 5.02423-1.10697 2.56169-3.40603 2.84266v-1.28913q0.6812-0.0992 0.6812-1.78492v-9.5857q0-1.68576-0.6812-1.78492v-1.28911q2.29906 0.28095 3.40603 2.84266 0.86569 2.01631 0.86569 5.02423zm-4.71167 7.86689q-2.28488-0.26445-3.39183-2.84266-0.86571-2.01631-0.86571-5.02423t0.86571-5.02423q1.10695-2.56171 3.39183-2.84266v1.28911q-0.46833 0.066-0.61024 0.7272-0.071 0.33053-0.071 1.12384v9.45347q0 0.7933 0.071 1.12385 0.14191 0.66108 0.61024 0.72718z" style="font-feature-settings:normal;font-variant-caps:normal;font-variant-ligatures:normal;font-variant-numeric:normal;paint-order:stroke markers fill"/>
      <path d="m76.8796 55.2858q0 1.17342-0.55347 1.17342-0.31222 0-0.66701-1.17342-0.51091-1.70229-0.76637-2.21461-0.59605-1.22302-1.51852-1.30565v-1.28911q0.3548 0.0495 1.13536 0.42971 0.73796 0.38011 1.00761 0.38011 0.12774 0 0.36898-0.38011 0.24127-0.38013 0.5109-0.38013 0.31223 0 0.41157 0.26444 0.071 0.16527 0.071 0.59498zm0.5251 3.53681q0 0.34705-0.1703 0.52886-0.22706 0.23138-0.26963 0.36359-0.11356 0.33055-0.11356 1.5866 0 0.44623 0.0284 1.35521 0.0425 0.89247 0.0425 1.33871-1.58949 2.09892-3.54796 2.1981v-1.3387q0.58186-0.066 0.58186-1.223v-3.2889q0-0.16526-0.0567-0.52886-0.0425-0.066-0.46833-0.41317-0.25544-0.21486-0.25544-0.62802 0-0.59498 0.62444-0.59498h3.06542q0.53928 0 0.53928 0.64456zm-4.45622 7.3876q-2.25649-0.33055-3.33506-2.89224-0.83732-1.99978-0.83732-4.97465t0.83732-4.97465q1.07857-2.52864 3.33506-2.89224v1.28911q-0.45414 0.0992-0.59605 0.74373-0.071 0.33053-0.071 1.10731v9.45347q0 0.76024 0.071 1.10732 0.14191 0.66108 0.59605 0.74371z" style="font-feature-settings:normal;font-variant-caps:normal;font-variant-ligatures:normal;font-variant-numeric:normal;paint-order:stroke markers fill"/>
      <path d="m87.4206 51.4185q0 0.33053-0.45414 0.76024-0.49671 0.49581-0.62445 1.12384-0.0852 0.41318-0.0852 1.42132v5.73491q0 2.33031-0.42575 3.52026-0.61025 1.71881-2.27068 2.06587v-1.48742q1.06438-0.21487 1.47595-1.30565 0.26963-0.76024 0.26963-2.24769v-6.8422q0-0.95856-0.29802-1.48743-0.12773-0.23139-0.56768-0.64455-0.29802-0.28097-0.29802-0.6115 0-0.69415 0.58186-0.69415h2.11457q0.58188 0 0.58188 0.69415zm-4.25754-0.0992q0 0.39666-0.31223 0.62805-0.49671 0.39663-0.53929 0.44621-0.0567 0.36361-0.0567 0.56192v9.60223q0 0.909 0.0994 1.25606 0.1845 0.62802 0.78056 0.71067l0.0146 1.58659q-0.89408 0.0495-0.93666 0.0495-1.80236 0-2.61128-1.18997-0.73798-1.09077-0.73798-3.25582v-8.64365q0-0.44624-0.0425-0.6611-0.071-0.13224-0.43995-0.46274-0.26965-0.24792-0.26965-0.59498 0-0.62804 0.61026-0.62804h3.70405q0.73798 0 0.73798 0.59497z" style="font-feature-settings:normal;font-variant-caps:normal;font-variant-ligatures:normal;font-variant-numeric:normal;paint-order:stroke markers fill"/>
      <path d="m95.7476 54.79q0 0.66108-0.39737 0.66108-0.24127 0-0.49671-0.79331-0.3548-1.07426-0.63865-1.52048-0.56766-0.85941-1.51852-0.99162v-1.38829h3.05125zm-1.27727 5.27213q0 1.07426-0.41156 1.07426-0.24125 0-0.38318-0.49581-0.14192-0.49581-0.28383-1.00815-0.24127-0.6115-0.69541-0.80982v-1.40481q0.45414-0.19832 0.69541-0.80982 0.14191-0.49582 0.28383-0.99163 0.14191-0.51234 0.38318-0.51234 0.41156 0 0.41156 1.15689zm-2.2423 5.86711h-3.50537q-0.59606 0-0.59606-0.62803 0-0.38013 0.26965-0.6115 0.36898-0.33055 0.42575-0.44623 0.0567-0.28096 0.0567-0.66108v-10.4782q0-0.38013-0.0567-0.6611-0.0567-0.0992-0.42575-0.44621-0.26965-0.24792-0.26965-0.6115 0-0.62805 0.59606-0.62805h3.50537zm3.61891-3.52027-0.0146 3.52027h-3.1364v-1.4048q1.05021-0.13224 1.60368-1.02468 0.29802-0.46276 0.59606-1.5866 0.21287-0.82635 0.46833-0.82635 0.48252 0 0.48252 1.32216z" style="font-feature-settings:normal;font-variant-caps:normal;font-variant-ligatures:normal;font-variant-numeric:normal;paint-order:stroke markers fill"/>
    </g>
    <g fill="#361c00">
      <path d="m40.5325 76.3882c-1.49175 0-3.03824 1.79284-3.03824 3.58566 0 1.23172 0.68428 1.80652 1.62861 1.80652 1.39594 0 2.94244-1.21802 3.59934-2.88769l-0.273712-0.24635c-0.602173 1.49175-1.88863 2.43607-2.92876 2.43607-0.766387 0-0.971688-0.52005-0.971688-1.02642 0-1.21804 1.21804-3.12037 2.13498-3.12037 0.191605 0 0.260033 0.0821 0.260033 0.23266 0 0.54744-0.260033 0.90326-0.437942 1.02644 0.109465 0.17791 0.273712 0.26003 0.424263 0.26003 0.410568 0 0.68428-0.60217 0.68428-1.10854 0-0.50639-0.314765-0.95801-1.08117-0.95801z" style="font-variant-caps:normal;font-variant-east-asian:normal;font-variant-ligatures:normal;font-variant-numeric:normal;paint-order:markers stroke fill"/>
      <path d="m46.0205 80.2065c0.643226 0 1.36858-0.41057 1.77914-1.3412l-0.246337-0.17791c-0.34214 0.7664-1.08119 1.02642-1.49175 1.02642-0.150535 0-0.273712-0.0273-0.383193-0.0821 0.492675-0.75272 0.903259-1.64229 0.903259-2.32658 0-0.60218-0.287407-1.10855-1.06749-1.10855-0.930634 0-1.36858 0.69798-1.46438 1.4507-0.16428-0.0684-0.287407-0.10946-0.424263-0.10946-0.821136 0-1.64229 1.46438-1.64229 2.62767 0 0.64323 0.246338 1.28647 1.06749 1.28647 0.821153 0 1.66966-0.62955 2.28552-1.36858 0.205301 0.0684 0.451638 0.12321 0.684297 0.12321zm-1.16329-0.42424c-0.437942 0.52004-0.971687 0.97168-1.31383 0.97168-0.342157 0-0.465317-0.26003-0.465317-0.62954 0-0.82116 0.629547-2.17604 0.957992-2.35396 0.02732 0.78009 0.232658 1.49175 0.821152 2.01182zm-0.04107-1.77917c0-0.73902 0.451622-1.30014 0.807457-1.30014 0.246338 0 0.38321 0.1916 0.38321 0.60217 0 0.61587-0.355835 1.40965-0.793778 2.03918-0.260033-0.31477-0.396889-0.958-0.396889-1.34121z" style="font-variant-caps:normal;font-variant-east-asian:normal;font-variant-ligatures:normal;font-variant-numeric:normal;paint-order:markers stroke fill"/>
      <path d="m50.9063 81.3288c0.205284-0.32846 0.451622-0.8622 0.752708-1.30015 0.821153-1.21804 1.3412-1.87494 1.76547-1.87494 0.177909 0 0.314782 0.10946 0.314782 0.41056 0 0.50637-0.38321 1.19067-0.38321 1.80652 0 0.5885 0.34214 1.06749 1.05381 1.06749 1.19065 0 2.0118-1.38225 2.44975-2.50449l-0.232659-0.28741c-0.424263 0.91696-1.12224 2.13498-1.84757 2.13498-0.273729 0-0.342157-0.17791-0.342157-0.36951 0-0.479 0.465317-1.36858 0.465317-2.08023 0-0.50638-0.232659-1.02644-0.944313-1.02644-0.793778 0-1.46438 0.64324-1.98443 1.40965 0.150535-0.45164 0.232659-0.72535 0.232659-1.09487 0-0.56112-0.191605-1.14961-0.862206-1.14961-0.90326 0-1.91602 1.06749-2.66872 2.09392 0.109464-0.43794 0.191605-0.80745 0.191605-0.98536 0-0.27373-0.205301-0.45164-0.465317-0.45164-0.260034 0-0.697976 0.17791-0.752725 0.38319-0.05482 0.2053-0.875885 3.50356-0.875885 3.50356 0 0.13695 0.602173 0.36951 0.916938 0.36951 0.656922-1.80652 2.25816-3.832 3.01087-3.832 0.2053 0 0.287407 0.15054 0.287407 0.41057 0 0.84851-0.903259 2.6961-0.903259 3.01087 0 0.24635 0.574798 0.35583 0.821152 0.35583z" style="font-variant-caps:normal;font-variant-east-asian:normal;font-variant-ligatures:normal;font-variant-numeric:normal;paint-order:markers stroke fill"/>
      <path d="m58.2145 81.4519c1.98443 0 3.32565-2.0392 3.32565-3.44883 0-0.98536-0.65692-1.64228-1.5465-1.64228-0.95799 0-1.7244 0.78008-2.23078 1.56018 0.12321-0.61587 0.191605-1.09487 0.191605-1.28647 0-0.36952-0.246338-0.72535-0.807457-0.72535-0.287408 0-0.301087 0.0959-0.328461 0.31478-0.547424 4.28364-0.68428 4.96794-1.83389 8.27989 0.01325 0.12321 0.328461 0.34214 0.547441 0.34214 0.780082 0 1.1496-2.87401 1.92968-5.58379 0.328461-0.73903 1.30015-2.10761 2.23078-2.10761 0.53375 0 0.7664 0.46532 0.7664 1.01274 0 1.23173-1.14959 2.75085-2.874 2.79191-0.16428 0-0.328461 0.0132-0.328461 0.13679 0 0.17791 0.369515 0.35583 0.958009 0.35583z" style="font-variant-caps:normal;font-variant-east-asian:normal;font-variant-ligatures:normal;font-variant-numeric:normal;paint-order:markers stroke fill"/>
      <path d="m66.9187 72.2551c-0.0132-0.42427-0.23266-1.09487-0.5748-1.09487-1.04012 0-4.35207 6.13123-4.35207 8.81363 0 0.79378 0.28739 1.4507 1.1496 1.4507 1.05381 0 2.05287-0.99906 2.83295-2.62767l-0.32846-0.17791c-0.50637 1.08117-1.30015 2.17604-1.98443 2.17604-0.35583 0-0.58849-0.28741-0.58849-0.94432 0-0.35583 0.0684-0.82115 0.15054-1.28647 2.08023-1.64228 3.69514-5.09109 3.69514-6.30913zm-0.62953 0.15053c0 0.91694-1.27279 3.62672-2.81928 5.31008 0.78008-2.47714 2.47712-5.31008 2.81928-5.31008z" style="font-variant-caps:normal;font-variant-east-asian:normal;font-variant-ligatures:normal;font-variant-numeric:normal;paint-order:markers stroke fill"/>
      <path d="m69.6421 76.9904c0-0.72535-0.52007-0.91695-0.99907-0.91695-1.69704 0-3.54461 2.27183-3.54461 3.88676 0 0.94432 0.64323 1.65597 1.8202 1.65597 1.46438 0 2.94244-1.09485 3.68147-2.73715l-0.27371-0.21896c-0.69798 1.31382-1.97075 2.36764-3.10667 2.36764-1.04012 0-1.0538-0.87589-1.0538-1.0675 0-0.1779 0.0132-0.24635 0.0273-0.31478 1.64231-0.17791 3.44883-1.27277 3.44883-2.65503zm-0.97169-0.32846c0.16428 0 0.23266 0.0548 0.23266 0.26004 0 1.02643-1.60124 2.1076-2.55925 2.21708 0.3832-1.13592 1.49176-2.47712 2.32659-2.47712z" style="font-variant-caps:normal;font-variant-east-asian:normal;font-variant-ligatures:normal;font-variant-numeric:normal;paint-order:markers stroke fill"/>
      <path d="m74.4321 76.5524c-0.79376 0.0821-1.50543 0.0959-2.5045 0.0959 0.76641-1.53281 1.76547-2.86033 1.76547-3.40776 0-0.24635-0.20528-0.39689-0.38319-0.39689-0.61587 0-1.68336 1.8202-2.46345 3.76358-0.20528-0.0132-0.36951-0.0273-0.65692-0.0684v0.42426c0.16428 0.0684 0.34214 0.0959 0.47902 0.12321-0.43796 1.19066-0.75273 2.38132-0.75273 3.12035 0 0.97169 0.53375 1.43701 1.3412 1.43701 1.31385 0 2.57293-1.2454 3.29828-2.87401l-0.19161-0.13679c-0.71165 1.42332-1.75177 2.31289-2.65503 2.31289-0.50637 0-0.73903-0.27372-0.73903-1.02642 0-0.88958 0.32845-1.84759 0.71166-2.75085 0.80745 0 1.66966-0.0548 2.75083-0.16428z" style="font-variant-caps:normal;font-variant-east-asian:normal;font-variant-ligatures:normal;font-variant-numeric:normal;paint-order:markers stroke fill"/>
      <path d="m78.2778 76.9904c0-0.72535-0.52005-0.91695-0.99907-0.91695-1.69703 0-3.54461 2.27183-3.54461 3.88676 0 0.94432 0.64323 1.65597 1.82022 1.65597 1.46436 0 2.94243-1.09485 3.68146-2.73715l-0.27371-0.21896c-0.69797 1.31382-1.97075 2.36764-3.10667 2.36764-1.04013 0-1.05381-0.87589-1.05381-1.0675 0-0.1779 0.0132-0.24635 0.0273-0.31478 1.64229-0.17791 3.44881-1.27277 3.44881-2.65503zm-0.97169-0.32846c0.16428 0 0.23266 0.0548 0.23266 0.26004 0 1.02643-1.60124 2.1076-2.55925 2.21708 0.38321-1.13592 1.49176-2.47712 2.32659-2.47712z" style="font-variant-caps:normal;font-variant-east-asian:normal;font-variant-ligatures:normal;font-variant-numeric:normal;paint-order:markers stroke fill"/>
      <path d="m82.8215 76.744c0.13679-0.0821 0.16428-0.21896 0.16428-0.31477 0-0.31476-0.26002-0.43794-0.6706-0.43794-1.916 0-3.88675 2.68241-3.88675 4.20153 0 0.86221 0.64322 1.23172 1.16329 1.23172 0.80746 0 1.8202-0.88958 2.6824-2.13498-0.0548 0.28739-0.10946 0.60218-0.10946 0.88957 0 0.64324 0.24634 1.19067 0.99906 1.19067 1.02644 0 2.21709-1.04012 2.81926-2.54555l-0.26003-0.21898c-0.62953 1.30015-1.53279 2.0255-2.12129 2.0255-0.20528 0-0.27371-0.12321-0.27371-0.56112 0-2.92876 3.10667-7.55454 3.10667-8.49885 0-0.23266-0.17793-0.41059-0.38321-0.41059-0.83483 0-2.08023 3.18879-3.09297 5.78909-0.88958 2.27184-2.17605 3.62672-2.91508 3.62672-0.28739 0-0.43795-0.21897-0.43795-0.5748 0-1.02644 1.23173-3.40776 2.73716-3.40776 0.20528 0 0.39689 0.0411 0.47901 0.15054z" style="font-variant-caps:normal;font-variant-east-asian:normal;font-variant-ligatures:normal;font-variant-numeric:normal;paint-order:markers stroke fill"/>
    </g>
    <path d="m78.4603 82.6787q1.29673 0 1.96172 2.12803 1.33003 3.99005 1.89531 3.99005 0.43222 0 0.89774-0.66502 9.34334-14.9626 17.2901-24.2062 2.06153-2.39401 6.55034-2.39401 1.064 0 1.42975 0.19956 0.36572 0.19955 0.36572 0.49879 0 0.46549-1.09725 1.82874-12.8346 15.4281-23.8072 32.5853-0.76473 1.19699-3.1255 1.19699-2.39404 0-2.82633-0.19956-1.13048-0.49879-2.66001-5.08731-1.72902-5.08729-1.72902-6.38405 0-1.39651 2.32753-2.69328 1.42975-0.798 2.52706-0.798z" fill="#41d822" fill-opacity=".848764" style="font-variant-caps:normal;font-variant-east-asian:normal;font-variant-ligatures:normal;font-variant-numeric:normal;mix-blend-mode:normal"/>
  </g>
</svg>
