<?xml version="1.0" encoding="UTF-8"?>
<svg width="491.94" height="442.51" version="1.1" viewBox="0 0 130.159 117.081" xmlns="http://www.w3.org/2000/svg">
  <g>
    <path d="m107.615 84.8691c-1.32604 2.29677-3.61151 0.952417-5.17037 3.098s0.42595 3.90377-1.34864 5.87465c-1.77459 1.97088-3.73061 0.180728-5.7015 1.95532-1.97088 1.77459-0.394994 3.90702-2.54058 5.46588-2.14558 1.55886-3.68667-0.59886-5.98344 0.72719-2.29677 1.32604-1.19868 3.73952-3.62148 4.81822-2.4228 1.0787-3.4816-1.35228-6.00388-0.53274s-1.94997 3.40858-4.5441 3.95998-3.12436-2.04659-5.76192-1.76937c-2.63756 0.27722-2.61605 2.92868-5.26813 2.92868-2.65208 0-2.63058-2.65146-5.26813-2.92868s-3.16779 2.32077-5.76192 1.76937c-2.59413-0.5514-2.02182-3.14044-4.54411-3.95998s-3.58108 1.61144-6.00388 0.53274c-2.4228-1.0787-1.32471-3.49218-3.62148-4.81822-2.29677-1.32605-3.83786 0.83167-5.98344-0.72719-2.14558-1.55885-0.569693-3.69128-2.54058-5.46588-1.97088-1.77459-3.92691 0.01556-5.7015-1.95532-1.77459-1.97088 0.210218-3.72907-1.34864-5.87465s-3.84433-0.801225-5.17037-3.098c-1.32604-2.29677 0.980941-3.60387-0.09776-6.02668-1.0787-2.4228-3.59374-1.583-4.41328-4.10528-0.81954-2.52228 1.70879-3.32117 1.15739-5.9153-0.5514-2.59413-3.18608-2.29558-3.4633-4.93314s2.36196-2.89332 2.36196-5.5454c0-2.65209-2.63918-2.90785-2.36196-5.5454 0.277218-2.63756 2.9119-2.33901 3.4633-4.93314 0.5514-2.59413-1.97693-3.39302-1.15739-5.9153 0.819539-2.52228 3.33458-1.68248 4.41328-4.10528 1.0787-2.4228-1.22828-3.7299 0.09776-6.02667 1.32604-2.29677 3.61152-0.952416 5.17037-3.098 1.55886-2.14558-0.425952-3.90377 1.34864-5.87465 1.77459-1.97088 3.73062-0.180727 5.7015-1.95532 1.97088-1.77459 0.394995-3.90702 2.54058-5.46588 2.14558-1.55886 3.68667 0.59886 5.98344-0.727183 2.29677-1.32604 1.19868-3.73952 3.62148-4.81822 2.4228-1.0787 3.4816 1.35227 6.00388 0.532736 2.52228-0.81954 1.94997-3.40858 4.5441-3.95998 2.59413-0.5514 3.12436 2.04659 5.76192 1.76937s2.61605-2.92868 5.26813-2.92868c2.65208 1e-7 2.63058 2.65146 5.26813 2.92868 2.63756 0.277218 3.16779-2.32077 5.76192-1.76937 2.59413 0.5514 2.02182 3.14044 4.5441 3.95998 2.52228 0.819539 3.58108-1.61144 6.00388-0.532736 2.4228 1.0787 1.3247 3.49218 3.62148 4.81822 2.29677 1.32604 3.83786-0.831675 5.98344 0.727182s0.569693 3.69129 2.54058 5.46588c1.97088 1.77459 3.92691-0.01556 5.7015 1.95532 1.77459 1.97088-0.21022 3.72907 1.34864 5.87465s3.84433 0.801226 5.17037 3.098c1.32605 2.29677-0.98094 3.60387 0.0978 6.02667 1.0787 2.4228 3.59374 1.583 4.41328 4.10528s-1.70879 3.32117-1.15739 5.9153 3.18608 2.29559 3.4633 4.93314-2.36196 2.89332-2.36196 5.5454c0 2.65208 2.63918 2.90784 2.36196 5.5454s-2.9119 2.33901-3.4633 4.93314 1.97693 3.39302 1.15739 5.9153-3.33458 1.68248-4.41328 4.10528c-1.0787 2.4228 1.22829 3.7299-0.0978 6.02667z" fill="#c59117" fill-rule="evenodd" style="paint-order:normal"/>
    <circle cx="61.6719" cy="58.3399" r="47.3195" fill="#ffffac"/>
    <circle cx="61.671" cy="58.343" r="43.301" fill="none" stroke="#8a5300" stroke-width="2.4214"/>
    <circle cx="61.671" cy="58.343" r="40.907" fill="none" stroke="#c6941b" stroke-width=".79402"/>
    <g fill="#a26b00" fill-rule="evenodd">
      <path d="m61.6719 19.3833 1.06773 3.18818 3.36208 0.03027-2.70219 2.00068 1.01015 3.20689-2.73778-1.95169-2.73778 1.95169 1.01015-3.20689-2.70219-2.00068 3.36208-0.03027z"/>
      <path d="m71.6573 21.7932 0.983275 2.93599 3.09614 0.02788-2.48844 1.84242 0.930245 2.95322-2.52122-1.79731-2.52122 1.79731 0.930245-2.95322-2.48844-1.84242 3.09614-0.02788z"/>
      <path d="m51.6866 21.7932 0.983274 2.93599 3.09614 0.02788-2.48844 1.84242 0.930245 2.95322-2.52122-1.79731-2.52122 1.79731 0.930245-2.95322-2.48844-1.84242 3.09614-0.02788z"/>
    </g>
    <g fill="#a26b00" fill-rule="evenodd">
      <path d="m61.6719 87.3434 1.06773 3.18818 3.36208 0.03027-2.70219 2.00068 1.01015 3.20689-2.73778-1.95169-2.73778 1.95169 1.01015-3.20689-2.70219-2.00068 3.36208-0.03027z"/>
      <path d="m71.6573 86.2661 0.983275 2.93599 3.09614 0.02788-2.48844 1.84242 0.930245 2.95322-2.52122-1.79731-2.52122 1.79731 0.930245-2.95322-2.48844-1.84242 3.09614-0.02788z"/>
      <path d="m51.6866 86.2661 0.983274 2.93599 3.09614 0.02788-2.48844 1.84242 0.930245 2.95322-2.52122-1.79731-2.52122 1.79731 0.930245-2.95322-2.48844-1.84242 3.09614-0.02788z"/>
    </g>
    <g fill="#442400" stroke="#442400" stroke-linecap="round" stroke-linejoin="round" stroke-width=".261426">
      <path d="m44.7768 36.6575c-0.528801-0.302742-1.34844-0.486532-2.12842-0.486532-1.96978 0-3.39755 0.983884-3.39755 2.357 0 0.681157 0.370167 1.2758 1.00473 1.61097 0.462701 0.237872 0.727101 0.313561 2.28707 0.627107l1.30878 0.270299c0.991501 0.205426 1.2691 0.367596 1.2691 0.767646 0 0.56223-0.687435 0.96228-1.66572 0.96228-0.925401 0-1.8508-0.33518-2.51179-0.89741-0.35695-0.32435-0.608117-0.59466-0.95185-1.10282l-0.991501 0.270299 1.09725 2.75706h0.78l0.185068-0.52979c0.555234 0.33518 1.46742 0.55141 2.36638 0.55141 2.15485 0 3.74126-1.10282 3.74126-2.59487 0-0.670354-0.356918-1.265-0.965067-1.58937-0.396585-0.216233-0.753519-0.324365-1.89044-0.573025l-1.20303-0.259495c-0.0265-0.01104-0.277617-0.0541-0.647784-0.11892-0.251183-0.04322-0.489134-0.108196-0.68745-0.183822-0.317268-0.108195-0.475902-0.291907-0.475902-0.518975 0-0.443285 0.608118-0.756831 1.45419-0.756831 0.75355 0 1.5732 0.291923 2.07557 0.735208 0.224718 0.19461 0.396584 0.367612 0.819618 0.84334l0.951851-0.291923-0.872534-2.19483h-0.793185z"/>
      <path d="m51.1885 40.6904h1.2559c2.41925 0 3.7016-0.756846 3.7016-2.18403 0-0.713584-0.370167-1.35149-1.03117-1.72993-0.581668-0.345988-1.26912-0.464908-2.65722-0.464908h-4.74599v0.886586l0.264416 0.02161c0.766752 0.08643 0.912185 0.227068 0.898968 0.908209v3.73013c0.01419 0.68116-0.132169 0.82171-0.898968 0.90821l-0.264416 0.0218v0.88659h4.64022v-0.88659l-0.264384-0.0218c-0.766783-0.0866-0.912184-0.22705-0.898968-0.90821zm0-2.59489c0-0.389235 0.0142-0.508171 0.09258-0.594664 0.09258-0.11892 0.396616-0.194609 0.806433-0.194609 0.912184 0 1.5203 0.475728 1.5203 1.16769 0 0.810897-0.713869 1.2542-1.983 1.2542-0.132169 0-0.224734 0-0.436267-0.02177z"/>
      <path d="m60.3896 36.3116h-3.8999v0.886586l0.264416 0.02161c0.766752 0.08643 0.912184 0.227068 0.898952 0.908209v3.73013c0.01419 0.68116-0.132169 0.82171-0.898952 0.90821l-0.264416 0.0218v0.88659h3.55619v-0.88659l-0.2644-0.0218c-0.766767-0.0866-0.912184-0.22705-0.898952-0.90821v-3.87069l4.11141 5.68711h1.6393v-5.54655c-0.01419-0.681141 0.132169-0.821716 0.898952-0.908209l0.2644-0.02161v-0.886586h-3.55617v0.886586l0.264385 0.02161c0.766767 0.08643 0.912184 0.227068 0.898967 0.908209v2.43269z"/>
      <path d="m72.8825 42.4852c-0.23797 0.18379-0.23797 0.18379-0.33052 0.18379-0.0926 0-0.19828-0.0541-0.22472-0.11892-0.0396-0.0757-0.0396-0.0757-0.0528-0.48653v-2.12996c0-0.573041-0.14542-0.919014-0.50235-1.20013-0.46272-0.367612-1.33524-0.58386-2.37962-0.58386-1.70537 0-2.93484 0.627106-2.93484 1.49207 0 0.464909 0.423035 0.810897 0.978285 0.810897 0.647765 0 1.03116-0.313545 1.01794-0.83252 0-0.15141 0.0265-0.227068 0.11892-0.281118 0.15871-0.118921 0.44948-0.19461 0.72712-0.19461 0.56845 0 0.83285 0.18379 0.83285 0.583845v0.551417c-0.7271 0.0541-1.36165 0.15141-1.93011 0.291907-1.32201 0.324365-1.983 0.89741-1.983 1.71912 0 0.88659 0.846069 1.48124 2.10197 1.48124 0.75354 0 1.42777-0.18379 2.10199-0.55141 0.31728 0.33517 0.89895 0.55141 1.5203 0.55141 0.59488 0 1.08403-0.16217 1.67892-0.55141zm-2.74977-0.25949c-0.34372 0.25949-0.67422 0.37841-1.04439 0.37841-0.37015 0-0.62133-0.21623-0.62133-0.54058 0-0.46492 0.5288-0.74604 1.66572-0.91903z"/>
      <path d="m78.501 39.1659v-0.919013h-1.81114v-1.71912h-1.24268c-0.13217 1.11364-0.75355 1.7083-1.90369 1.83804v0.854144h1.00474v2.73544c0 0.65952 0.0528 0.91902 0.2115 1.17851 0.29085 0.43247 0.80643 0.6379 1.5864 0.6379 1.18982 0 2.02268-0.32437 2.78943-1.08122l-0.79321-0.76763c-0.5949 0.46491-0.83285 0.59465-1.17657 0.59465-0.35695 0-0.47592-0.17299-0.47592-0.73521v-2.6165z"/>
      <path d="m84.3442 43.6745v-0.88657l-0.31729-0.0218c-0.76675-0.0866-0.91218-0.22705-0.89896-0.90821v-3.73014c-0.0142-0.681157 0.13216-0.821716 0.89896-0.90821l0.31729-0.02177v-0.88657h-4.74599v0.88657l0.31728 0.02177c0.76675 0.08643 0.91219 0.227053 0.89897 0.90821v3.73014c0.0142 0.68116-0.13217 0.8217-0.89897 0.90821l-0.31728 0.0218v0.88657z"/>
    </g>
    <g fill="#361c00">
      <path d="m35.1174 54.7866q0 0.66108-0.397374 0.66108-0.241263 0-0.496704-0.79331-0.354805-1.07426-0.638637-1.52048-0.567678-0.85941-1.51852-0.99163v-1.38829h3.05123zm-1.27726 5.27214q0 1.07425-0.411568 1.07425-0.241263 0-0.383178-0.49582-0.141948-0.4958-0.283832-1.00815-0.241263-0.6115-0.695399-0.80981v-1.40482q0.454136-0.19832 0.695399-0.80981 0.141947-0.49582 0.283832-0.99163 0.141947-0.51235 0.383178-0.51235 0.411568 0 0.411568 1.1569zm-2.24231 5.8671h-3.50537q-0.596052 0-0.596052-0.62804 0-0.38012 0.269637-0.61149 0.368999-0.33055 0.425762-0.44623 0.05678-0.28097 0.05678-0.66108v-10.4782q0-0.38012-0.05678-0.66109-0.05678-0.0992-0.425762-0.44622-0.269637-0.2479-0.269637-0.61149 0-0.62806 0.596052-0.62806h3.50537zm3.61891-3.52027-0.0142 3.52027h-3.13639v-1.4048q1.0502-0.13233 1.60367-1.02467 0.298026-0.46277 0.596052-1.58661 0.212873-0.82635 0.468331-0.82635 0.482526 0 0.482526 1.32216z"/>
      <path d="m44.6365 55.4477q0 2.446-1.05019 3.56984-0.993425 1.09079-3.0938 1.09079v-1.2891q0.894078-0.0661 0.894078-1.90063v-2.95834q0-1.8345-0.894078-1.91713v-1.28914h0.29801q3.84598 0 3.84598 4.69371zm-3.67566 9.88318q0 0.59498-0.68122 0.59498h-3.77501q-0.553499 0-0.553499-0.62804 0-0.36359 0.269652-0.59496 0.383179-0.34708 0.439958-0.46276 0.04258-0.21485 0.04258-0.66108v-10.4782q0-0.44623-0.04258-0.66109-0.05678-0.11577-0.439958-0.44622-0.269652-0.2479-0.269652-0.61149 0-0.62806 0.596068-0.62806h3.50537v13.0894q0 0.46277 0.454136 0.74374 0.454152 0.28095 0.454152 0.74371z"/>
      <path d="m50.1961 65.2978q0 0.62804-0.610247 0.62804h-3.67568q-0.596052 0-0.596052-0.62804 0-0.38012 0.269637-0.61149 0.383194-0.33055 0.439957-0.44623 0.05678-0.28097 0.05678-0.66108v-10.4782q0-0.38012-0.05678-0.66109-0.05678-0.0992-0.439957-0.44622-0.269637-0.2479-0.269637-0.61149 0-0.62806 0.596052-0.62806h3.67568q0.610247 0 0.610247 0.62806 0 0.36359-0.269637 0.59498-0.383178 0.34704-0.454136 0.46273-0.05678 0.4297-0.05678 0.66109v10.5277q0 0.42972 0.04258 0.57845t0.411552 0.44623q0.326416 0.2479 0.326416 0.64455z"/>
      <path d="m55.7699 51.3821q0 0.36359-0.269652 0.61149-0.383179 0.33053-0.439942 0.44622-0.04258 0.21486-0.04258 0.82637v12.6597h-3.51955q-0.596052 0-0.596052-0.62804 0-0.38012 0.269637-0.61149 0.383178-0.33055 0.439942-0.44623 0.05662-0.42971 0.05662-0.66108v-10.4782q0-0.23139-0.05662-0.66109-0.05678-0.0992-0.439942-0.44622-0.269637-0.2479-0.269637-0.61149 0-0.62806 0.596052-0.62806h3.67566q0.596067 0 0.596067 0.62806zm2.65386 14.5438h-2.98028v-1.4048q0.950857-0.0827 1.47595-1.09079 0.269636-0.52886 0.581857-1.83449 0.227068-0.9751 0.468331-0.9751 0.454137 0 0.454137 1.27257z"/>
      <path d="m68.0706 58.3399q0 3.00793-0.865693 5.02424-1.10697 2.56169-3.40604 2.84265v-1.28912q0.681205-0.0992 0.681205-1.78492v-9.58571q0-1.68576-0.681205-1.78492v-1.2891q2.29907 0.28094 3.40604 2.84265 0.865693 2.01631 0.865693 5.02423zm-4.71167 7.86689q-2.28488-0.26443-3.39184-2.84265-0.865689-2.01631-0.865689-5.02424 0-3.00792 0.865689-5.02423 1.10697-2.56171 3.39184-2.84265v1.2891q-0.468331 0.0661-0.610247 0.72721-0.07097 0.33053-0.07097 1.12384v9.45347q0 0.79329 0.07097 1.12384 0.141947 0.66108 0.610247 0.72719z"/>
      <path d="m76.8802 55.2824q0 1.17342-0.55347 1.17342-0.31222 0-0.66701-1.17342-0.5109-1.70229-0.76637-2.21461-0.59605-1.22302-1.51852-1.30566v-1.2891q0.35481 0.0495 1.13536 0.4297 0.73797 0.38012 1.00762 0.38012 0.12775 0 0.36897-0.38012 0.24127-0.38011 0.51091-0.38011 0.31222 0 0.41155 0.26443 0.071 0.16527 0.071 0.59498zm0.5251 3.53681q0 0.34706-0.17029 0.52886-0.22707 0.23137-0.26964 0.36359-0.11356 0.33055-0.11356 1.58659 0 0.44624 0.0284 1.35522 0.0426 0.89247 0.0426 1.3387-1.5895 2.09893-3.54796 2.1981v-1.3387q0.58186-0.0661 0.58186-1.223v-3.28889q0-0.16526-0.0566-0.52886-0.0426-0.0661-0.46833-0.41316-0.25545-0.21488-0.25545-0.62804 0-0.59496 0.62443-0.59496h3.06543q0.53929 0 0.53929 0.64455zm-4.45622 7.38759q-2.25648-0.33055-3.33506-2.89224-0.83732-1.99978-0.83732-4.97465 0-2.97486 0.83732-4.97464 1.07858-2.52864 3.33506-2.89224v1.2891q-0.45413 0.0992-0.59605 0.74374-0.071 0.33053-0.071 1.10731v9.45347q0 0.76025 0.071 1.10731 0.14195 0.66108 0.59605 0.74372z"/>
      <path d="m87.4211 51.4151q0 0.33054-0.45415 0.76024-0.49671 0.49581-0.62445 1.12385-0.0852 0.41317-0.0852 1.42131v5.7349q0 2.33032-0.42577 3.52026-0.61024 1.71883-2.27068 2.06589v-1.48744q1.06438-0.21486 1.47595-1.30564 0.26964-0.76024 0.26964-2.24769v-6.8422q0-0.95857-0.29803-1.48743-0.12775-0.23139-0.56768-0.64455-0.29801-0.28096-0.29801-0.6115 0-0.69415 0.58186-0.69415h2.11457q0.58188 0 0.58188 0.69415zm-4.25755-0.0992q0 0.39666-0.31222 0.62805-0.49672 0.39663-0.53929 0.44621-0.0566 0.3636-0.0566 0.56192v9.60223q0 0.909 0.0994 1.25605 0.1845 0.62804 0.78055 0.71068l0.0142 1.58659q-0.8941 0.0495-0.93666 0.0495-1.80237 0-2.6113-1.18996-0.73796-1.09077-0.73796-3.25583v-8.64365q0-0.44624-0.0426-0.6611-0.071-0.13217-0.43994-0.46275-0.26965-0.24792-0.26965-0.59496 0-0.62805 0.61024-0.62805h3.70405q0.73799 0 0.73799 0.59498z"/>
      <path d="m95.7481 54.7866q0 0.66108-0.39738 0.66108-0.24126 0-0.4967-0.79331-0.35481-1.07426-0.63864-1.52048-0.56768-0.85941-1.51852-0.99163v-1.38829h3.05124zm-1.27726 5.27214q0 1.07425-0.41157 1.07425-0.24124 0-0.38318-0.49582-0.14194-0.4958-0.28383-1.00815-0.24126-0.6115-0.6954-0.80981v-1.40482q0.45414-0.19832 0.6954-0.80981 0.14195-0.49582 0.28383-0.99163 0.14195-0.51235 0.38318-0.51235 0.41157 0 0.41157 1.1569zm-2.24231 5.8671h-3.50537q-0.59605 0-0.59605-0.62804 0-0.38012 0.26965-0.61149 0.36897-0.33055 0.42573-0.44623 0.0568-0.28097 0.0568-0.66108v-10.4782q0-0.38012-0.0568-0.66109-0.0566-0.0992-0.42573-0.44622-0.26965-0.2479-0.26965-0.61149 0-0.62806 0.59605-0.62806h3.50537zm3.61891-3.52027-0.0142 3.52027h-3.13639v-1.4048q1.05021-0.13233 1.60368-1.02467 0.29802-0.46277 0.59605-1.58661 0.21287-0.82635 0.46833-0.82635 0.48252 0 0.48252 1.32216z"/>
    </g>
    <g fill="#361c00">
      <path d="m36.3922 77.4393c0-0.62564-0.599569-1.04273-1.3425-1.04273-1.79871 0-3.68864 2.4113-3.68864 3.93629 0 0.769 0.495301 1.14699 1.0688 1.14699 0.664739 0 1.19912-0.52137 1.88993-1.35554 0 0.5344 0.338891 1.13396 1.08183 1.13396 0.977559 0 2.00724-0.97755 2.64591-2.39827l-0.247634-0.24765c-0.782051 1.48589-1.61623 2.03331-2.03332 2.03331-0.286749 0-0.391033-0.24763-0.391033-0.46921 0-0.5735 0.742952-1.38162 0.742952-1.7205 0-0.22158-0.299793-0.33889-0.46923-0.39103 0.456186-0.0126 0.742935-0.18246 0.742935-0.62562zm-0.990586 0.65169c-0.664739 0.88632-1.90298 2.72413-2.69805 2.72413-0.208536 0-0.299777-0.11735-0.299777-0.41709 0-1.19914 1.45982-3.5192 2.67198-3.5192 0.44316 0 0.547428 0.32584 0.547428 0.67776 0 0.18248-0.01262 0.31282-0.06514 0.48226-0.01262 0-0.03911-0.0126-0.05221-0.0126-0.03911 0-0.07823 0.026-0.104253 0.0651z"/>
      <path d="m43.1959 78.6775c-0.364946 0.71687-0.677766 0.96452-1.01666 0.96452-0.508329 0-0.560471-0.54743-0.560471-0.91239 0-1.1079 0.417104-1.21217 0.417104-1.61623 0-0.20853-0.130433-0.5735-0.56047-0.5735-0.37799 0-0.638668 0.31282-0.677767 1.48589-0.508328 1.13397-1.43376 2.65896-2.04636 2.65896-0.208537 0-0.234608-0.23463-0.234608-0.78205 0-0.56047 0.06514-1.17307 0.06514-1.69443 0-0.4953-0.01262-0.62564-0.430131-0.62564-0.456187 0-0.482258 0.15646-0.495285 0.67777-0.03911 0.88632-0.05221 1.36858-0.05221 1.55106 0 0.92541 0.208552 1.56408 0.860247 1.56408 0.834176 0 1.74656-1.32946 2.38523-2.50253 0.182481 0.70384 0.5344 1.21217 1.1079 1.21217 0.456186 0 0.977558-0.33889 1.38162-1.29038z"/>
      <path d="m47.5493 77.4393c0-0.62564-0.599553-1.04273-1.3425-1.04273-1.79869 0-3.68864 2.4113-3.68864 3.93629 0 0.769 0.495301 1.14699 1.0688 1.14699 0.664739 0 1.19912-0.52137 1.88993-1.35554 0 0.5344 0.338891 1.13396 1.08183 1.13396 0.977559 0 2.00724-0.97755 2.64591-2.39827l-0.247634-0.24765c-0.78205 1.48589-1.61623 2.03331-2.03332 2.03331-0.286749 0-0.391033-0.24763-0.391033-0.46921 0-0.5735 0.742952-1.38162 0.742952-1.7205 0-0.22158-0.299793-0.33889-0.46923-0.39103 0.456186-0.0126 0.742935-0.18246 0.742935-0.62562zm-0.990586 0.65169c-0.664738 0.88632-1.90298 2.72413-2.69805 2.72413-0.208536 0-0.299777-0.11735-0.299777-0.41709 0-1.19914 1.45982-3.5192 2.67198-3.5192 0.443159 0 0.547427 0.32584 0.547427 0.67776 0 0.18248-0.01262 0.31282-0.06514 0.48226-0.01262 0-0.03912-0.0126-0.05221-0.0126-0.03912 0-0.07823 0.026-0.104253 0.0651z"/>
      <path d="m50.495 76.4357c-0.977559 0-1.94207 2.67198-1.94207 3.66257 0 0.63866 0.37799 1.16003 1.147 1.16003 1.08183 0 2.05939-0.88631 2.67198-2.42434l-0.195509-0.20854c-0.755979 1.48589-1.45982 1.99422-2.04636 1.99422-0.377989 0-0.586526-0.13028-0.586526-0.69081 0-1.147 1.3425-2.67198 1.3425-3.11514 0-0.24765-0.182481-0.37799-0.391017-0.37799zm0.742936-1.05576c0.46923 0 0.951488-0.41709 0.951488-0.78205 0-0.36495-0.247651-0.48226-0.560471-0.48226-0.482258 0-1.04271 0.33889-1.04271 0.75598 0 0.35192 0.325847 0.50833 0.651695 0.50833z"/>
      <path d="m56.5689 72.5255c-0.01262-0.40406-0.22158-1.04273-0.547427-1.04273-0.990587 0-4.14484 5.83926-4.14484 8.39394 0 0.75597 0.273721 1.38161 1.09487 1.38161 1.00361 0 1.9551-0.95148 2.69805-2.50254l-0.31282-0.16944c-0.482258 1.02969-1.23824 2.07242-1.88995 2.07242-0.338875 0-0.560455-0.27373-0.560455-0.89935 0-0.33889 0.06514-0.78205 0.143367-1.22521 1.98119-1.56408 3.5192-4.84866 3.5192-6.0087zm-0.599569 0.14336c0 0.87328-1.21217 3.45402-2.68501 5.05722 0.742936-2.35918 2.35916-5.05722 2.68501-5.05722z"/>
      <path d="m59.7492 77.4393c0-0.62564-0.599569-1.04273-1.34252-1.04273-1.79869 0-3.68864 2.4113-3.68864 3.93629 0 0.769 0.495301 1.14699 1.0688 1.14699 0.664739 0 1.19914-0.52137 1.88993-1.35554 0 0.5344 0.338891 1.13396 1.08183 1.13396 0.977559 0 2.00726-0.97755 2.64593-2.39827l-0.247651-0.24765c-0.78205 1.48589-1.61623 2.03331-2.03331 2.03331-0.286749 0-0.391017-0.24763-0.391017-0.46921 0-0.5735 0.742935-1.38162 0.742935-1.7205 0-0.22158-0.299776-0.33889-0.46923-0.39103 0.456203-0.0126 0.742952-0.18246 0.742952-0.62562zm-0.990602 0.65169c-0.664723 0.88632-1.90296 2.72413-2.69804 2.72413-0.208552 0-0.299793-0.11735-0.299793-0.41709 0-1.19914 1.45982-3.5192 2.67198-3.5192 0.443159 0 0.547427 0.32584 0.547427 0.67776 0 0.18248-0.01262 0.31282-0.06514 0.48226-0.01262 0-0.03911-0.0126-0.05221-0.0126-0.03911 0-0.07823 0.026-0.104252 0.0651z"/>
      <path d="m65.3929 72.4603c-0.01262-0.40406-0.182481-0.89935-0.5344-0.89935-1.18609 0-4.14483 5.95656-4.14483 8.52428 0 1.08182 0.521356 1.73352 1.51194 1.73352 0.964531 0 1.6814-0.62562 2.1767-1.40767 0.09132 0.0126 0.182465 0.0126 0.273705 0.0126 1.0297 0 1.6032-0.54742 2.04636-1.57711l-0.195508-0.27372c-0.273722 0.56047-0.769023 1.44679-1.6814 1.44679-0.104252 0-0.143367-0.0126-0.234623-0.0126 0.260678-0.56045 0.391033-1.13395 0.391033-1.64228 0-0.88632-0.404061-1.30341-0.964531-1.30341-0.664739 0-1.1861 0.5735-1.1861 1.4207 0 0.69081 0.338891 1.36858 0.977559 1.72051-0.325864 0.59956-0.91239 1.06879-1.36858 1.06879-0.508329 0-0.677782-0.5735-0.677782-1.26431 0-1.06878 0.40406-2.26792 0.586541-2.60681 1.61623-0.92542 3.0239-3.7147 3.0239-4.93991zm-0.612597 0.32585c-0.01262 0.61259-1.0297 2.75019-2.16365 3.79292 0.586525-1.81174 1.83779-3.67561 2.16365-3.79292zm-1.29038 5.76105c0-0.43012 0.182481-0.79508 0.417088-0.79508 0.208552 0 0.377989 0.28675 0.377989 0.91239 0 0.41709-0.07823 0.75598-0.234607 1.1079-0.430131-0.29978-0.56047-0.86025-0.56047-1.22521z"/>
      <path d="m70.9194 72.5255c-0.0126-0.40406-0.22158-1.04273-0.54745-1.04273-0.99058 0-4.14482 5.83926-4.14482 8.39394 0 0.75597 0.273722 1.38161 1.09487 1.38161 1.00361 0 1.9551-0.95148 2.69804-2.50254l-0.31281-0.16944c-0.48227 1.02969-1.23824 2.07242-1.88995 2.07242-0.338887 0-0.560451-0.27373-0.560451-0.89935 0-0.33889 0.06514-0.78205 0.143367-1.22521 1.98117-1.56408 3.5192-4.84866 3.5192-6.0087zm-0.59957 0.14336c0 0.87328-1.21217 3.45402-2.68503 5.05722 0.74295-2.35918 2.35918-5.05722 2.68503-5.05722z"/>
      <path d="m73.5131 77.0353c0-0.69081-0.4953-0.87329-0.95149-0.87329-1.61622 0-3.37582 2.16365-3.37582 3.70168 0 0.89934 0.6126 1.57711 1.73353 1.57711 1.39464 0 2.80233-1.04271 3.50617-2.60681l-0.26069-0.20854c-0.66473 1.25127-1.87691 2.2549-2.95874 2.2549-0.99058 0-1.00361-0.83418-1.00361-1.01666 0-0.16944 0.0126-0.23462 0.026-0.29979 1.56409-0.16944 3.28458-1.21217 3.28458-2.5286zm-0.92542-0.31282c0.15646 0 0.22158 0.0522 0.22158 0.24765 0 0.97755-1.52498 2.00724-2.43737 2.11151 0.36496-1.08183 1.42072-2.35916 2.21579-2.35916z"/>
      <path d="m81.8549 78.6254c-0.49528 0.82115-0.92541 1.29036-1.52498 1.29036-0.80811 0-0.95149-0.8081-1.147-1.92903-0.026-0.18248-0.14337-0.37799-0.32585-0.4562l0.20854-0.52136c1.75961-1.16002 3.5583-3.36279 3.5583-4.8617 0-0.35192-0.10425-0.66474-0.54743-0.66474-2.35916 0-5.68285 9.16294-5.68285 11.7828 0 1.06878 0.54744 1.25126 0.84722 1.25126 1.05575 0 2.07241-2.28096 2.09848-4.43157 0.29978 0.22158 0.62564 0.35192 0.92542 0.35192 0.54743 0 1.31645-0.48226 1.8769-1.6032zm-3.04997 1.45982c0 1.29036-0.71686 3.62347-1.19914 3.62347-0.14336 0-0.20853-0.20855-0.20853-0.56047 0-0.91239 0.41709-2.58074 1.02968-4.39248 0.27372 0.4953 0.37799 0.83418 0.37799 1.32948zm3.03695-7.54673c0.0782 0 0.10425 0.026 0.10425 0.10425 0 0.45618-0.91239 1.96814-2.50255 3.45401 0.8342-1.98117 1.75961-3.5583 2.39828-3.5583z"/>
      <path d="m85.2698 80.0983c1.66837 0 2.22882-1.74657 2.65896-3.01086 0.32584 0.16944 0.69079 0.44314 0.69079 0.89934 0 0.62563-0.67777 1.55106-0.67777 2.30702 0 0.54745 0.44316 0.92542 1.09487 0.92542 1.17307 0 2.26793-1.26429 2.78928-2.38523l-0.26068-0.18247c-0.32584 0.74294-1.39464 1.91601-2.20275 1.91601-0.18248 0-0.32585-0.0522-0.32585-0.31282 0-0.49529 0.62563-1.31644 0.62563-2.09849 0-1.12092-1.40768-1.3816-1.40768-1.74656 0-0.0782 0.14337-0.37799 0.14337-0.46923 0-0.11735-0.0126-0.40405-0.28676-0.40405-0.18247 0-0.62563 0.40405-0.62563 0.96452 0 0.13027 0.0522 0.24765 0.11734 0.32584-0.36496 1.17307-0.91238 2.77627-2.25489 2.77627-0.14337 0-0.26069-0.0391-0.37799-0.0782 0.49529-0.72991 0.80811-1.53801 0.80811-2.20275 0-0.59957-0.26068-1.05576-1.02969-1.05576-0.80812 0-1.26431 0.62563-1.35555 1.38161-0.16943-0.0651-0.29977-0.10426-0.39101-0.10426-0.82115 0-1.57713 1.43375-1.57713 2.50255 0 0.69079 0.36496 1.23824 1.17307 1.23824 0.67776 0 1.43374-0.54745 2.04634-1.30341 0.19552 0.0782 0.40406 0.11734 0.62564 0.11734zm-1.09485-0.41709c-0.45621 0.5344-0.97756 0.95148-1.31645 0.95148-0.24765 0-0.41709-0.22157-0.41709-0.6908 0-0.5735 0.5735-1.78567 0.93846-2.18973 0.0126 0.86025 0.26068 1.49893 0.79508 1.92905zm-0.0782-1.7205c0-0.67776 0.41709-1.16004 0.75598-1.16004 0.15645 0 0.33889 0.18248 0.33889 0.59957 0 0.56047-0.22158 1.21217-0.62564 1.79871-0.24765-0.32585-0.46923-0.82115-0.46923-1.23824z"/>
    </g>
  </g>
  <g fill="none" opacity=".9" stroke="#ef8398" stroke-width="5.43528">
    <circle cx="103.439" cy="84.7347" r="13.5882" opacity="1"/>
    <path d="m94.3486 94.8335-13.2609 14.7405" opacity="1" stroke-linejoin="bevel"/>
    <path d="m81.1445 99.0743 10.383 9.3298" opacity="1" stroke-linejoin="bevel"/>
  </g>
</svg>
