<?xml version="1.0" encoding="UTF-8" standalone="no"?>
<svg
   xmlns:dc="http://purl.org/dc/elements/1.1/"
   xmlns:cc="http://creativecommons.org/ns#"
   xmlns:rdf="http://www.w3.org/1999/02/22-rdf-syntax-ns#"
   xmlns:svg="http://www.w3.org/2000/svg"
   xmlns="http://www.w3.org/2000/svg"
   xmlns:sodipodi="http://sodipodi.sourceforge.net/DTD/sodipodi-0.dtd"
   xmlns:inkscape="http://www.inkscape.org/namespaces/inkscape"
   sodipodi:docname="epilogue-male.svg"
   inkscape:version="1.0 (4035a4fb49, 2020-05-01)"
   id="svg2102"
   version="1.1"
   viewBox="0 0 130.15912 117.08077"
   height="442.51001"
   width="491.94">
  <defs
     id="defs2096" />
  <sodipodi:namedview
     inkscape:window-maximized="0"
     inkscape:window-y="295"
     inkscape:window-x="41"
     inkscape:window-height="1039"
     inkscape:window-width="1628"
     units="px"
     fit-margin-bottom="0"
     fit-margin-right="0"
     fit-margin-left="0"
     fit-margin-top="0"
     showgrid="false"
     inkscape:document-rotation="0"
     inkscape:current-layer="g1472"
     inkscape:document-units="mm"
     inkscape:cy="59.511983"
     inkscape:cx="-66.862875"
     inkscape:zoom="0.7"
     inkscape:pageshadow="2"
     inkscape:pageopacity="0.0"
     borderopacity="1.0"
     bordercolor="#666666"
     pagecolor="#ffffff"
     id="base"
     inkscape:snap-page="true"
     inkscape:snap-bbox="true"
     inkscape:bbox-paths="true"
     inkscape:snap-others="false"
     inkscape:object-nodes="false"
     inkscape:snap-nodes="false"
     inkscape:bbox-nodes="true"
     inkscape:snap-grids="false"
     inkscape:snap-to-guides="true"
     showguides="true"
     inkscape:guide-bbox="true" />
  <metadata
     id="metadata2099">
    <rdf:RDF>
      <cc:Work
         rdf:about="">
        <dc:format>image/svg+xml</dc:format>
        <dc:type
           rdf:resource="http://purl.org/dc/dcmitype/StillImage" />
        <dc:title></dc:title>
      </cc:Work>
    </rdf:RDF>
  </metadata>
  <g
     transform="translate(-41.38585,-64.061407)"
     id="layer1"
     inkscape:groupmode="layer"
     inkscape:label="Lager 1">
    <g
       transform="matrix(1.5771909,0,0,1.5771909,-176.77868,-83.645549)"
       id="g1472">
      <g
         id="g11882">
        <path
           sodipodi:type="star"
           style="opacity:1;fill:#c59117;fill-opacity:1;fill-rule:evenodd;stroke:none;stroke-width:0.0669309;stroke-linecap:butt;stroke-linejoin:round;stroke-miterlimit:4;stroke-dasharray:none;stroke-dashoffset:0;stroke-opacity:1;paint-order:normal"
           id="path4732"
           sodipodi:sides="30"
           sodipodi:cx="177.42679"
           sodipodi:cy="130.64381"
           sodipodi:r1="33.636768"
           sodipodi:r2="31.954927"
           sodipodi:arg1="0.52359878"
           sodipodi:arg2="0.62831854"
           inkscape:flatsided="false"
           inkscape:rounded="0.44"
           inkscape:randomized="0"
           d="m 206.55708,147.4622 c -0.84076,1.45624 -2.28984,0.60387 -3.27821,1.96425 -0.98838,1.36038 0.27007,2.47514 -0.85509,3.72476 -1.12516,1.24961 -2.36536,0.11458 -3.61497,1.23974 -1.24962,1.12516 -0.25044,2.47721 -1.61083,3.46558 -1.36038,0.98838 -2.33749,-0.3797 -3.79373,0.46106 -1.45624,0.84077 -0.76001,2.371 -2.29616,3.05494 -1.53614,0.68394 -2.20746,-0.85739 -3.80669,-0.33777 -1.59922,0.51962 -1.23636,2.16117 -2.88113,2.51078 -1.64478,0.34961 -1.98097,-1.29762 -3.65328,-1.12185 -1.67232,0.17577 -1.65868,1.85689 -3.3402,1.85689 -1.68153,0 -1.66789,-1.68112 -3.3402,-1.85689 -1.67231,-0.17577 -2.0085,1.47146 -3.65328,1.12185 -1.64478,-0.34961 -1.28191,-1.99116 -2.88114,-2.51078 -1.59922,-0.51962 -2.27054,1.02171 -3.80669,0.33777 -1.53615,-0.68394 -0.83991,-2.21417 -2.29616,-3.05494 -1.45624,-0.84076 -2.43335,0.52732 -3.79373,-0.46106 -1.36038,-0.98837 -0.36121,-2.34042 -1.61082,-3.46558 -1.24962,-1.12516 -2.48981,0.01 -3.61497,-1.23974 -1.12516,-1.24962 0.13328,-2.36438 -0.85509,-3.72476 -0.98838,-1.36038 -2.43746,-0.50801 -3.27822,-1.96425 -0.84076,-1.45624 0.62196,-2.285 -0.062,-3.82115 -0.68394,-1.53615 -2.27857,-1.00368 -2.79819,-2.6029 -0.51962,-1.59923 1.08344,-2.10575 0.73383,-3.75053 -0.34961,-1.64478 -2.0201,-1.45549 -2.19586,-3.12781 -0.17577,-1.67231 1.49757,-1.83447 1.49757,-3.516 0,-1.68152 -1.67334,-1.84368 -1.49757,-3.516 0.17576,-1.67231 1.84625,-1.48302 2.19586,-3.1278 0.34961,-1.64478 -1.25345,-2.1513 -0.73383,-3.75053 0.51962,-1.59922 2.11425,-1.06676 2.79819,-2.60291 0.68394,-1.53615 -0.77878,-2.3649 0.062,-3.82114 0.84076,-1.45624 2.28984,-0.60387 3.27822,-1.96425 0.98837,-1.36038 -0.27007,-2.47514 0.85509,-3.72476 1.12516,-1.24961 2.36535,-0.11459 3.61497,-1.23975 1.24961,-1.12515 0.25044,-2.4772 1.61082,-3.46557 1.36038,-0.98838 2.33749,0.3797 3.79373,-0.46107 1.45625,-0.84076 0.76001,-2.371 2.29616,-3.054933 1.53615,-0.683938 2.20747,0.857393 3.80669,0.337773 1.59923,-0.519618 1.23636,-2.161172 2.88114,-2.51078 1.64478,-0.349609 1.98097,1.297616 3.65328,1.121849 1.67231,-0.175767 1.65867,-1.856893 3.3402,-1.856893 1.68152,0 1.66788,1.681126 3.3402,1.856893 1.67231,0.175767 2.0085,-1.471458 3.65328,-1.121849 1.64478,0.349609 1.28191,1.991162 2.88113,2.51078 1.59923,0.51962 2.27055,-1.02171 3.80669,-0.337773 1.53615,0.683933 0.83992,2.214173 2.29616,3.054943 1.45625,0.84076 2.43335,-0.52732 3.79373,0.46106 1.36039,0.98837 0.36121,2.34042 1.61083,3.46558 1.24961,1.12515 2.48981,-0.01 3.61497,1.23974 1.12516,1.24962 -0.13329,2.36438 0.85509,3.72476 0.98837,1.36038 2.43745,0.50801 3.27821,1.96425 0.84077,1.45624 -0.62195,2.285 0.062,3.82114 0.68393,1.53615 2.27857,1.00369 2.79819,2.60291 0.51962,1.59923 -1.08344,2.10575 -0.73384,3.75053 0.34961,1.64478 2.0201,1.45549 2.19587,3.1278 0.17577,1.67232 -1.49757,1.83448 -1.49757,3.516 0,1.68153 1.67334,1.84369 1.49757,3.516 -0.17577,1.67232 -1.84626,1.48303 -2.19587,3.12781 -0.3496,1.64478 1.25346,2.1513 0.73384,3.75053 -0.51962,1.59922 -2.11426,1.06676 -2.79819,2.6029 -0.68394,1.53615 0.77878,2.36491 -0.062,3.82115 z"
           inkscape:transform-center-x="1.7399082e-06" />
        <circle
           style="opacity:0.99;fill:#ffffac;fill-opacity:1;fill-rule:evenodd;stroke:none;stroke-width:1.36342;stroke-linecap:butt;stroke-linejoin:round;stroke-miterlimit:4;stroke-dasharray:none;stroke-dashoffset:0;stroke-opacity:1"
           id="path4699"
           cx="177.42679"
           cy="130.64381"
           r="30.002392" />
        <ellipse
           style="opacity:1;fill:none;fill-opacity:1;fill-rule:evenodd;stroke:#8a5300;stroke-width:1.53524;stroke-linecap:butt;stroke-linejoin:round;stroke-miterlimit:4;stroke-dasharray:none;stroke-dashoffset:0;stroke-opacity:1"
           id="path4701"
           cx="177.42679"
           cy="130.64381"
           rx="27.454704"
           ry="27.454708" />
        <ellipse
           ry="25.936626"
           rx="25.936623"
           cy="130.64381"
           cx="177.42679"
           id="ellipse4722"
           style="opacity:1;fill:none;fill-opacity:1;fill-rule:evenodd;stroke:#c6941b;stroke-width:0.503439;stroke-linecap:butt;stroke-linejoin:round;stroke-miterlimit:4;stroke-dasharray:none;stroke-dashoffset:0;stroke-opacity:1" />
        <g
           style="fill:#a26b00;fill-opacity:1"
           id="g4856"
           transform="translate(5.6365973,3.3551209)">
          <path
             inkscape:transform-center-y="-0.28200814"
             inkscape:transform-center-x="1.2702269e-06"
             d="m 171.79019,102.58869 0.67699,2.02143 2.13169,0.0192 -1.71329,1.26851 0.64047,2.03329 -1.73586,-1.23745 -1.73586,1.23745 0.64048,-2.03329 -1.71329,-1.26851 2.13169,-0.0192 z"
             inkscape:randomized="0"
             inkscape:rounded="0"
             inkscape:flatsided="false"
             sodipodi:arg2="-0.9424778"
             sodipodi:arg1="-1.5707963"
             sodipodi:r2="1.1517546"
             sodipodi:r1="2.953217"
             sodipodi:cy="105.54191"
             sodipodi:cx="171.79019"
             sodipodi:sides="5"
             id="path4730"
             style="opacity:1;fill:#a26b00;fill-opacity:1;fill-rule:evenodd;stroke:none;stroke-width:1.2985;stroke-linecap:butt;stroke-linejoin:round;stroke-miterlimit:4;stroke-dasharray:none;stroke-dashoffset:0;stroke-opacity:1"
             sodipodi:type="star" />
          <path
             sodipodi:type="star"
             style="opacity:1;fill:#a26b00;fill-opacity:1;fill-rule:evenodd;stroke:none;stroke-width:1.19579;stroke-linecap:butt;stroke-linejoin:round;stroke-miterlimit:4;stroke-dasharray:none;stroke-dashoffset:0;stroke-opacity:1"
             id="path4738"
             sodipodi:sides="5"
             sodipodi:cx="178.12129"
             sodipodi:cy="106.83625"
             sodipodi:r1="2.7196147"
             sodipodi:r2="1.0606498"
             sodipodi:arg1="-1.5707963"
             sodipodi:arg2="-0.9424778"
             inkscape:flatsided="false"
             inkscape:rounded="0"
             inkscape:randomized="0"
             d="m 178.12129,104.11664 0.62344,1.86153 1.96307,0.0177 -1.57777,1.16817 0.58981,1.87245 -1.59855,-1.13956 -1.59855,1.13956 0.58981,-1.87245 -1.57777,-1.16817 1.96308,-0.0177 z"
             inkscape:transform-center-x="1.2721611e-06"
             inkscape:transform-center-y="-0.25970103" />
          <path
             inkscape:transform-center-y="-0.25970103"
             inkscape:transform-center-x="1.2721611e-06"
             d="m 165.45909,104.11664 0.62344,1.86153 1.96307,0.0177 -1.57777,1.16817 0.58981,1.87245 -1.59855,-1.13956 -1.59855,1.13956 0.58981,-1.87245 -1.57777,-1.16817 1.96308,-0.0177 z"
             inkscape:randomized="0"
             inkscape:rounded="0"
             inkscape:flatsided="false"
             sodipodi:arg2="-0.9424778"
             sodipodi:arg1="-1.5707963"
             sodipodi:r2="1.0606498"
             sodipodi:r1="2.7196147"
             sodipodi:cy="106.83625"
             sodipodi:cx="165.45909"
             sodipodi:sides="5"
             id="path4742"
             style="opacity:1;fill:#a26b00;fill-opacity:1;fill-rule:evenodd;stroke:none;stroke-width:1.19579;stroke-linecap:butt;stroke-linejoin:round;stroke-miterlimit:4;stroke-dasharray:none;stroke-dashoffset:0;stroke-opacity:1"
             sodipodi:type="star" />
          <path
             sodipodi:type="star"
             style="opacity:1;fill:#a26b00;fill-opacity:1;fill-rule:evenodd;stroke:none;stroke-width:1.2985;stroke-linecap:butt;stroke-linejoin:round;stroke-miterlimit:4;stroke-dasharray:none;stroke-dashoffset:0;stroke-opacity:1"
             id="path4740"
             sodipodi:sides="5"
             sodipodi:cx="171.79019"
             sodipodi:cy="148.6312"
             sodipodi:r1="2.953217"
             sodipodi:r2="1.1517546"
             sodipodi:arg1="-1.5707963"
             sodipodi:arg2="-0.9424778"
             inkscape:flatsided="false"
             inkscape:rounded="0"
             inkscape:randomized="0"
             d="m 171.79019,145.67798 0.67699,2.02143 2.13169,0.0192 -1.71329,1.26851 0.64047,2.03329 -1.73586,-1.23745 -1.73586,1.23745 0.64048,-2.03329 -1.71329,-1.26851 2.13169,-0.0192 z"
             inkscape:transform-center-x="1.2702269e-06"
             inkscape:transform-center-y="-0.28200814" />
          <path
             inkscape:transform-center-y="-0.25970103"
             inkscape:transform-center-x="1.2721611e-06"
             d="m 178.12129,144.99494 0.62344,1.86153 1.96307,0.0177 -1.57777,1.16816 0.58981,1.87246 -1.59855,-1.13957 -1.59855,1.13957 0.58981,-1.87246 -1.57777,-1.16816 1.96308,-0.0177 z"
             inkscape:randomized="0"
             inkscape:rounded="0"
             inkscape:flatsided="false"
             sodipodi:arg2="-0.9424778"
             sodipodi:arg1="-1.5707963"
             sodipodi:r2="1.0606498"
             sodipodi:r1="2.7196147"
             sodipodi:cy="147.71455"
             sodipodi:cx="178.12129"
             sodipodi:sides="5"
             id="path4744"
             style="opacity:1;fill:#a26b00;fill-opacity:1;fill-rule:evenodd;stroke:none;stroke-width:1.19579;stroke-linecap:butt;stroke-linejoin:round;stroke-miterlimit:4;stroke-dasharray:none;stroke-dashoffset:0;stroke-opacity:1"
             sodipodi:type="star" />
          <path
             sodipodi:type="star"
             style="opacity:1;fill:#a26b00;fill-opacity:1;fill-rule:evenodd;stroke:none;stroke-width:1.19579;stroke-linecap:butt;stroke-linejoin:round;stroke-miterlimit:4;stroke-dasharray:none;stroke-dashoffset:0;stroke-opacity:1"
             id="path4746"
             sodipodi:sides="5"
             sodipodi:cx="165.45909"
             sodipodi:cy="147.71455"
             sodipodi:r1="2.7196147"
             sodipodi:r2="1.0606498"
             sodipodi:arg1="-1.5707963"
             sodipodi:arg2="-0.9424778"
             inkscape:flatsided="false"
             inkscape:rounded="0"
             inkscape:randomized="0"
             d="m 165.45909,144.99494 0.62344,1.86153 1.96307,0.0177 -1.57777,1.16816 0.58981,1.87246 -1.59855,-1.13957 -1.59855,1.13957 0.58981,-1.87246 -1.57777,-1.16816 1.96308,-0.0177 z"
             inkscape:transform-center-x="1.2721611e-06"
             inkscape:transform-center-y="-0.25970103" />
        </g>
        <g
           aria-label="SPNatI"
           transform="matrix(1.1057657,0,0,0.90435074,5.6349397,3.3551209)"
           style="font-style:normal;font-variant:normal;font-weight:normal;font-stretch:normal;font-size:7.58026px;line-height:125%;font-family:'Hyde BRK';-inkscape-font-specification:'Hyde BRK';font-variant-ligatures:normal;font-variant-caps:normal;font-variant-numeric:normal;font-feature-settings:normal;text-align:center;letter-spacing:0px;word-spacing:0px;writing-mode:lr-tb;text-anchor:middle;fill:#442400;fill-opacity:1;stroke:#442400;stroke-width:0.165754;stroke-linecap:round;stroke-linejoin:round;stroke-miterlimit:4;stroke-dasharray:none;stroke-opacity:1"
           id="text4726">
          <path
             d="m 145.67251,125.54997 c -0.30321,-0.21225 -0.77318,-0.34111 -1.22042,-0.34111 -1.12946,0 -1.94813,0.6898 -1.94813,1.65249 0,0.47756 0.21225,0.89447 0.5761,1.12946 0.26531,0.16677 0.41692,0.21983 1.31139,0.43966 l 0.75045,0.1895 c 0.56852,0.14403 0.7277,0.25773 0.7277,0.5382 0,0.39418 -0.39417,0.67465 -0.95511,0.67465 -0.53062,0 -1.06124,-0.23499 -1.44025,-0.62917 -0.20467,-0.2274 -0.34869,-0.41691 -0.54578,-0.77318 l -0.56852,0.1895 0.62916,1.93297 h 0.44724 l 0.10612,-0.37143 c 0.31837,0.23499 0.84141,0.38659 1.35687,0.38659 1.23558,0 2.14521,-0.77318 2.14521,-1.81926 0,-0.46998 -0.20466,-0.88689 -0.55336,-1.1143 -0.2274,-0.1516 -0.43207,-0.22741 -1.08397,-0.40175 l -0.68981,-0.18193 c -0.0152,-0.008 -0.15918,-0.0379 -0.37143,-0.0834 -0.14403,-0.0303 -0.28047,-0.0758 -0.39418,-0.12887 -0.18192,-0.0758 -0.27288,-0.20466 -0.27288,-0.36385 0,-0.31079 0.34869,-0.53062 0.83382,-0.53062 0.43208,0 0.90206,0.20467 1.19011,0.51546 0.12886,0.13644 0.2274,0.25773 0.46997,0.59126 l 0.54578,-0.20467 -0.5003,-1.53879 h -0.45481 z"
             style="font-style:normal;font-variant:normal;font-weight:600;font-stretch:normal;font-size:7.58026px;font-family:'URW Bookman';-inkscape-font-specification:'URW Bookman Semi-Bold';font-variant-ligatures:normal;font-variant-caps:normal;font-variant-numeric:normal;font-feature-settings:normal;text-align:center;writing-mode:lr-tb;text-anchor:middle;fill:#442400;fill-opacity:1;stroke:#442400;stroke-width:0.165754;stroke-linecap:round;stroke-linejoin:round;stroke-miterlimit:4;stroke-dasharray:none;stroke-opacity:1"
             id="path2317"
             inkscape:connector-curvature="0" />
          <path
             d="m 149.34894,128.37741 h 0.72013 c 1.38718,0 2.12247,-0.53062 2.12247,-1.53122 0,-0.50029 -0.21225,-0.94753 -0.59126,-1.21284 -0.33353,-0.24257 -0.72771,-0.32595 -1.52363,-0.32595 h -2.72132 v 0.62158 l 0.15161,0.0152 c 0.43965,0.0606 0.52304,0.15919 0.51546,0.63674 v 2.61519 c 0.008,0.47756 -0.0758,0.5761 -0.51546,0.63675 l -0.15161,0.0152 v 0.62158 h 2.66067 v -0.62158 l -0.1516,-0.0152 c -0.43966,-0.0607 -0.52304,-0.15919 -0.51546,-0.63675 z m 0,-1.81927 c 0,-0.27289 0.008,-0.35627 0.0531,-0.41691 0.0531,-0.0834 0.22741,-0.13645 0.4624,-0.13645 0.52304,0 0.87173,0.33354 0.87173,0.81867 0,0.56852 -0.40933,0.87931 -1.13704,0.87931 -0.0758,0 -0.12886,0 -0.25015,-0.0152 z"
             style="font-style:normal;font-variant:normal;font-weight:600;font-stretch:normal;font-size:7.58026px;font-family:'URW Bookman';-inkscape-font-specification:'URW Bookman Semi-Bold';font-variant-ligatures:normal;font-variant-caps:normal;font-variant-numeric:normal;font-feature-settings:normal;text-align:center;writing-mode:lr-tb;text-anchor:middle;fill:#442400;fill-opacity:1;stroke:#442400;stroke-width:0.165754;stroke-linecap:round;stroke-linejoin:round;stroke-miterlimit:4;stroke-dasharray:none;stroke-opacity:1"
             id="path2319"
             inkscape:connector-curvature="0" />
          <path
             d="m 154.6248,125.3074 h -2.23618 v 0.62158 l 0.15161,0.0152 c 0.43965,0.0606 0.52304,0.15919 0.51546,0.63674 v 2.61519 c 0.008,0.47756 -0.0758,0.5761 -0.51546,0.63675 l -0.15161,0.0152 v 0.62158 h 2.03909 v -0.62158 l -0.1516,-0.0152 c -0.43966,-0.0607 -0.52304,-0.15919 -0.51546,-0.63675 v -2.71373 l 2.35746,3.98722 h 0.93996 v -3.88868 c -0.008,-0.47755 0.0758,-0.5761 0.51545,-0.63674 l 0.15161,-0.0152 v -0.62158 h -2.03909 v 0.62158 l 0.1516,0.0152 c 0.43966,0.0606 0.52304,0.15919 0.51546,0.63674 v 1.70556 z"
             style="font-style:normal;font-variant:normal;font-weight:600;font-stretch:normal;font-size:7.58026px;font-family:'URW Bookman';-inkscape-font-specification:'URW Bookman Semi-Bold';font-variant-ligatures:normal;font-variant-caps:normal;font-variant-numeric:normal;font-feature-settings:normal;text-align:center;writing-mode:lr-tb;text-anchor:middle;fill:#442400;fill-opacity:1;stroke:#442400;stroke-width:0.165754;stroke-linecap:round;stroke-linejoin:round;stroke-miterlimit:4;stroke-dasharray:none;stroke-opacity:1"
             id="path2321"
             inkscape:connector-curvature="0" />
          <path
             d="m 161.78814,129.63573 c -0.13645,0.12886 -0.13645,0.12886 -0.18951,0.12886 -0.0531,0 -0.1137,-0.0379 -0.12886,-0.0834 -0.0227,-0.0531 -0.0227,-0.0531 -0.0303,-0.34111 v -1.49331 c 0,-0.40176 -0.0834,-0.64432 -0.28805,-0.84141 -0.26531,-0.25773 -0.76561,-0.40934 -1.36445,-0.40934 -0.97785,0 -1.68282,0.43966 -1.68282,1.04608 0,0.32595 0.24257,0.56852 0.56094,0.56852 0.37143,0 0.59126,-0.21983 0.58368,-0.58368 0,-0.10612 0.0152,-0.15919 0.0682,-0.19709 0.091,-0.0834 0.25773,-0.13644 0.41692,-0.13644 0.32595,0 0.47755,0.12886 0.47755,0.40933 v 0.3866 c -0.41691,0.0379 -0.78076,0.10612 -1.10671,0.20466 -0.75803,0.22741 -1.13704,0.62917 -1.13704,1.20527 0,0.62158 0.48513,1.03849 1.20526,1.03849 0.43207,0 0.81867,-0.12886 1.20526,-0.38659 0.18193,0.23499 0.51546,0.38659 0.87173,0.38659 0.34111,0 0.62158,-0.1137 0.96269,-0.38659 z m -1.5767,-0.18193 c -0.19708,0.18193 -0.38659,0.26531 -0.59884,0.26531 -0.21224,0 -0.35627,-0.1516 -0.35627,-0.37901 0,-0.32595 0.30321,-0.52304 0.95511,-0.64432 z"
             style="font-style:normal;font-variant:normal;font-weight:600;font-stretch:normal;font-size:7.58026px;font-family:'URW Bookman';-inkscape-font-specification:'URW Bookman Semi-Bold';font-variant-ligatures:normal;font-variant-caps:normal;font-variant-numeric:normal;font-feature-settings:normal;text-align:center;writing-mode:lr-tb;text-anchor:middle;fill:#442400;fill-opacity:1;stroke:#442400;stroke-width:0.165754;stroke-linecap:round;stroke-linejoin:round;stroke-miterlimit:4;stroke-dasharray:none;stroke-opacity:1"
             id="path2323"
             inkscape:connector-curvature="0" />
          <path
             d="m 165.00975,127.30859 v -0.64432 h -1.0385 V 125.459 h -0.71254 c -0.0758,0.78077 -0.43208,1.19769 -1.09156,1.28865 v 0.59884 h 0.5761 v 1.91781 c 0,0.46239 0.0303,0.64432 0.12128,0.82625 0.16677,0.30321 0.4624,0.44723 0.90963,0.44723 0.68223,0 1.15979,-0.22741 1.59944,-0.75803 l -0.45482,-0.53819 c -0.34111,0.32595 -0.47755,0.41691 -0.67464,0.41691 -0.20467,0 -0.27289,-0.12128 -0.27289,-0.51546 v -1.83442 z"
             style="font-style:normal;font-variant:normal;font-weight:600;font-stretch:normal;font-size:7.58026px;font-family:'URW Bookman';-inkscape-font-specification:'URW Bookman Semi-Bold';font-variant-ligatures:normal;font-variant-caps:normal;font-variant-numeric:normal;font-feature-settings:normal;text-align:center;writing-mode:lr-tb;text-anchor:middle;fill:#442400;fill-opacity:1;stroke:#442400;stroke-width:0.165754;stroke-linecap:round;stroke-linejoin:round;stroke-miterlimit:4;stroke-dasharray:none;stroke-opacity:1"
             id="path2325"
             inkscape:connector-curvature="0" />
          <path
             d="m 168.36022,130.46956 v -0.62158 l -0.18193,-0.0152 c -0.43965,-0.0607 -0.52304,-0.15919 -0.51546,-0.63675 v -2.61519 c -0.008,-0.47755 0.0758,-0.5761 0.51546,-0.63674 l 0.18193,-0.0152 v -0.62158 h -2.72132 v 0.62158 l 0.18193,0.0152 c 0.43965,0.0606 0.52304,0.15919 0.51546,0.63674 v 2.61519 c 0.008,0.47756 -0.0758,0.5761 -0.51546,0.63675 l -0.18193,0.0152 v 0.62158 z"
             style="font-style:normal;font-variant:normal;font-weight:600;font-stretch:normal;font-size:7.58026px;font-family:'URW Bookman';-inkscape-font-specification:'URW Bookman Semi-Bold';font-variant-ligatures:normal;font-variant-caps:normal;font-variant-numeric:normal;font-feature-settings:normal;text-align:center;writing-mode:lr-tb;text-anchor:middle;fill:#442400;fill-opacity:1;stroke:#442400;stroke-width:0.165754;stroke-linecap:round;stroke-linejoin:round;stroke-miterlimit:4;stroke-dasharray:none;stroke-opacity:1"
             id="path2327"
             inkscape:connector-curvature="0" />
        </g>
        <g
           style="font-style:normal;font-variant:normal;font-weight:bold;font-stretch:normal;font-size:9.71029px;line-height:125%;font-family:AustralianFlyingCorpsStencil;-inkscape-font-specification:'AustralianFlyingCorpsStencil Bold';font-variant-ligatures:normal;font-variant-caps:normal;font-variant-numeric:normal;font-feature-settings:normal;text-align:center;letter-spacing:0.182068px;word-spacing:0px;writing-mode:lr-tb;text-anchor:middle;fill:#361c00;fill-opacity:1;stroke:none;stroke-width:0.306952;stroke-linecap:butt;stroke-linejoin:miter;stroke-miterlimit:4;stroke-dasharray:none;stroke-opacity:1;paint-order:stroke markers fill"
           id="text965"
           transform="matrix(0.92666054,0,0,1.0791438,5.6365973,3.3551209)"
           aria-label="EPILOGUE">
          <path
             id="path7177"
             style="font-style:normal;font-variant:normal;font-weight:normal;font-stretch:normal;font-family:AustralianFlyingCorpsStencil;-inkscape-font-specification:AustralianFlyingCorpsStencil;fill:#361c00;fill-opacity:1;stroke:none;stroke-width:0.306952;stroke-miterlimit:4;stroke-dasharray:none;stroke-opacity:1"
             d="m 167.21719,115.8657 q 0,0.38841 -0.27189,0.38841 -0.16508,0 -0.33986,-0.4661 -0.24276,-0.63117 -0.43696,-0.89334 -0.38842,-0.50494 -1.039,-0.58262 v -0.81567 h 2.08771 z m -0.87393,3.09758 q 0,0.63117 -0.2816,0.63117 -0.16507,0 -0.26217,-0.29131 -0.0971,-0.29131 -0.19421,-0.59233 -0.16508,-0.35928 -0.4758,-0.4758 v -0.82538 q 0.31072,-0.11652 0.4758,-0.4758 0.0971,-0.29131 0.19421,-0.58262 0.0971,-0.30102 0.26217,-0.30102 0.2816,0 0.2816,0.67972 z m -1.53422,3.44715 h -2.39845 q -0.40783,0 -0.40783,-0.36899 0,-0.22334 0.1845,-0.35928 0.25247,-0.19421 0.29131,-0.26218 0.0388,-0.16507 0.0388,-0.38841 v -6.15632 q 0,-0.22334 -0.0388,-0.38842 -0.0388,-0.0583 -0.29131,-0.26217 -0.1845,-0.14566 -0.1845,-0.35928 0,-0.369 0.40783,-0.369 h 2.39845 z m 2.47612,-2.06829 -0.01,2.06829 h -2.14597 v -0.82537 q 0.71856,-0.0777 1.09726,-0.60204 0.20391,-0.27189 0.40783,-0.93219 0.14565,-0.48551 0.32044,-0.48551 0.33015,0 0.33015,0.77682 z" />
          <path
             id="path7179"
             style="font-style:normal;font-variant:normal;font-weight:normal;font-stretch:normal;font-family:AustralianFlyingCorpsStencil;-inkscape-font-specification:AustralianFlyingCorpsStencil;fill:#361c00;fill-opacity:1;stroke:none;stroke-width:0.306952;stroke-miterlimit:4;stroke-dasharray:none;stroke-opacity:1"
             d="m 173.73036,116.25411 q 0,1.43712 -0.71856,2.09742 -0.67972,0.64088 -2.11684,0.64088 v -0.7574 q 0.61175,-0.0388 0.61175,-1.11669 v -1.73814 q 0,-1.07784 -0.61175,-1.12639 v -0.75741 h 0.20391 q 2.63149,0 2.63149,2.75773 z m -2.51496,5.80675 q 0,0.34957 -0.4661,0.34957 h -2.58293 q -0.37871,0 -0.37871,-0.36899 0,-0.21363 0.1845,-0.34957 0.26218,-0.20392 0.30102,-0.27189 0.0291,-0.12623 0.0291,-0.38841 v -6.15632 q 0,-0.26218 -0.0291,-0.38842 -0.0388,-0.068 -0.30102,-0.26217 -0.1845,-0.14566 -0.1845,-0.35928 0,-0.369 0.40784,-0.369 h 2.39844 v 7.69055 q 0,0.27189 0.31073,0.43697 0.31073,0.16507 0.31073,0.43696 z" />
          <path
             id="path7181"
             style="font-style:normal;font-variant:normal;font-weight:normal;font-stretch:normal;font-family:AustralianFlyingCorpsStencil;-inkscape-font-specification:AustralianFlyingCorpsStencil;fill:#361c00;fill-opacity:1;stroke:none;stroke-width:0.306952;stroke-miterlimit:4;stroke-dasharray:none;stroke-opacity:1"
             d="m 177.53435,122.04144 q 0,0.36899 -0.41754,0.36899 h -2.51497 q -0.40783,0 -0.40783,-0.36899 0,-0.22334 0.1845,-0.35928 0.26218,-0.19421 0.30102,-0.26218 0.0388,-0.16507 0.0388,-0.38841 v -6.15632 q 0,-0.22334 -0.0388,-0.38842 -0.0388,-0.0583 -0.30102,-0.26217 -0.1845,-0.14566 -0.1845,-0.35928 0,-0.369 0.40783,-0.369 h 2.51497 q 0.41754,0 0.41754,0.369 0,0.21362 -0.18449,0.34957 -0.26218,0.20391 -0.31073,0.27188 -0.0388,0.25247 -0.0388,0.38842 v 6.18545 q 0,0.25247 0.0291,0.33986 0.0291,0.0874 0.28159,0.26218 0.22334,0.14565 0.22334,0.3787 z" />
          <path
             id="path7183"
             style="font-style:normal;font-variant:normal;font-weight:normal;font-stretch:normal;font-family:AustralianFlyingCorpsStencil;-inkscape-font-specification:AustralianFlyingCorpsStencil;fill:#361c00;fill-opacity:1;stroke:none;stroke-width:0.306952;stroke-miterlimit:4;stroke-dasharray:none;stroke-opacity:1"
             d="m 181.34806,113.86538 q 0,0.21362 -0.1845,0.35928 -0.26218,0.1942 -0.30102,0.26217 -0.0291,0.12624 -0.0291,0.48552 v 7.43808 h -2.40815 q -0.40783,0 -0.40783,-0.36899 0,-0.22334 0.18449,-0.35928 0.26218,-0.19421 0.30102,-0.26218 0.0388,-0.25247 0.0388,-0.38841 v -6.15632 q 0,-0.13595 -0.0388,-0.38842 -0.0388,-0.0583 -0.30102,-0.26217 -0.18449,-0.14566 -0.18449,-0.35928 0,-0.369 0.40783,-0.369 h 2.51496 q 0.40784,0 0.40784,0.369 z m 1.81582,8.54505 h -2.03916 v -0.82537 q 0.65059,-0.0486 1.00987,-0.64088 0.18449,-0.31073 0.39812,-1.07784 0.15537,-0.57291 0.32044,-0.57291 0.31073,0 0.31073,0.74769 z" />
          <path
             id="path7185"
             style="font-style:normal;font-variant:normal;font-weight:normal;font-stretch:normal;font-family:AustralianFlyingCorpsStencil;-inkscape-font-specification:AustralianFlyingCorpsStencil;fill:#361c00;fill-opacity:1;stroke:none;stroke-width:0.306952;stroke-miterlimit:4;stroke-dasharray:none;stroke-opacity:1"
             d="m 189.76444,117.95341 q 0,1.76727 -0.59232,2.95193 -0.75741,1.50509 -2.33047,1.67017 v -0.75741 q 0.46609,-0.0583 0.46609,-1.04871 v -5.63197 q 0,-0.99045 -0.46609,-1.04871 v -0.7574 q 1.57306,0.16507 2.33047,1.67017 0.59232,1.18466 0.59232,2.95193 z m -3.22381,4.6221 q -1.56336,-0.15537 -2.32076,-1.67017 -0.59233,-1.18466 -0.59233,-2.95193 0,-1.76727 0.59233,-2.95193 0.7574,-1.5051 2.32076,-1.67017 v 0.7574 q -0.32044,0.0388 -0.41754,0.42726 -0.0486,0.1942 -0.0486,0.6603 v 5.55428 q 0,0.46609 0.0486,0.6603 0.0971,0.38841 0.41754,0.42725 z" />
          <path
             id="path7187"
             style="font-style:normal;font-variant:normal;font-weight:normal;font-stretch:normal;font-family:AustralianFlyingCorpsStencil;-inkscape-font-specification:AustralianFlyingCorpsStencil;fill:#361c00;fill-opacity:1;stroke:none;stroke-width:0.306952;stroke-miterlimit:4;stroke-dasharray:none;stroke-opacity:1"
             d="m 195.79209,116.157 q 0,0.68943 -0.3787,0.68943 -0.21362,0 -0.45638,-0.68943 -0.34957,-1.00016 -0.52436,-1.30117 -0.40783,-0.71857 -1.039,-0.76712 v -0.7574 q 0.24276,0.0291 0.77683,0.25247 0.50493,0.22333 0.68943,0.22333 0.0874,0 0.25246,-0.22333 0.16508,-0.22334 0.34957,-0.22334 0.21363,0 0.2816,0.15537 0.0486,0.0971 0.0486,0.34957 z m 0.35928,2.07801 q 0,0.20391 -0.11652,0.31073 -0.15536,0.13594 -0.18449,0.21362 -0.0777,0.19421 -0.0777,0.93219 0,0.26218 0.0194,0.79624 0.0291,0.52436 0.0291,0.78654 -1.08756,1.2332 -2.42758,1.29147 v -0.78654 q 0.39812,-0.0388 0.39812,-0.71856 v -1.93235 q 0,-0.0971 -0.0388,-0.31073 -0.0291,-0.0388 -0.32044,-0.24275 -0.17478,-0.12624 -0.17478,-0.36899 0,-0.34957 0.42725,-0.34957 h 2.09742 q 0.36899,0 0.36899,0.3787 z m -3.04903,4.3405 q -1.54393,-0.19421 -2.28191,-1.6993 -0.57291,-1.17495 -0.57291,-2.9228 0,-1.74785 0.57291,-2.9228 0.73798,-1.48567 2.28191,-1.6993 v 0.7574 q -0.31073,0.0583 -0.40783,0.43697 -0.0486,0.1942 -0.0486,0.65059 v 5.55428 q 0,0.44667 0.0486,0.65059 0.0971,0.38841 0.40783,0.43696 z" />
          <path
             id="path7189"
             style="font-style:normal;font-variant:normal;font-weight:normal;font-stretch:normal;font-family:AustralianFlyingCorpsStencil;-inkscape-font-specification:AustralianFlyingCorpsStencil;fill:#361c00;fill-opacity:1;stroke:none;stroke-width:0.306952;stroke-miterlimit:4;stroke-dasharray:none;stroke-opacity:1"
             d="m 203.00441,113.8848 q 0,0.1942 -0.31073,0.44667 -0.33986,0.29131 -0.42726,0.6603 -0.0583,0.24276 -0.0583,0.83508 v 3.36948 q 0,1.36915 -0.29131,2.06829 -0.41754,1.00987 -1.55364,1.21378 v -0.87392 q 0.72827,-0.12624 1.00987,-0.76712 0.18449,-0.44667 0.18449,-1.3206 v -4.02006 q 0,-0.56319 -0.20391,-0.87392 -0.0874,-0.13595 -0.38842,-0.3787 -0.20391,-0.16508 -0.20391,-0.35928 0,-0.40784 0.39812,-0.40784 h 1.44683 q 0.39813,0 0.39813,0.40784 z m -2.91309,-0.0583 q 0,0.23305 -0.21363,0.369 -0.33986,0.23304 -0.36899,0.26217 -0.0388,0.21363 -0.0388,0.33015 v 5.64168 q 0,0.53407 0.068,0.73798 0.12624,0.36899 0.53407,0.41755 l 0.01,0.93218 q -0.61175,0.0291 -0.64088,0.0291 -1.23321,0 -1.78669,-0.69915 -0.50494,-0.64087 -0.50494,-1.91292 v -5.07848 q 0,-0.26218 -0.0291,-0.38842 -0.0486,-0.0777 -0.30102,-0.27188 -0.1845,-0.14566 -0.1845,-0.34957 0,-0.369 0.41755,-0.369 h 2.53438 q 0.50494,0 0.50494,0.34957 z" />
          <path
             id="path7191"
             style="font-style:normal;font-variant:normal;font-weight:normal;font-stretch:normal;font-family:AustralianFlyingCorpsStencil;-inkscape-font-specification:AustralianFlyingCorpsStencil;fill:#361c00;fill-opacity:1;stroke:none;stroke-width:0.306952;stroke-miterlimit:4;stroke-dasharray:none;stroke-opacity:1"
             d="m 208.70191,115.8657 q 0,0.38841 -0.27189,0.38841 -0.16508,0 -0.33986,-0.4661 -0.24276,-0.63117 -0.43697,-0.89334 -0.38841,-0.50494 -1.039,-0.58262 v -0.81567 h 2.08772 z m -0.87393,3.09758 q 0,0.63117 -0.2816,0.63117 -0.16507,0 -0.26218,-0.29131 -0.0971,-0.29131 -0.1942,-0.59233 -0.16508,-0.35928 -0.47581,-0.4758 v -0.82538 q 0.31073,-0.11652 0.47581,-0.4758 0.0971,-0.29131 0.1942,-0.58262 0.0971,-0.30102 0.26218,-0.30102 0.2816,0 0.2816,0.67972 z m -1.53423,3.44715 h -2.39844 q -0.40783,0 -0.40783,-0.36899 0,-0.22334 0.1845,-0.35928 0.25246,-0.19421 0.2913,-0.26218 0.0388,-0.16507 0.0388,-0.38841 v -6.15632 q 0,-0.22334 -0.0388,-0.38842 -0.0388,-0.0583 -0.2913,-0.26217 -0.1845,-0.14566 -0.1845,-0.35928 0,-0.369 0.40783,-0.369 h 2.39844 z m 2.47613,-2.06829 -0.01,2.06829 h -2.14598 v -0.82537 q 0.71857,-0.0777 1.09727,-0.60204 0.20391,-0.27189 0.40783,-0.93219 0.14565,-0.48551 0.32044,-0.48551 0.33015,0 0.33015,0.77682 z" />
        </g>
        <g
           style="font-style:normal;font-variant:normal;font-weight:bold;font-stretch:normal;font-size:8.2641px;line-height:125%;font-family:'Dancing Script';-inkscape-font-specification:'Dancing Script Bold';font-variant-ligatures:normal;font-variant-caps:normal;font-variant-numeric:normal;font-variant-east-asian:normal;text-align:center;letter-spacing:0px;word-spacing:0px;text-anchor:middle;fill:#361c00;fill-opacity:1;stroke:none;stroke-width:0.2007;stroke-linecap:butt;stroke-linejoin:round;stroke-miterlimit:4;stroke-dasharray:none;stroke-opacity:1;paint-order:markers stroke fill"
           id="text1640"
           aria-label="available for"
           transform="translate(5.6365973,3.3551209)">
          <path
             id="path7194"
             style="font-style:normal;font-variant:normal;font-weight:bold;font-stretch:normal;font-size:8.2641px;font-family:'Dancing Script';-inkscape-font-specification:'Dancing Script Bold';font-variant-ligatures:normal;font-variant-caps:normal;font-variant-numeric:normal;font-variant-east-asian:normal;fill:#361c00;fill-opacity:1;stroke:none;stroke-width:0.2007;stroke-linejoin:round;stroke-miterlimit:4;stroke-dasharray:none;stroke-opacity:1;paint-order:markers stroke fill"
             d="m 155.76185,139.39843 c 0,-0.39668 -0.38015,-0.66113 -0.8512,-0.66113 -1.14045,0 -2.33874,1.52886 -2.33874,2.49576 0,0.48758 0.31404,0.72724 0.67766,0.72724 0.42147,0 0.76029,-0.33057 1.19829,-0.85947 0,0.33883 0.21487,0.71898 0.68592,0.71898 0.61981,0 1.27267,-0.61981 1.67761,-1.5206 l -0.15701,-0.15702 c -0.49585,0.94211 -1.02475,1.2892 -1.2892,1.2892 -0.18181,0 -0.24793,-0.15701 -0.24793,-0.2975 0,-0.36362 0.47106,-0.876 0.47106,-1.09086 0,-0.14049 -0.19008,-0.21487 -0.29751,-0.24793 0.28924,-0.008 0.47105,-0.11569 0.47105,-0.39667 z m -0.62807,0.4132 c -0.42147,0.56196 -1.20656,1.7272 -1.71067,1.7272 -0.13222,0 -0.19007,-0.0744 -0.19007,-0.26445 0,-0.7603 0.92558,-2.23131 1.69414,-2.23131 0.28098,0 0.34709,0.2066 0.34709,0.42973 0,0.1157 -0.008,0.19834 -0.0413,0.30577 -0.008,0 -0.0248,-0.008 -0.0331,-0.008 -0.0248,0 -0.0496,0.0165 -0.0661,0.0413 z" />
          <path
             id="path7196"
             style="font-style:normal;font-variant:normal;font-weight:bold;font-stretch:normal;font-size:8.2641px;font-family:'Dancing Script';-inkscape-font-specification:'Dancing Script Bold';font-variant-ligatures:normal;font-variant-caps:normal;font-variant-numeric:normal;font-variant-east-asian:normal;fill:#361c00;fill-opacity:1;stroke:none;stroke-width:0.2007;stroke-linejoin:round;stroke-miterlimit:4;stroke-dasharray:none;stroke-opacity:1;paint-order:markers stroke fill"
             d="m 160.07571,140.18352 c -0.23139,0.45452 -0.42973,0.61154 -0.6446,0.61154 -0.3223,0 -0.35536,-0.34709 -0.35536,-0.57849 0,-0.70245 0.26446,-0.76856 0.26446,-1.02475 0,-0.13222 -0.0827,-0.36362 -0.35536,-0.36362 -0.23966,0 -0.40494,0.19834 -0.42973,0.94211 -0.3223,0.71898 -0.90906,1.68588 -1.29747,1.68588 -0.13222,0 -0.14875,-0.14876 -0.14875,-0.49585 0,-0.35536 0.0413,-0.74377 0.0413,-1.07433 0,-0.31404 -0.008,-0.39668 -0.27272,-0.39668 -0.28924,0 -0.30577,0.0992 -0.31403,0.42973 -0.0248,0.56196 -0.0331,0.86773 -0.0331,0.98343 0,0.58675 0.13223,0.99169 0.54543,0.99169 0.5289,0 1.10739,-0.84293 1.51233,-1.5867 0.1157,0.44626 0.33883,0.76856 0.70245,0.76856 0.28924,0 0.61981,-0.21487 0.876,-0.81815 z" />
          <path
             id="path7198"
             style="font-style:normal;font-variant:normal;font-weight:bold;font-stretch:normal;font-size:8.2641px;font-family:'Dancing Script';-inkscape-font-specification:'Dancing Script Bold';font-variant-ligatures:normal;font-variant-caps:normal;font-variant-numeric:normal;font-variant-east-asian:normal;fill:#361c00;fill-opacity:1;stroke:none;stroke-width:0.2007;stroke-linejoin:round;stroke-miterlimit:4;stroke-dasharray:none;stroke-opacity:1;paint-order:markers stroke fill"
             d="m 162.83591,139.39843 c 0,-0.39668 -0.38014,-0.66113 -0.8512,-0.66113 -1.14044,0 -2.33874,1.52886 -2.33874,2.49576 0,0.48758 0.31404,0.72724 0.67766,0.72724 0.42147,0 0.76029,-0.33057 1.19829,-0.85947 0,0.33883 0.21487,0.71898 0.68592,0.71898 0.61981,0 1.27267,-0.61981 1.67761,-1.5206 l -0.15701,-0.15702 c -0.49585,0.94211 -1.02475,1.2892 -1.2892,1.2892 -0.18181,0 -0.24793,-0.15701 -0.24793,-0.2975 0,-0.36362 0.47106,-0.876 0.47106,-1.09086 0,-0.14049 -0.19008,-0.21487 -0.29751,-0.24793 0.28924,-0.008 0.47105,-0.11569 0.47105,-0.39667 z m -0.62807,0.4132 c -0.42147,0.56196 -1.20656,1.7272 -1.71067,1.7272 -0.13222,0 -0.19007,-0.0744 -0.19007,-0.26445 0,-0.7603 0.92558,-2.23131 1.69414,-2.23131 0.28098,0 0.34709,0.2066 0.34709,0.42973 0,0.1157 -0.008,0.19834 -0.0413,0.30577 -0.008,0 -0.0248,-0.008 -0.0331,-0.008 -0.0248,0 -0.0496,0.0165 -0.0661,0.0413 z" />
          <path
             id="path7200"
             style="font-style:normal;font-variant:normal;font-weight:bold;font-stretch:normal;font-size:8.2641px;font-family:'Dancing Script';-inkscape-font-specification:'Dancing Script Bold';font-variant-ligatures:normal;font-variant-caps:normal;font-variant-numeric:normal;font-variant-east-asian:normal;fill:#361c00;fill-opacity:1;stroke:none;stroke-width:0.2007;stroke-linejoin:round;stroke-miterlimit:4;stroke-dasharray:none;stroke-opacity:1;paint-order:markers stroke fill"
             d="m 164.7036,138.76209 c -0.61981,0 -1.23135,1.69414 -1.23135,2.32221 0,0.40494 0.23966,0.73551 0.72724,0.73551 0.68592,0 1.30573,-0.56196 1.69414,-1.53713 l -0.12396,-0.13222 c -0.47932,0.94211 -0.92558,1.26441 -1.29747,1.26441 -0.23966,0 -0.37188,-0.0826 -0.37188,-0.438 0,-0.72724 0.8512,-1.69414 0.8512,-1.97512 0,-0.15702 -0.1157,-0.23966 -0.24792,-0.23966 z m 0.47105,-0.66939 c 0.29751,0 0.60328,-0.26445 0.60328,-0.49585 0,-0.23139 -0.15702,-0.30577 -0.35536,-0.30577 -0.30577,0 -0.66112,0.21487 -0.66112,0.47932 0,0.22313 0.2066,0.3223 0.4132,0.3223 z" />
          <path
             id="path7202"
             style="font-style:normal;font-variant:normal;font-weight:bold;font-stretch:normal;font-size:8.2641px;font-family:'Dancing Script';-inkscape-font-specification:'Dancing Script Bold';font-variant-ligatures:normal;font-variant-caps:normal;font-variant-numeric:normal;font-variant-east-asian:normal;fill:#361c00;fill-opacity:1;stroke:none;stroke-width:0.2007;stroke-linejoin:round;stroke-miterlimit:4;stroke-dasharray:none;stroke-opacity:1;paint-order:markers stroke fill"
             d="m 168.55466,136.28286 c -0.008,-0.25619 -0.14049,-0.66113 -0.34709,-0.66113 -0.62807,0 -2.62799,3.70232 -2.62799,5.32208 0,0.47932 0.17355,0.876 0.69419,0.876 0.63633,0 1.23961,-0.60328 1.71067,-1.58671 l -0.19834,-0.10743 c -0.30577,0.65286 -0.78509,1.31399 -1.1983,1.31399 -0.21486,0 -0.35535,-0.17355 -0.35535,-0.57022 0,-0.21487 0.0413,-0.49585 0.0909,-0.77683 1.25615,-0.99169 2.23131,-3.07424 2.23131,-3.80975 z m -0.38015,0.0909 c 0,0.55369 -0.76856,2.18998 -1.7024,3.20647 0.47105,-1.49581 1.4958,-3.20647 1.7024,-3.20647 z" />
          <path
             id="path7204"
             style="font-style:normal;font-variant:normal;font-weight:bold;font-stretch:normal;font-size:8.2641px;font-family:'Dancing Script';-inkscape-font-specification:'Dancing Script Bold';font-variant-ligatures:normal;font-variant-caps:normal;font-variant-numeric:normal;font-variant-east-asian:normal;fill:#361c00;fill-opacity:1;stroke:none;stroke-width:0.2007;stroke-linejoin:round;stroke-miterlimit:4;stroke-dasharray:none;stroke-opacity:1;paint-order:markers stroke fill"
             d="m 170.57109,139.39843 c 0,-0.39668 -0.38015,-0.66113 -0.85121,-0.66113 -1.14044,0 -2.33874,1.52886 -2.33874,2.49576 0,0.48758 0.31404,0.72724 0.67766,0.72724 0.42147,0 0.7603,-0.33057 1.19829,-0.85947 0,0.33883 0.21487,0.71898 0.68592,0.71898 0.61981,0 1.27268,-0.61981 1.67762,-1.5206 l -0.15702,-0.15702 c -0.49585,0.94211 -1.02475,1.2892 -1.2892,1.2892 -0.18181,0 -0.24792,-0.15701 -0.24792,-0.2975 0,-0.36362 0.47105,-0.876 0.47105,-1.09086 0,-0.14049 -0.19007,-0.21487 -0.29751,-0.24793 0.28925,-0.008 0.47106,-0.11569 0.47106,-0.39667 z m -0.62808,0.4132 c -0.42146,0.56196 -1.20655,1.7272 -1.71066,1.7272 -0.13223,0 -0.19008,-0.0744 -0.19008,-0.26445 0,-0.7603 0.92558,-2.23131 1.69414,-2.23131 0.28098,0 0.34709,0.2066 0.34709,0.42973 0,0.1157 -0.008,0.19834 -0.0413,0.30577 -0.008,0 -0.0248,-0.008 -0.0331,-0.008 -0.0248,0 -0.0496,0.0165 -0.0661,0.0413 z" />
          <path
             id="path7206"
             style="font-style:normal;font-variant:normal;font-weight:bold;font-stretch:normal;font-size:8.2641px;font-family:'Dancing Script';-inkscape-font-specification:'Dancing Script Bold';font-variant-ligatures:normal;font-variant-caps:normal;font-variant-numeric:normal;font-variant-east-asian:normal;fill:#361c00;fill-opacity:1;stroke:none;stroke-width:0.2007;stroke-linejoin:round;stroke-miterlimit:4;stroke-dasharray:none;stroke-opacity:1;paint-order:markers stroke fill"
             d="m 174.14944,136.24154 c -0.008,-0.25619 -0.1157,-0.57022 -0.33883,-0.57022 -0.75203,0 -2.62798,3.77669 -2.62798,5.40472 0,0.68592 0.33056,1.09912 0.95863,1.09912 0.61155,0 1.06607,-0.39667 1.38011,-0.89252 0.0579,0.008 0.11569,0.008 0.17354,0.008 0.65287,0 1.01649,-0.34709 1.29747,-0.99995 l -0.12396,-0.17355 c -0.17355,0.35536 -0.48759,0.91732 -1.06607,0.91732 -0.0661,0 -0.0909,-0.008 -0.14876,-0.008 0.16528,-0.35535 0.24793,-0.71897 0.24793,-1.04127 0,-0.56196 -0.25619,-0.82641 -0.61155,-0.82641 -0.42147,0 -0.75203,0.36362 -0.75203,0.90078 0,0.438 0.21487,0.86773 0.61981,1.09087 -0.20661,0.38014 -0.57849,0.67765 -0.86773,0.67765 -0.3223,0 -0.42974,-0.36362 -0.42974,-0.80162 0,-0.67765 0.25619,-1.43795 0.37189,-1.65282 1.02475,-0.58675 1.91727,-2.35526 1.91727,-3.13209 z m -0.38841,0.2066 c -0.008,0.38841 -0.65287,1.74373 -1.37184,2.40486 0.37188,-1.14871 1.16523,-2.33048 1.37184,-2.40486 z m -0.81815,3.65273 c 0,-0.27271 0.1157,-0.50411 0.26445,-0.50411 0.13223,0 0.23966,0.18181 0.23966,0.57849 0,0.26445 -0.0496,0.47932 -0.14875,0.70245 -0.27272,-0.19007 -0.35536,-0.54543 -0.35536,-0.77683 z" />
          <path
             id="path7208"
             style="font-style:normal;font-variant:normal;font-weight:bold;font-stretch:normal;font-size:8.2641px;font-family:'Dancing Script';-inkscape-font-specification:'Dancing Script Bold';font-variant-ligatures:normal;font-variant-caps:normal;font-variant-numeric:normal;font-variant-east-asian:normal;fill:#361c00;fill-opacity:1;stroke:none;stroke-width:0.2007;stroke-linejoin:round;stroke-miterlimit:4;stroke-dasharray:none;stroke-opacity:1;paint-order:markers stroke fill"
             d="m 177.65342,136.28286 c -0.008,-0.25619 -0.14049,-0.66113 -0.3471,-0.66113 -0.62807,0 -2.62798,3.70232 -2.62798,5.32208 0,0.47932 0.17355,0.876 0.69419,0.876 0.63633,0 1.23961,-0.60328 1.71066,-1.58671 l -0.19833,-0.10743 c -0.30578,0.65286 -0.78509,1.31399 -1.1983,1.31399 -0.21487,0 -0.35535,-0.17355 -0.35535,-0.57022 0,-0.21487 0.0413,-0.49585 0.0909,-0.77683 1.25614,-0.99169 2.23131,-3.07424 2.23131,-3.80975 z m -0.38015,0.0909 c 0,0.55369 -0.76856,2.18998 -1.70241,3.20647 0.47106,-1.49581 1.49581,-3.20647 1.70241,-3.20647 z" />
          <path
             id="path7210"
             style="font-style:normal;font-variant:normal;font-weight:bold;font-stretch:normal;font-size:8.2641px;font-family:'Dancing Script';-inkscape-font-specification:'Dancing Script Bold';font-variant-ligatures:normal;font-variant-caps:normal;font-variant-numeric:normal;font-variant-east-asian:normal;fill:#361c00;fill-opacity:1;stroke:none;stroke-width:0.2007;stroke-linejoin:round;stroke-miterlimit:4;stroke-dasharray:none;stroke-opacity:1;paint-order:markers stroke fill"
             d="m 179.29796,139.14224 c 0,-0.438 -0.31404,-0.5537 -0.60328,-0.5537 -1.02475,0 -2.1404,1.37184 -2.1404,2.34701 0,0.57022 0.38841,0.99995 1.09912,0.99995 0.88426,0 1.77679,-0.66112 2.22305,-1.65282 l -0.16529,-0.13222 c -0.42146,0.79335 -1.19003,1.42969 -1.87595,1.42969 -0.62807,0 -0.63633,-0.5289 -0.63633,-0.6446 0,-0.10743 0.008,-0.14876 0.0165,-0.19008 0.99169,-0.10743 2.08255,-0.76856 2.08255,-1.60323 z m -0.58675,-0.19834 c 0.0992,0 0.14049,0.0331 0.14049,0.15702 0,0.61981 -0.9669,1.27267 -1.54539,1.33878 0.2314,-0.68592 0.90079,-1.4958 1.4049,-1.4958 z" />
          <path
             id="path7212"
             style="font-style:normal;font-variant:normal;font-weight:bold;font-stretch:normal;font-size:8.2641px;font-family:'Dancing Script';-inkscape-font-specification:'Dancing Script Bold';font-variant-ligatures:normal;font-variant-caps:normal;font-variant-numeric:normal;font-variant-east-asian:normal;fill:#361c00;fill-opacity:1;stroke:none;stroke-width:0.2007;stroke-linejoin:round;stroke-miterlimit:4;stroke-dasharray:none;stroke-opacity:1;paint-order:markers stroke fill"
             d="m 184.58696,140.15046 c -0.31403,0.52064 -0.58675,0.81814 -0.9669,0.81814 -0.51237,0 -0.60328,-0.51237 -0.72724,-1.22308 -0.0165,-0.1157 -0.0909,-0.23966 -0.2066,-0.28925 l 0.13222,-0.33056 c 1.11566,-0.7355 2.2561,-2.13214 2.2561,-3.08251 0,-0.22313 -0.0661,-0.42147 -0.34709,-0.42147 -1.4958,0 -3.60315,5.80966 -3.60315,7.47075 0,0.67765 0.3471,0.79335 0.53717,0.79335 0.66939,0 1.31399,-1.44622 1.33052,-2.80979 0.19007,0.14049 0.39668,0.22313 0.58675,0.22313 0.34709,0 0.83468,-0.30577 1.19003,-1.01649 z m -1.9338,0.92558 c 0,0.81814 -0.45452,2.29742 -0.7603,2.29742 -0.0909,0 -0.13222,-0.13223 -0.13222,-0.35536 0,-0.57849 0.26445,-1.63629 0.65286,-2.785 0.17355,0.31404 0.23966,0.5289 0.23966,0.84294 z m 1.92554,-4.78492 c 0.0496,0 0.0661,0.0165 0.0661,0.0661 0,0.28924 -0.57849,1.24788 -1.58671,2.18998 0.52891,-1.25614 1.11566,-2.2561 1.5206,-2.2561 z" />
          <path
             id="path7214"
             style="font-style:normal;font-variant:normal;font-weight:bold;font-stretch:normal;font-size:8.2641px;font-family:'Dancing Script';-inkscape-font-specification:'Dancing Script Bold';font-variant-ligatures:normal;font-variant-caps:normal;font-variant-numeric:normal;font-variant-east-asian:normal;fill:#361c00;fill-opacity:1;stroke:none;stroke-width:0.2007;stroke-linejoin:round;stroke-miterlimit:4;stroke-dasharray:none;stroke-opacity:1;paint-order:markers stroke fill"
             d="m 186.75215,141.0843 c 1.05781,0 1.41316,-1.10739 1.68588,-1.909 0.2066,0.10743 0.43799,0.28097 0.43799,0.57022 0,0.39667 -0.42973,0.98343 -0.42973,1.46274 0,0.3471 0.28098,0.58675 0.69419,0.58675 0.74377,0 1.43795,-0.80161 1.76851,-1.51233 l -0.16528,-0.11569 c -0.2066,0.47105 -0.88426,1.21482 -1.39663,1.21482 -0.1157,0 -0.2066,-0.0331 -0.2066,-0.19834 0,-0.31403 0.39667,-0.83467 0.39667,-1.33052 0,-0.71071 -0.89252,-0.87599 -0.89252,-1.10739 0,-0.0496 0.0909,-0.23966 0.0909,-0.29751 0,-0.0744 -0.008,-0.25618 -0.18182,-0.25618 -0.11569,0 -0.39667,0.25618 -0.39667,0.61154 0,0.0826 0.0331,0.15702 0.0744,0.2066 -0.2314,0.74377 -0.57849,1.76026 -1.42969,1.76026 -0.0909,0 -0.16529,-0.0248 -0.23966,-0.0496 0.31403,-0.46279 0.51237,-0.97516 0.51237,-1.39663 0,-0.38015 -0.16528,-0.66939 -0.65286,-0.66939 -0.51238,0 -0.80162,0.39667 -0.85947,0.87599 -0.10743,-0.0413 -0.19007,-0.0661 -0.24792,-0.0661 -0.52064,0 -0.99996,0.90905 -0.99996,1.58671 0,0.43799 0.2314,0.78509 0.74377,0.78509 0.42973,0 0.90905,-0.3471 1.29746,-0.82641 0.12397,0.0496 0.25619,0.0744 0.39668,0.0744 z m -0.69418,-0.26445 c -0.28925,0.33883 -0.61981,0.60328 -0.83468,0.60328 -0.15702,0 -0.26445,-0.14049 -0.26445,-0.438 0,-0.36362 0.36362,-1.13218 0.59502,-1.38837 0.008,0.54543 0.16528,0.95038 0.50411,1.22309 z m -0.0496,-1.09086 c 0,-0.42973 0.26445,-0.73551 0.47932,-0.73551 0.0992,0 0.21487,0.1157 0.21487,0.38015 0,0.35536 -0.14049,0.76856 -0.39668,1.14045 -0.15702,-0.2066 -0.29751,-0.52064 -0.29751,-0.78509 z" />
        </g>
      </g>
      <g
         id="g7087"
         stroke-width="40"
         stroke="#7ba1e4"
         fill="none"
         transform="matrix(0.08615451,0,0,0.08615451,183.66249,133.5665)"
         style="opacity:0.9">
        <circle
           id="circle7081"
           r="100"
           cy="236.5"
           cx="163.5" />
        <path
           id="path7083"
           stroke-linejoin="bevel"
           d="M 231.97,167.88 335.3,64.55" />
        <path
           id="path7085"
           stroke-linecap="square"
           d="m 272,65 h 63 v 63" />
      </g>
    </g>
  </g>
</svg>
