<?xml version="1.0" encoding="UTF-8"?>
<svg width="491.94" height="442.51" version="1.1" viewBox="0 0 130.159 117.081" xmlns="http://www.w3.org/2000/svg">
  <g>
    <path d="m107.615 84.8691c-1.32604 2.29677-3.61151 0.952417-5.17037 3.098s0.42595 3.90377-1.34864 5.87465c-1.77459 1.97088-3.73061 0.180728-5.7015 1.95532-1.97088 1.77459-0.394994 3.90702-2.54058 5.46588-2.14558 1.55886-3.68667-0.59886-5.98344 0.72719-2.29677 1.32604-1.19868 3.73952-3.62148 4.81822-2.4228 1.0787-3.4816-1.35228-6.00388-0.53274s-1.94997 3.40858-4.5441 3.95998-3.12436-2.04659-5.76192-1.76937c-2.63756 0.27722-2.61605 2.92868-5.26813 2.92868-2.65208 0-2.63058-2.65146-5.26813-2.92868s-3.16779 2.32077-5.76192 1.76937c-2.59413-0.5514-2.02182-3.14044-4.54411-3.95998s-3.58108 1.61144-6.00388 0.53274c-2.4228-1.0787-1.32471-3.49218-3.62148-4.81822-2.29677-1.32605-3.83786 0.83167-5.98344-0.72719-2.14558-1.55885-0.569693-3.69128-2.54058-5.46588-1.97088-1.77459-3.92691 0.01556-5.7015-1.95532-1.77459-1.97088 0.210218-3.72907-1.34864-5.87465s-3.84433-0.801225-5.17037-3.098c-1.32604-2.29677 0.980941-3.60387-0.09776-6.02668-1.0787-2.4228-3.59374-1.583-4.41328-4.10528-0.81954-2.52228 1.70879-3.32117 1.15739-5.9153-0.5514-2.59413-3.18608-2.29558-3.4633-4.93314s2.36196-2.89332 2.36196-5.5454c0-2.65209-2.63918-2.90785-2.36196-5.5454 0.277218-2.63756 2.9119-2.33901 3.4633-4.93314 0.5514-2.59413-1.97693-3.39302-1.15739-5.9153 0.819539-2.52228 3.33458-1.68248 4.41328-4.10528 1.0787-2.4228-1.22828-3.7299 0.09776-6.02667 1.32604-2.29677 3.61152-0.952416 5.17037-3.098 1.55886-2.14558-0.425952-3.90377 1.34864-5.87465 1.77459-1.97088 3.73062-0.180727 5.7015-1.95532 1.97088-1.77459 0.394995-3.90702 2.54058-5.46588 2.14558-1.55886 3.68667 0.59886 5.98344-0.727183 2.29677-1.32604 1.19868-3.73952 3.62148-4.81822 2.4228-1.0787 3.4816 1.35227 6.00388 0.532736 2.52228-0.81954 1.94997-3.40858 4.5441-3.95998 2.59413-0.5514 3.12436 2.04659 5.76192 1.76937s2.61605-2.92868 5.26813-2.92868c2.65208 1e-7 2.63058 2.65146 5.26813 2.92868 2.63756 0.277218 3.16779-2.32077 5.76192-1.76937 2.59413 0.5514 2.02182 3.14044 4.5441 3.95998 2.52228 0.819539 3.58108-1.61144 6.00388-0.532736 2.4228 1.0787 1.3247 3.49218 3.62148 4.81822 2.29677 1.32604 3.83786-0.831675 5.98344 0.727182s0.569693 3.69129 2.54058 5.46588c1.97088 1.77459 3.92691-0.01556 5.7015 1.95532 1.77459 1.97088-0.21022 3.72907 1.34864 5.87465s3.84433 0.801226 5.17037 3.098c1.32605 2.29677-0.98094 3.60387 0.0978 6.02667 1.0787 2.4228 3.59374 1.583 4.41328 4.10528s-1.70879 3.32117-1.15739 5.9153 3.18608 2.29559 3.4633 4.93314-2.36196 2.89332-2.36196 5.5454c0 2.65208 2.63918 2.90784 2.36196 5.5454s-2.9119 2.33901-3.4633 4.93314 1.97693 3.39302 1.15739 5.9153-3.33458 1.68248-4.41328 4.10528c-1.0787 2.4228 1.22829 3.7299-0.0978 6.02667z" fill="#c59117"/>
    <circle cx="61.6714" cy="58.3433" r="47.3195" fill="#ffffac"/>
    <circle cx="61.671" cy="58.343" r="43.301" fill="none" stroke="#8a5300" stroke-width="2.4214"/>
    <circle cx="61.671" cy="58.343" r="40.907" fill="none" stroke="#c6941b" stroke-width=".79402"/>
    <g fill="#a26b00" fill-rule="evenodd">
      <path d="m61.6714 19.3867 1.06773 3.18818 3.36208 0.03027-2.70219 2.00068 1.01015 3.20689-2.73778-1.95169-2.73778 1.95169 1.01015-3.20689-2.70219-2.00068 3.36208-0.03027z"/>
      <path d="m71.6567 21.7965 0.983275 2.93599 3.09614 0.02788-2.48844 1.84242 0.930245 2.95322-2.52122-1.79731-2.52122 1.79731 0.930245-2.95322-2.48844-1.84242 3.09614-0.02788z"/>
      <path d="m51.686 21.7965 0.983275 2.93599 3.09614 0.02788-2.48844 1.84242 0.930245 2.95322-2.52122-1.79731-2.52122 1.79731 0.930246-2.95322-2.48844-1.84242 3.09614-0.02788z"/>
      <path d="m61.6714 87.3467 1.06773 3.18818 3.36208 0.03027-2.70219 2.00068 1.01015 3.20689-2.73778-1.95169-2.73778 1.95169 1.01015-3.20689-2.70219-2.00068 3.36208-0.03027z"/>
      <path d="m71.6567 86.2694 0.983275 2.93599 3.09614 0.02788-2.48844 1.84242 0.930245 2.95322-2.52122-1.79731-2.52122 1.79731 0.930245-2.95322-2.48844-1.84242 3.09614-0.02788z"/>
      <path d="m51.686 86.2694 0.983275 2.93599 3.09614 0.02788-2.48844 1.84242 0.930245 2.95322-2.52122-1.79731-2.52122 1.79731 0.930246-2.95322-2.48844-1.84242 3.09614-0.02788z"/>
    </g>
    <g fill="#442400" stroke="#442400" stroke-linecap="round" stroke-linejoin="round" stroke-width=".261426">
      <path d="m44.7762 36.6609c-0.528785-0.30274-1.34842-0.48653-2.1284-0.48653-1.96979 0-3.39755 0.98388-3.39755 2.357 0 0.68116 0.370166 1.2758 1.00472 1.61097 0.462701 0.23787 0.727117 0.31356 2.28707 0.62711l1.30878 0.2703c0.991501 0.20543 1.26912 0.36759 1.26912 0.76765 0 0.56222-0.687434 0.96227-1.66572 0.96227-0.925401 0-1.8508-0.33518-2.5118-0.8974-0.356934-0.32435-0.608118-0.59467-0.951835-1.10282l-0.991501 0.2703 1.09725 2.75705h0.779984l0.185083-0.52977c0.555234 0.33516 1.46742 0.5514 2.36639 0.5514 2.15485 0 3.74125-1.10282 3.74125-2.59488 0-0.67035-0.356934-1.265-0.965067-1.58936-0.396585-0.21624-0.753535-0.32437-1.89044-0.57303l-1.20303-0.25949c-0.0265-0.011-0.277617-0.0541-0.647784-0.11892-0.251183-0.0432-0.489134-0.1082-0.68745-0.18382-0.317268-0.1082-0.475901-0.29191-0.475901-0.51896 0-0.4433 0.608117-0.75685 1.45418-0.75685 0.753551 0 1.5732 0.29192 2.07555 0.73522 0.224734 0.19461 0.396585 0.3676 0.819635 0.84333l0.951834-0.29192-0.872518-2.19484h-0.793185z"/>
      <path d="m51.1879 40.6937h1.25592c2.41925 0 3.70159-0.75685 3.70159-2.18403 0-0.71359-0.370151-1.3515-1.03115-1.72993-0.581684-0.34597-1.26913-0.46491-2.65722-0.46491h-4.74599v0.88659l0.2644 0.0216c0.766751 0.0864 0.912184 0.22707 0.898967 0.90821v3.73014c0.0142 0.68116-0.132168 0.82172-0.898967 0.90821l-0.2644 0.0218v0.88659h4.64022v-0.88659l-0.2644-0.0218c-0.766767-0.0866-0.912184-0.22705-0.898967-0.90821zm0-2.59489c0-0.38924 0.0142-0.50816 0.09258-0.59465 0.09258-0.11892 0.3966-0.19463 0.806433-0.19463 0.912185 0 1.5203 0.47573 1.5203 1.16769 0 0.8109-0.713884 1.2542-1.983 1.2542-0.132169 0-0.224734 0-0.436267-0.0218z"/>
      <path d="m60.389 36.3149h-3.8999v0.88659l0.264401 0.0216c0.766751 0.0864 0.912184 0.22707 0.898967 0.90821v3.73014c0.0142 0.68116-0.132169 0.82172-0.898967 0.90821l-0.264401 0.0218v0.88659h3.55617v-0.88659l-0.264385-0.0218c-0.766767-0.0866-0.912184-0.22705-0.898967-0.90821v-3.8707l4.11142 5.68712h1.6393v-5.54656c-0.0142-0.68114 0.132168-0.82171 0.898935-0.90821l0.264416-0.0216v-0.88659h-3.55619v0.88659l0.2644 0.0216c0.766767 0.0864 0.912184 0.22707 0.898951 0.90821v2.43269z"/>
      <path d="m72.8819 42.4885c-0.237982 0.18379-0.237982 0.18379-0.330516 0.18379-0.09258 0-0.198284-0.0541-0.224734-0.11892-0.03959-0.0757-0.03959-0.0757-0.05284-0.48654v-2.12996c0-0.57304-0.145417-0.91901-0.502367-1.20013-0.4627-0.36761-1.33522-0.58385-2.3796-0.58385-1.70537 0-2.93484 0.62709-2.93484 1.49206 0 0.46491 0.423034 0.81089 0.978268 0.81089 0.647784 0 1.03117-0.31354 1.01795-0.83252 0-0.15141 0.0265-0.22706 0.11892-0.28111 0.158713-0.11892 0.449484-0.19461 0.727117-0.19461 0.568451 0 0.832835 0.1838 0.832835 0.58384v0.55142c-0.727085 0.0541-1.36164 0.15141-1.9301 0.2919-1.322 0.32437-1.983 0.89743-1.983 1.71913 0 0.88658 0.846068 1.48123 2.10198 1.48123 0.753535 0 1.42777-0.18379 2.10197-0.5514 0.317299 0.33517 0.898967 0.5514 1.5203 0.5514 0.5949 0 1.08404-0.16217 1.67894-0.5514zm-2.74978-0.2595c-0.343701 0.2595-0.674202 0.37842-1.04437 0.37842-0.370151 0-0.621335-0.21624-0.621335-0.54059 0-0.46492 0.528801-0.74604 1.6657-0.91902z"/>
      <path d="m78.5004 39.1692v-0.91901h-1.81115v-1.71913h-1.24267c-0.132168 1.11364-0.75355 1.70831-1.90368 1.83805v0.85414h1.00472v2.73545c0 0.65952 0.05284 0.91901 0.211517 1.17851 0.29085 0.43246 0.806434 0.63789 1.5864 0.63789 1.1898 0 2.02267-0.32436 2.78942-1.08121l-0.793201-0.76764c-0.594901 0.46491-0.832852 0.59465-1.17657 0.59465-0.35695 0-0.475933-0.17298-0.475933-0.7352v-2.6165z"/>
      <path d="m84.3437 43.6778v-0.88657l-0.317299-0.0218c-0.766751-0.0866-0.912184-0.22705-0.898951-0.90821v-3.73013c-0.0142-0.68116 0.132168-0.82172 0.898951-0.90821l0.317299-0.0218v-0.88657h-4.746v0.88657l0.3173 0.0218c0.766751 0.0864 0.912184 0.22705 0.898951 0.90821v3.73013c0.0142 0.68116-0.132169 0.8217-0.898951 0.90821l-0.3173 0.0218v0.88657z"/>
    </g>
    <g fill="#361c00">
      <path d="m35.1168 54.7899q0 0.66108-0.397373 0.66108-0.241263 0-0.496721-0.79331-0.354789-1.07426-0.63862-1.52047-0.567679-0.85942-1.51852-0.99163v-1.38828h3.05123zm-1.27727 5.27214q0 1.07426-0.411567 1.07426-0.241248 0-0.383163-0.49582-0.141947-0.49581-0.283832-1.00814-0.241278-0.61151-0.695399-0.80983v-1.4048q0.454121-0.19833 0.695399-0.80983 0.141948-0.49582 0.283832-0.99162 0.141947-0.51235 0.383163-0.51235 0.411567 0 0.411567 1.1569zm-2.24229 5.8671h-3.50538q-0.596052 0-0.596052-0.62803 0-0.38012 0.269652-0.6115 0.368999-0.33054 0.425763-0.44623 0.05662-0.28094 0.05662-0.66108v-10.4782q0-0.38012-0.05662-0.6611-0.05678-0.0992-0.425763-0.44622-0.269652-0.2479-0.269652-0.61149 0-0.62804 0.596052-0.62804h3.50538zm3.6189-3.52025-0.01419 3.52025h-3.13639v-1.4048q1.05019-0.13217 1.60367-1.02467 0.298011-0.46276 0.596052-1.58661 0.212874-0.82635 0.468331-0.82635 0.482526 0 0.482526 1.32218z"/>
      <path d="m44.636 55.451q0 2.446-1.05019 3.56985-0.993425 1.09078-3.09382 1.09078v-1.2891q0.894094-0.0661 0.894094-1.90062v-2.95834q0-1.83451-0.894094-1.91714v-1.28912h0.298026q3.84598 0 3.84598 4.69369zm-3.67568 9.88319q0 0.59497-0.681204 0.59497h-3.77501q-0.5535 0-0.5535-0.62803 0-0.36359 0.269653-0.59497 0.383178-0.34707 0.439941-0.46276 0.04258-0.21484 0.04258-0.66108v-10.4782q0-0.44624-0.04258-0.6611-0.05678-0.11576-0.439941-0.44622-0.269653-0.2479-0.269653-0.61149 0-0.62804 0.596068-0.62804h3.50537v13.0894q0 0.46275 0.454136 0.74373 0.454136 0.28094 0.454136 0.74371z"/>
      <path d="m50.1956 65.3011q0 0.62803-0.610231 0.62803h-3.67569q-0.596052 0-0.596052-0.62803 0-0.38012 0.269652-0.6115 0.383179-0.33054 0.439942-0.44623 0.05678-0.28094 0.05678-0.66108v-10.4782q0-0.38012-0.05678-0.6611-0.05678-0.0992-0.439942-0.44622-0.269652-0.2479-0.269652-0.61149 0-0.62804 0.596052-0.62804h3.67569q0.610231 0 0.610231 0.62804 0 0.36359-0.269636 0.59498-0.383179 0.34705-0.454137 0.46273-0.05662 0.42972-0.05662 0.6611v10.5277q0 0.42972 0.04258 0.57845 0.04259 0.14873 0.411553 0.44624 0.326415 0.2479 0.326415 0.64455z"/>
      <path d="m55.7694 51.3854q0 0.36359-0.269653 0.61149-0.383178 0.33054-0.439941 0.44622-0.04258 0.21486-0.04258 0.82637v12.6597h-3.51957q-0.596052 0-0.596052-0.62803 0-0.38012 0.269636-0.6115 0.383179-0.33054 0.439958-0.44623 0.05678-0.42971 0.05678-0.66108v-10.4782q0-0.23138-0.05678-0.6611-0.05678-0.0992-0.439958-0.44622-0.269636-0.2479-0.269636-0.61149 0-0.62804 0.596052-0.62804h3.67568q0.596068 0 0.596068 0.62804zm2.65386 14.5438h-2.98028v-1.4048q0.950841-0.0826 1.47594-1.09078 0.269637-0.52887 0.581873-1.8345 0.227069-0.9751 0.468331-0.9751 0.454137 0 0.454137 1.27258z"/>
      <path d="m68.0701 58.3433q0 3.00792-0.865688 5.02424-1.10698 2.56168-3.40604 2.84265v-1.28912q0.681205-0.0992 0.681205-1.78492v-9.58571q0-1.68575-0.681205-1.78493v-1.2891q2.29906 0.28096 3.40604 2.84267 0.865688 2.0163 0.865688 5.02422zm-4.71167 7.86689q-2.28489-0.26444-3.39184-2.84265-0.865704-2.01632-0.865704-5.02424t0.865704-5.02422q1.10695-2.56171 3.39184-2.84267v1.2891q-0.468331 0.0661-0.610247 0.72722-0.07097 0.33053-0.07097 1.12384v9.45348q0 0.79328 0.07097 1.12382 0.141947 0.66108 0.610247 0.7272z"/>
      <path d="m76.8796 55.2857q0 1.17341-0.553483 1.17341-0.312205 0-0.666994-1.17341-0.510916-1.7023-0.766373-2.21461-0.596052-1.22302-1.51852-1.30567v-1.2891q0.354805 0.0495 1.13536 0.42971 0.737968 0.38012 1.00762 0.38012 0.127753 0 0.368968-0.38012 0.241263-0.38012 0.5109-0.38012 0.312236 0 0.411568 0.26443 0.07097 0.16528 0.07097 0.59498zm0.525095 3.5368q0 0.34706-0.17029 0.52887-0.227068 0.23137-0.269636 0.36359-0.113558 0.33054-0.113558 1.58659 0 0.44623 0.02839 1.35521 0.04259 0.89247 0.04259 1.33871-1.58949 2.09892-3.54796 2.1981v-1.33871q0.581858-0.0661 0.581858-1.223v-3.28888q0-0.16526-0.05678-0.52887-0.04258-0.0661-0.468315-0.41316-0.255458-0.21486-0.255458-0.62804 0-0.59496 0.624441-0.59496h3.06543q0.539273 0 0.539273 0.64455zm-4.45621 7.3876q-2.25649-0.33055-3.33506-2.89224-0.837315-1.99978-0.837315-4.97465t0.837315-4.97465q1.07858-2.52863 3.33506-2.89224v1.2891q-0.454153 0.0992-0.596052 0.74374-0.07097 0.33054-0.07097 1.10732v9.45348q0 0.76023 0.07097 1.10731 0.141947 0.66108 0.596052 0.74371z"/>
      <path d="m87.4206 51.4184q0 0.33053-0.454137 0.76024-0.496704 0.4958-0.624441 1.12384-0.08517 0.41318-0.08517 1.42132v5.7349q0 2.33031-0.425747 3.52026-0.610247 1.71882-2.27068 2.06588v-1.48743q1.06438-0.21486 1.47595-1.30565 0.269637-0.76023 0.269637-2.24768v-6.8422q0-0.95856-0.298026-1.48744-0.127753-0.23139-0.567679-0.64455-0.298026-0.28096-0.298026-0.61149 0-0.69415 0.581857-0.69415h2.11459q0.581873 0 0.581873 0.69415zm-4.25753-0.0992q0 0.39667-0.31222 0.62806-0.496721 0.39663-0.539289 0.44622-0.05678 0.36359-0.05678 0.56192v9.60222q0 0.909 0.09936 1.25606 0.1845 0.62802 0.780552 0.71067l0.0142 1.58659q-0.894078 0.0495-0.936647 0.0495-1.80237 0-2.61129-1.18996-0.737983-1.09077-0.737983-3.25583v-8.64368q0-0.44623-0.04258-0.6611-0.07097-0.13216-0.439958-0.46274-0.269652-0.24791-0.269652-0.59497 0-0.62805 0.610262-0.62805h3.70405q0.737983 0 0.737983 0.59498z"/>
      <path d="m95.7476 54.7899q0 0.66108-0.397374 0.66108-0.241263 0-0.496704-0.79331-0.354805-1.07426-0.638652-1.52047-0.567663-0.85942-1.51852-0.99163v-1.38828h3.05125zm-1.27726 5.27214q0 1.07426-0.411568 1.07426-0.241263 0-0.383178-0.49582-0.141948-0.49581-0.283832-1.00814-0.241263-0.61151-0.695415-0.80983v-1.4048q0.454152-0.19833 0.695415-0.80983 0.141948-0.49582 0.283832-0.99162 0.141947-0.51235 0.383178-0.51235 0.411568 0 0.411568 1.1569zm-2.24231 5.8671h-3.50537q-0.596052 0-0.596052-0.62803 0-0.38012 0.269637-0.6115 0.368984-0.33054 0.425747-0.44623 0.05662-0.28094 0.05662-0.66108v-10.4782q0-0.38012-0.05662-0.6611-0.05678-0.0992-0.425747-0.44622-0.269637-0.2479-0.269637-0.61149 0-0.62804 0.596052-0.62804h3.50537zm3.61891-3.52025-0.0142 3.52025h-3.13639v-1.4048q1.0502-0.13217 1.60367-1.02467 0.298026-0.46276 0.596052-1.58661 0.212873-0.82635 0.468331-0.82635 0.482526 0 0.482526 1.32218z"/>
    </g>
    <g fill="#361c00">
      <path d="m36.3916 77.4426c0-0.62564-0.59957-1.04273-1.3425-1.04273-1.79871 0-3.68864 2.41131-3.68864 3.93629 0 0.76901 0.495301 1.147 1.0688 1.147 0.664739 0 1.19912-0.52137 1.88993-1.35555 0 0.5344 0.338891 1.13397 1.08183 1.13397 0.977559 0 2.00724-0.97756 2.64591-2.39828l-0.247635-0.24765c-0.78205 1.48589-1.61623 2.03332-2.03332 2.03332-0.286749 0-0.391033-0.24764-0.391033-0.46922 0-0.5735 0.742952-1.38162 0.742952-1.72049 0-0.22158-0.299793-0.33889-0.46923-0.39103 0.456187-0.0126 0.742936-0.18247 0.742936-0.62563zm-0.990587 0.6517c-0.664738 0.88631-1.90298 2.72412-2.69805 2.72412-0.208536 0-0.299777-0.11734-0.299777-0.41709 0-1.19914 1.45982-3.5192 2.67198-3.5192 0.443159 0 0.547427 0.32585 0.547427 0.67777 0 0.18248-0.01262 0.31282-0.06514 0.48225-0.01262 0-0.03911-0.0126-0.05221-0.0126-0.03911 0-0.07823 0.026-0.104252 0.0651z"/>
      <path d="m43.1954 78.6809c-0.364946 0.71686-0.677766 0.96451-1.01666 0.96451-0.508329 0-0.56047-0.54742-0.56047-0.91239 0-1.10789 0.417103-1.21216 0.417103-1.61622 0-0.20854-0.130433-0.5735-0.56047-0.5735-0.37799 0-0.638668 0.31282-0.677766 1.48589-0.508329 1.13397-1.43376 2.65895-2.04636 2.65895-0.208536 0-0.234607-0.23462-0.234607-0.78205 0-0.56047 0.06514-1.17307 0.06514-1.69442 0-0.4953-0.01262-0.62564-0.430132-0.62564-0.456187 0-0.482258 0.15645-0.495285 0.67776-0.03911 0.88632-0.05221 1.36858-0.05221 1.55106 0 0.92542 0.208552 1.56409 0.860247 1.56409 0.834176 0 1.74656-1.32947 2.38523-2.50253 0.182481 0.70383 0.5344 1.21216 1.1079 1.21216 0.456187 0 0.977559-0.33889 1.38162-1.29038z"/>
      <path d="m47.5488 77.4426c0-0.62564-0.599554-1.04273-1.3425-1.04273-1.79869 0-3.68864 2.41131-3.68864 3.93629 0 0.76901 0.495301 1.147 1.0688 1.147 0.664738 0 1.19912-0.52137 1.88993-1.35555 0 0.5344 0.338891 1.13397 1.08183 1.13397 0.977559 0 2.00724-0.97756 2.64591-2.39828l-0.247635-0.24765c-0.78205 1.48589-1.61623 2.03332-2.03332 2.03332-0.286749 0-0.391033-0.24764-0.391033-0.46922 0-0.5735 0.742952-1.38162 0.742952-1.72049 0-0.22158-0.299792-0.33889-0.46923-0.39103 0.456187-0.0126 0.742936-0.18247 0.742936-0.62563zm-0.990587 0.6517c-0.664738 0.88631-1.90298 2.72412-2.69805 2.72412-0.208536 0-0.299776-0.11734-0.299776-0.41709 0-1.19914 1.45982-3.5192 2.67198-3.5192 0.443159 0 0.547427 0.32585 0.547427 0.67777 0 0.18248-0.01262 0.31282-0.06514 0.48225-0.01262 0-0.03911-0.0126-0.05221-0.0126-0.03911 0-0.07823 0.026-0.104252 0.0651z"/>
      <path d="m50.4945 76.439c-0.977558 0-1.94207 2.67198-1.94207 3.66257 0 0.63867 0.37799 1.16004 1.147 1.16004 1.08183 0 2.05938-0.88632 2.67198-2.42435l-0.195509-0.20853c-0.755979 1.48588-1.45982 1.99421-2.04636 1.99421-0.377989 0-0.586525-0.13027-0.586525-0.69081 0-1.14699 1.3425-2.67198 1.3425-3.11514 0-0.24765-0.182481-0.37799-0.391018-0.37799zm0.742936-1.05575c0.46923 0 0.951488-0.41709 0.951488-0.78205 0-0.36495-0.247651-0.48226-0.560471-0.48226-0.482257 0-1.04271 0.33889-1.04271 0.75598 0 0.35192 0.325847 0.50833 0.651695 0.50833z"/>
      <path d="m56.5683 72.5288c-0.01262-0.40406-0.221579-1.04273-0.547427-1.04273-0.990586 0-4.14484 5.83927-4.14484 8.39394 0 0.75598 0.273722 1.38162 1.09487 1.38162 1.00361 0 1.9551-0.95149 2.69805-2.50255l-0.31282-0.16943c-0.482257 1.02968-1.23824 2.07241-1.88995 2.07241-0.338875 0-0.560454-0.27372-0.560454-0.89935 0-0.33889 0.06514-0.78205 0.143366-1.2252 1.98119-1.56409 3.5192-4.84867 3.5192-6.00871zm-0.599569 0.14337c0 0.87327-1.21217 3.45402-2.68501 5.05721 0.742936-2.35917 2.35916-5.05721 2.68501-5.05721z"/>
      <path d="m59.7486 77.4426c0-0.62564-0.599569-1.04273-1.34252-1.04273-1.79869 0-3.68864 2.41131-3.68864 3.93629 0 0.76901 0.495301 1.147 1.0688 1.147 0.664739 0 1.19914-0.52137 1.88993-1.35555 0 0.5344 0.338891 1.13397 1.08183 1.13397 0.977559 0 2.00726-0.97756 2.64593-2.39828l-0.24765-0.24765c-0.782051 1.48589-1.61623 2.03332-2.03332 2.03332-0.286749 0-0.391017-0.24764-0.391017-0.46922 0-0.5735 0.742936-1.38162 0.742936-1.72049 0-0.22158-0.299777-0.33889-0.46923-0.39103 0.456202-0.0126 0.742951-0.18247 0.742951-0.62563zm-0.990602 0.6517c-0.664723 0.88631-1.90296 2.72412-2.69804 2.72412-0.208552 0-0.299793-0.11734-0.299793-0.41709 0-1.19914 1.45982-3.5192 2.67198-3.5192 0.44316 0 0.547428 0.32585 0.547428 0.67777 0 0.18248-0.01262 0.31282-0.06514 0.48225-0.01262 0-0.03912-0.0126-0.05221-0.0126-0.03912 0-0.07823 0.026-0.104253 0.0651z"/>
      <path d="m65.3924 72.4636c-0.01262-0.40406-0.182481-0.89934-0.534399-0.89934-1.1861 0-4.14483 5.95656-4.14483 8.52427 0 1.08183 0.521356 1.73352 1.51194 1.73352 0.964531 0 1.6814-0.62562 2.1767-1.40767 0.09132 0.0126 0.182465 0.0126 0.273706 0.0126 1.0297 0 1.6032-0.54743 2.04636-1.57711l-0.195509-0.27373c-0.273722 0.56047-0.769023 1.44679-1.6814 1.44679-0.104252 0-0.143367-0.0126-0.234623-0.0126 0.260678-0.56046 0.391033-1.13396 0.391033-1.64229 0-0.88631-0.40406-1.3034-0.964531-1.3034-0.664739 0-1.1861 0.5735-1.1861 1.4207 0 0.69081 0.338891 1.36858 0.977559 1.72051-0.325864 0.59955-0.912389 1.06878-1.36858 1.06878-0.508329 0-0.677782-0.5735-0.677782-1.2643 0-1.06879 0.40406-2.26793 0.586541-2.60682 1.61623-0.92541 3.0239-3.71469 3.0239-4.9399zm-0.612596 0.32585c-0.01262 0.6126-1.0297 2.7502-2.16365 3.79292 0.586526-1.81173 1.83779-3.67561 2.16365-3.79292zm-1.29038 5.76105c0-0.43011 0.182481-0.79507 0.417088-0.79507 0.208552 0 0.377989 0.28674 0.377989 0.91238 0 0.41709-0.07823 0.75598-0.234607 1.1079-0.430131-0.29977-0.56047-0.86025-0.56047-1.22521z"/>
      <path d="m70.9188 72.5288c-0.01262-0.40406-0.22158-1.04273-0.547443-1.04273-0.990587 0-4.14483 5.83927-4.14483 8.39394 0 0.75598 0.273721 1.38162 1.09487 1.38162 1.00361 0 1.9551-0.95149 2.69804-2.50255l-0.312804-0.16943c-0.482274 1.02968-1.23824 2.07241-1.88995 2.07241-0.338891 0-0.560455-0.27372-0.560455-0.89935 0-0.33889 0.06514-0.78205 0.143367-1.2252 1.98117-1.56409 3.5192-4.84867 3.5192-6.00871zm-0.59957 0.14337c0 0.87327-1.21216 3.45402-2.68502 5.05721 0.742951-2.35917 2.35918-5.05721 2.68502-5.05721z"/>
      <path d="m73.5126 77.0386c0-0.69081-0.495301-0.87329-0.951488-0.87329-1.61623 0-3.37582 2.16365-3.37582 3.70168 0 0.89935 0.612597 1.57711 1.73352 1.57711 1.39465 0 2.80234-1.04271 3.50617-2.60681l-0.260694-0.20853c-0.664722 1.25126-1.8769 2.25489-2.95873 2.25489-0.990586 0-1.00361-0.83418-1.00361-1.01666 0-0.16943 0.01262-0.23462 0.02602-0.29979 1.56408-0.16944 3.28458-1.21217 3.28458-2.5286zm-0.925417-0.31282c0.156458 0 0.22158 0.0522 0.22158 0.24765 0 0.97756-1.52499 2.00724-2.43738 2.11151 0.364962-1.08182 1.42072-2.35916 2.2158-2.35916z"/>
      <path d="m81.8543 78.6287c-0.495285 0.82114-0.925417 1.29036-1.52499 1.29036-0.808105 0-0.951488-0.80811-1.147-1.92903-0.02602-0.18248-0.143367-0.37799-0.325848-0.4562l0.208536-0.52136c1.75961-1.16002 3.5583-3.36279 3.5583-4.86171 0-0.35192-0.104253-0.66474-0.547428-0.66474-2.35916 0-5.68286 9.16295-5.68286 11.7828 0 1.06879 0.547443 1.25127 0.84722 1.25127 1.05576 0 2.07241-2.28097 2.09848-4.43158 0.299776 0.22158 0.62564 0.35192 0.925416 0.35192 0.547428 0 1.31645-0.48226 1.8769-1.6032zm-3.04997 1.45981c0 1.29037-0.716865 3.62347-1.19914 3.62347-0.143367 0-0.208536-0.20855-0.208536-0.56047 0-0.91239 0.417088-2.58074 1.02968-4.39248 0.273722 0.49531 0.37799 0.83418 0.37799 1.32948zm3.03694-7.54673c0.07823 0 0.104253 0.026 0.104253 0.10425 0 0.45619-0.91239 1.96815-2.50254 3.45402 0.834192-1.98117 1.75961-3.5583 2.39828-3.5583z"/>
      <path d="m85.2692 80.1016c1.66837 0 2.22882-1.74657 2.65895-3.01086 0.325848 0.16944 0.690794 0.44315 0.690794 0.89935 0 0.62562-0.677766 1.55106-0.677766 2.30702 0 0.54744 0.443159 0.92542 1.09487 0.92542 1.17307 0 2.26792-1.2643 2.78928-2.38524l-0.260678-0.18246c-0.325848 0.74293-1.39465 1.916-2.20275 1.916-0.182481 0-0.325848-0.0522-0.325848-0.31282 0-0.49529 0.625624-1.31643 0.625624-2.09848 0-1.12093-1.40767-1.38161-1.40767-1.74657 0-0.0782 0.143367-0.37799 0.143367-0.46923 0-0.11734-0.01262-0.40404-0.286765-0.40404-0.182465 0-0.625625 0.40404-0.625625 0.96451 0 0.13028 0.05221 0.24765 0.117343 0.32585-0.364961 1.17307-0.912389 2.77626-2.25489 2.77626-0.143366 0-0.260693-0.0391-0.377989-0.0782 0.495285-0.72991 0.808105-1.53802 0.808105-2.20276 0-0.59957-0.260678-1.05575-1.02968-1.05575-0.808121 0-1.26431 0.62562-1.35555 1.3816-0.169438-0.0651-0.299777-0.10425-0.391017-0.10425-0.821149 0-1.57713 1.43374-1.57713 2.50254 0 0.6908 0.364962 1.23824 1.17307 1.23824 0.677767 0 1.43375-0.54744 2.04634-1.30341 0.195525 0.0782 0.404061 0.11735 0.625641 0.11735zm-1.09486-0.41709c-0.456202 0.5344-0.977558 0.95149-1.31645 0.95149-0.247651 0-0.417088-0.22158-0.417088-0.69081 0-0.5735 0.573498-1.78566 0.93846-2.18972 0.01262 0.86024 0.260678 1.49893 0.795077 1.92904zm-0.07823-1.72049c0-0.67777 0.417088-1.16004 0.755979-1.16004 0.156457 0 0.338891 0.18248 0.338891 0.59957 0 0.56047-0.22158 1.21216-0.62564 1.7987-0.247651-0.32584-0.46923-0.82114-0.46923-1.23823z"/>
    </g>
  </g>
  <g fill="none" opacity=".9" stroke="#7ba1e4" stroke-width="5.43528">
    <circle cx="93.723" cy="95.089" r="13.5882"/>
    <path d="m103.027 85.7648 14.0407-14.0407" stroke-linejoin="bevel"/>
    <path d="m108.466 71.7852h8.56056v8.56058" stroke-linecap="square"/>
  </g>
</svg>
