<?xml version="1.0" encoding="UTF-8" standalone="no"?>
<svg
   xmlns:dc="http://purl.org/dc/elements/1.1/"
   xmlns:cc="http://creativecommons.org/ns#"
   xmlns:rdf="http://www.w3.org/1999/02/22-rdf-syntax-ns#"
   xmlns:svg="http://www.w3.org/2000/svg"
   xmlns="http://www.w3.org/2000/svg"
   xmlns:xlink="http://www.w3.org/1999/xlink"
   xmlns:sodipodi="http://sodipodi.sourceforge.net/DTD/sodipodi-0.dtd"
   xmlns:inkscape="http://www.inkscape.org/namespaces/inkscape"
   inkscape:version="1.0 (4035a4fb49, 2020-05-01)"
   sodipodi:docname="epilogue-conditional.svg"
   id="svg8"
   version="1.1"
   viewBox="0 0 130.15912 117.08077"
   height="442.51001"
   width="491.94">
  <defs
     id="defs2">
    <linearGradient
       inkscape:collect="always"
       id="linearGradient3978">
      <stop
         style="stop-color:#9e9e9e;stop-opacity:1"
         offset="0"
         id="stop5559" />
      <stop
         id="stop7478"
         offset="0.14563419"
         style="stop-color:#dedede;stop-opacity:1" />
      <stop
         style="stop-color:#a7a7a7;stop-opacity:1"
         offset="1"
         id="stop5561" />
    </linearGradient>
    <linearGradient
       gradientTransform="matrix(0.93236974,0,0,0.90178169,-15.032654,139.41897)"
       spreadMethod="reflect"
       y2="159.24037"
       x2="115.3222"
       y1="159.08804"
       x1="89.625565"
       gradientUnits="userSpaceOnUse"
       id="linearGradient7483"
       xlink:href="#linearGradient3978"
       inkscape:collect="always" />
  </defs>
  <sodipodi:namedview
     inkscape:bbox-nodes="true"
     inkscape:snap-bbox="true"
     inkscape:object-nodes="false"
     inkscape:snap-others="false"
     inkscape:object-paths="false"
     inkscape:snap-intersection-paths="false"
     inkscape:document-rotation="0"
     fit-margin-bottom="0"
     fit-margin-right="0"
     fit-margin-left="0"
     fit-margin-top="0"
     inkscape:snap-text-baseline="true"
     inkscape:snap-page="true"
     inkscape:snap-to-guides="true"
     inkscape:guide-bbox="true"
     inkscape:window-maximized="0"
     inkscape:window-y="138"
     inkscape:window-x="45"
     inkscape:window-height="1101"
     inkscape:window-width="1627"
     showguides="false"
     showgrid="false"
     inkscape:current-layer="layer1"
     inkscape:document-units="mm"
     inkscape:cy="263.20011"
     inkscape:cx="270.25965"
     inkscape:zoom="1"
     inkscape:pageshadow="2"
     inkscape:pageopacity="0.0"
     borderopacity="1.0"
     bordercolor="#666666"
     pagecolor="#ffffff"
     id="base"
     units="px">
    <sodipodi:guide
       inkscape:locked="false"
       id="guide4734"
       orientation="0,1"
       position="204.86308,206.18602" />
    <sodipodi:guide
       inkscape:locked="false"
       id="guide4736"
       orientation="0,1"
       position="-55.432294,100.69744" />
    <inkscape:grid
       spacingy="1.3229167"
       spacingx="1.3229167"
       units="px"
       id="grid1848"
       type="xygrid" />
  </sodipodi:namedview>
  <metadata
     id="metadata5">
    <rdf:RDF>
      <cc:Work
         rdf:about="">
        <dc:format>image/svg+xml</dc:format>
        <dc:type
           rdf:resource="http://purl.org/dc/dcmitype/StillImage" />
        <dc:title></dc:title>
      </cc:Work>
    </rdf:RDF>
  </metadata>
  <g
     transform="translate(-1.5521836e-5,-196.48805)"
     id="layer1"
     inkscape:groupmode="layer"
     inkscape:label="Layer 1">
    <g
       style="display:none;stroke-width:0.236117;stroke-miterlimit:4;stroke-dasharray:none"
       id="g987"
       transform="matrix(1.4940787,0,0,1.4940787,-206.66805,56.56471)">
      <path
         inkscape:connector-curvature="0"
         id="path2298"
         style="font-style:normal;font-variant:normal;font-weight:bold;font-stretch:normal;font-size:7.70592px;line-height:125%;font-family:'Dancing Script';-inkscape-font-specification:'Dancing Script, Bold';font-variant-ligatures:normal;font-variant-caps:normal;font-variant-numeric:normal;font-feature-settings:normal;text-align:center;letter-spacing:0px;word-spacing:0px;writing-mode:lr-tb;text-anchor:middle;fill:#000000;fill-opacity:1;stroke:#c6941b;stroke-width:0.236117;stroke-linecap:butt;stroke-linejoin:miter;stroke-miterlimit:4;stroke-dasharray:none;stroke-opacity:1;paint-order:stroke markers fill"
         d="m 161.29217,139.16933 c 0,-0.34386 -0.3813,-0.57309 -0.85379,-0.57309 -1.14391,0 -2.34584,1.32528 -2.34584,2.16343 0,0.42266 0.315,0.63042 0.67972,0.63042 0.42275,0 0.7626,-0.28656 1.20193,-0.74503 0,0.29371 0.21552,0.62323 0.688,0.62323 0.62168,0 1.27653,-0.53727 1.6827,-1.31812 l -0.15749,-0.13611 c -0.49736,0.81667 -1.02785,1.11755 -1.29311,1.11755 -0.18236,0 -0.24868,-0.13612 -0.24868,-0.2579 0,-0.31521 0.47249,-0.75935 0.47249,-0.94561 0,-0.12178 -0.19066,-0.18625 -0.29842,-0.21491 0.29013,-0.007 0.47249,-0.10029 0.47249,-0.34386 z m -0.62998,0.35819 c -0.42274,0.48713 -1.21021,1.49721 -1.71586,1.49721 -0.13262,0 -0.19065,-0.0644 -0.19065,-0.22924 0,-0.65906 0.92839,-1.9342 1.69928,-1.9342 0.28183,0 0.34815,0.17909 0.34815,0.37251 0,0.1003 -0.009,0.17193 -0.0414,0.26506 -0.009,0 -0.0248,-0.007 -0.0331,-0.007 -0.0248,0 -0.0497,0.0143 -0.0663,0.0358 z" />
      <path
         inkscape:connector-curvature="0"
         id="path2300"
         style="font-style:normal;font-variant:normal;font-weight:bold;font-stretch:normal;font-size:7.70592px;line-height:125%;font-family:'Dancing Script';-inkscape-font-specification:'Dancing Script, Bold';font-variant-ligatures:normal;font-variant-caps:normal;font-variant-numeric:normal;font-feature-settings:normal;text-align:center;letter-spacing:0px;word-spacing:0px;writing-mode:lr-tb;text-anchor:middle;fill:#000000;fill-opacity:1;stroke:#c6941b;stroke-width:0.236117;stroke-linecap:butt;stroke-linejoin:miter;stroke-miterlimit:4;stroke-dasharray:none;stroke-opacity:1;paint-order:stroke markers fill"
         d="m 165.61911,139.84988 c -0.2321,0.39401 -0.43104,0.53012 -0.64655,0.53012 -0.32328,0 -0.35644,-0.30088 -0.35644,-0.50146 0,-0.60892 0.26525,-0.66623 0.26525,-0.8883 0,-0.11462 -0.0829,-0.31521 -0.35643,-0.31521 -0.24038,0 -0.40616,0.17193 -0.43103,0.81667 -0.32328,0.62324 -0.91181,1.46139 -1.3014,1.46139 -0.13263,0 -0.14921,-0.12894 -0.14921,-0.42982 0,-0.30804 0.0414,-0.64473 0.0414,-0.93128 0,-0.27222 -0.009,-0.34386 -0.27354,-0.34386 -0.29012,0 -0.3067,0.086 -0.31499,0.37251 -0.0249,0.48714 -0.0331,0.75219 -0.0331,0.85249 0,0.50862 0.13262,0.85964 0.54708,0.85964 0.53051,0 1.11075,-0.7307 1.51692,-1.37543 0.11605,0.38684 0.33986,0.66622 0.70458,0.66622 0.29012,0 0.62169,-0.18625 0.87866,-0.7092 z" />
      <path
         inkscape:connector-curvature="0"
         id="path2302"
         style="font-style:normal;font-variant:normal;font-weight:bold;font-stretch:normal;font-size:7.70592px;line-height:125%;font-family:'Dancing Script';-inkscape-font-specification:'Dancing Script, Bold';font-variant-ligatures:normal;font-variant-caps:normal;font-variant-numeric:normal;font-feature-settings:normal;text-align:center;letter-spacing:0px;word-spacing:0px;writing-mode:lr-tb;text-anchor:middle;fill:#000000;fill-opacity:1;stroke:#c6941b;stroke-width:0.236117;stroke-linecap:butt;stroke-linejoin:miter;stroke-miterlimit:4;stroke-dasharray:none;stroke-opacity:1;paint-order:stroke markers fill"
         d="m 168.38769,139.16933 c 0,-0.34386 -0.3813,-0.57309 -0.85379,-0.57309 -1.1439,0 -2.34583,1.32528 -2.34583,2.16343 0,0.42266 0.31499,0.63042 0.67971,0.63042 0.42275,0 0.76261,-0.28656 1.20193,-0.74503 0,0.29371 0.21553,0.62323 0.688,0.62323 0.62169,0 1.27654,-0.53727 1.68271,-1.31812 l -0.1575,-0.13611 c -0.49735,0.81667 -1.02785,1.11755 -1.29311,1.11755 -0.18236,0 -0.24868,-0.13612 -0.24868,-0.2579 0,-0.31521 0.47249,-0.75935 0.47249,-0.94561 0,-0.12178 -0.19066,-0.18625 -0.29841,-0.21491 0.29012,-0.007 0.47248,-0.10029 0.47248,-0.34386 z m -0.62998,0.35819 c -0.42275,0.48713 -1.21021,1.49721 -1.71585,1.49721 -0.13263,0 -0.19066,-0.0644 -0.19066,-0.22924 0,-0.65906 0.92839,-1.9342 1.69929,-1.9342 0.28183,0 0.34814,0.17909 0.34814,0.37251 0,0.1003 -0.009,0.17193 -0.0414,0.26506 -0.009,0 -0.0249,-0.007 -0.0331,-0.007 -0.0249,0 -0.0497,0.0143 -0.0663,0.0358 z" />
      <path
         inkscape:connector-curvature="0"
         id="path2304"
         style="font-style:normal;font-variant:normal;font-weight:bold;font-stretch:normal;font-size:7.70592px;line-height:125%;font-family:'Dancing Script';-inkscape-font-specification:'Dancing Script, Bold';font-variant-ligatures:normal;font-variant-caps:normal;font-variant-numeric:normal;font-feature-settings:normal;text-align:center;letter-spacing:0px;word-spacing:0px;writing-mode:lr-tb;text-anchor:middle;fill:#000000;fill-opacity:1;stroke:#c6941b;stroke-width:0.236117;stroke-linecap:butt;stroke-linejoin:miter;stroke-miterlimit:4;stroke-dasharray:none;stroke-opacity:1;paint-order:stroke markers fill"
         d="m 170.26104,138.61772 c -0.62168,0 -1.23508,1.46857 -1.23508,2.01301 0,0.35102 0.24038,0.63756 0.72944,0.63756 0.688,0 1.30969,-0.48713 1.69928,-1.33244 l -0.12434,-0.11462 c -0.48077,0.81666 -0.92838,1.09604 -1.3014,1.09604 -0.24038,0 -0.37301,-0.0716 -0.37301,-0.37967 0,-0.63041 0.85379,-1.46856 0.85379,-1.71213 0,-0.13611 -0.11606,-0.20775 -0.24868,-0.20775 z m 0.47249,-0.58026 c 0.2984,0 0.6051,-0.22924 0.6051,-0.42982 0,-0.20058 -0.15749,-0.26506 -0.35644,-0.26506 -0.30669,0 -0.66313,0.18626 -0.66313,0.4155 0,0.19342 0.20724,0.27938 0.41447,0.27938 z" />
      <path
         inkscape:connector-curvature="0"
         id="path2306"
         style="font-style:normal;font-variant:normal;font-weight:bold;font-stretch:normal;font-size:7.70592px;line-height:125%;font-family:'Dancing Script';-inkscape-font-specification:'Dancing Script, Bold';font-variant-ligatures:normal;font-variant-caps:normal;font-variant-numeric:normal;font-feature-settings:normal;text-align:center;letter-spacing:0px;word-spacing:0px;writing-mode:lr-tb;text-anchor:middle;fill:#000000;fill-opacity:1;stroke:#c6941b;stroke-width:0.236117;stroke-linecap:butt;stroke-linejoin:miter;stroke-miterlimit:4;stroke-dasharray:none;stroke-opacity:1;paint-order:stroke markers fill"
         d="m 174.12378,136.46861 c -0.009,-0.22208 -0.14091,-0.5731 -0.34814,-0.5731 -0.62998,0 -2.63595,3.20935 -2.63595,4.61344 0,0.41549 0.17406,0.75934 0.69629,0.75934 0.63826,0 1.24338,-0.52294 1.71585,-1.37542 l -0.19894,-0.0931 c -0.3067,0.56593 -0.78747,1.13903 -1.20193,1.13903 -0.21551,0 -0.35643,-0.15044 -0.35643,-0.4943 0,-0.18625 0.0414,-0.42982 0.0912,-0.67338 1.25995,-0.85965 2.23808,-2.66491 2.23808,-3.30248 z m -0.3813,0.0788 c 0,0.47997 -0.77089,1.89838 -1.70756,2.77952 0.47248,-1.29663 1.50033,-2.77952 1.70756,-2.77952 z" />
      <path
         inkscape:connector-curvature="0"
         id="path2308"
         style="font-style:normal;font-variant:normal;font-weight:bold;font-stretch:normal;font-size:7.70592px;line-height:125%;font-family:'Dancing Script';-inkscape-font-specification:'Dancing Script, Bold';font-variant-ligatures:normal;font-variant-caps:normal;font-variant-numeric:normal;font-feature-settings:normal;text-align:center;letter-spacing:0px;word-spacing:0px;writing-mode:lr-tb;text-anchor:middle;fill:#000000;fill-opacity:1;stroke:#c6941b;stroke-width:0.236117;stroke-linecap:butt;stroke-linejoin:miter;stroke-miterlimit:4;stroke-dasharray:none;stroke-opacity:1;paint-order:stroke markers fill"
         d="m 176.14634,139.16933 c 0,-0.34386 -0.38131,-0.57309 -0.85379,-0.57309 -1.14391,0 -2.34584,1.32528 -2.34584,2.16343 0,0.42266 0.31499,0.63042 0.67971,0.63042 0.42275,0 0.76261,-0.28656 1.20193,-0.74503 0,0.29371 0.21552,0.62323 0.68801,0.62323 0.62168,0 1.27653,-0.53727 1.6827,-1.31812 l -0.15749,-0.13611 c -0.49736,0.81667 -1.02787,1.11755 -1.29312,1.11755 -0.18236,0 -0.24868,-0.13612 -0.24868,-0.2579 0,-0.31521 0.47249,-0.75935 0.47249,-0.94561 0,-0.12178 -0.19066,-0.18625 -0.29841,-0.21491 0.29011,-0.007 0.47249,-0.10029 0.47249,-0.34386 z m -0.62998,0.35819 c -0.42276,0.48713 -1.21023,1.49721 -1.71586,1.49721 -0.13264,0 -0.19066,-0.0644 -0.19066,-0.22924 0,-0.65906 0.9284,-1.9342 1.69929,-1.9342 0.28183,0 0.34814,0.17909 0.34814,0.37251 0,0.1003 -0.009,0.17193 -0.0414,0.26506 -0.009,0 -0.0248,-0.007 -0.0331,-0.007 -0.0248,0 -0.0497,0.0143 -0.0663,0.0358 z" />
      <path
         inkscape:connector-curvature="0"
         id="path2310"
         style="font-style:normal;font-variant:normal;font-weight:bold;font-stretch:normal;font-size:7.70592px;line-height:125%;font-family:'Dancing Script';-inkscape-font-specification:'Dancing Script, Bold';font-variant-ligatures:normal;font-variant-caps:normal;font-variant-numeric:normal;font-feature-settings:normal;text-align:center;letter-spacing:0px;word-spacing:0px;writing-mode:lr-tb;text-anchor:middle;fill:#000000;fill-opacity:1;stroke:#c6941b;stroke-width:0.236117;stroke-linecap:butt;stroke-linejoin:miter;stroke-miterlimit:4;stroke-dasharray:none;stroke-opacity:1;paint-order:stroke markers fill"
         d="m 179.73554,136.4328 c -0.009,-0.22209 -0.11605,-0.4943 -0.33986,-0.4943 -0.75432,0 -2.63595,3.27381 -2.63595,4.68506 0,0.59459 0.33157,0.95278 0.96154,0.95278 0.6134,0 1.0693,-0.34386 1.3843,-0.77368 0.058,0.007 0.11604,0.007 0.17406,0.007 0.65485,0 1.01957,-0.30087 1.3014,-0.86681 l -0.12434,-0.15044 c -0.17406,0.30804 -0.48906,0.79517 -1.06929,0.79517 -0.0663,0 -0.0912,-0.007 -0.14921,-0.007 0.16578,-0.30805 0.24867,-0.62325 0.24867,-0.90263 0,-0.48713 -0.25696,-0.71637 -0.6134,-0.71637 -0.42274,0 -0.75431,0.3152 -0.75431,0.78084 0,0.37968 0.21552,0.75218 0.62169,0.9456 -0.20723,0.32954 -0.58024,0.58743 -0.87037,0.58743 -0.32328,0 -0.43103,-0.3152 -0.43103,-0.69487 0,-0.58743 0.25696,-1.24649 0.37301,-1.43275 1.02786,-0.50862 1.92309,-2.04166 1.92309,-2.71504 z m -0.38959,0.17908 c -0.009,0.3367 -0.65485,1.51154 -1.37601,2.08465 0.37302,-0.99577 1.16878,-2.02017 1.37601,-2.08465 z m -0.82063,3.16636 c 0,-0.23639 0.11604,-0.43698 0.26525,-0.43698 0.13263,0 0.24039,0.1576 0.24039,0.50146 0,0.22924 -0.0497,0.4155 -0.1492,0.60892 -0.27355,-0.16477 -0.35644,-0.47281 -0.35644,-0.6734 z" />
      <path
         inkscape:connector-curvature="0"
         id="path2312"
         style="font-style:normal;font-variant:normal;font-weight:bold;font-stretch:normal;font-size:7.70592px;line-height:125%;font-family:'Dancing Script';-inkscape-font-specification:'Dancing Script, Bold';font-variant-ligatures:normal;font-variant-caps:normal;font-variant-numeric:normal;font-feature-settings:normal;text-align:center;letter-spacing:0px;word-spacing:0px;writing-mode:lr-tb;text-anchor:middle;fill:#000000;fill-opacity:1;stroke:#c6941b;stroke-width:0.236117;stroke-linecap:butt;stroke-linejoin:miter;stroke-miterlimit:4;stroke-dasharray:none;stroke-opacity:1;paint-order:stroke markers fill"
         d="m 183.25015,136.46861 c -0.009,-0.22208 -0.14092,-0.5731 -0.34815,-0.5731 -0.62997,0 -2.63596,3.20935 -2.63596,4.61344 0,0.41549 0.17408,0.75934 0.69629,0.75934 0.63827,0 1.24338,-0.52294 1.71587,-1.37542 l -0.19894,-0.0931 c -0.3067,0.56593 -0.78748,1.13903 -1.20193,1.13903 -0.21553,0 -0.35644,-0.15044 -0.35644,-0.4943 0,-0.18625 0.0414,-0.42982 0.0912,-0.67338 1.25996,-0.85965 2.23808,-2.66491 2.23808,-3.30248 z m -0.38131,0.0788 c 0,0.47997 -0.77089,1.89838 -1.70757,2.77952 0.47249,-1.29663 1.50035,-2.77952 1.70757,-2.77952 z" />
      <path
         inkscape:connector-curvature="0"
         id="path2314"
         style="font-style:normal;font-variant:normal;font-weight:bold;font-stretch:normal;font-size:7.70592px;line-height:125%;font-family:'Dancing Script';-inkscape-font-specification:'Dancing Script, Bold';font-variant-ligatures:normal;font-variant-caps:normal;font-variant-numeric:normal;font-feature-settings:normal;text-align:center;letter-spacing:0px;word-spacing:0px;writing-mode:lr-tb;text-anchor:middle;fill:#000000;fill-opacity:1;stroke:#c6941b;stroke-width:0.236117;stroke-linecap:butt;stroke-linejoin:miter;stroke-miterlimit:4;stroke-dasharray:none;stroke-opacity:1;paint-order:stroke markers fill"
         d="m 184.89967,138.94726 c 0,-0.37968 -0.31498,-0.47997 -0.6051,-0.47997 -1.02785,0 -2.14689,1.18917 -2.14689,2.03449 0,0.4943 0.38959,0.86681 1.10246,0.86681 0.88694,0 1.78217,-0.5731 2.22978,-1.43274 l -0.16578,-0.11462 c -0.42275,0.68772 -1.19364,1.23932 -1.88164,1.23932 -0.62998,0 -0.63827,-0.45848 -0.63827,-0.55877 0,-0.0931 0.009,-0.12895 0.0166,-0.16477 0.9947,-0.0931 2.08886,-0.66622 2.08886,-1.38975 z m -0.58853,-0.17194 c 0.0995,0 0.14092,0.0286 0.14092,0.13612 0,0.53728 -0.96983,1.10321 -1.55007,1.16052 0.23209,-0.59459 0.90352,-1.29664 1.40915,-1.29664 z" />
    </g>
    <g
       transform="matrix(3.1034985,0,0,3.1034985,-500.24803,-189.03694)"
       style="font-style:normal;font-variant:normal;font-weight:normal;font-stretch:normal;font-size:17.0004px;line-height:125%;font-family:Arial;-inkscape-font-specification:'Arial, Normal';font-variant-ligatures:normal;font-variant-caps:normal;font-variant-numeric:normal;font-variant-east-asian:normal;text-align:center;letter-spacing:0px;word-spacing:0px;text-anchor:middle;display:inline;mix-blend-mode:normal;fill:#41d822;fill-opacity:0.848764;stroke:none;stroke-width:0.177088px;stroke-linecap:butt;stroke-linejoin:miter;stroke-opacity:1"
       id="text1646"
       aria-label="✓"
       inkscape:groupmode="layer" />
    <text
       id="text1657"
       y="274.21909"
       x="50.000015"
       style="font-weight:bold;font-size:71.7023px;line-height:125%;font-family:AustralianFlyingCorpsStencil;-inkscape-font-specification:'AustralianFlyingCorpsStencil Bold';text-align:center;letter-spacing:0px;word-spacing:0px;text-anchor:middle;display:none;fill:#d82222;fill-opacity:0.819672;stroke:none;stroke-width:0.746902px;stroke-linecap:butt;stroke-linejoin:miter;stroke-opacity:1"
       xml:space="preserve"><tspan
         style="fill:#d82222;fill-opacity:0.819672;stroke:none;stroke-width:0.746902px"
         y="0"
         x="0"
         id="tspan1655"
         sodipodi:role="line">✗</tspan></text>
    <g
       id="g12731">
      <path
         d="m 107.61544,281.35712 c -1.32605,2.29677 -3.61152,0.95241 -5.17038,3.098 -1.55885,2.14558 0.42596,3.90376 -1.34864,5.87465 -1.774588,1.97088 -3.730611,0.18072 -5.701495,1.95532 -1.970883,1.77459 -0.394994,3.90702 -2.540576,5.46587 -2.145582,1.55886 -3.686667,-0.59886 -5.983441,0.72719 -2.296773,1.32604 -1.198678,3.73952 -3.621478,4.81822 -2.422801,1.0787 -3.481595,-1.35228 -6.003878,-0.53274 -2.522283,0.81954 -1.949974,3.40858 -4.544105,3.95998 -2.594131,0.5514 -3.12436,-2.04658 -5.761917,-1.76937 -2.637557,0.27722 -2.616047,2.92868 -5.268132,2.92868 -2.652086,0 -2.630575,-2.65146 -5.268133,-2.92868 -2.637556,-0.27721 -3.167785,2.32077 -5.761916,1.76937 -2.594131,-0.5514 -2.021822,-3.14044 -4.544105,-3.95998 -2.522283,-0.81954 -3.581077,1.61144 -6.003878,0.53274 -2.4228,-1.0787 -1.324705,-3.49218 -3.621479,-4.81822 -2.296773,-1.32605 -3.837858,0.83167 -5.98344,-0.72719 -2.145582,-1.55885 -0.569693,-3.69128 -2.540577,-5.46587 -1.970883,-1.7746 -3.926906,0.0156 -5.701498,-1.95532 -1.774591,-1.97089 0.210218,-3.72907 -1.348639,-5.87465 -1.558856,-2.14559 -3.84433,-0.80123 -5.170373,-3.098 -1.326043,-2.29678 0.980941,-3.60388 -0.09776,-6.02668 -1.0787,-2.4228 -3.593738,-1.583 -4.413278,-4.10528 -0.819539,-2.52228 1.708793,-3.32117 1.157393,-5.9153 -0.551399,-2.59413 -3.1860825,-2.29559 -3.4633008,-4.93314 -0.2772184,-2.63756 2.3619618,-2.89332 2.3619618,-5.54541 0,-2.65208 -2.6391802,-2.90784 -2.3619618,-5.5454 0.2772185,-2.63756 2.9119018,-2.33901 3.4633018,-4.93314 0.551399,-2.59413 -1.976933,-3.39302 -1.157394,-5.9153 0.81954,-2.52229 3.334578,-1.68248 4.413279,-4.10529 1.0787,-2.4228 -1.228284,-3.7299 0.09776,-6.02667 1.326043,-2.29677 3.611517,-0.95242 5.170374,-3.098 1.558856,-2.14558 -0.425953,-3.90377 1.348638,-5.87465 1.774592,-1.97088 3.730615,-0.18073 5.701499,-1.95532 1.970883,-1.77459 0.394994,-3.90702 2.540576,-5.46588 2.145582,-1.55885 3.686668,0.59886 5.983441,-0.72718 2.296773,-1.32604 1.198678,-3.73952 3.621479,-4.81822 2.4228,-1.0787 3.481594,1.35228 6.003878,0.53274 2.522283,-0.81954 1.949974,-3.40859 4.544104,-3.95999 2.594131,-0.5514 3.12436,2.04659 5.761917,1.76937 2.637557,-0.27721 2.616047,-2.92867 5.268132,-2.92867 2.652086,0 2.630576,2.65146 5.268133,2.92867 2.637557,0.27722 3.167785,-2.32077 5.761916,-1.76937 2.594131,0.5514 2.021822,3.14045 4.544106,3.95999 2.522283,0.81954 3.581077,-1.61144 6.003877,-0.53274 2.422801,1.0787 1.324706,3.49218 3.621479,4.81822 2.296773,1.32604 3.837858,-0.83167 5.983441,0.72718 2.145582,1.55886 0.569693,3.69129 2.540576,5.46588 1.970884,1.77459 3.926907,-0.0156 5.701494,1.95532 1.7746,1.97089 -0.21021,3.72907 1.34864,5.87465 1.55886,2.14559 3.84433,0.80123 5.17038,3.098 1.32604,2.29678 -0.98095,3.60388 0.0978,6.02668 1.0787,2.4228 3.59373,1.58299 4.41327,4.10528 0.81954,2.52228 -1.70879,3.32117 -1.15739,5.9153 0.5514,2.59413 3.18608,2.29558 3.4633,4.93314 0.27722,2.63756 -2.36196,2.89332 -2.36196,5.5454 0,2.65209 2.63918,2.90785 2.36196,5.54541 -0.27722,2.63755 -2.9119,2.33901 -3.4633,4.93314 -0.5514,2.59413 1.97693,3.39302 1.15739,5.9153 -0.81954,2.52229 -3.33457,1.68248 -4.41328,4.10528 -1.0787,2.4228 1.22829,3.7299 -0.0977,6.02668 z"
         sodipodi:type="star"
         style="fill:#c59117;fill-opacity:1;fill-rule:evenodd;stroke:none;stroke-width:0.105563;stroke-linecap:butt;stroke-linejoin:round;stroke-miterlimit:4;stroke-dasharray:none;stroke-dashoffset:0;stroke-opacity:1;paint-order:normal"
         id="path4732"
         sodipodi:sides="30"
         sodipodi:cx="61.671398"
         sodipodi:cy="254.83131"
         sodipodi:r1="53.051605"
         sodipodi:r2="50.399021"
         sodipodi:arg1="0.52359878"
         sodipodi:arg2="0.62831854"
         inkscape:flatsided="false"
         inkscape:rounded="0.44"
         inkscape:randomized="0"
         inkscape:transform-center-x="1.7399082e-06" />
      <circle
         style="opacity:0.99;fill:#ffffac;fill-opacity:1;fill-rule:evenodd;stroke:none;stroke-width:2.15037;stroke-linecap:butt;stroke-linejoin:round;stroke-miterlimit:4;stroke-dasharray:none;stroke-dashoffset:0;stroke-opacity:1"
         id="path4699"
         cx="61.671398"
         cy="254.83133"
         r="47.3195" />
      <ellipse
         style="fill:none;fill-opacity:1;fill-rule:evenodd;stroke:#8a5300;stroke-width:2.42137;stroke-linecap:butt;stroke-linejoin:round;stroke-miterlimit:4;stroke-dasharray:none;stroke-dashoffset:0;stroke-opacity:1"
         id="path4701"
         cx="61.671398"
         cy="254.83133"
         rx="43.301311"
         ry="43.301315" />
      <ellipse
         ry="40.907013"
         rx="40.907005"
         cy="254.83133"
         cx="61.671398"
         id="ellipse4722"
         style="fill:none;fill-opacity:1;fill-rule:evenodd;stroke:#c6941b;stroke-width:0.794019;stroke-linecap:butt;stroke-linejoin:round;stroke-miterlimit:4;stroke-dasharray:none;stroke-dashoffset:0;stroke-opacity:1" />
      <g
         style="fill:#a26b00;fill-opacity:1"
         id="g4856"
         transform="matrix(1.5771909,0,0,1.5771909,-209.27453,54.072761)">
        <path
           d="m 171.79019,102.58869 0.67699,2.02143 2.13169,0.0192 -1.71329,1.26851 0.64047,2.03329 -1.73586,-1.23745 -1.73586,1.23745 0.64048,-2.03329 -1.71329,-1.26851 2.13169,-0.0192 z"
           inkscape:transform-center-y="-0.28200814"
           inkscape:transform-center-x="1.2702269e-06"
           inkscape:randomized="0"
           inkscape:rounded="0"
           inkscape:flatsided="false"
           sodipodi:arg2="-0.9424778"
           sodipodi:arg1="-1.5707963"
           sodipodi:r2="1.1517546"
           sodipodi:r1="2.953217"
           sodipodi:cy="105.54191"
           sodipodi:cx="171.79019"
           sodipodi:sides="5"
           id="path4730"
           style="opacity:1;fill:#a26b00;fill-opacity:1;fill-rule:evenodd;stroke:none;stroke-width:1.2985;stroke-linecap:butt;stroke-linejoin:round;stroke-miterlimit:4;stroke-dasharray:none;stroke-dashoffset:0;stroke-opacity:1"
           sodipodi:type="star" />
        <path
           d="m 178.12129,104.11664 0.62344,1.86153 1.96307,0.0177 -1.57777,1.16817 0.58981,1.87245 -1.59855,-1.13956 -1.59855,1.13956 0.58981,-1.87245 -1.57777,-1.16817 1.96308,-0.0177 z"
           sodipodi:type="star"
           style="opacity:1;fill:#a26b00;fill-opacity:1;fill-rule:evenodd;stroke:none;stroke-width:1.19579;stroke-linecap:butt;stroke-linejoin:round;stroke-miterlimit:4;stroke-dasharray:none;stroke-dashoffset:0;stroke-opacity:1"
           id="path4738"
           sodipodi:sides="5"
           sodipodi:cx="178.12129"
           sodipodi:cy="106.83625"
           sodipodi:r1="2.7196147"
           sodipodi:r2="1.0606498"
           sodipodi:arg1="-1.5707963"
           sodipodi:arg2="-0.9424778"
           inkscape:flatsided="false"
           inkscape:rounded="0"
           inkscape:randomized="0"
           inkscape:transform-center-x="1.2721611e-06"
           inkscape:transform-center-y="-0.25970103" />
        <path
           d="m 165.45909,104.11664 0.62344,1.86153 1.96307,0.0177 -1.57777,1.16817 0.58981,1.87245 -1.59855,-1.13956 -1.59855,1.13956 0.58981,-1.87245 -1.57777,-1.16817 1.96308,-0.0177 z"
           inkscape:transform-center-y="-0.25970103"
           inkscape:transform-center-x="1.2721611e-06"
           inkscape:randomized="0"
           inkscape:rounded="0"
           inkscape:flatsided="false"
           sodipodi:arg2="-0.9424778"
           sodipodi:arg1="-1.5707963"
           sodipodi:r2="1.0606498"
           sodipodi:r1="2.7196147"
           sodipodi:cy="106.83625"
           sodipodi:cx="165.45909"
           sodipodi:sides="5"
           id="path4742"
           style="opacity:1;fill:#a26b00;fill-opacity:1;fill-rule:evenodd;stroke:none;stroke-width:1.19579;stroke-linecap:butt;stroke-linejoin:round;stroke-miterlimit:4;stroke-dasharray:none;stroke-dashoffset:0;stroke-opacity:1"
           sodipodi:type="star" />
        <path
           d="m 171.79019,145.67798 0.67699,2.02143 2.13169,0.0192 -1.71329,1.26851 0.64047,2.03329 -1.73586,-1.23745 -1.73586,1.23745 0.64048,-2.03329 -1.71329,-1.26851 2.13169,-0.0192 z"
           sodipodi:type="star"
           style="opacity:1;fill:#a26b00;fill-opacity:1;fill-rule:evenodd;stroke:none;stroke-width:1.2985;stroke-linecap:butt;stroke-linejoin:round;stroke-miterlimit:4;stroke-dasharray:none;stroke-dashoffset:0;stroke-opacity:1"
           id="path4740"
           sodipodi:sides="5"
           sodipodi:cx="171.79019"
           sodipodi:cy="148.6312"
           sodipodi:r1="2.953217"
           sodipodi:r2="1.1517546"
           sodipodi:arg1="-1.5707963"
           sodipodi:arg2="-0.9424778"
           inkscape:flatsided="false"
           inkscape:rounded="0"
           inkscape:randomized="0"
           inkscape:transform-center-x="1.2702269e-06"
           inkscape:transform-center-y="-0.28200814" />
        <path
           d="m 178.12129,144.99494 0.62344,1.86153 1.96307,0.0177 -1.57777,1.16816 0.58981,1.87246 -1.59855,-1.13957 -1.59855,1.13957 0.58981,-1.87246 -1.57777,-1.16816 1.96308,-0.0177 z"
           inkscape:transform-center-y="-0.25970103"
           inkscape:transform-center-x="1.2721611e-06"
           inkscape:randomized="0"
           inkscape:rounded="0"
           inkscape:flatsided="false"
           sodipodi:arg2="-0.9424778"
           sodipodi:arg1="-1.5707963"
           sodipodi:r2="1.0606498"
           sodipodi:r1="2.7196147"
           sodipodi:cy="147.71455"
           sodipodi:cx="178.12129"
           sodipodi:sides="5"
           id="path4744"
           style="opacity:1;fill:#a26b00;fill-opacity:1;fill-rule:evenodd;stroke:none;stroke-width:1.19579;stroke-linecap:butt;stroke-linejoin:round;stroke-miterlimit:4;stroke-dasharray:none;stroke-dashoffset:0;stroke-opacity:1"
           sodipodi:type="star" />
        <path
           d="m 165.45909,144.99494 0.62344,1.86153 1.96307,0.0177 -1.57777,1.16816 0.58981,1.87246 -1.59855,-1.13957 -1.59855,1.13957 0.58981,-1.87246 -1.57777,-1.16816 1.96308,-0.0177 z"
           sodipodi:type="star"
           style="opacity:1;fill:#a26b00;fill-opacity:1;fill-rule:evenodd;stroke:none;stroke-width:1.19579;stroke-linecap:butt;stroke-linejoin:round;stroke-miterlimit:4;stroke-dasharray:none;stroke-dashoffset:0;stroke-opacity:1"
           id="path4746"
           sodipodi:sides="5"
           sodipodi:cx="165.45909"
           sodipodi:cy="147.71455"
           sodipodi:r1="2.7196147"
           sodipodi:r2="1.0606498"
           sodipodi:arg1="-1.5707963"
           sodipodi:arg2="-0.9424778"
           inkscape:flatsided="false"
           inkscape:rounded="0"
           inkscape:randomized="0"
           inkscape:transform-center-x="1.2721611e-06"
           inkscape:transform-center-y="-0.25970103" />
      </g>
      <g
         aria-label="SPNatI"
         transform="matrix(1.7440036,0,0,1.4263338,-209.27714,54.072761)"
         style="font-style:normal;font-variant:normal;font-weight:normal;font-stretch:normal;font-size:7.58026px;line-height:125%;font-family:'Hyde BRK';-inkscape-font-specification:'Hyde BRK';font-variant-ligatures:normal;font-variant-caps:normal;font-variant-numeric:normal;font-feature-settings:normal;text-align:center;letter-spacing:0px;word-spacing:0px;writing-mode:lr-tb;text-anchor:middle;fill:#442400;fill-opacity:1;stroke:#442400;stroke-width:0.165754;stroke-linecap:round;stroke-linejoin:round;stroke-miterlimit:4;stroke-dasharray:none;stroke-opacity:1"
         id="text4726">
        <path
           d="m 145.67251,125.54997 c -0.30321,-0.21225 -0.77318,-0.34111 -1.22042,-0.34111 -1.12946,0 -1.94813,0.6898 -1.94813,1.65249 0,0.47756 0.21225,0.89447 0.5761,1.12946 0.26531,0.16677 0.41692,0.21983 1.31139,0.43966 l 0.75045,0.1895 c 0.56852,0.14403 0.7277,0.25773 0.7277,0.5382 0,0.39418 -0.39417,0.67465 -0.95511,0.67465 -0.53062,0 -1.06124,-0.23499 -1.44025,-0.62917 -0.20467,-0.2274 -0.34869,-0.41691 -0.54578,-0.77318 l -0.56852,0.1895 0.62916,1.93297 h 0.44724 l 0.10612,-0.37143 c 0.31837,0.23499 0.84141,0.38659 1.35687,0.38659 1.23558,0 2.14521,-0.77318 2.14521,-1.81926 0,-0.46998 -0.20466,-0.88689 -0.55336,-1.1143 -0.2274,-0.1516 -0.43207,-0.22741 -1.08397,-0.40175 l -0.68981,-0.18193 c -0.0152,-0.008 -0.15918,-0.0379 -0.37143,-0.0834 -0.14403,-0.0303 -0.28047,-0.0758 -0.39418,-0.12887 -0.18192,-0.0758 -0.27288,-0.20466 -0.27288,-0.36385 0,-0.31079 0.34869,-0.53062 0.83382,-0.53062 0.43208,0 0.90206,0.20467 1.19011,0.51546 0.12886,0.13644 0.2274,0.25773 0.46997,0.59126 l 0.54578,-0.20467 -0.5003,-1.53879 h -0.45481 z"
           style="font-style:normal;font-variant:normal;font-weight:600;font-stretch:normal;font-size:7.58026px;font-family:'URW Bookman';-inkscape-font-specification:'URW Bookman Semi-Bold';font-variant-ligatures:normal;font-variant-caps:normal;font-variant-numeric:normal;font-feature-settings:normal;text-align:center;writing-mode:lr-tb;text-anchor:middle;fill:#442400;fill-opacity:1;stroke:#442400;stroke-width:0.165754;stroke-linecap:round;stroke-linejoin:round;stroke-miterlimit:4;stroke-dasharray:none;stroke-opacity:1"
           id="path2317"
           inkscape:connector-curvature="0" />
        <path
           d="m 149.34894,128.37741 h 0.72013 c 1.38718,0 2.12247,-0.53062 2.12247,-1.53122 0,-0.50029 -0.21225,-0.94753 -0.59126,-1.21284 -0.33353,-0.24257 -0.72771,-0.32595 -1.52363,-0.32595 h -2.72132 v 0.62158 l 0.15161,0.0152 c 0.43965,0.0606 0.52304,0.15919 0.51546,0.63674 v 2.61519 c 0.008,0.47756 -0.0758,0.5761 -0.51546,0.63675 l -0.15161,0.0152 v 0.62158 h 2.66067 v -0.62158 l -0.1516,-0.0152 c -0.43966,-0.0607 -0.52304,-0.15919 -0.51546,-0.63675 z m 0,-1.81927 c 0,-0.27289 0.008,-0.35627 0.0531,-0.41691 0.0531,-0.0834 0.22741,-0.13645 0.4624,-0.13645 0.52304,0 0.87173,0.33354 0.87173,0.81867 0,0.56852 -0.40933,0.87931 -1.13704,0.87931 -0.0758,0 -0.12886,0 -0.25015,-0.0152 z"
           style="font-style:normal;font-variant:normal;font-weight:600;font-stretch:normal;font-size:7.58026px;font-family:'URW Bookman';-inkscape-font-specification:'URW Bookman Semi-Bold';font-variant-ligatures:normal;font-variant-caps:normal;font-variant-numeric:normal;font-feature-settings:normal;text-align:center;writing-mode:lr-tb;text-anchor:middle;fill:#442400;fill-opacity:1;stroke:#442400;stroke-width:0.165754;stroke-linecap:round;stroke-linejoin:round;stroke-miterlimit:4;stroke-dasharray:none;stroke-opacity:1"
           id="path2319"
           inkscape:connector-curvature="0" />
        <path
           d="m 154.6248,125.3074 h -2.23618 v 0.62158 l 0.15161,0.0152 c 0.43965,0.0606 0.52304,0.15919 0.51546,0.63674 v 2.61519 c 0.008,0.47756 -0.0758,0.5761 -0.51546,0.63675 l -0.15161,0.0152 v 0.62158 h 2.03909 v -0.62158 l -0.1516,-0.0152 c -0.43966,-0.0607 -0.52304,-0.15919 -0.51546,-0.63675 v -2.71373 l 2.35746,3.98722 h 0.93996 v -3.88868 c -0.008,-0.47755 0.0758,-0.5761 0.51545,-0.63674 l 0.15161,-0.0152 v -0.62158 h -2.03909 v 0.62158 l 0.1516,0.0152 c 0.43966,0.0606 0.52304,0.15919 0.51546,0.63674 v 1.70556 z"
           style="font-style:normal;font-variant:normal;font-weight:600;font-stretch:normal;font-size:7.58026px;font-family:'URW Bookman';-inkscape-font-specification:'URW Bookman Semi-Bold';font-variant-ligatures:normal;font-variant-caps:normal;font-variant-numeric:normal;font-feature-settings:normal;text-align:center;writing-mode:lr-tb;text-anchor:middle;fill:#442400;fill-opacity:1;stroke:#442400;stroke-width:0.165754;stroke-linecap:round;stroke-linejoin:round;stroke-miterlimit:4;stroke-dasharray:none;stroke-opacity:1"
           id="path2321"
           inkscape:connector-curvature="0" />
        <path
           d="m 161.78814,129.63573 c -0.13645,0.12886 -0.13645,0.12886 -0.18951,0.12886 -0.0531,0 -0.1137,-0.0379 -0.12886,-0.0834 -0.0227,-0.0531 -0.0227,-0.0531 -0.0303,-0.34111 v -1.49331 c 0,-0.40176 -0.0834,-0.64432 -0.28805,-0.84141 -0.26531,-0.25773 -0.76561,-0.40934 -1.36445,-0.40934 -0.97785,0 -1.68282,0.43966 -1.68282,1.04608 0,0.32595 0.24257,0.56852 0.56094,0.56852 0.37143,0 0.59126,-0.21983 0.58368,-0.58368 0,-0.10612 0.0152,-0.15919 0.0682,-0.19709 0.091,-0.0834 0.25773,-0.13644 0.41692,-0.13644 0.32595,0 0.47755,0.12886 0.47755,0.40933 v 0.3866 c -0.41691,0.0379 -0.78076,0.10612 -1.10671,0.20466 -0.75803,0.22741 -1.13704,0.62917 -1.13704,1.20527 0,0.62158 0.48513,1.03849 1.20526,1.03849 0.43207,0 0.81867,-0.12886 1.20526,-0.38659 0.18193,0.23499 0.51546,0.38659 0.87173,0.38659 0.34111,0 0.62158,-0.1137 0.96269,-0.38659 z m -1.5767,-0.18193 c -0.19708,0.18193 -0.38659,0.26531 -0.59884,0.26531 -0.21224,0 -0.35627,-0.1516 -0.35627,-0.37901 0,-0.32595 0.30321,-0.52304 0.95511,-0.64432 z"
           style="font-style:normal;font-variant:normal;font-weight:600;font-stretch:normal;font-size:7.58026px;font-family:'URW Bookman';-inkscape-font-specification:'URW Bookman Semi-Bold';font-variant-ligatures:normal;font-variant-caps:normal;font-variant-numeric:normal;font-feature-settings:normal;text-align:center;writing-mode:lr-tb;text-anchor:middle;fill:#442400;fill-opacity:1;stroke:#442400;stroke-width:0.165754;stroke-linecap:round;stroke-linejoin:round;stroke-miterlimit:4;stroke-dasharray:none;stroke-opacity:1"
           id="path2323"
           inkscape:connector-curvature="0" />
        <path
           d="m 165.00975,127.30859 v -0.64432 h -1.0385 V 125.459 h -0.71254 c -0.0758,0.78077 -0.43208,1.19769 -1.09156,1.28865 v 0.59884 h 0.5761 v 1.91781 c 0,0.46239 0.0303,0.64432 0.12128,0.82625 0.16677,0.30321 0.4624,0.44723 0.90963,0.44723 0.68223,0 1.15979,-0.22741 1.59944,-0.75803 l -0.45482,-0.53819 c -0.34111,0.32595 -0.47755,0.41691 -0.67464,0.41691 -0.20467,0 -0.27289,-0.12128 -0.27289,-0.51546 v -1.83442 z"
           style="font-style:normal;font-variant:normal;font-weight:600;font-stretch:normal;font-size:7.58026px;font-family:'URW Bookman';-inkscape-font-specification:'URW Bookman Semi-Bold';font-variant-ligatures:normal;font-variant-caps:normal;font-variant-numeric:normal;font-feature-settings:normal;text-align:center;writing-mode:lr-tb;text-anchor:middle;fill:#442400;fill-opacity:1;stroke:#442400;stroke-width:0.165754;stroke-linecap:round;stroke-linejoin:round;stroke-miterlimit:4;stroke-dasharray:none;stroke-opacity:1"
           id="path2325"
           inkscape:connector-curvature="0" />
        <path
           d="m 168.36022,130.46956 v -0.62158 l -0.18193,-0.0152 c -0.43965,-0.0607 -0.52304,-0.15919 -0.51546,-0.63675 v -2.61519 c -0.008,-0.47755 0.0758,-0.5761 0.51546,-0.63674 l 0.18193,-0.0152 v -0.62158 h -2.72132 v 0.62158 l 0.18193,0.0152 c 0.43965,0.0606 0.52304,0.15919 0.51546,0.63674 v 2.61519 c 0.008,0.47756 -0.0758,0.5761 -0.51546,0.63675 l -0.18193,0.0152 v 0.62158 z"
           style="font-style:normal;font-variant:normal;font-weight:600;font-stretch:normal;font-size:7.58026px;font-family:'URW Bookman';-inkscape-font-specification:'URW Bookman Semi-Bold';font-variant-ligatures:normal;font-variant-caps:normal;font-variant-numeric:normal;font-feature-settings:normal;text-align:center;writing-mode:lr-tb;text-anchor:middle;fill:#442400;fill-opacity:1;stroke:#442400;stroke-width:0.165754;stroke-linecap:round;stroke-linejoin:round;stroke-miterlimit:4;stroke-dasharray:none;stroke-opacity:1"
           id="path2327"
           inkscape:connector-curvature="0" />
      </g>
      <g
         style="font-style:normal;font-variant:normal;font-weight:bold;font-stretch:normal;font-size:9.71029px;line-height:125%;font-family:AustralianFlyingCorpsStencil;-inkscape-font-specification:'AustralianFlyingCorpsStencil Bold';font-variant-ligatures:normal;font-variant-caps:normal;font-variant-numeric:normal;font-feature-settings:normal;text-align:center;letter-spacing:0.182068px;word-spacing:0px;writing-mode:lr-tb;text-anchor:middle;fill:#361c00;fill-opacity:1;stroke:none;stroke-width:0.306952;stroke-linecap:butt;stroke-linejoin:miter;stroke-miterlimit:4;stroke-dasharray:none;stroke-opacity:1;paint-order:stroke markers fill"
         id="text965"
         transform="matrix(1.4615206,0,0,1.7020158,-209.27453,54.072761)"
         aria-label="EPILOGUE">
        <path
           id="path3904"
           style="font-style:normal;font-variant:normal;font-weight:normal;font-stretch:normal;font-family:AustralianFlyingCorpsStencil;-inkscape-font-specification:AustralianFlyingCorpsStencil;fill:#361c00;fill-opacity:1;stroke:none;stroke-width:0.306952;stroke-miterlimit:4;stroke-dasharray:none;stroke-opacity:1"
           d="m 167.21719,115.8657 q 0,0.38841 -0.27189,0.38841 -0.16508,0 -0.33986,-0.4661 -0.24276,-0.63117 -0.43696,-0.89334 -0.38842,-0.50494 -1.039,-0.58262 v -0.81567 h 2.08771 z m -0.87393,3.09758 q 0,0.63117 -0.2816,0.63117 -0.16507,0 -0.26217,-0.29131 -0.0971,-0.29131 -0.19421,-0.59233 -0.16508,-0.35928 -0.4758,-0.4758 v -0.82538 q 0.31072,-0.11652 0.4758,-0.4758 0.0971,-0.29131 0.19421,-0.58262 0.0971,-0.30102 0.26217,-0.30102 0.2816,0 0.2816,0.67972 z m -1.53422,3.44715 h -2.39845 q -0.40783,0 -0.40783,-0.36899 0,-0.22334 0.1845,-0.35928 0.25247,-0.19421 0.29131,-0.26218 0.0388,-0.16507 0.0388,-0.38841 v -6.15632 q 0,-0.22334 -0.0388,-0.38842 -0.0388,-0.0583 -0.29131,-0.26217 -0.1845,-0.14566 -0.1845,-0.35928 0,-0.369 0.40783,-0.369 h 2.39845 z m 2.47612,-2.06829 -0.01,2.06829 h -2.14597 v -0.82537 q 0.71856,-0.0777 1.09726,-0.60204 0.20391,-0.27189 0.40783,-0.93219 0.14565,-0.48551 0.32044,-0.48551 0.33015,0 0.33015,0.77682 z" />
        <path
           id="path3906"
           style="font-style:normal;font-variant:normal;font-weight:normal;font-stretch:normal;font-family:AustralianFlyingCorpsStencil;-inkscape-font-specification:AustralianFlyingCorpsStencil;fill:#361c00;fill-opacity:1;stroke:none;stroke-width:0.306952;stroke-miterlimit:4;stroke-dasharray:none;stroke-opacity:1"
           d="m 173.73036,116.25411 q 0,1.43712 -0.71856,2.09742 -0.67972,0.64088 -2.11684,0.64088 v -0.7574 q 0.61175,-0.0388 0.61175,-1.11669 v -1.73814 q 0,-1.07784 -0.61175,-1.12639 v -0.75741 h 0.20391 q 2.63149,0 2.63149,2.75773 z m -2.51496,5.80675 q 0,0.34957 -0.4661,0.34957 h -2.58293 q -0.37871,0 -0.37871,-0.36899 0,-0.21363 0.1845,-0.34957 0.26218,-0.20392 0.30102,-0.27189 0.0291,-0.12623 0.0291,-0.38841 v -6.15632 q 0,-0.26218 -0.0291,-0.38842 -0.0388,-0.068 -0.30102,-0.26217 -0.1845,-0.14566 -0.1845,-0.35928 0,-0.369 0.40784,-0.369 h 2.39844 v 7.69055 q 0,0.27189 0.31073,0.43697 0.31073,0.16507 0.31073,0.43696 z" />
        <path
           id="path3908"
           style="font-style:normal;font-variant:normal;font-weight:normal;font-stretch:normal;font-family:AustralianFlyingCorpsStencil;-inkscape-font-specification:AustralianFlyingCorpsStencil;fill:#361c00;fill-opacity:1;stroke:none;stroke-width:0.306952;stroke-miterlimit:4;stroke-dasharray:none;stroke-opacity:1"
           d="m 177.53435,122.04144 q 0,0.36899 -0.41754,0.36899 h -2.51497 q -0.40783,0 -0.40783,-0.36899 0,-0.22334 0.1845,-0.35928 0.26218,-0.19421 0.30102,-0.26218 0.0388,-0.16507 0.0388,-0.38841 v -6.15632 q 0,-0.22334 -0.0388,-0.38842 -0.0388,-0.0583 -0.30102,-0.26217 -0.1845,-0.14566 -0.1845,-0.35928 0,-0.369 0.40783,-0.369 h 2.51497 q 0.41754,0 0.41754,0.369 0,0.21362 -0.18449,0.34957 -0.26218,0.20391 -0.31073,0.27188 -0.0388,0.25247 -0.0388,0.38842 v 6.18545 q 0,0.25247 0.0291,0.33986 0.0291,0.0874 0.28159,0.26218 0.22334,0.14565 0.22334,0.3787 z" />
        <path
           id="path3910"
           style="font-style:normal;font-variant:normal;font-weight:normal;font-stretch:normal;font-family:AustralianFlyingCorpsStencil;-inkscape-font-specification:AustralianFlyingCorpsStencil;fill:#361c00;fill-opacity:1;stroke:none;stroke-width:0.306952;stroke-miterlimit:4;stroke-dasharray:none;stroke-opacity:1"
           d="m 181.34806,113.86538 q 0,0.21362 -0.1845,0.35928 -0.26218,0.1942 -0.30102,0.26217 -0.0291,0.12624 -0.0291,0.48552 v 7.43808 h -2.40815 q -0.40783,0 -0.40783,-0.36899 0,-0.22334 0.18449,-0.35928 0.26218,-0.19421 0.30102,-0.26218 0.0388,-0.25247 0.0388,-0.38841 v -6.15632 q 0,-0.13595 -0.0388,-0.38842 -0.0388,-0.0583 -0.30102,-0.26217 -0.18449,-0.14566 -0.18449,-0.35928 0,-0.369 0.40783,-0.369 h 2.51496 q 0.40784,0 0.40784,0.369 z m 1.81582,8.54505 h -2.03916 v -0.82537 q 0.65059,-0.0486 1.00987,-0.64088 0.18449,-0.31073 0.39812,-1.07784 0.15537,-0.57291 0.32044,-0.57291 0.31073,0 0.31073,0.74769 z" />
        <path
           id="path3912"
           style="font-style:normal;font-variant:normal;font-weight:normal;font-stretch:normal;font-family:AustralianFlyingCorpsStencil;-inkscape-font-specification:AustralianFlyingCorpsStencil;fill:#361c00;fill-opacity:1;stroke:none;stroke-width:0.306952;stroke-miterlimit:4;stroke-dasharray:none;stroke-opacity:1"
           d="m 189.76444,117.95341 q 0,1.76727 -0.59232,2.95193 -0.75741,1.50509 -2.33047,1.67017 v -0.75741 q 0.46609,-0.0583 0.46609,-1.04871 v -5.63197 q 0,-0.99045 -0.46609,-1.04871 v -0.7574 q 1.57306,0.16507 2.33047,1.67017 0.59232,1.18466 0.59232,2.95193 z m -3.22381,4.6221 q -1.56336,-0.15537 -2.32076,-1.67017 -0.59233,-1.18466 -0.59233,-2.95193 0,-1.76727 0.59233,-2.95193 0.7574,-1.5051 2.32076,-1.67017 v 0.7574 q -0.32044,0.0388 -0.41754,0.42726 -0.0486,0.1942 -0.0486,0.6603 v 5.55428 q 0,0.46609 0.0486,0.6603 0.0971,0.38841 0.41754,0.42725 z" />
        <path
           id="path3914"
           style="font-style:normal;font-variant:normal;font-weight:normal;font-stretch:normal;font-family:AustralianFlyingCorpsStencil;-inkscape-font-specification:AustralianFlyingCorpsStencil;fill:#361c00;fill-opacity:1;stroke:none;stroke-width:0.306952;stroke-miterlimit:4;stroke-dasharray:none;stroke-opacity:1"
           d="m 195.79209,116.157 q 0,0.68943 -0.3787,0.68943 -0.21362,0 -0.45638,-0.68943 -0.34957,-1.00016 -0.52436,-1.30117 -0.40783,-0.71857 -1.039,-0.76712 v -0.7574 q 0.24276,0.0291 0.77683,0.25247 0.50493,0.22333 0.68943,0.22333 0.0874,0 0.25246,-0.22333 0.16508,-0.22334 0.34957,-0.22334 0.21363,0 0.2816,0.15537 0.0486,0.0971 0.0486,0.34957 z m 0.35928,2.07801 q 0,0.20391 -0.11652,0.31073 -0.15536,0.13594 -0.18449,0.21362 -0.0777,0.19421 -0.0777,0.93219 0,0.26218 0.0194,0.79624 0.0291,0.52436 0.0291,0.78654 -1.08756,1.2332 -2.42758,1.29147 v -0.78654 q 0.39812,-0.0388 0.39812,-0.71856 v -1.93235 q 0,-0.0971 -0.0388,-0.31073 -0.0291,-0.0388 -0.32044,-0.24275 -0.17478,-0.12624 -0.17478,-0.36899 0,-0.34957 0.42725,-0.34957 h 2.09742 q 0.36899,0 0.36899,0.3787 z m -3.04903,4.3405 q -1.54393,-0.19421 -2.28191,-1.6993 -0.57291,-1.17495 -0.57291,-2.9228 0,-1.74785 0.57291,-2.9228 0.73798,-1.48567 2.28191,-1.6993 v 0.7574 q -0.31073,0.0583 -0.40783,0.43697 -0.0486,0.1942 -0.0486,0.65059 v 5.55428 q 0,0.44667 0.0486,0.65059 0.0971,0.38841 0.40783,0.43696 z" />
        <path
           id="path3916"
           style="font-style:normal;font-variant:normal;font-weight:normal;font-stretch:normal;font-family:AustralianFlyingCorpsStencil;-inkscape-font-specification:AustralianFlyingCorpsStencil;fill:#361c00;fill-opacity:1;stroke:none;stroke-width:0.306952;stroke-miterlimit:4;stroke-dasharray:none;stroke-opacity:1"
           d="m 203.00441,113.8848 q 0,0.1942 -0.31073,0.44667 -0.33986,0.29131 -0.42726,0.6603 -0.0583,0.24276 -0.0583,0.83508 v 3.36948 q 0,1.36915 -0.29131,2.06829 -0.41754,1.00987 -1.55364,1.21378 v -0.87392 q 0.72827,-0.12624 1.00987,-0.76712 0.18449,-0.44667 0.18449,-1.3206 v -4.02006 q 0,-0.56319 -0.20391,-0.87392 -0.0874,-0.13595 -0.38842,-0.3787 -0.20391,-0.16508 -0.20391,-0.35928 0,-0.40784 0.39812,-0.40784 h 1.44683 q 0.39813,0 0.39813,0.40784 z m -2.91309,-0.0583 q 0,0.23305 -0.21363,0.369 -0.33986,0.23304 -0.36899,0.26217 -0.0388,0.21363 -0.0388,0.33015 v 5.64168 q 0,0.53407 0.068,0.73798 0.12624,0.36899 0.53407,0.41755 l 0.01,0.93218 q -0.61175,0.0291 -0.64088,0.0291 -1.23321,0 -1.78669,-0.69915 -0.50494,-0.64087 -0.50494,-1.91292 v -5.07848 q 0,-0.26218 -0.0291,-0.38842 -0.0486,-0.0777 -0.30102,-0.27188 -0.1845,-0.14566 -0.1845,-0.34957 0,-0.369 0.41755,-0.369 h 2.53438 q 0.50494,0 0.50494,0.34957 z" />
        <path
           id="path3918"
           style="font-style:normal;font-variant:normal;font-weight:normal;font-stretch:normal;font-family:AustralianFlyingCorpsStencil;-inkscape-font-specification:AustralianFlyingCorpsStencil;fill:#361c00;fill-opacity:1;stroke:none;stroke-width:0.306952;stroke-miterlimit:4;stroke-dasharray:none;stroke-opacity:1"
           d="m 208.70191,115.8657 q 0,0.38841 -0.27189,0.38841 -0.16508,0 -0.33986,-0.4661 -0.24276,-0.63117 -0.43697,-0.89334 -0.38841,-0.50494 -1.039,-0.58262 v -0.81567 h 2.08772 z m -0.87393,3.09758 q 0,0.63117 -0.2816,0.63117 -0.16507,0 -0.26218,-0.29131 -0.0971,-0.29131 -0.1942,-0.59233 -0.16508,-0.35928 -0.47581,-0.4758 v -0.82538 q 0.31073,-0.11652 0.47581,-0.4758 0.0971,-0.29131 0.1942,-0.58262 0.0971,-0.30102 0.26218,-0.30102 0.2816,0 0.2816,0.67972 z m -1.53423,3.44715 h -2.39844 q -0.40783,0 -0.40783,-0.36899 0,-0.22334 0.1845,-0.35928 0.25246,-0.19421 0.2913,-0.26218 0.0388,-0.16507 0.0388,-0.38841 v -6.15632 q 0,-0.22334 -0.0388,-0.38842 -0.0388,-0.0583 -0.2913,-0.26217 -0.1845,-0.14566 -0.1845,-0.35928 0,-0.369 0.40783,-0.369 h 2.39844 z m 2.47613,-2.06829 -0.01,2.06829 h -2.14598 v -0.82537 q 0.71857,-0.0777 1.09727,-0.60204 0.20391,-0.27189 0.40783,-0.93219 0.14565,-0.48551 0.32044,-0.48551 0.33015,0 0.33015,0.77682 z" />
      </g>
      <g
         aria-label="available?"
         id="text1640-8"
         style="font-style:normal;font-variant:normal;font-weight:bold;font-stretch:normal;font-size:13.6857px;line-height:125%;font-family:'Dancing Script';-inkscape-font-specification:'Dancing Script Bold';font-variant-ligatures:normal;font-variant-caps:normal;font-variant-numeric:normal;font-variant-east-asian:normal;text-align:center;letter-spacing:0px;word-spacing:0px;text-anchor:middle;fill:#361c00;fill-opacity:1;stroke:none;stroke-width:0.332369;stroke-linecap:butt;stroke-linejoin:round;stroke-miterlimit:4;stroke-dasharray:none;stroke-opacity:1;paint-order:markers stroke fill">
        <path
           d="m 41.234544,273.97012 c 0,-0.65691 -0.629542,-1.09486 -1.409627,-1.09486 -1.888627,0 -3.873054,2.53186 -3.873054,4.13308 0,0.80746 0.520057,1.20435 1.122228,1.20435 0.697971,0 1.259084,-0.54743 1.984426,-1.42332 0,0.56112 0.355829,1.19066 1.135914,1.19066 1.026427,0 2.107597,-1.02643 2.778197,-2.51817 l -0.260029,-0.26003 c -0.821142,1.56017 -1.697026,2.13497 -2.134969,2.13497 -0.301085,0 -0.410571,-0.26003 -0.410571,-0.49268 0,-0.60217 0.780085,-1.45069 0.780085,-1.80652 0,-0.23265 -0.314771,-0.35582 -0.492685,-0.41057 0.478999,-0.0137 0.780085,-0.1916 0.780085,-0.65691 z m -1.040113,0.68428 c -0.697971,0.93063 -1.998113,2.86032 -2.83294,2.86032 -0.218972,0 -0.314771,-0.12318 -0.314771,-0.43795 0,-1.25908 1.532798,-3.69514 2.805568,-3.69514 0.465314,0 0.5748,0.34215 0.5748,0.71166 0,0.1916 -0.01369,0.32846 -0.06843,0.50637 -0.01369,0 -0.04106,-0.0137 -0.05474,-0.0137 -0.04106,0 -0.08211,0.0274 -0.109485,0.0684 z"
           style="font-style:normal;font-variant:normal;font-weight:bold;font-stretch:normal;font-size:13.6857px;font-family:'Dancing Script';-inkscape-font-specification:'Dancing Script Bold';font-variant-ligatures:normal;font-variant-caps:normal;font-variant-numeric:normal;font-variant-east-asian:normal;fill:#361c00;fill-opacity:1;stroke:none;stroke-width:0.332369;stroke-linejoin:round;stroke-miterlimit:4;stroke-dasharray:none;stroke-opacity:1;paint-order:markers stroke fill"
           id="path12581" />
        <path
           d="m 48.378475,275.27026 c -0.383199,0.75271 -0.711656,1.01274 -1.067484,1.01274 -0.533742,0 -0.588485,-0.5748 -0.588485,-0.958 0,-1.16328 0.437942,-1.27277 0.437942,-1.69702 0,-0.21897 -0.136857,-0.60217 -0.588485,-0.60217 -0.396885,0 -0.670599,0.32845 -0.711656,1.56017 -0.533743,1.19065 -1.505427,2.79188 -2.148655,2.79188 -0.218972,0 -0.246343,-0.24634 -0.246343,-0.82114 0,-0.58849 0.06843,-1.23172 0.06843,-1.77914 0,-0.52006 -0.01369,-0.65692 -0.451629,-0.65692 -0.478999,0 -0.50637,0.16423 -0.520056,0.71166 -0.04106,0.93063 -0.05474,1.437 -0.05474,1.6286 0,0.97168 0.218971,1.64228 0.903256,1.64228 0.875885,0 1.833884,-1.39594 2.504483,-2.62765 0.1916,0.73902 0.561114,1.27277 1.163285,1.27277 0.478999,0 1.026427,-0.35583 1.450684,-1.35489 z"
           style="font-style:normal;font-variant:normal;font-weight:bold;font-stretch:normal;font-size:13.6857px;font-family:'Dancing Script';-inkscape-font-specification:'Dancing Script Bold';font-variant-ligatures:normal;font-variant-caps:normal;font-variant-numeric:normal;font-variant-east-asian:normal;fill:#361c00;fill-opacity:1;stroke:none;stroke-width:0.332369;stroke-linejoin:round;stroke-miterlimit:4;stroke-dasharray:none;stroke-opacity:1;paint-order:markers stroke fill"
           id="path12583" />
        <path
           d="m 52.94949,273.97012 c 0,-0.65691 -0.629543,-1.09486 -1.409628,-1.09486 -1.888626,0 -3.873053,2.53186 -3.873053,4.13308 0,0.80746 0.520057,1.20435 1.122228,1.20435 0.69797,0 1.259084,-0.54743 1.984426,-1.42332 0,0.56112 0.355828,1.19066 1.135913,1.19066 1.026428,0 2.107598,-1.02643 2.778198,-2.51817 l -0.260029,-0.26003 c -0.821142,1.56017 -1.697027,2.13497 -2.134969,2.13497 -0.301085,0 -0.410571,-0.26003 -0.410571,-0.49268 0,-0.60217 0.780085,-1.45069 0.780085,-1.80652 0,-0.23265 -0.314771,-0.35582 -0.492685,-0.41057 0.478999,-0.0137 0.780085,-0.1916 0.780085,-0.65691 z m -1.040114,0.68428 c -0.69797,0.93063 -1.998112,2.86032 -2.83294,2.86032 -0.218971,0 -0.314771,-0.12318 -0.314771,-0.43795 0,-1.25908 1.532799,-3.69514 2.805569,-3.69514 0.465314,0 0.574799,0.34215 0.574799,0.71166 0,0.1916 -0.01368,0.32846 -0.06843,0.50637 -0.01369,0 -0.04106,-0.0137 -0.05474,-0.0137 -0.04106,0 -0.08211,0.0274 -0.109486,0.0684 z"
           style="font-style:normal;font-variant:normal;font-weight:bold;font-stretch:normal;font-size:13.6857px;font-family:'Dancing Script';-inkscape-font-specification:'Dancing Script Bold';font-variant-ligatures:normal;font-variant-caps:normal;font-variant-numeric:normal;font-variant-east-asian:normal;fill:#361c00;fill-opacity:1;stroke:none;stroke-width:0.332369;stroke-linejoin:round;stroke-miterlimit:4;stroke-dasharray:none;stroke-opacity:1;paint-order:markers stroke fill"
           id="path12585" />
        <path
           d="m 56.042454,272.91632 c -1.026428,0 -2.039169,2.80557 -2.039169,3.84568 0,0.6706 0.396885,1.21803 1.204341,1.21803 1.135913,0 2.162341,-0.93063 2.805569,-2.54554 l -0.205286,-0.21897 c -0.79377,1.56017 -1.532798,2.09391 -2.148655,2.09391 -0.396885,0 -0.615856,-0.13686 -0.615856,-0.72534 0,-1.20434 1.409627,-2.80557 1.409627,-3.27088 0,-0.26003 -0.1916,-0.39689 -0.410571,-0.39689 z m 0.780085,-1.10854 c 0.492685,0 0.999056,-0.43794 0.999056,-0.82114 0,-0.3832 -0.260028,-0.50637 -0.588485,-0.50637 -0.506371,0 -1.094856,0.35582 -1.094856,0.79377 0,0.36951 0.342142,0.53374 0.684285,0.53374 z"
           style="font-style:normal;font-variant:normal;font-weight:bold;font-stretch:normal;font-size:13.6857px;font-family:'Dancing Script';-inkscape-font-specification:'Dancing Script Bold';font-variant-ligatures:normal;font-variant-caps:normal;font-variant-numeric:normal;font-variant-east-asian:normal;fill:#361c00;fill-opacity:1;stroke:none;stroke-width:0.332369;stroke-linejoin:round;stroke-miterlimit:4;stroke-dasharray:none;stroke-opacity:1;paint-order:markers stroke fill"
           id="path12587" />
        <path
           d="m 62.419975,268.81061 c -0.01369,-0.42426 -0.232657,-1.09486 -0.574799,-1.09486 -1.040113,0 -4.352053,6.1312 -4.352053,8.81359 0,0.79378 0.2874,1.45069 1.149599,1.45069 1.053799,0 2.052855,-0.99906 2.83294,-2.62766 l -0.328457,-0.17791 c -0.506371,1.08117 -1.300141,2.17603 -1.984426,2.17603 -0.355829,0 -0.588486,-0.2874 -0.588486,-0.94432 0,-0.35582 0.06843,-0.82114 0.150543,-1.28645 2.080227,-1.64229 3.695139,-5.09108 3.695139,-6.30911 z m -0.629542,0.15054 c 0,0.91694 -1.27277,3.62671 -2.819254,5.31005 0.780085,-2.47711 2.477112,-5.31005 2.819254,-5.31005 z"
           style="font-style:normal;font-variant:normal;font-weight:bold;font-stretch:normal;font-size:13.6857px;font-family:'Dancing Script';-inkscape-font-specification:'Dancing Script Bold';font-variant-ligatures:normal;font-variant-caps:normal;font-variant-numeric:normal;font-variant-east-asian:normal;fill:#361c00;fill-opacity:1;stroke:none;stroke-width:0.332369;stroke-linejoin:round;stroke-miterlimit:4;stroke-dasharray:none;stroke-opacity:1;paint-order:markers stroke fill"
           id="path12589" />
        <path
           d="m 65.759265,273.97012 c 0,-0.65691 -0.629542,-1.09486 -1.409627,-1.09486 -1.888627,0 -3.873053,2.53186 -3.873053,4.13308 0,0.80746 0.520056,1.20435 1.122227,1.20435 0.697971,0 1.259084,-0.54743 1.984427,-1.42332 0,0.56112 0.355828,1.19066 1.135913,1.19066 1.026427,0 2.107598,-1.02643 2.778197,-2.51817 l -0.260028,-0.26003 c -0.821142,1.56017 -1.697027,2.13497 -2.13497,2.13497 -0.301085,0 -0.410571,-0.26003 -0.410571,-0.49268 0,-0.60217 0.780085,-1.45069 0.780085,-1.80652 0,-0.23265 -0.314771,-0.35582 -0.492685,-0.41057 0.479,-0.0137 0.780085,-0.1916 0.780085,-0.65691 z m -1.040113,0.68428 c -0.697971,0.93063 -1.998113,2.86032 -2.83294,2.86032 -0.218971,0 -0.314771,-0.12318 -0.314771,-0.43795 0,-1.25908 1.532798,-3.69514 2.805568,-3.69514 0.465314,0 0.5748,0.34215 0.5748,0.71166 0,0.1916 -0.01369,0.32846 -0.06843,0.50637 -0.01369,0 -0.04106,-0.0137 -0.05474,-0.0137 -0.04106,0 -0.08211,0.0274 -0.109485,0.0684 z"
           style="font-style:normal;font-variant:normal;font-weight:bold;font-stretch:normal;font-size:13.6857px;font-family:'Dancing Script';-inkscape-font-specification:'Dancing Script Bold';font-variant-ligatures:normal;font-variant-caps:normal;font-variant-numeric:normal;font-variant-east-asian:normal;fill:#361c00;fill-opacity:1;stroke:none;stroke-width:0.332369;stroke-linejoin:round;stroke-miterlimit:4;stroke-dasharray:none;stroke-opacity:1;paint-order:markers stroke fill"
           id="path12591" />
        <path
           d="m 71.685168,268.74218 c -0.01369,-0.42426 -0.191599,-0.94431 -0.561113,-0.94431 -1.245399,0 -4.352053,6.25436 -4.352053,8.95045 0,1.13591 0.547428,1.82019 1.587541,1.82019 1.012742,0 1.765455,-0.65691 2.285512,-1.47805 0.0958,0.0137 0.1916,0.0137 0.2874,0.0137 1.08117,0 1.683341,-0.5748 2.148655,-1.65597 l -0.205286,-0.2874 c -0.287399,0.58849 -0.807456,1.51912 -1.765455,1.51912 -0.109486,0 -0.150543,-0.0137 -0.246343,-0.0137 0.273714,-0.58848 0.410571,-1.19065 0.410571,-1.7244 0,-0.93062 -0.424256,-1.36857 -1.012742,-1.36857 -0.69797,0 -1.245398,0.60217 -1.245398,1.49174 0,0.72535 0.355828,1.437 1.026427,1.80652 -0.342142,0.62954 -0.957999,1.12222 -1.436998,1.12222 -0.533743,0 -0.711657,-0.60217 -0.711657,-1.32751 0,-1.12223 0.424257,-2.38131 0.615857,-2.73714 1.697027,-0.97168 3.175082,-3.90042 3.175082,-5.18688 z m -0.643228,0.34214 c -0.01368,0.64323 -1.08117,2.88769 -2.271826,3.98254 0.615857,-1.90231 1.929684,-3.85936 2.271826,-3.98254 z m -1.354884,6.04908 c 0,-0.45162 0.1916,-0.83482 0.437942,-0.83482 0.218972,0 0.396886,0.30108 0.396886,0.95799 0,0.43795 -0.08211,0.79378 -0.246343,1.16329 -0.451628,-0.31477 -0.588485,-0.90326 -0.588485,-1.28646 z"
           style="font-style:normal;font-variant:normal;font-weight:bold;font-stretch:normal;font-size:13.6857px;font-family:'Dancing Script';-inkscape-font-specification:'Dancing Script Bold';font-variant-ligatures:normal;font-variant-caps:normal;font-variant-numeric:normal;font-variant-east-asian:normal;fill:#361c00;fill-opacity:1;stroke:none;stroke-width:0.332369;stroke-linejoin:round;stroke-miterlimit:4;stroke-dasharray:none;stroke-opacity:1;paint-order:markers stroke fill"
           id="path12593" />
        <path
           d="m 77.487906,268.81061 c -0.01369,-0.42426 -0.232657,-1.09486 -0.5748,-1.09486 -1.040113,0 -4.352053,6.1312 -4.352053,8.81359 0,0.79378 0.2874,1.45069 1.149599,1.45069 1.053799,0 2.052855,-0.99906 2.83294,-2.62766 l -0.328457,-0.17791 c -0.506371,1.08117 -1.300141,2.17603 -1.984426,2.17603 -0.355828,0 -0.588485,-0.2874 -0.588485,-0.94432 0,-0.35582 0.06843,-0.82114 0.150542,-1.28645 2.080227,-1.64229 3.69514,-5.09108 3.69514,-6.30911 z m -0.629543,0.15054 c 0,0.91694 -1.27277,3.62671 -2.819254,5.31005 0.780085,-2.47711 2.477112,-5.31005 2.819254,-5.31005 z"
           style="font-style:normal;font-variant:normal;font-weight:bold;font-stretch:normal;font-size:13.6857px;font-family:'Dancing Script';-inkscape-font-specification:'Dancing Script Bold';font-variant-ligatures:normal;font-variant-caps:normal;font-variant-numeric:normal;font-variant-east-asian:normal;fill:#361c00;fill-opacity:1;stroke:none;stroke-width:0.332369;stroke-linejoin:round;stroke-miterlimit:4;stroke-dasharray:none;stroke-opacity:1;paint-order:markers stroke fill"
           id="path12595" />
        <path
           d="m 80.211335,273.54586 c 0,-0.72534 -0.520057,-0.91694 -0.999056,-0.91694 -1.697027,0 -3.544597,2.27183 -3.544597,3.88674 0,0.94431 0.643228,1.65597 1.820198,1.65597 1.46437,0 2.942426,-1.09486 3.681454,-2.73714 l -0.273714,-0.21897 c -0.697971,1.31382 -1.970741,2.36762 -3.106654,2.36762 -1.040113,0 -1.053799,-0.87588 -1.053799,-1.06748 0,-0.17792 0.01369,-0.24634 0.02737,-0.31477 1.642284,-0.17792 3.448797,-1.27277 3.448797,-2.65503 z m -0.971685,-0.32845 c 0.164229,0 0.232657,0.0547 0.232657,0.26002 0,1.02643 -1.601227,2.1076 -2.559226,2.21709 0.3832,-1.13592 1.491741,-2.47711 2.326569,-2.47711 z"
           style="font-style:normal;font-variant:normal;font-weight:bold;font-stretch:normal;font-size:13.6857px;font-family:'Dancing Script';-inkscape-font-specification:'Dancing Script Bold';font-variant-ligatures:normal;font-variant-caps:normal;font-variant-numeric:normal;font-variant-east-asian:normal;fill:#361c00;fill-opacity:1;stroke:none;stroke-width:0.332369;stroke-linejoin:round;stroke-miterlimit:4;stroke-dasharray:none;stroke-opacity:1;paint-order:markers stroke fill"
           id="path12597" />
        <path
           d="m 87.273143,269.60438 c 0,-1.21803 -0.821142,-1.88863 -2.052855,-1.88863 -1.84757,0 -3.02454,1.49175 -3.02454,3.05191 0,0.58849 0.232657,1.01275 1.122228,1.1496 -0.109486,-0.35582 -0.150543,-0.61585 -0.150543,-0.93062 0,-1.49175 1.067484,-2.72346 2.011798,-2.72346 0.602171,0 1.053799,0.53374 1.053799,1.51911 0,2.28552 -2.600283,3.24352 -2.600283,5.39217 0,0.41057 0.123171,0.53374 0.574799,0.7664 0.218971,-0.60217 0.177914,-0.98537 0.369514,-1.61491 0.615856,-2.05286 2.696083,-2.69609 2.696083,-4.72157 z m -3.654082,8.10194 c 0.424257,0 0.821142,-0.35583 0.821142,-0.71166 0,-0.27372 -0.205286,-0.39689 -0.479,-0.39689 -0.396885,0 -0.88957,0.2874 -0.88957,0.65692 0,0.30108 0.260028,0.45163 0.547428,0.45163 z"
           style="font-style:normal;font-variant:normal;font-weight:bold;font-stretch:normal;font-size:13.6857px;font-family:'Dancing Script';-inkscape-font-specification:'Dancing Script Bold';font-variant-ligatures:normal;font-variant-caps:normal;font-variant-numeric:normal;font-variant-east-asian:normal;fill:#361c00;fill-opacity:1;stroke:none;stroke-width:0.332369;stroke-linejoin:round;stroke-miterlimit:4;stroke-dasharray:none;stroke-opacity:1;paint-order:markers stroke fill"
           id="path12599" />
      </g>
    </g>
    <g
       id="g12738">
      <g
         transform="matrix(1.1562714,0,0,1.1562714,4.1094069,-32.380663)"
         id="g7293">
        <path
           id="path1852"
           style="fill:#b8b8b8;fill-opacity:1;fill-rule:evenodd;stroke:none;stroke-width:0;stroke-linecap:butt;stroke-linejoin:round;stroke-miterlimit:4;stroke-dasharray:none;stroke-dashoffset:0;stroke-opacity:1;paint-order:markers stroke fill"
           d="m 82.244202,256.09592 a 11.67586,11.67586 0 0 0 -11.652247,11.67586 11.67586,11.67586 0 0 0 0,0.0236 v 11.65225 h 11.675858 0.02358 11.652241 v -11.67589 a 11.67586,11.67586 0 0 0 -11.675852,-11.67586 11.67586,11.67586 0 0 0 -0.02358,0 z m 0.02358,4.12089 a 7.5549686,7.5549686 0 0 1 7.554968,7.55497 V 278.074 H 74.712843 v -10.30222 a 7.5549686,7.5549686 0 0 1 7.55497,-7.55497 z"
           inkscape:connector-curvature="0" />
        <rect
           style="mix-blend-mode:normal;fill:url(#linearGradient7483);fill-opacity:1;fill-rule:evenodd;stroke:none;stroke-width:0;stroke-linecap:butt;stroke-linejoin:round;stroke-miterlimit:4;stroke-dasharray:none;stroke-dashoffset:0;stroke-opacity:1;paint-order:markers stroke fill"
           id="rect1791"
           width="27.472616"
           height="20.604462"
           x="68.531502"
           y="272.57944"
           ry="0.31284115"
           rx="0.41696936" />
      </g>
      <text
         id="text13827"
         y="303.54007"
         x="99.170174"
         style="font-weight:bold;font-size:25.4px;line-height:125%;font-family:'URW Bookman';-inkscape-font-specification:'URW Bookman Bold';text-align:center;letter-spacing:0px;word-spacing:0px;text-anchor:middle;fill:#000000;fill-opacity:1;stroke:none;stroke-width:0.264583px;stroke-linecap:butt;stroke-linejoin:miter;stroke-opacity:1"
         xml:space="preserve"><tspan
           style="fill:#000000;fill-opacity:1;stroke:none;stroke-width:0.264583px"
           y="303.54007"
           x="99.170174"
           id="tspan13825"
           sodipodi:role="line">?</tspan></text>
    </g>
  </g>
</svg>
