<?xml version="1.0" encoding="UTF-8" standalone="no"?>
<svg
   xmlns:dc="http://purl.org/dc/elements/1.1/"
   xmlns:cc="http://creativecommons.org/ns#"
   xmlns:rdf="http://www.w3.org/1999/02/22-rdf-syntax-ns#"
   xmlns:svg="http://www.w3.org/2000/svg"
   xmlns="http://www.w3.org/2000/svg"
   xmlns:xlink="http://www.w3.org/1999/xlink"
   xmlns:sodipodi="http://sodipodi.sourceforge.net/DTD/sodipodi-0.dtd"
   xmlns:inkscape="http://www.inkscape.org/namespaces/inkscape"
   width="491.94"
   height="442.51001"
   viewBox="0 0 130.15912 117.08077"
   version="1.1"
   id="svg8"
   sodipodi:docname="epilogue-conditional.svg"
   inkscape:version="1.0 (4035a4fb49, 2020-05-01)">
  <defs
     id="defs2">
    <linearGradient
       id="linearGradient3978"
       inkscape:collect="always">
      <stop
         id="stop5559"
         offset="0"
         style="stop-color:#9e9e9e;stop-opacity:1" />
      <stop
         style="stop-color:#dedede;stop-opacity:1"
         offset="0.14563419"
         id="stop7478" />
      <stop
         id="stop5561"
         offset="1"
         style="stop-color:#a7a7a7;stop-opacity:1" />
    </linearGradient>
    <linearGradient
       inkscape:collect="always"
       xlink:href="#linearGradient3978"
       id="linearGradient7483"
       gradientUnits="userSpaceOnUse"
       x1="89.625565"
       y1="159.08804"
       x2="115.3222"
       y2="159.24037"
       spreadMethod="reflect"
       gradientTransform="matrix(0.93236974,0,0,0.90178169,-15.032654,139.41897)" />
  </defs>
  <sodipodi:namedview
     units="px"
     id="base"
     pagecolor="#ffffff"
     bordercolor="#666666"
     borderopacity="1.0"
     inkscape:pageopacity="0.0"
     inkscape:pageshadow="2"
     inkscape:zoom="0.35355339"
     inkscape:cx="-519.10075"
     inkscape:cy="351.09294"
     inkscape:document-units="mm"
     inkscape:current-layer="g7293"
     showgrid="false"
     showguides="false"
     inkscape:window-width="1627"
     inkscape:window-height="1101"
     inkscape:window-x="45"
     inkscape:window-y="138"
     inkscape:window-maximized="0"
     inkscape:guide-bbox="true"
     inkscape:snap-to-guides="true"
     inkscape:snap-page="true"
     inkscape:snap-text-baseline="true"
     fit-margin-top="0"
     fit-margin-left="0"
     fit-margin-right="0"
     fit-margin-bottom="0"
     inkscape:document-rotation="0"
     inkscape:snap-intersection-paths="false"
     inkscape:object-paths="false"
     inkscape:snap-others="false"
     inkscape:object-nodes="false"
     inkscape:snap-bbox="true"
     inkscape:bbox-nodes="true">
    <sodipodi:guide
       position="204.86308,206.18602"
       orientation="0,1"
       id="guide4734"
       inkscape:locked="false" />
    <sodipodi:guide
       position="-55.432294,100.69744"
       orientation="0,1"
       id="guide4736"
       inkscape:locked="false" />
    <inkscape:grid
       type="xygrid"
       id="grid1848"
       units="px"
       spacingx="1.3229167"
       spacingy="1.3229167" />
  </sodipodi:namedview>
  <metadata
     id="metadata5">
    <rdf:RDF>
      <cc:Work
         rdf:about="">
        <dc:format>image/svg+xml</dc:format>
        <dc:type
           rdf:resource="http://purl.org/dc/dcmitype/StillImage" />
        <dc:title></dc:title>
      </cc:Work>
    </rdf:RDF>
  </metadata>
  <g
     inkscape:label="Layer 1"
     inkscape:groupmode="layer"
     id="layer1"
     transform="translate(-1.5521836e-5,-196.48805)">
    <g
       transform="matrix(1.4940787,0,0,1.4940787,-206.66805,56.56471)"
       id="g987"
       style="display:none;stroke-width:0.236117;stroke-miterlimit:4;stroke-dasharray:none">
      <path
         d="m 161.29217,139.16933 c 0,-0.34386 -0.3813,-0.57309 -0.85379,-0.57309 -1.14391,0 -2.34584,1.32528 -2.34584,2.16343 0,0.42266 0.315,0.63042 0.67972,0.63042 0.42275,0 0.7626,-0.28656 1.20193,-0.74503 0,0.29371 0.21552,0.62323 0.688,0.62323 0.62168,0 1.27653,-0.53727 1.6827,-1.31812 l -0.15749,-0.13611 c -0.49736,0.81667 -1.02785,1.11755 -1.29311,1.11755 -0.18236,0 -0.24868,-0.13612 -0.24868,-0.2579 0,-0.31521 0.47249,-0.75935 0.47249,-0.94561 0,-0.12178 -0.19066,-0.18625 -0.29842,-0.21491 0.29013,-0.007 0.47249,-0.10029 0.47249,-0.34386 z m -0.62998,0.35819 c -0.42274,0.48713 -1.21021,1.49721 -1.71586,1.49721 -0.13262,0 -0.19065,-0.0644 -0.19065,-0.22924 0,-0.65906 0.92839,-1.9342 1.69928,-1.9342 0.28183,0 0.34815,0.17909 0.34815,0.37251 0,0.1003 -0.009,0.17193 -0.0414,0.26506 -0.009,0 -0.0248,-0.007 -0.0331,-0.007 -0.0248,0 -0.0497,0.0143 -0.0663,0.0358 z"
         style="font-style:normal;font-variant:normal;font-weight:bold;font-stretch:normal;font-size:7.70592px;line-height:125%;font-family:'Dancing Script';-inkscape-font-specification:'Dancing Script, Bold';font-variant-ligatures:normal;font-variant-caps:normal;font-variant-numeric:normal;font-feature-settings:normal;text-align:center;letter-spacing:0px;word-spacing:0px;writing-mode:lr-tb;text-anchor:middle;fill:#000000;fill-opacity:1;stroke:#c6941b;stroke-width:0.236117;stroke-linecap:butt;stroke-linejoin:miter;stroke-miterlimit:4;stroke-dasharray:none;stroke-opacity:1;paint-order:stroke markers fill"
         id="path2298"
         inkscape:connector-curvature="0" />
      <path
         d="m 165.61911,139.84988 c -0.2321,0.39401 -0.43104,0.53012 -0.64655,0.53012 -0.32328,0 -0.35644,-0.30088 -0.35644,-0.50146 0,-0.60892 0.26525,-0.66623 0.26525,-0.8883 0,-0.11462 -0.0829,-0.31521 -0.35643,-0.31521 -0.24038,0 -0.40616,0.17193 -0.43103,0.81667 -0.32328,0.62324 -0.91181,1.46139 -1.3014,1.46139 -0.13263,0 -0.14921,-0.12894 -0.14921,-0.42982 0,-0.30804 0.0414,-0.64473 0.0414,-0.93128 0,-0.27222 -0.009,-0.34386 -0.27354,-0.34386 -0.29012,0 -0.3067,0.086 -0.31499,0.37251 -0.0249,0.48714 -0.0331,0.75219 -0.0331,0.85249 0,0.50862 0.13262,0.85964 0.54708,0.85964 0.53051,0 1.11075,-0.7307 1.51692,-1.37543 0.11605,0.38684 0.33986,0.66622 0.70458,0.66622 0.29012,0 0.62169,-0.18625 0.87866,-0.7092 z"
         style="font-style:normal;font-variant:normal;font-weight:bold;font-stretch:normal;font-size:7.70592px;line-height:125%;font-family:'Dancing Script';-inkscape-font-specification:'Dancing Script, Bold';font-variant-ligatures:normal;font-variant-caps:normal;font-variant-numeric:normal;font-feature-settings:normal;text-align:center;letter-spacing:0px;word-spacing:0px;writing-mode:lr-tb;text-anchor:middle;fill:#000000;fill-opacity:1;stroke:#c6941b;stroke-width:0.236117;stroke-linecap:butt;stroke-linejoin:miter;stroke-miterlimit:4;stroke-dasharray:none;stroke-opacity:1;paint-order:stroke markers fill"
         id="path2300"
         inkscape:connector-curvature="0" />
      <path
         d="m 168.38769,139.16933 c 0,-0.34386 -0.3813,-0.57309 -0.85379,-0.57309 -1.1439,0 -2.34583,1.32528 -2.34583,2.16343 0,0.42266 0.31499,0.63042 0.67971,0.63042 0.42275,0 0.76261,-0.28656 1.20193,-0.74503 0,0.29371 0.21553,0.62323 0.688,0.62323 0.62169,0 1.27654,-0.53727 1.68271,-1.31812 l -0.1575,-0.13611 c -0.49735,0.81667 -1.02785,1.11755 -1.29311,1.11755 -0.18236,0 -0.24868,-0.13612 -0.24868,-0.2579 0,-0.31521 0.47249,-0.75935 0.47249,-0.94561 0,-0.12178 -0.19066,-0.18625 -0.29841,-0.21491 0.29012,-0.007 0.47248,-0.10029 0.47248,-0.34386 z m -0.62998,0.35819 c -0.42275,0.48713 -1.21021,1.49721 -1.71585,1.49721 -0.13263,0 -0.19066,-0.0644 -0.19066,-0.22924 0,-0.65906 0.92839,-1.9342 1.69929,-1.9342 0.28183,0 0.34814,0.17909 0.34814,0.37251 0,0.1003 -0.009,0.17193 -0.0414,0.26506 -0.009,0 -0.0249,-0.007 -0.0331,-0.007 -0.0249,0 -0.0497,0.0143 -0.0663,0.0358 z"
         style="font-style:normal;font-variant:normal;font-weight:bold;font-stretch:normal;font-size:7.70592px;line-height:125%;font-family:'Dancing Script';-inkscape-font-specification:'Dancing Script, Bold';font-variant-ligatures:normal;font-variant-caps:normal;font-variant-numeric:normal;font-feature-settings:normal;text-align:center;letter-spacing:0px;word-spacing:0px;writing-mode:lr-tb;text-anchor:middle;fill:#000000;fill-opacity:1;stroke:#c6941b;stroke-width:0.236117;stroke-linecap:butt;stroke-linejoin:miter;stroke-miterlimit:4;stroke-dasharray:none;stroke-opacity:1;paint-order:stroke markers fill"
         id="path2302"
         inkscape:connector-curvature="0" />
      <path
         d="m 170.26104,138.61772 c -0.62168,0 -1.23508,1.46857 -1.23508,2.01301 0,0.35102 0.24038,0.63756 0.72944,0.63756 0.688,0 1.30969,-0.48713 1.69928,-1.33244 l -0.12434,-0.11462 c -0.48077,0.81666 -0.92838,1.09604 -1.3014,1.09604 -0.24038,0 -0.37301,-0.0716 -0.37301,-0.37967 0,-0.63041 0.85379,-1.46856 0.85379,-1.71213 0,-0.13611 -0.11606,-0.20775 -0.24868,-0.20775 z m 0.47249,-0.58026 c 0.2984,0 0.6051,-0.22924 0.6051,-0.42982 0,-0.20058 -0.15749,-0.26506 -0.35644,-0.26506 -0.30669,0 -0.66313,0.18626 -0.66313,0.4155 0,0.19342 0.20724,0.27938 0.41447,0.27938 z"
         style="font-style:normal;font-variant:normal;font-weight:bold;font-stretch:normal;font-size:7.70592px;line-height:125%;font-family:'Dancing Script';-inkscape-font-specification:'Dancing Script, Bold';font-variant-ligatures:normal;font-variant-caps:normal;font-variant-numeric:normal;font-feature-settings:normal;text-align:center;letter-spacing:0px;word-spacing:0px;writing-mode:lr-tb;text-anchor:middle;fill:#000000;fill-opacity:1;stroke:#c6941b;stroke-width:0.236117;stroke-linecap:butt;stroke-linejoin:miter;stroke-miterlimit:4;stroke-dasharray:none;stroke-opacity:1;paint-order:stroke markers fill"
         id="path2304"
         inkscape:connector-curvature="0" />
      <path
         d="m 174.12378,136.46861 c -0.009,-0.22208 -0.14091,-0.5731 -0.34814,-0.5731 -0.62998,0 -2.63595,3.20935 -2.63595,4.61344 0,0.41549 0.17406,0.75934 0.69629,0.75934 0.63826,0 1.24338,-0.52294 1.71585,-1.37542 l -0.19894,-0.0931 c -0.3067,0.56593 -0.78747,1.13903 -1.20193,1.13903 -0.21551,0 -0.35643,-0.15044 -0.35643,-0.4943 0,-0.18625 0.0414,-0.42982 0.0912,-0.67338 1.25995,-0.85965 2.23808,-2.66491 2.23808,-3.30248 z m -0.3813,0.0788 c 0,0.47997 -0.77089,1.89838 -1.70756,2.77952 0.47248,-1.29663 1.50033,-2.77952 1.70756,-2.77952 z"
         style="font-style:normal;font-variant:normal;font-weight:bold;font-stretch:normal;font-size:7.70592px;line-height:125%;font-family:'Dancing Script';-inkscape-font-specification:'Dancing Script, Bold';font-variant-ligatures:normal;font-variant-caps:normal;font-variant-numeric:normal;font-feature-settings:normal;text-align:center;letter-spacing:0px;word-spacing:0px;writing-mode:lr-tb;text-anchor:middle;fill:#000000;fill-opacity:1;stroke:#c6941b;stroke-width:0.236117;stroke-linecap:butt;stroke-linejoin:miter;stroke-miterlimit:4;stroke-dasharray:none;stroke-opacity:1;paint-order:stroke markers fill"
         id="path2306"
         inkscape:connector-curvature="0" />
      <path
         d="m 176.14634,139.16933 c 0,-0.34386 -0.38131,-0.57309 -0.85379,-0.57309 -1.14391,0 -2.34584,1.32528 -2.34584,2.16343 0,0.42266 0.31499,0.63042 0.67971,0.63042 0.42275,0 0.76261,-0.28656 1.20193,-0.74503 0,0.29371 0.21552,0.62323 0.68801,0.62323 0.62168,0 1.27653,-0.53727 1.6827,-1.31812 l -0.15749,-0.13611 c -0.49736,0.81667 -1.02787,1.11755 -1.29312,1.11755 -0.18236,0 -0.24868,-0.13612 -0.24868,-0.2579 0,-0.31521 0.47249,-0.75935 0.47249,-0.94561 0,-0.12178 -0.19066,-0.18625 -0.29841,-0.21491 0.29011,-0.007 0.47249,-0.10029 0.47249,-0.34386 z m -0.62998,0.35819 c -0.42276,0.48713 -1.21023,1.49721 -1.71586,1.49721 -0.13264,0 -0.19066,-0.0644 -0.19066,-0.22924 0,-0.65906 0.9284,-1.9342 1.69929,-1.9342 0.28183,0 0.34814,0.17909 0.34814,0.37251 0,0.1003 -0.009,0.17193 -0.0414,0.26506 -0.009,0 -0.0248,-0.007 -0.0331,-0.007 -0.0248,0 -0.0497,0.0143 -0.0663,0.0358 z"
         style="font-style:normal;font-variant:normal;font-weight:bold;font-stretch:normal;font-size:7.70592px;line-height:125%;font-family:'Dancing Script';-inkscape-font-specification:'Dancing Script, Bold';font-variant-ligatures:normal;font-variant-caps:normal;font-variant-numeric:normal;font-feature-settings:normal;text-align:center;letter-spacing:0px;word-spacing:0px;writing-mode:lr-tb;text-anchor:middle;fill:#000000;fill-opacity:1;stroke:#c6941b;stroke-width:0.236117;stroke-linecap:butt;stroke-linejoin:miter;stroke-miterlimit:4;stroke-dasharray:none;stroke-opacity:1;paint-order:stroke markers fill"
         id="path2308"
         inkscape:connector-curvature="0" />
      <path
         d="m 179.73554,136.4328 c -0.009,-0.22209 -0.11605,-0.4943 -0.33986,-0.4943 -0.75432,0 -2.63595,3.27381 -2.63595,4.68506 0,0.59459 0.33157,0.95278 0.96154,0.95278 0.6134,0 1.0693,-0.34386 1.3843,-0.77368 0.058,0.007 0.11604,0.007 0.17406,0.007 0.65485,0 1.01957,-0.30087 1.3014,-0.86681 l -0.12434,-0.15044 c -0.17406,0.30804 -0.48906,0.79517 -1.06929,0.79517 -0.0663,0 -0.0912,-0.007 -0.14921,-0.007 0.16578,-0.30805 0.24867,-0.62325 0.24867,-0.90263 0,-0.48713 -0.25696,-0.71637 -0.6134,-0.71637 -0.42274,0 -0.75431,0.3152 -0.75431,0.78084 0,0.37968 0.21552,0.75218 0.62169,0.9456 -0.20723,0.32954 -0.58024,0.58743 -0.87037,0.58743 -0.32328,0 -0.43103,-0.3152 -0.43103,-0.69487 0,-0.58743 0.25696,-1.24649 0.37301,-1.43275 1.02786,-0.50862 1.92309,-2.04166 1.92309,-2.71504 z m -0.38959,0.17908 c -0.009,0.3367 -0.65485,1.51154 -1.37601,2.08465 0.37302,-0.99577 1.16878,-2.02017 1.37601,-2.08465 z m -0.82063,3.16636 c 0,-0.23639 0.11604,-0.43698 0.26525,-0.43698 0.13263,0 0.24039,0.1576 0.24039,0.50146 0,0.22924 -0.0497,0.4155 -0.1492,0.60892 -0.27355,-0.16477 -0.35644,-0.47281 -0.35644,-0.6734 z"
         style="font-style:normal;font-variant:normal;font-weight:bold;font-stretch:normal;font-size:7.70592px;line-height:125%;font-family:'Dancing Script';-inkscape-font-specification:'Dancing Script, Bold';font-variant-ligatures:normal;font-variant-caps:normal;font-variant-numeric:normal;font-feature-settings:normal;text-align:center;letter-spacing:0px;word-spacing:0px;writing-mode:lr-tb;text-anchor:middle;fill:#000000;fill-opacity:1;stroke:#c6941b;stroke-width:0.236117;stroke-linecap:butt;stroke-linejoin:miter;stroke-miterlimit:4;stroke-dasharray:none;stroke-opacity:1;paint-order:stroke markers fill"
         id="path2310"
         inkscape:connector-curvature="0" />
      <path
         d="m 183.25015,136.46861 c -0.009,-0.22208 -0.14092,-0.5731 -0.34815,-0.5731 -0.62997,0 -2.63596,3.20935 -2.63596,4.61344 0,0.41549 0.17408,0.75934 0.69629,0.75934 0.63827,0 1.24338,-0.52294 1.71587,-1.37542 l -0.19894,-0.0931 c -0.3067,0.56593 -0.78748,1.13903 -1.20193,1.13903 -0.21553,0 -0.35644,-0.15044 -0.35644,-0.4943 0,-0.18625 0.0414,-0.42982 0.0912,-0.67338 1.25996,-0.85965 2.23808,-2.66491 2.23808,-3.30248 z m -0.38131,0.0788 c 0,0.47997 -0.77089,1.89838 -1.70757,2.77952 0.47249,-1.29663 1.50035,-2.77952 1.70757,-2.77952 z"
         style="font-style:normal;font-variant:normal;font-weight:bold;font-stretch:normal;font-size:7.70592px;line-height:125%;font-family:'Dancing Script';-inkscape-font-specification:'Dancing Script, Bold';font-variant-ligatures:normal;font-variant-caps:normal;font-variant-numeric:normal;font-feature-settings:normal;text-align:center;letter-spacing:0px;word-spacing:0px;writing-mode:lr-tb;text-anchor:middle;fill:#000000;fill-opacity:1;stroke:#c6941b;stroke-width:0.236117;stroke-linecap:butt;stroke-linejoin:miter;stroke-miterlimit:4;stroke-dasharray:none;stroke-opacity:1;paint-order:stroke markers fill"
         id="path2312"
         inkscape:connector-curvature="0" />
      <path
         d="m 184.89967,138.94726 c 0,-0.37968 -0.31498,-0.47997 -0.6051,-0.47997 -1.02785,0 -2.14689,1.18917 -2.14689,2.03449 0,0.4943 0.38959,0.86681 1.10246,0.86681 0.88694,0 1.78217,-0.5731 2.22978,-1.43274 l -0.16578,-0.11462 c -0.42275,0.68772 -1.19364,1.23932 -1.88164,1.23932 -0.62998,0 -0.63827,-0.45848 -0.63827,-0.55877 0,-0.0931 0.009,-0.12895 0.0166,-0.16477 0.9947,-0.0931 2.08886,-0.66622 2.08886,-1.38975 z m -0.58853,-0.17194 c 0.0995,0 0.14092,0.0286 0.14092,0.13612 0,0.53728 -0.96983,1.10321 -1.55007,1.16052 0.23209,-0.59459 0.90352,-1.29664 1.40915,-1.29664 z"
         style="font-style:normal;font-variant:normal;font-weight:bold;font-stretch:normal;font-size:7.70592px;line-height:125%;font-family:'Dancing Script';-inkscape-font-specification:'Dancing Script, Bold';font-variant-ligatures:normal;font-variant-caps:normal;font-variant-numeric:normal;font-feature-settings:normal;text-align:center;letter-spacing:0px;word-spacing:0px;writing-mode:lr-tb;text-anchor:middle;fill:#000000;fill-opacity:1;stroke:#c6941b;stroke-width:0.236117;stroke-linecap:butt;stroke-linejoin:miter;stroke-miterlimit:4;stroke-dasharray:none;stroke-opacity:1;paint-order:stroke markers fill"
         id="path2314"
         inkscape:connector-curvature="0" />
    </g>
    <g
       style="display:inline"
       transform="matrix(1.5771909,0,0,1.5771909,-209.27453,54.072761)"
       id="g1472">
      <path
         inkscape:transform-center-x="1.7399082e-06"
         inkscape:randomized="0"
         inkscape:rounded="0.44"
         inkscape:flatsided="false"
         sodipodi:arg2="0.62831854"
         sodipodi:arg1="0.52359878"
         sodipodi:r2="31.954927"
         sodipodi:r1="33.636768"
         sodipodi:cy="127.28869"
         sodipodi:cx="171.79019"
         sodipodi:sides="30"
         id="path4732"
         style="opacity:1;fill:#c59117;fill-opacity:1;fill-rule:evenodd;stroke:none;stroke-width:0.0669309;stroke-linecap:butt;stroke-linejoin:round;stroke-miterlimit:4;stroke-dasharray:none;stroke-dashoffset:0;stroke-opacity:1;paint-order:normal"
         sodipodi:type="star"
         d="m 200.92049,144.10707 c -0.84076,1.45625 -2.28984,0.60387 -3.27822,1.96425 -0.98837,1.36039 0.27007,2.47514 -0.85509,3.72476 -1.12516,1.24962 -2.36535,0.11459 -3.61497,1.23975 -1.24961,1.12516 -0.25044,2.4772 -1.61082,3.46558 -1.36038,0.98837 -2.33749,-0.3797 -3.79373,0.46106 -1.45625,0.84076 -0.76001,2.371 -2.29616,3.05494 -1.53615,0.68393 -2.20747,-0.8574 -3.80669,-0.33778 -1.59923,0.51962 -1.23636,2.16117 -2.88114,2.51078 -1.64478,0.34961 -1.98097,-1.29761 -3.65328,-1.12185 -1.67231,0.17577 -1.65867,1.8569 -3.3402,1.8569 -1.68152,0 -1.66788,-1.68113 -3.3402,-1.8569 -1.67231,-0.17576 -2.0085,1.47146 -3.65328,1.12185 -1.64478,-0.34961 -1.28191,-1.99116 -2.88113,-2.51078 -1.59923,-0.51962 -2.27055,1.02171 -3.80669,0.33778 -1.53615,-0.68394 -0.83992,-2.21418 -2.29616,-3.05494 -1.45625,-0.84076 -2.43335,0.52731 -3.79373,-0.46106 -1.36039,-0.98838 -0.36121,-2.34042 -1.61083,-3.46558 -1.24961,-1.12516 -2.48981,0.01 -3.61497,-1.23975 -1.12516,-1.24962 0.13329,-2.36437 -0.85509,-3.72476 -0.98837,-1.36038 -2.43745,-0.508 -3.27821,-1.96425 -0.84077,-1.45624 0.62195,-2.28499 -0.062,-3.82114 -0.68393,-1.53615 -2.27857,-1.00368 -2.79819,-2.60291 -0.51962,-1.59922 1.08344,-2.10575 0.73384,-3.75053 -0.34961,-1.64478 -2.0201,-1.45549 -2.19587,-3.1278 -0.17577,-1.67231 1.49757,-1.83448 1.49757,-3.516 0,-1.68153 -1.67334,-1.84369 -1.49757,-3.516 0.17577,-1.67231 1.84626,-1.48303 2.19587,-3.1278 0.3496,-1.64478 -1.25346,-2.15131 -0.73384,-3.75053 0.51962,-1.59923 2.11426,-1.06676 2.79819,-2.60291 0.68394,-1.53615 -0.77878,-2.3649 0.062,-3.82115 0.84076,-1.45624 2.28984,-0.60386 3.27821,-1.96425 0.98838,-1.36038 -0.27007,-2.47514 0.85509,-3.72475 1.12516,-1.24962 2.36536,-0.11459 3.61497,-1.23975 1.24962,-1.12516 0.25044,-2.4772 1.61083,-3.46558 1.36038,-0.988374 2.33749,0.3797 3.79373,-0.46106 1.45624,-0.840763 0.76001,-2.371001 2.29616,-3.054938 1.53614,-0.683938 2.20746,0.857394 3.80669,0.337775 1.59922,-0.51962 1.23636,-2.161174 2.88113,-2.510783 1.64478,-0.349608 1.98097,1.297617 3.65328,1.12185 1.67232,-0.175768 1.65868,-1.856894 3.3402,-1.856894 1.68153,0 1.66789,1.681126 3.3402,1.856894 1.67231,0.175767 2.0085,-1.471458 3.65328,-1.12185 1.64478,0.349609 1.28191,1.991163 2.88114,2.510783 1.59922,0.519619 2.27054,-1.021713 3.80669,-0.337775 1.53615,0.683938 0.83991,2.214176 2.29616,3.054938 1.45624,0.84076 2.43335,-0.527314 3.79373,0.46106 1.36038,0.98838 0.36121,2.34042 1.61082,3.46558 1.24962,1.12516 2.48981,-0.01 3.61497,1.23975 1.12516,1.24961 -0.13328,2.36437 0.85509,3.72475 0.98838,1.36039 2.43746,0.50801 3.27822,1.96425 0.84076,1.45625 -0.62196,2.285 0.062,3.82115 0.68394,1.53615 2.27857,1.00368 2.79819,2.60291 0.51962,1.59922 -1.08344,2.10575 -0.73383,3.75053 0.34961,1.64478 2.0201,1.45549 2.19586,3.1278 0.17577,1.67231 -1.49757,1.83447 -1.49757,3.516 0,1.68152 1.67334,1.84369 1.49757,3.516 -0.17576,1.67231 -1.84625,1.48302 -2.19586,3.1278 -0.34961,1.64478 1.25345,2.15131 0.73383,3.75053 -0.51962,1.59923 -2.11425,1.06676 -2.79819,2.60291 -0.68394,1.53615 0.77878,2.3649 -0.062,3.82114 z" />
      <circle
         r="30.002392"
         cy="127.28869"
         cx="171.79019"
         id="path4699"
         style="opacity:0.99;fill:#ffffac;fill-opacity:1;fill-rule:evenodd;stroke:none;stroke-width:1.36342;stroke-linecap:butt;stroke-linejoin:round;stroke-miterlimit:4;stroke-dasharray:none;stroke-dashoffset:0;stroke-opacity:1" />
      <ellipse
         ry="27.454708"
         rx="27.454704"
         cy="127.28869"
         cx="171.79019"
         id="path4701"
         style="opacity:1;fill:none;fill-opacity:1;fill-rule:evenodd;stroke:#8a5300;stroke-width:1.53524;stroke-linecap:butt;stroke-linejoin:round;stroke-miterlimit:4;stroke-dasharray:none;stroke-dashoffset:0;stroke-opacity:1" />
      <ellipse
         style="opacity:1;fill:none;fill-opacity:1;fill-rule:evenodd;stroke:#c6941b;stroke-width:0.503439;stroke-linecap:butt;stroke-linejoin:round;stroke-miterlimit:4;stroke-dasharray:none;stroke-dashoffset:0;stroke-opacity:1"
         id="ellipse4722"
         cx="171.79019"
         cy="127.28869"
         rx="25.936623"
         ry="25.936626" />
      <g
         id="g4856"
         style="fill:#a26b00;fill-opacity:1">
        <path
           sodipodi:type="star"
           style="opacity:1;fill:#a26b00;fill-opacity:1;fill-rule:evenodd;stroke:none;stroke-width:1.2985;stroke-linecap:butt;stroke-linejoin:round;stroke-miterlimit:4;stroke-dasharray:none;stroke-dashoffset:0;stroke-opacity:1"
           id="path4730"
           sodipodi:sides="5"
           sodipodi:cx="171.79019"
           sodipodi:cy="105.54191"
           sodipodi:r1="2.953217"
           sodipodi:r2="1.1517546"
           sodipodi:arg1="-1.5707963"
           sodipodi:arg2="-0.9424778"
           inkscape:flatsided="false"
           inkscape:rounded="0"
           inkscape:randomized="0"
           inkscape:transform-center-x="1.2702269e-06"
           inkscape:transform-center-y="-0.28200814"
           d="m 171.79019,102.58869 0.67699,2.02143 2.13169,0.0192 -1.71329,1.26851 0.64047,2.03329 -1.73586,-1.23745 -1.73586,1.23745 0.64048,-2.03329 -1.71329,-1.26851 2.13169,-0.0192 z" />
        <path
           inkscape:transform-center-y="-0.25970103"
           inkscape:transform-center-x="1.2721611e-06"
           inkscape:randomized="0"
           inkscape:rounded="0"
           inkscape:flatsided="false"
           sodipodi:arg2="-0.9424778"
           sodipodi:arg1="-1.5707963"
           sodipodi:r2="1.0606498"
           sodipodi:r1="2.7196147"
           sodipodi:cy="106.83625"
           sodipodi:cx="178.12129"
           sodipodi:sides="5"
           id="path4738"
           style="opacity:1;fill:#a26b00;fill-opacity:1;fill-rule:evenodd;stroke:none;stroke-width:1.19579;stroke-linecap:butt;stroke-linejoin:round;stroke-miterlimit:4;stroke-dasharray:none;stroke-dashoffset:0;stroke-opacity:1"
           sodipodi:type="star"
           d="m 178.12129,104.11664 0.62344,1.86153 1.96307,0.0177 -1.57777,1.16817 0.58981,1.87245 -1.59855,-1.13956 -1.59855,1.13956 0.58981,-1.87245 -1.57777,-1.16817 1.96308,-0.0177 z" />
        <path
           sodipodi:type="star"
           style="opacity:1;fill:#a26b00;fill-opacity:1;fill-rule:evenodd;stroke:none;stroke-width:1.19579;stroke-linecap:butt;stroke-linejoin:round;stroke-miterlimit:4;stroke-dasharray:none;stroke-dashoffset:0;stroke-opacity:1"
           id="path4742"
           sodipodi:sides="5"
           sodipodi:cx="165.45909"
           sodipodi:cy="106.83625"
           sodipodi:r1="2.7196147"
           sodipodi:r2="1.0606498"
           sodipodi:arg1="-1.5707963"
           sodipodi:arg2="-0.9424778"
           inkscape:flatsided="false"
           inkscape:rounded="0"
           inkscape:randomized="0"
           inkscape:transform-center-x="1.2721611e-06"
           inkscape:transform-center-y="-0.25970103"
           d="m 165.45909,104.11664 0.62344,1.86153 1.96307,0.0177 -1.57777,1.16817 0.58981,1.87245 -1.59855,-1.13956 -1.59855,1.13956 0.58981,-1.87245 -1.57777,-1.16817 1.96308,-0.0177 z" />
        <path
           inkscape:transform-center-y="-0.28200814"
           inkscape:transform-center-x="1.2702269e-06"
           inkscape:randomized="0"
           inkscape:rounded="0"
           inkscape:flatsided="false"
           sodipodi:arg2="-0.9424778"
           sodipodi:arg1="-1.5707963"
           sodipodi:r2="1.1517546"
           sodipodi:r1="2.953217"
           sodipodi:cy="148.6312"
           sodipodi:cx="171.79019"
           sodipodi:sides="5"
           id="path4740"
           style="opacity:1;fill:#a26b00;fill-opacity:1;fill-rule:evenodd;stroke:none;stroke-width:1.2985;stroke-linecap:butt;stroke-linejoin:round;stroke-miterlimit:4;stroke-dasharray:none;stroke-dashoffset:0;stroke-opacity:1"
           sodipodi:type="star"
           d="m 171.79019,145.67798 0.67699,2.02143 2.13169,0.0192 -1.71329,1.26851 0.64047,2.03329 -1.73586,-1.23745 -1.73586,1.23745 0.64048,-2.03329 -1.71329,-1.26851 2.13169,-0.0192 z" />
        <path
           sodipodi:type="star"
           style="opacity:1;fill:#a26b00;fill-opacity:1;fill-rule:evenodd;stroke:none;stroke-width:1.19579;stroke-linecap:butt;stroke-linejoin:round;stroke-miterlimit:4;stroke-dasharray:none;stroke-dashoffset:0;stroke-opacity:1"
           id="path4744"
           sodipodi:sides="5"
           sodipodi:cx="178.12129"
           sodipodi:cy="147.71455"
           sodipodi:r1="2.7196147"
           sodipodi:r2="1.0606498"
           sodipodi:arg1="-1.5707963"
           sodipodi:arg2="-0.9424778"
           inkscape:flatsided="false"
           inkscape:rounded="0"
           inkscape:randomized="0"
           inkscape:transform-center-x="1.2721611e-06"
           inkscape:transform-center-y="-0.25970103"
           d="m 178.12129,144.99494 0.62344,1.86153 1.96307,0.0177 -1.57777,1.16816 0.58981,1.87246 -1.59855,-1.13957 -1.59855,1.13957 0.58981,-1.87246 -1.57777,-1.16816 1.96308,-0.0177 z" />
        <path
           inkscape:transform-center-y="-0.25970103"
           inkscape:transform-center-x="1.2721611e-06"
           inkscape:randomized="0"
           inkscape:rounded="0"
           inkscape:flatsided="false"
           sodipodi:arg2="-0.9424778"
           sodipodi:arg1="-1.5707963"
           sodipodi:r2="1.0606498"
           sodipodi:r1="2.7196147"
           sodipodi:cy="147.71455"
           sodipodi:cx="165.45909"
           sodipodi:sides="5"
           id="path4746"
           style="opacity:1;fill:#a26b00;fill-opacity:1;fill-rule:evenodd;stroke:none;stroke-width:1.19579;stroke-linecap:butt;stroke-linejoin:round;stroke-miterlimit:4;stroke-dasharray:none;stroke-dashoffset:0;stroke-opacity:1"
           sodipodi:type="star"
           d="m 165.45909,144.99494 0.62344,1.86153 1.96307,0.0177 -1.57777,1.16816 0.58981,1.87246 -1.59855,-1.13957 -1.59855,1.13957 0.58981,-1.87246 -1.57777,-1.16816 1.96308,-0.0177 z" />
      </g>
      <g
         id="text4726"
         style="font-style:normal;font-variant:normal;font-weight:normal;font-stretch:normal;font-size:7.58026px;line-height:125%;font-family:'Hyde BRK';-inkscape-font-specification:'Hyde BRK';font-variant-ligatures:normal;font-variant-caps:normal;font-variant-numeric:normal;font-feature-settings:normal;text-align:center;letter-spacing:0px;word-spacing:0px;writing-mode:lr-tb;text-anchor:middle;fill:#442400;fill-opacity:1;stroke:#442400;stroke-width:0.165754;stroke-linecap:round;stroke-linejoin:round;stroke-miterlimit:4;stroke-dasharray:none;stroke-opacity:1"
         transform="matrix(1.1057657,0,0,0.90435074,-0.00165761,0)"
         aria-label="SPNatI">
        <path
           inkscape:connector-curvature="0"
           id="path2317"
           style="font-style:normal;font-variant:normal;font-weight:600;font-stretch:normal;font-size:7.58026px;font-family:'URW Bookman';-inkscape-font-specification:'URW Bookman Semi-Bold';font-variant-ligatures:normal;font-variant-caps:normal;font-variant-numeric:normal;font-feature-settings:normal;text-align:center;writing-mode:lr-tb;text-anchor:middle;fill:#442400;fill-opacity:1;stroke:#442400;stroke-width:0.165754;stroke-linecap:round;stroke-linejoin:round;stroke-miterlimit:4;stroke-dasharray:none;stroke-opacity:1"
           d="m 145.67251,125.54997 c -0.30321,-0.21225 -0.77318,-0.34111 -1.22042,-0.34111 -1.12946,0 -1.94813,0.6898 -1.94813,1.65249 0,0.47756 0.21225,0.89447 0.5761,1.12946 0.26531,0.16677 0.41692,0.21983 1.31139,0.43966 l 0.75045,0.1895 c 0.56852,0.14403 0.7277,0.25773 0.7277,0.5382 0,0.39418 -0.39417,0.67465 -0.95511,0.67465 -0.53062,0 -1.06124,-0.23499 -1.44025,-0.62917 -0.20467,-0.2274 -0.34869,-0.41691 -0.54578,-0.77318 l -0.56852,0.1895 0.62916,1.93297 h 0.44724 l 0.10612,-0.37143 c 0.31837,0.23499 0.84141,0.38659 1.35687,0.38659 1.23558,0 2.14521,-0.77318 2.14521,-1.81926 0,-0.46998 -0.20466,-0.88689 -0.55336,-1.1143 -0.2274,-0.1516 -0.43207,-0.22741 -1.08397,-0.40175 l -0.68981,-0.18193 c -0.0152,-0.008 -0.15918,-0.0379 -0.37143,-0.0834 -0.14403,-0.0303 -0.28047,-0.0758 -0.39418,-0.12887 -0.18192,-0.0758 -0.27288,-0.20466 -0.27288,-0.36385 0,-0.31079 0.34869,-0.53062 0.83382,-0.53062 0.43208,0 0.90206,0.20467 1.19011,0.51546 0.12886,0.13644 0.2274,0.25773 0.46997,0.59126 l 0.54578,-0.20467 -0.5003,-1.53879 h -0.45481 z" />
        <path
           inkscape:connector-curvature="0"
           id="path2319"
           style="font-style:normal;font-variant:normal;font-weight:600;font-stretch:normal;font-size:7.58026px;font-family:'URW Bookman';-inkscape-font-specification:'URW Bookman Semi-Bold';font-variant-ligatures:normal;font-variant-caps:normal;font-variant-numeric:normal;font-feature-settings:normal;text-align:center;writing-mode:lr-tb;text-anchor:middle;fill:#442400;fill-opacity:1;stroke:#442400;stroke-width:0.165754;stroke-linecap:round;stroke-linejoin:round;stroke-miterlimit:4;stroke-dasharray:none;stroke-opacity:1"
           d="m 149.34894,128.37741 h 0.72013 c 1.38718,0 2.12247,-0.53062 2.12247,-1.53122 0,-0.50029 -0.21225,-0.94753 -0.59126,-1.21284 -0.33353,-0.24257 -0.72771,-0.32595 -1.52363,-0.32595 h -2.72132 v 0.62158 l 0.15161,0.0152 c 0.43965,0.0606 0.52304,0.15919 0.51546,0.63674 v 2.61519 c 0.008,0.47756 -0.0758,0.5761 -0.51546,0.63675 l -0.15161,0.0152 v 0.62158 h 2.66067 v -0.62158 l -0.1516,-0.0152 c -0.43966,-0.0607 -0.52304,-0.15919 -0.51546,-0.63675 z m 0,-1.81927 c 0,-0.27289 0.008,-0.35627 0.0531,-0.41691 0.0531,-0.0834 0.22741,-0.13645 0.4624,-0.13645 0.52304,0 0.87173,0.33354 0.87173,0.81867 0,0.56852 -0.40933,0.87931 -1.13704,0.87931 -0.0758,0 -0.12886,0 -0.25015,-0.0152 z" />
        <path
           inkscape:connector-curvature="0"
           id="path2321"
           style="font-style:normal;font-variant:normal;font-weight:600;font-stretch:normal;font-size:7.58026px;font-family:'URW Bookman';-inkscape-font-specification:'URW Bookman Semi-Bold';font-variant-ligatures:normal;font-variant-caps:normal;font-variant-numeric:normal;font-feature-settings:normal;text-align:center;writing-mode:lr-tb;text-anchor:middle;fill:#442400;fill-opacity:1;stroke:#442400;stroke-width:0.165754;stroke-linecap:round;stroke-linejoin:round;stroke-miterlimit:4;stroke-dasharray:none;stroke-opacity:1"
           d="m 154.6248,125.3074 h -2.23618 v 0.62158 l 0.15161,0.0152 c 0.43965,0.0606 0.52304,0.15919 0.51546,0.63674 v 2.61519 c 0.008,0.47756 -0.0758,0.5761 -0.51546,0.63675 l -0.15161,0.0152 v 0.62158 h 2.03909 v -0.62158 l -0.1516,-0.0152 c -0.43966,-0.0607 -0.52304,-0.15919 -0.51546,-0.63675 v -2.71373 l 2.35746,3.98722 h 0.93996 v -3.88868 c -0.008,-0.47755 0.0758,-0.5761 0.51545,-0.63674 l 0.15161,-0.0152 v -0.62158 h -2.03909 v 0.62158 l 0.1516,0.0152 c 0.43966,0.0606 0.52304,0.15919 0.51546,0.63674 v 1.70556 z" />
        <path
           inkscape:connector-curvature="0"
           id="path2323"
           style="font-style:normal;font-variant:normal;font-weight:600;font-stretch:normal;font-size:7.58026px;font-family:'URW Bookman';-inkscape-font-specification:'URW Bookman Semi-Bold';font-variant-ligatures:normal;font-variant-caps:normal;font-variant-numeric:normal;font-feature-settings:normal;text-align:center;writing-mode:lr-tb;text-anchor:middle;fill:#442400;fill-opacity:1;stroke:#442400;stroke-width:0.165754;stroke-linecap:round;stroke-linejoin:round;stroke-miterlimit:4;stroke-dasharray:none;stroke-opacity:1"
           d="m 161.78814,129.63573 c -0.13645,0.12886 -0.13645,0.12886 -0.18951,0.12886 -0.0531,0 -0.1137,-0.0379 -0.12886,-0.0834 -0.0227,-0.0531 -0.0227,-0.0531 -0.0303,-0.34111 v -1.49331 c 0,-0.40176 -0.0834,-0.64432 -0.28805,-0.84141 -0.26531,-0.25773 -0.76561,-0.40934 -1.36445,-0.40934 -0.97785,0 -1.68282,0.43966 -1.68282,1.04608 0,0.32595 0.24257,0.56852 0.56094,0.56852 0.37143,0 0.59126,-0.21983 0.58368,-0.58368 0,-0.10612 0.0152,-0.15919 0.0682,-0.19709 0.091,-0.0834 0.25773,-0.13644 0.41692,-0.13644 0.32595,0 0.47755,0.12886 0.47755,0.40933 v 0.3866 c -0.41691,0.0379 -0.78076,0.10612 -1.10671,0.20466 -0.75803,0.22741 -1.13704,0.62917 -1.13704,1.20527 0,0.62158 0.48513,1.03849 1.20526,1.03849 0.43207,0 0.81867,-0.12886 1.20526,-0.38659 0.18193,0.23499 0.51546,0.38659 0.87173,0.38659 0.34111,0 0.62158,-0.1137 0.96269,-0.38659 z m -1.5767,-0.18193 c -0.19708,0.18193 -0.38659,0.26531 -0.59884,0.26531 -0.21224,0 -0.35627,-0.1516 -0.35627,-0.37901 0,-0.32595 0.30321,-0.52304 0.95511,-0.64432 z" />
        <path
           inkscape:connector-curvature="0"
           id="path2325"
           style="font-style:normal;font-variant:normal;font-weight:600;font-stretch:normal;font-size:7.58026px;font-family:'URW Bookman';-inkscape-font-specification:'URW Bookman Semi-Bold';font-variant-ligatures:normal;font-variant-caps:normal;font-variant-numeric:normal;font-feature-settings:normal;text-align:center;writing-mode:lr-tb;text-anchor:middle;fill:#442400;fill-opacity:1;stroke:#442400;stroke-width:0.165754;stroke-linecap:round;stroke-linejoin:round;stroke-miterlimit:4;stroke-dasharray:none;stroke-opacity:1"
           d="m 165.00975,127.30859 v -0.64432 h -1.0385 V 125.459 h -0.71254 c -0.0758,0.78077 -0.43208,1.19769 -1.09156,1.28865 v 0.59884 h 0.5761 v 1.91781 c 0,0.46239 0.0303,0.64432 0.12128,0.82625 0.16677,0.30321 0.4624,0.44723 0.90963,0.44723 0.68223,0 1.15979,-0.22741 1.59944,-0.75803 l -0.45482,-0.53819 c -0.34111,0.32595 -0.47755,0.41691 -0.67464,0.41691 -0.20467,0 -0.27289,-0.12128 -0.27289,-0.51546 v -1.83442 z" />
        <path
           inkscape:connector-curvature="0"
           id="path2327"
           style="font-style:normal;font-variant:normal;font-weight:600;font-stretch:normal;font-size:7.58026px;font-family:'URW Bookman';-inkscape-font-specification:'URW Bookman Semi-Bold';font-variant-ligatures:normal;font-variant-caps:normal;font-variant-numeric:normal;font-feature-settings:normal;text-align:center;writing-mode:lr-tb;text-anchor:middle;fill:#442400;fill-opacity:1;stroke:#442400;stroke-width:0.165754;stroke-linecap:round;stroke-linejoin:round;stroke-miterlimit:4;stroke-dasharray:none;stroke-opacity:1"
           d="m 168.36022,130.46956 v -0.62158 l -0.18193,-0.0152 c -0.43965,-0.0607 -0.52304,-0.15919 -0.51546,-0.63675 v -2.61519 c -0.008,-0.47755 0.0758,-0.5761 0.51546,-0.63674 l 0.18193,-0.0152 v -0.62158 h -2.72132 v 0.62158 l 0.18193,0.0152 c 0.43965,0.0606 0.52304,0.15919 0.51546,0.63674 v 2.61519 c 0.008,0.47756 -0.0758,0.5761 -0.51546,0.63675 l -0.18193,0.0152 v 0.62158 z" />
      </g>
      <g
         aria-label="EPILOGUE"
         transform="scale(0.92666054,1.0791438)"
         id="text965"
         style="font-style:normal;font-variant:normal;font-weight:bold;font-stretch:normal;font-size:9.71029px;line-height:125%;font-family:AustralianFlyingCorpsStencil;-inkscape-font-specification:'AustralianFlyingCorpsStencil Bold';font-variant-ligatures:normal;font-variant-caps:normal;font-variant-numeric:normal;font-feature-settings:normal;text-align:center;letter-spacing:0.182068px;word-spacing:0px;writing-mode:lr-tb;text-anchor:middle;fill:#361c00;fill-opacity:1;stroke:none;stroke-width:0.306952;stroke-linecap:butt;stroke-linejoin:miter;stroke-miterlimit:4;stroke-dasharray:none;stroke-opacity:1;paint-order:stroke markers fill">
        <path
           d="m 167.21719,115.8657 q 0,0.38841 -0.27189,0.38841 -0.16508,0 -0.33986,-0.4661 -0.24276,-0.63117 -0.43696,-0.89334 -0.38842,-0.50494 -1.039,-0.58262 v -0.81567 h 2.08771 z m -0.87393,3.09758 q 0,0.63117 -0.2816,0.63117 -0.16507,0 -0.26217,-0.29131 -0.0971,-0.29131 -0.19421,-0.59233 -0.16508,-0.35928 -0.4758,-0.4758 v -0.82538 q 0.31072,-0.11652 0.4758,-0.4758 0.0971,-0.29131 0.19421,-0.58262 0.0971,-0.30102 0.26217,-0.30102 0.2816,0 0.2816,0.67972 z m -1.53422,3.44715 h -2.39845 q -0.40783,0 -0.40783,-0.36899 0,-0.22334 0.1845,-0.35928 0.25247,-0.19421 0.29131,-0.26218 0.0388,-0.16507 0.0388,-0.38841 v -6.15632 q 0,-0.22334 -0.0388,-0.38842 -0.0388,-0.0583 -0.29131,-0.26217 -0.1845,-0.14566 -0.1845,-0.35928 0,-0.369 0.40783,-0.369 h 2.39845 z m 2.47612,-2.06829 -0.01,2.06829 h -2.14597 v -0.82537 q 0.71856,-0.0777 1.09726,-0.60204 0.20391,-0.27189 0.40783,-0.93219 0.14565,-0.48551 0.32044,-0.48551 0.33015,0 0.33015,0.77682 z"
           style="font-style:normal;font-variant:normal;font-weight:normal;font-stretch:normal;font-family:AustralianFlyingCorpsStencil;-inkscape-font-specification:AustralianFlyingCorpsStencil;fill:#361c00;fill-opacity:1;stroke:none;stroke-width:0.306952;stroke-miterlimit:4;stroke-dasharray:none;stroke-opacity:1"
           id="path3904" />
        <path
           d="m 173.73036,116.25411 q 0,1.43712 -0.71856,2.09742 -0.67972,0.64088 -2.11684,0.64088 v -0.7574 q 0.61175,-0.0388 0.61175,-1.11669 v -1.73814 q 0,-1.07784 -0.61175,-1.12639 v -0.75741 h 0.20391 q 2.63149,0 2.63149,2.75773 z m -2.51496,5.80675 q 0,0.34957 -0.4661,0.34957 h -2.58293 q -0.37871,0 -0.37871,-0.36899 0,-0.21363 0.1845,-0.34957 0.26218,-0.20392 0.30102,-0.27189 0.0291,-0.12623 0.0291,-0.38841 v -6.15632 q 0,-0.26218 -0.0291,-0.38842 -0.0388,-0.068 -0.30102,-0.26217 -0.1845,-0.14566 -0.1845,-0.35928 0,-0.369 0.40784,-0.369 h 2.39844 v 7.69055 q 0,0.27189 0.31073,0.43697 0.31073,0.16507 0.31073,0.43696 z"
           style="font-style:normal;font-variant:normal;font-weight:normal;font-stretch:normal;font-family:AustralianFlyingCorpsStencil;-inkscape-font-specification:AustralianFlyingCorpsStencil;fill:#361c00;fill-opacity:1;stroke:none;stroke-width:0.306952;stroke-miterlimit:4;stroke-dasharray:none;stroke-opacity:1"
           id="path3906" />
        <path
           d="m 177.53435,122.04144 q 0,0.36899 -0.41754,0.36899 h -2.51497 q -0.40783,0 -0.40783,-0.36899 0,-0.22334 0.1845,-0.35928 0.26218,-0.19421 0.30102,-0.26218 0.0388,-0.16507 0.0388,-0.38841 v -6.15632 q 0,-0.22334 -0.0388,-0.38842 -0.0388,-0.0583 -0.30102,-0.26217 -0.1845,-0.14566 -0.1845,-0.35928 0,-0.369 0.40783,-0.369 h 2.51497 q 0.41754,0 0.41754,0.369 0,0.21362 -0.18449,0.34957 -0.26218,0.20391 -0.31073,0.27188 -0.0388,0.25247 -0.0388,0.38842 v 6.18545 q 0,0.25247 0.0291,0.33986 0.0291,0.0874 0.28159,0.26218 0.22334,0.14565 0.22334,0.3787 z"
           style="font-style:normal;font-variant:normal;font-weight:normal;font-stretch:normal;font-family:AustralianFlyingCorpsStencil;-inkscape-font-specification:AustralianFlyingCorpsStencil;fill:#361c00;fill-opacity:1;stroke:none;stroke-width:0.306952;stroke-miterlimit:4;stroke-dasharray:none;stroke-opacity:1"
           id="path3908" />
        <path
           d="m 181.34806,113.86538 q 0,0.21362 -0.1845,0.35928 -0.26218,0.1942 -0.30102,0.26217 -0.0291,0.12624 -0.0291,0.48552 v 7.43808 h -2.40815 q -0.40783,0 -0.40783,-0.36899 0,-0.22334 0.18449,-0.35928 0.26218,-0.19421 0.30102,-0.26218 0.0388,-0.25247 0.0388,-0.38841 v -6.15632 q 0,-0.13595 -0.0388,-0.38842 -0.0388,-0.0583 -0.30102,-0.26217 -0.18449,-0.14566 -0.18449,-0.35928 0,-0.369 0.40783,-0.369 h 2.51496 q 0.40784,0 0.40784,0.369 z m 1.81582,8.54505 h -2.03916 v -0.82537 q 0.65059,-0.0486 1.00987,-0.64088 0.18449,-0.31073 0.39812,-1.07784 0.15537,-0.57291 0.32044,-0.57291 0.31073,0 0.31073,0.74769 z"
           style="font-style:normal;font-variant:normal;font-weight:normal;font-stretch:normal;font-family:AustralianFlyingCorpsStencil;-inkscape-font-specification:AustralianFlyingCorpsStencil;fill:#361c00;fill-opacity:1;stroke:none;stroke-width:0.306952;stroke-miterlimit:4;stroke-dasharray:none;stroke-opacity:1"
           id="path3910" />
        <path
           d="m 189.76444,117.95341 q 0,1.76727 -0.59232,2.95193 -0.75741,1.50509 -2.33047,1.67017 v -0.75741 q 0.46609,-0.0583 0.46609,-1.04871 v -5.63197 q 0,-0.99045 -0.46609,-1.04871 v -0.7574 q 1.57306,0.16507 2.33047,1.67017 0.59232,1.18466 0.59232,2.95193 z m -3.22381,4.6221 q -1.56336,-0.15537 -2.32076,-1.67017 -0.59233,-1.18466 -0.59233,-2.95193 0,-1.76727 0.59233,-2.95193 0.7574,-1.5051 2.32076,-1.67017 v 0.7574 q -0.32044,0.0388 -0.41754,0.42726 -0.0486,0.1942 -0.0486,0.6603 v 5.55428 q 0,0.46609 0.0486,0.6603 0.0971,0.38841 0.41754,0.42725 z"
           style="font-style:normal;font-variant:normal;font-weight:normal;font-stretch:normal;font-family:AustralianFlyingCorpsStencil;-inkscape-font-specification:AustralianFlyingCorpsStencil;fill:#361c00;fill-opacity:1;stroke:none;stroke-width:0.306952;stroke-miterlimit:4;stroke-dasharray:none;stroke-opacity:1"
           id="path3912" />
        <path
           d="m 195.79209,116.157 q 0,0.68943 -0.3787,0.68943 -0.21362,0 -0.45638,-0.68943 -0.34957,-1.00016 -0.52436,-1.30117 -0.40783,-0.71857 -1.039,-0.76712 v -0.7574 q 0.24276,0.0291 0.77683,0.25247 0.50493,0.22333 0.68943,0.22333 0.0874,0 0.25246,-0.22333 0.16508,-0.22334 0.34957,-0.22334 0.21363,0 0.2816,0.15537 0.0486,0.0971 0.0486,0.34957 z m 0.35928,2.07801 q 0,0.20391 -0.11652,0.31073 -0.15536,0.13594 -0.18449,0.21362 -0.0777,0.19421 -0.0777,0.93219 0,0.26218 0.0194,0.79624 0.0291,0.52436 0.0291,0.78654 -1.08756,1.2332 -2.42758,1.29147 v -0.78654 q 0.39812,-0.0388 0.39812,-0.71856 v -1.93235 q 0,-0.0971 -0.0388,-0.31073 -0.0291,-0.0388 -0.32044,-0.24275 -0.17478,-0.12624 -0.17478,-0.36899 0,-0.34957 0.42725,-0.34957 h 2.09742 q 0.36899,0 0.36899,0.3787 z m -3.04903,4.3405 q -1.54393,-0.19421 -2.28191,-1.6993 -0.57291,-1.17495 -0.57291,-2.9228 0,-1.74785 0.57291,-2.9228 0.73798,-1.48567 2.28191,-1.6993 v 0.7574 q -0.31073,0.0583 -0.40783,0.43697 -0.0486,0.1942 -0.0486,0.65059 v 5.55428 q 0,0.44667 0.0486,0.65059 0.0971,0.38841 0.40783,0.43696 z"
           style="font-style:normal;font-variant:normal;font-weight:normal;font-stretch:normal;font-family:AustralianFlyingCorpsStencil;-inkscape-font-specification:AustralianFlyingCorpsStencil;fill:#361c00;fill-opacity:1;stroke:none;stroke-width:0.306952;stroke-miterlimit:4;stroke-dasharray:none;stroke-opacity:1"
           id="path3914" />
        <path
           d="m 203.00441,113.8848 q 0,0.1942 -0.31073,0.44667 -0.33986,0.29131 -0.42726,0.6603 -0.0583,0.24276 -0.0583,0.83508 v 3.36948 q 0,1.36915 -0.29131,2.06829 -0.41754,1.00987 -1.55364,1.21378 v -0.87392 q 0.72827,-0.12624 1.00987,-0.76712 0.18449,-0.44667 0.18449,-1.3206 v -4.02006 q 0,-0.56319 -0.20391,-0.87392 -0.0874,-0.13595 -0.38842,-0.3787 -0.20391,-0.16508 -0.20391,-0.35928 0,-0.40784 0.39812,-0.40784 h 1.44683 q 0.39813,0 0.39813,0.40784 z m -2.91309,-0.0583 q 0,0.23305 -0.21363,0.369 -0.33986,0.23304 -0.36899,0.26217 -0.0388,0.21363 -0.0388,0.33015 v 5.64168 q 0,0.53407 0.068,0.73798 0.12624,0.36899 0.53407,0.41755 l 0.01,0.93218 q -0.61175,0.0291 -0.64088,0.0291 -1.23321,0 -1.78669,-0.69915 -0.50494,-0.64087 -0.50494,-1.91292 v -5.07848 q 0,-0.26218 -0.0291,-0.38842 -0.0486,-0.0777 -0.30102,-0.27188 -0.1845,-0.14566 -0.1845,-0.34957 0,-0.369 0.41755,-0.369 h 2.53438 q 0.50494,0 0.50494,0.34957 z"
           style="font-style:normal;font-variant:normal;font-weight:normal;font-stretch:normal;font-family:AustralianFlyingCorpsStencil;-inkscape-font-specification:AustralianFlyingCorpsStencil;fill:#361c00;fill-opacity:1;stroke:none;stroke-width:0.306952;stroke-miterlimit:4;stroke-dasharray:none;stroke-opacity:1"
           id="path3916" />
        <path
           d="m 208.70191,115.8657 q 0,0.38841 -0.27189,0.38841 -0.16508,0 -0.33986,-0.4661 -0.24276,-0.63117 -0.43697,-0.89334 -0.38841,-0.50494 -1.039,-0.58262 v -0.81567 h 2.08772 z m -0.87393,3.09758 q 0,0.63117 -0.2816,0.63117 -0.16507,0 -0.26218,-0.29131 -0.0971,-0.29131 -0.1942,-0.59233 -0.16508,-0.35928 -0.47581,-0.4758 v -0.82538 q 0.31073,-0.11652 0.47581,-0.4758 0.0971,-0.29131 0.1942,-0.58262 0.0971,-0.30102 0.26218,-0.30102 0.2816,0 0.2816,0.67972 z m -1.53423,3.44715 h -2.39844 q -0.40783,0 -0.40783,-0.36899 0,-0.22334 0.1845,-0.35928 0.25246,-0.19421 0.2913,-0.26218 0.0388,-0.16507 0.0388,-0.38841 v -6.15632 q 0,-0.22334 -0.0388,-0.38842 -0.0388,-0.0583 -0.2913,-0.26217 -0.1845,-0.14566 -0.1845,-0.35928 0,-0.369 0.40783,-0.369 h 2.39844 z m 2.47613,-2.06829 -0.01,2.06829 h -2.14598 v -0.82537 q 0.71857,-0.0777 1.09727,-0.60204 0.20391,-0.27189 0.40783,-0.93219 0.14565,-0.48551 0.32044,-0.48551 0.33015,0 0.33015,0.77682 z"
           style="font-style:normal;font-variant:normal;font-weight:normal;font-stretch:normal;font-family:AustralianFlyingCorpsStencil;-inkscape-font-specification:AustralianFlyingCorpsStencil;fill:#361c00;fill-opacity:1;stroke:none;stroke-width:0.306952;stroke-miterlimit:4;stroke-dasharray:none;stroke-opacity:1"
           id="path3918" />
      </g>
      <g
         aria-label="available"
         id="text1640"
         style="font-style:normal;font-variant:normal;font-weight:bold;font-stretch:normal;font-size:8.2641px;line-height:125%;font-family:'Dancing Script';-inkscape-font-specification:'Dancing Script Bold';font-variant-ligatures:normal;font-variant-caps:normal;font-variant-numeric:normal;font-variant-east-asian:normal;text-align:center;letter-spacing:0px;word-spacing:0px;text-anchor:middle;fill:#361c00;fill-opacity:1;stroke:none;stroke-width:0.2007;stroke-linecap:butt;stroke-linejoin:round;stroke-miterlimit:4;stroke-dasharray:none;stroke-opacity:1;paint-order:markers stroke fill">
        <path
           d="m 161.29053,139.39843 c 0,-0.39668 -0.38015,-0.66113 -0.85121,-0.66113 -1.14044,0 -2.33874,1.52886 -2.33874,2.49576 0,0.48758 0.31404,0.72724 0.67766,0.72724 0.42147,0 0.7603,-0.33057 1.19829,-0.85947 0,0.33883 0.21487,0.71898 0.68592,0.71898 0.61981,0 1.27267,-0.61981 1.67762,-1.5206 l -0.15702,-0.15702 c -0.49585,0.94211 -1.02475,1.2892 -1.2892,1.2892 -0.18181,0 -0.24792,-0.15701 -0.24792,-0.2975 0,-0.36362 0.47105,-0.876 0.47105,-1.09086 0,-0.14049 -0.19008,-0.21487 -0.29751,-0.24793 0.28924,-0.008 0.47106,-0.11569 0.47106,-0.39667 z m -0.62808,0.4132 c -0.42147,0.56196 -1.20656,1.7272 -1.71067,1.7272 -0.13222,0 -0.19007,-0.0744 -0.19007,-0.26445 0,-0.7603 0.92558,-2.23131 1.69414,-2.23131 0.28098,0 0.34709,0.2066 0.34709,0.42973 0,0.1157 -0.008,0.19834 -0.0413,0.30577 -0.008,0 -0.0248,-0.008 -0.0331,-0.008 -0.0248,0 -0.0496,0.0165 -0.0661,0.0413 z"
           style="font-style:normal;font-variant:normal;font-weight:bold;font-stretch:normal;font-size:8.2641px;font-family:'Dancing Script';-inkscape-font-specification:'Dancing Script Bold';font-variant-ligatures:normal;font-variant-caps:normal;font-variant-numeric:normal;font-variant-east-asian:normal;fill:#361c00;fill-opacity:1;stroke:none;stroke-width:0.2007;stroke-linejoin:round;stroke-miterlimit:4;stroke-dasharray:none;stroke-opacity:1;paint-order:markers stroke fill"
           id="path3921" />
        <path
           d="m 165.60438,140.18352 c -0.23139,0.45452 -0.42973,0.61154 -0.6446,0.61154 -0.3223,0 -0.35535,-0.34709 -0.35535,-0.57849 0,-0.70245 0.26445,-0.76856 0.26445,-1.02475 0,-0.13222 -0.0826,-0.36362 -0.35536,-0.36362 -0.23966,0 -0.40494,0.19834 -0.42973,0.94211 -0.3223,0.71898 -0.90905,1.68588 -1.29747,1.68588 -0.13222,0 -0.14875,-0.14876 -0.14875,-0.49585 0,-0.35536 0.0413,-0.74377 0.0413,-1.07433 0,-0.31404 -0.008,-0.39668 -0.27271,-0.39668 -0.28925,0 -0.30578,0.0992 -0.31404,0.42973 -0.0248,0.56196 -0.0331,0.86773 -0.0331,0.98343 0,0.58675 0.13223,0.99169 0.54543,0.99169 0.52891,0 1.10739,-0.84293 1.51233,-1.5867 0.1157,0.44626 0.33883,0.76856 0.70245,0.76856 0.28925,0 0.61981,-0.21487 0.876,-0.81815 z"
           style="font-style:normal;font-variant:normal;font-weight:bold;font-stretch:normal;font-size:8.2641px;font-family:'Dancing Script';-inkscape-font-specification:'Dancing Script Bold';font-variant-ligatures:normal;font-variant-caps:normal;font-variant-numeric:normal;font-variant-east-asian:normal;fill:#361c00;fill-opacity:1;stroke:none;stroke-width:0.2007;stroke-linejoin:round;stroke-miterlimit:4;stroke-dasharray:none;stroke-opacity:1;paint-order:markers stroke fill"
           id="path3923" />
        <path
           d="m 168.36459,139.39843 c 0,-0.39668 -0.38015,-0.66113 -0.85121,-0.66113 -1.14044,0 -2.33874,1.52886 -2.33874,2.49576 0,0.48758 0.31404,0.72724 0.67766,0.72724 0.42147,0 0.7603,-0.33057 1.19829,-0.85947 0,0.33883 0.21487,0.71898 0.68592,0.71898 0.61981,0 1.27268,-0.61981 1.67762,-1.5206 l -0.15702,-0.15702 c -0.49585,0.94211 -1.02475,1.2892 -1.2892,1.2892 -0.18181,0 -0.24792,-0.15701 -0.24792,-0.2975 0,-0.36362 0.47105,-0.876 0.47105,-1.09086 0,-0.14049 -0.19007,-0.21487 -0.29751,-0.24793 0.28925,-0.008 0.47106,-0.11569 0.47106,-0.39667 z m -0.62808,0.4132 c -0.42146,0.56196 -1.20655,1.7272 -1.71066,1.7272 -0.13223,0 -0.19008,-0.0744 -0.19008,-0.26445 0,-0.7603 0.92558,-2.23131 1.69414,-2.23131 0.28098,0 0.34709,0.2066 0.34709,0.42973 0,0.1157 -0.008,0.19834 -0.0413,0.30577 -0.008,0 -0.0248,-0.008 -0.0331,-0.008 -0.0248,0 -0.0496,0.0165 -0.0661,0.0413 z"
           style="font-style:normal;font-variant:normal;font-weight:bold;font-stretch:normal;font-size:8.2641px;font-family:'Dancing Script';-inkscape-font-specification:'Dancing Script Bold';font-variant-ligatures:normal;font-variant-caps:normal;font-variant-numeric:normal;font-variant-east-asian:normal;fill:#361c00;fill-opacity:1;stroke:none;stroke-width:0.2007;stroke-linejoin:round;stroke-miterlimit:4;stroke-dasharray:none;stroke-opacity:1;paint-order:markers stroke fill"
           id="path3925" />
        <path
           d="m 170.23227,138.76209 c -0.61981,0 -1.23135,1.69414 -1.23135,2.32221 0,0.40494 0.23966,0.73551 0.72724,0.73551 0.68592,0 1.30573,-0.56196 1.69414,-1.53713 l -0.12396,-0.13222 c -0.47932,0.94211 -0.92558,1.26441 -1.29746,1.26441 -0.23966,0 -0.37189,-0.0826 -0.37189,-0.438 0,-0.72724 0.8512,-1.69414 0.8512,-1.97512 0,-0.15702 -0.11569,-0.23966 -0.24792,-0.23966 z m 0.47105,-0.66939 c 0.29751,0 0.60328,-0.26445 0.60328,-0.49585 0,-0.23139 -0.15701,-0.30577 -0.35535,-0.30577 -0.30577,0 -0.66113,0.21487 -0.66113,0.47932 0,0.22313 0.2066,0.3223 0.4132,0.3223 z"
           style="font-style:normal;font-variant:normal;font-weight:bold;font-stretch:normal;font-size:8.2641px;font-family:'Dancing Script';-inkscape-font-specification:'Dancing Script Bold';font-variant-ligatures:normal;font-variant-caps:normal;font-variant-numeric:normal;font-variant-east-asian:normal;fill:#361c00;fill-opacity:1;stroke:none;stroke-width:0.2007;stroke-linejoin:round;stroke-miterlimit:4;stroke-dasharray:none;stroke-opacity:1;paint-order:markers stroke fill"
           id="path3927" />
        <path
           d="m 174.08333,136.28286 c -0.008,-0.25619 -0.14049,-0.66113 -0.34709,-0.66113 -0.62807,0 -2.62798,3.70232 -2.62798,5.32208 0,0.47932 0.17354,0.876 0.69418,0.876 0.63634,0 1.23962,-0.60328 1.71067,-1.58671 l -0.19834,-0.10743 c -0.30577,0.65286 -0.78509,1.31399 -1.19829,1.31399 -0.21487,0 -0.35536,-0.17355 -0.35536,-0.57022 0,-0.21487 0.0413,-0.49585 0.0909,-0.77683 1.25615,-0.99169 2.23131,-3.07424 2.23131,-3.80975 z m -0.38015,0.0909 c 0,0.55369 -0.76856,2.18998 -1.7024,3.20647 0.47105,-1.49581 1.4958,-3.20647 1.7024,-3.20647 z"
           style="font-style:normal;font-variant:normal;font-weight:bold;font-stretch:normal;font-size:8.2641px;font-family:'Dancing Script';-inkscape-font-specification:'Dancing Script Bold';font-variant-ligatures:normal;font-variant-caps:normal;font-variant-numeric:normal;font-variant-east-asian:normal;fill:#361c00;fill-opacity:1;stroke:none;stroke-width:0.2007;stroke-linejoin:round;stroke-miterlimit:4;stroke-dasharray:none;stroke-opacity:1;paint-order:markers stroke fill"
           id="path3929" />
        <path
           d="m 176.09976,139.39843 c 0,-0.39668 -0.38015,-0.66113 -0.8512,-0.66113 -1.14045,0 -2.33874,1.52886 -2.33874,2.49576 0,0.48758 0.31403,0.72724 0.67765,0.72724 0.42147,0 0.7603,-0.33057 1.1983,-0.85947 0,0.33883 0.21486,0.71898 0.68592,0.71898 0.6198,0 1.27267,-0.61981 1.67761,-1.5206 l -0.15702,-0.15702 c -0.49584,0.94211 -1.02475,1.2892 -1.2892,1.2892 -0.18181,0 -0.24792,-0.15701 -0.24792,-0.2975 0,-0.36362 0.47105,-0.876 0.47105,-1.09086 0,-0.14049 -0.19007,-0.21487 -0.2975,-0.24793 0.28924,-0.008 0.47105,-0.11569 0.47105,-0.39667 z m -0.62807,0.4132 c -0.42147,0.56196 -1.20656,1.7272 -1.71067,1.7272 -0.13223,0 -0.19008,-0.0744 -0.19008,-0.26445 0,-0.7603 0.92558,-2.23131 1.69414,-2.23131 0.28098,0 0.3471,0.2066 0.3471,0.42973 0,0.1157 -0.008,0.19834 -0.0413,0.30577 -0.008,0 -0.0248,-0.008 -0.0331,-0.008 -0.0248,0 -0.0496,0.0165 -0.0661,0.0413 z"
           style="font-style:normal;font-variant:normal;font-weight:bold;font-stretch:normal;font-size:8.2641px;font-family:'Dancing Script';-inkscape-font-specification:'Dancing Script Bold';font-variant-ligatures:normal;font-variant-caps:normal;font-variant-numeric:normal;font-variant-east-asian:normal;fill:#361c00;fill-opacity:1;stroke:none;stroke-width:0.2007;stroke-linejoin:round;stroke-miterlimit:4;stroke-dasharray:none;stroke-opacity:1;paint-order:markers stroke fill"
           id="path3931" />
        <path
           d="m 179.67811,136.24154 c -0.008,-0.25619 -0.1157,-0.57022 -0.33883,-0.57022 -0.75203,0 -2.62798,3.77669 -2.62798,5.40472 0,0.68592 0.33056,1.09912 0.95863,1.09912 0.61155,0 1.06607,-0.39667 1.38011,-0.89252 0.0579,0.008 0.1157,0.008 0.17355,0.008 0.65286,0 1.01648,-0.34709 1.29746,-0.99995 l -0.12396,-0.17355 c -0.17355,0.35536 -0.48758,0.91732 -1.06607,0.91732 -0.0661,0 -0.0909,-0.008 -0.14875,-0.008 0.16528,-0.35535 0.24792,-0.71897 0.24792,-1.04127 0,-0.56196 -0.25619,-0.82641 -0.61155,-0.82641 -0.42146,0 -0.75203,0.36362 -0.75203,0.90078 0,0.438 0.21487,0.86773 0.61981,1.09087 -0.2066,0.38014 -0.57849,0.67765 -0.86773,0.67765 -0.3223,0 -0.42973,-0.36362 -0.42973,-0.80162 0,-0.67765 0.25618,-1.43795 0.37188,-1.65282 1.02475,-0.58675 1.91727,-2.35526 1.91727,-3.13209 z m -0.38841,0.2066 c -0.008,0.38841 -0.65287,1.74373 -1.37184,2.40486 0.37188,-1.14871 1.16524,-2.33048 1.37184,-2.40486 z m -0.81815,3.65273 c 0,-0.27271 0.1157,-0.50411 0.26445,-0.50411 0.13223,0 0.23966,0.18181 0.23966,0.57849 0,0.26445 -0.0496,0.47932 -0.14875,0.70245 -0.27272,-0.19007 -0.35536,-0.54543 -0.35536,-0.77683 z"
           style="font-style:normal;font-variant:normal;font-weight:bold;font-stretch:normal;font-size:8.2641px;font-family:'Dancing Script';-inkscape-font-specification:'Dancing Script Bold';font-variant-ligatures:normal;font-variant-caps:normal;font-variant-numeric:normal;font-variant-east-asian:normal;fill:#361c00;fill-opacity:1;stroke:none;stroke-width:0.2007;stroke-linejoin:round;stroke-miterlimit:4;stroke-dasharray:none;stroke-opacity:1;paint-order:markers stroke fill"
           id="path3933" />
        <path
           d="m 183.18209,136.28286 c -0.008,-0.25619 -0.14049,-0.66113 -0.34709,-0.66113 -0.62807,0 -2.62799,3.70232 -2.62799,5.32208 0,0.47932 0.17355,0.876 0.69419,0.876 0.63633,0 1.23961,-0.60328 1.71067,-1.58671 l -0.19834,-0.10743 c -0.30577,0.65286 -0.78509,1.31399 -1.1983,1.31399 -0.21486,0 -0.35535,-0.17355 -0.35535,-0.57022 0,-0.21487 0.0413,-0.49585 0.0909,-0.77683 1.25615,-0.99169 2.23131,-3.07424 2.23131,-3.80975 z m -0.38015,0.0909 c 0,0.55369 -0.76856,2.18998 -1.7024,3.20647 0.47105,-1.49581 1.4958,-3.20647 1.7024,-3.20647 z"
           style="font-style:normal;font-variant:normal;font-weight:bold;font-stretch:normal;font-size:8.2641px;font-family:'Dancing Script';-inkscape-font-specification:'Dancing Script Bold';font-variant-ligatures:normal;font-variant-caps:normal;font-variant-numeric:normal;font-variant-east-asian:normal;fill:#361c00;fill-opacity:1;stroke:none;stroke-width:0.2007;stroke-linejoin:round;stroke-miterlimit:4;stroke-dasharray:none;stroke-opacity:1;paint-order:markers stroke fill"
           id="path3935" />
        <path
           d="m 184.82663,139.14224 c 0,-0.438 -0.31403,-0.5537 -0.60328,-0.5537 -1.02475,0 -2.1404,1.37184 -2.1404,2.34701 0,0.57022 0.38841,0.99995 1.09913,0.99995 0.88425,0 1.77678,-0.66112 2.22304,-1.65282 l -0.16528,-0.13222 c -0.42147,0.79335 -1.19003,1.42969 -1.87595,1.42969 -0.62808,0 -0.63634,-0.5289 -0.63634,-0.6446 0,-0.10743 0.008,-0.14876 0.0165,-0.19008 0.99169,-0.10743 2.08255,-0.76856 2.08255,-1.60323 z m -0.58675,-0.19834 c 0.0992,0 0.14049,0.0331 0.14049,0.15702 0,0.61981 -0.9669,1.27267 -1.54539,1.33878 0.2314,-0.68592 0.90079,-1.4958 1.4049,-1.4958 z"
           style="font-style:normal;font-variant:normal;font-weight:bold;font-stretch:normal;font-size:8.2641px;font-family:'Dancing Script';-inkscape-font-specification:'Dancing Script Bold';font-variant-ligatures:normal;font-variant-caps:normal;font-variant-numeric:normal;font-variant-east-asian:normal;fill:#361c00;fill-opacity:1;stroke:none;stroke-width:0.2007;stroke-linejoin:round;stroke-miterlimit:4;stroke-dasharray:none;stroke-opacity:1;paint-order:markers stroke fill"
           id="path3937" />
      </g>
    </g>
    <g
       inkscape:groupmode="layer"
       aria-label=""
       id="text1646"
       style="font-style:normal;font-variant:normal;font-weight:normal;font-stretch:normal;font-size:17.0004px;line-height:125%;font-family:Arial;-inkscape-font-specification:'Arial, Normal';font-variant-ligatures:normal;font-variant-caps:normal;font-variant-numeric:normal;font-variant-east-asian:normal;text-align:center;letter-spacing:0px;word-spacing:0px;text-anchor:middle;display:inline;mix-blend-mode:normal;fill:#41d822;fill-opacity:0.848764;stroke:none;stroke-width:0.177088px;stroke-linecap:butt;stroke-linejoin:miter;stroke-opacity:1"
       transform="matrix(3.1034985,0,0,3.1034985,-500.24803,-189.03694)" />
    <text
       xml:space="preserve"
       style="font-weight:bold;font-size:71.7023px;line-height:125%;font-family:AustralianFlyingCorpsStencil;-inkscape-font-specification:'AustralianFlyingCorpsStencil Bold';text-align:center;letter-spacing:0px;word-spacing:0px;text-anchor:middle;display:none;fill:#d82222;fill-opacity:0.819672;stroke:none;stroke-width:0.746902px;stroke-linecap:butt;stroke-linejoin:miter;stroke-opacity:1"
       x="50.000015"
       y="274.21909"
       id="text1657"><tspan
         sodipodi:role="line"
         id="tspan1655"
         x="0"
         y="0"
         style="fill:#d82222;fill-opacity:0.819672;stroke:none;stroke-width:0.746902px"></tspan></text>
    <g
       transform="matrix(1.1562714,0,0,1.1562714,4.1094069,-32.380663)"
       id="g7293">
      <path
         id="path1852"
         style="fill:#b8b8b8;fill-opacity:1;fill-rule:evenodd;stroke:none;stroke-width:0;stroke-linecap:butt;stroke-linejoin:round;stroke-miterlimit:4;stroke-dasharray:none;stroke-dashoffset:0;stroke-opacity:1;paint-order:markers stroke fill"
         d="m 82.244202,256.09592 a 11.67586,11.67586 0 0 0 -11.652247,11.67586 11.67586,11.67586 0 0 0 0,0.0236 v 11.65225 h 11.675858 0.02358 11.652241 v -11.67589 a 11.67586,11.67586 0 0 0 -11.675852,-11.67586 11.67586,11.67586 0 0 0 -0.02358,0 z m 0.02358,4.12089 a 7.5549686,7.5549686 0 0 1 7.554968,7.55497 V 278.074 H 74.712843 v -10.30222 a 7.5549686,7.5549686 0 0 1 7.55497,-7.55497 z"
         inkscape:connector-curvature="0" />
      <rect
         style="mix-blend-mode:normal;fill:url(#linearGradient7483);fill-opacity:1;fill-rule:evenodd;stroke:none;stroke-width:0;stroke-linecap:butt;stroke-linejoin:round;stroke-miterlimit:4;stroke-dasharray:none;stroke-dashoffset:0;stroke-opacity:1;paint-order:markers stroke fill"
         id="rect1791"
         width="27.472616"
         height="20.604462"
         x="68.531502"
         y="272.57944"
         ry="0.31284115"
         rx="0.41696936" />
    </g>
    <text
       id="text13827"
       y="303.54007"
       x="99.170174"
       style="font-weight:bold;font-size:25.4px;line-height:125%;font-family:'URW Bookman';-inkscape-font-specification:'URW Bookman Bold';text-align:center;letter-spacing:0px;word-spacing:0px;text-anchor:middle;fill:#000000;fill-opacity:1;stroke:none;stroke-width:0.264583px;stroke-linecap:butt;stroke-linejoin:miter;stroke-opacity:1"
       xml:space="preserve"><tspan
         style="fill:#000000;fill-opacity:1;stroke:none;stroke-width:0.264583px"
         y="303.54007"
         x="99.170174"
         id="tspan13825"
         sodipodi:role="line">?</tspan></text>
  </g>
</svg>
