<?xml version="1.0" encoding="UTF-8"?>
<svg width="491.94" height="442.51" version="1.1" viewBox="0 0 130.16 117.08" xmlns="http://www.w3.org/2000/svg">
  <path d="m107.62 84.869c-1.326 2.2968-3.6115 0.95242-5.1704 3.098-1.5588 2.1456 0.42595 3.9038-1.3486 5.8747-1.7746 1.9709-3.7306 0.18073-5.7015 1.9553-1.9709 1.7746-0.39499 3.907-2.5406 5.4659-2.1456 1.5588-3.6867-0.59886-5.9834 0.72718s-1.1987 3.7395-3.6215 4.8182c-2.4228 1.0787-3.4816-1.3523-6.0039-0.53274s-1.95 3.4086-4.5441 3.96-3.1244-2.0466-5.7619-1.7694c-2.6376 0.27721-2.616 2.9287-5.2681 2.9287-2.6521 0-2.6306-2.6515-5.2681-2.9287-2.6376-0.27722-3.1678 2.3208-5.7619 1.7694s-2.0218-3.1404-4.5441-3.96-3.5811 1.6114-6.0039 0.53274c-2.4228-1.0787-1.3247-3.4922-3.6215-4.8182-2.2968-1.326-3.8379 0.83167-5.9834-0.72718-2.1456-1.5589-0.56969-3.6913-2.5406-5.4659-1.9709-1.7746-3.9269 0.01556-5.7015-1.9553-1.7746-1.9709 0.21022-3.7291-1.3486-5.8747-1.5589-2.1456-3.8443-0.80123-5.1704-3.098-1.326-2.2968 0.98094-3.6039-0.09776-6.0267-1.0787-2.4228-3.5937-1.583-4.4133-4.1053-0.81954-2.5223 1.7088-3.3212 1.1574-5.9153-0.5514-2.5941-3.1861-2.2956-3.4633-4.9331s2.362-2.8933 2.362-5.5454c1e-6 -2.6521-2.6392-2.9078-2.362-5.5454 0.27722-2.6376 2.9119-2.339 3.4633-4.9331 0.5514-2.5941-1.9769-3.393-1.1574-5.9153 0.81954-2.5223 3.3346-1.6825 4.4133-4.1053 1.0787-2.4228-1.2283-3.7299 0.09776-6.0267 1.326-2.2968 3.6115-0.95242 5.1704-3.098 1.5589-2.1456-0.42595-3.9038 1.3486-5.8747 1.7746-1.9709 3.7306-0.18073 5.7015-1.9553 1.9709-1.7746 0.395-3.907 2.5406-5.4659s3.6867 0.59886 5.9834-0.72718c2.2968-1.326 1.1987-3.7395 3.6215-4.8182 2.4228-1.0787 3.4816 1.3523 6.0039 0.53274 2.5223-0.81954 1.95-3.4086 4.5441-3.96s3.1244 2.0466 5.7619 1.7694c2.6376-0.27722 2.616-2.9287 5.2681-2.9287s2.6306 2.6515 5.2681 2.9287c2.6376 0.27722 3.1678-2.3208 5.7619-1.7694 2.5941 0.5514 2.0218 3.1404 4.5441 3.96 2.5223 0.81954 3.5811-1.6114 6.0039-0.53274 2.4228 1.0787 1.3247 3.4922 3.6215 4.8182 2.2968 1.326 3.8379-0.83167 5.9834 0.72718 2.1456 1.5589 0.56969 3.6913 2.5406 5.4659 1.9709 1.7746 3.9269-0.01556 5.7015 1.9553 1.7746 1.9709-0.21021 3.7291 1.3486 5.8747 1.5589 2.1456 3.8443 0.80122 5.1704 3.098 1.326 2.2968-0.98095 3.6039 0.0978 6.0267 1.0787 2.4228 3.5937 1.583 4.4133 4.1053s-1.7088 3.3212-1.1574 5.9153 3.1861 2.2956 3.4633 4.9331-2.362 2.8933-2.362 5.5454 2.6392 2.9078 2.362 5.5454-2.9119 2.339-3.4633 4.9331 1.9769 3.393 1.1574 5.9153c-0.81954 2.5223-3.3346 1.6825-4.4133 4.1053-1.0787 2.4228 1.2283 3.7299-0.0978 6.0267z" fill="#c59117"/>
  <circle cx="61.671" cy="58.343" r="47.32" fill="#ffffac"/>
  <circle cx="61.671" cy="58.343" r="43.301" fill="none" stroke="#8a5300" stroke-width="2.4214"/>
  <circle cx="61.671" cy="58.343" r="40.907" fill="none" stroke="#c6941b" stroke-width=".79402"/>
  <g fill="#a26b00" fill-rule="evenodd">
    <path d="m61.671 19.387 1.0677 3.1882 3.3621 0.03027-2.7022 2.0007 1.0101 3.2069-2.7378-1.9517-2.7378 1.9517 1.0101-3.2069-2.7022-2.0007 3.3621-0.03027z"/>
    <path d="m71.657 21.797 0.98328 2.936 3.0961 0.02788-2.4884 1.8424 0.93024 2.9532-2.5212-1.7973-2.5212 1.7973 0.93025-2.9532-2.4884-1.8424 3.0961-0.02788z"/>
    <path d="m51.686 21.797 0.98328 2.936 3.0961 0.02788-2.4884 1.8424 0.93025 2.9532-2.5212-1.7973-2.5212 1.7973 0.93024-2.9532-2.4884-1.8424 3.0961-0.02788z"/>
    <path d="m61.671 87.347 1.0677 3.1882 3.3621 0.03027-2.7022 2.0007 1.0101 3.2069-2.7378-1.9517-2.7378 1.9517 1.0101-3.2069-2.7022-2.0007 3.3621-0.03027z"/>
    <path d="m71.657 86.269 0.98328 2.936 3.0961 0.02788-2.4884 1.8424 0.93024 2.9532-2.5212-1.7973-2.5212 1.7973 0.93025-2.9532-2.4884-1.8424 3.0961-0.02788z"/>
    <path d="m51.686 86.269 0.98328 2.936 3.0961 0.02788-2.4884 1.8424 0.93025 2.9532-2.5212-1.7973-2.5212 1.7973 0.93024-2.9532-2.4884-1.8424 3.0961-0.02788z"/>
  </g>
  <g fill="#442400" stroke="#442400" stroke-linecap="round" stroke-linejoin="round" stroke-width=".26143">
    <path d="m44.776 36.661c-0.5288-0.30274-1.3484-0.48653-2.1284-0.48653-1.9698 0-3.3976 0.98388-3.3976 2.357 0 0.68116 0.37017 1.2758 1.0047 1.611 0.4627 0.23787 0.7271 0.31356 2.2871 0.62711l1.3088 0.2703c0.9915 0.20543 1.2691 0.3676 1.2691 0.76765 0 0.56222-0.68744 0.96228-1.6657 0.96228-0.9254 0-1.8508-0.33518-2.5118-0.89741-0.35695-0.32435-0.60812-0.59466-0.95185-1.1028l-0.9915 0.2703 1.0973 2.7571h0.78l0.18507-0.52979c0.55523 0.33518 1.4674 0.55142 2.3664 0.55142 2.1549 0 3.7413-1.1028 3.7413-2.5949 0-0.67035-0.35692-1.265-0.96507-1.5894-0.39658-0.21623-0.75352-0.32436-1.8904-0.57302l-1.203-0.2595c-0.0265-0.01104-0.27762-0.0541-0.64778-0.11892-0.25118-0.04322-0.48913-0.1082-0.68745-0.18382-0.31727-0.1082-0.4759-0.29191-0.4759-0.51898 0-0.44328 0.60812-0.75683 1.4542-0.75683 0.75355 0 1.5732 0.29192 2.0756 0.73521 0.22472 0.19461 0.39658 0.36761 0.81962 0.84334l0.95185-0.29192-0.87253-2.1948h-0.79318z"/>
    <path d="m51.188 40.694h1.2559c2.4193 0 3.7016-0.75685 3.7016-2.184 0-0.71358-0.37017-1.3515-1.0312-1.7299-0.58167-0.34599-1.2691-0.46491-2.6572-0.46491h-4.746v0.88659l0.26442 0.02161c0.76675 0.08643 0.91218 0.22707 0.89897 0.90821v3.7301c0.01419 0.68116-0.13217 0.8217-0.89897 0.90821l-0.26442 0.02177v0.88659h4.6402v-0.88659l-0.26438-0.02177c-0.76678-0.086589-0.91218-0.22705-0.89897-0.90821zm0-2.5949c0-0.38924 0.0142-0.50817 0.09258-0.59466 0.09258-0.11892 0.39662-0.19461 0.80643-0.19461 0.91218 0 1.5203 0.47573 1.5203 1.1677 0 0.8109-0.71387 1.2542-1.983 1.2542-0.13217 0-0.22473 0-0.43627-0.02177z"/>
    <path d="m60.389 36.315h-3.8999v0.88659l0.26442 0.02161c0.76675 0.08643 0.91218 0.22707 0.89895 0.90821v3.7301c0.01419 0.68116-0.13217 0.8217-0.89895 0.90821l-0.26442 0.02177v0.88659h3.5562v-0.88659l-0.2644-0.02177c-0.76677-0.08659-0.91218-0.22705-0.89895-0.90821v-3.8707l4.1114 5.6871h1.6393v-5.5466c-0.01419-0.68114 0.13217-0.82172 0.89895-0.90821l0.2644-0.02161v-0.88659h-3.5562v0.88659l0.26438 0.02161c0.76677 0.08643 0.91218 0.22707 0.89897 0.90821v2.4327z"/>
    <path d="m72.882 42.489c-0.23797 0.18379-0.23797 0.18379-0.33052 0.18379-0.09258 0-0.19828-0.0541-0.22472-0.11892-0.03959-0.0757-0.03959-0.0757-0.05284-0.48653v-2.13c0-0.57304-0.14542-0.91901-0.50235-1.2001-0.46272-0.36761-1.3352-0.58386-2.3796-0.58386-1.7054 0-2.9348 0.62711-2.9348 1.4921 0 0.46491 0.42303 0.8109 0.97828 0.8109 0.64777 0 1.0312-0.31355 1.0179-0.83252 0-0.15141 0.0265-0.22707 0.11892-0.28112 0.15871-0.11892 0.44948-0.19461 0.72712-0.19461 0.56845 0 0.83285 0.18379 0.83285 0.58384v0.55142c-0.7271 0.0541-1.3617 0.15141-1.9301 0.29191-1.322 0.32436-1.983 0.89741-1.983 1.7191 0 0.88659 0.84607 1.4812 2.102 1.4812 0.75354 0 1.4278-0.18379 2.102-0.5514 0.31728 0.33517 0.89895 0.5514 1.5203 0.5514 0.59488 0 1.084-0.16217 1.6789-0.5514zm-2.7498-0.2595c-0.34372 0.2595-0.67422 0.37842-1.0444 0.37842-0.37015 0-0.62133-0.21623-0.62133-0.54058 0-0.46492 0.5288-0.74604 1.6657-0.91903z"/>
    <path d="m78.5 39.169v-0.91901h-1.8111v-1.7191h-1.2427c-0.13217 1.1136-0.75355 1.7083-1.9037 1.838v0.85414h1.0047v2.7354c0 0.65952 0.05284 0.91901 0.2115 1.1785 0.29085 0.43247 0.80643 0.6379 1.5864 0.6379 1.1898 0 2.0227-0.32436 2.7894-1.0812l-0.79322-0.76764c-0.5949 0.46491-0.83285 0.59465-1.1766 0.59465-0.35695 0-0.47592-0.17299-0.47592-0.73521v-2.6165z"/>
    <path d="m84.344 43.678v-0.88657l-0.31728-0.02177c-0.76675-0.08659-0.91218-0.22705-0.89897-0.90821v-3.7301c-0.01419-0.68116 0.13217-0.82172 0.89897-0.90821l0.31728-0.02177v-0.88657h-4.746v0.88657l0.31728 0.02177c0.76675 0.08643 0.91218 0.22705 0.89897 0.90821v3.7301c0.01419 0.68116-0.13217 0.8217-0.89897 0.90821l-0.31728 0.02177v0.88657z"/>
  </g>
  <g fill="#361c00">
    <path d="m35.117 54.79q0 0.66108-0.39737 0.66108-0.24126 0-0.4967-0.79331-0.3548-1.0743-0.63864-1.5205-0.56768-0.85941-1.5185-0.99163v-1.3883h3.0512zm-1.2773 5.2721q0 1.0743-0.41157 1.0743-0.24126 0-0.38318-0.49582-0.14195-0.4958-0.28383-1.0082-0.24126-0.61149-0.6954-0.80981v-1.4048q0.45414-0.19832 0.6954-0.80981 0.14195-0.49582 0.28383-0.99163 0.14195-0.51235 0.38318-0.51235 0.41157 0 0.41157 1.1569zm-2.2423 5.8671h-3.5054q-0.59605 0-0.59605-0.62804 0-0.38012 0.26964-0.61149 0.369-0.33055 0.42576-0.44623 0.05678-0.28096 0.05678-0.66108v-10.478q0-0.38012-0.05678-0.6611-0.05678-0.0992-0.42576-0.44622-0.26964-0.2479-0.26964-0.61149 0-0.62805 0.59605-0.62805h3.5054zm3.6189-3.5203-0.0142 3.5203h-3.1364v-1.4048q1.0502-0.13233 1.6037-1.0247 0.29803-0.46276 0.59605-1.5866 0.21287-0.82635 0.46833-0.82635 0.48253 0 0.48253 1.3222z"/>
    <path d="m44.636 55.451q0 2.446-1.0502 3.5698-0.99342 1.0908-3.0938 1.0908v-1.2891q0.89408-0.06609 0.89408-1.9006v-2.9583q0-1.8345-0.89408-1.9171v-1.2891h0.29801q3.846 0 3.846 4.6937zm-3.6757 9.8832q0 0.59498-0.68122 0.59498h-3.775q-0.5535 0-0.5535-0.62804 0-0.36359 0.26965-0.59496 0.38318-0.34708 0.43996-0.46276 0.04258-0.21484 0.04258-0.66108v-10.478q0-0.44624-0.04258-0.6611-0.05678-0.11576-0.43996-0.44622-0.26965-0.2479-0.26965-0.61149 0-0.62805 0.59607-0.62805h3.5054v13.089q0 0.46276 0.45414 0.74374 0.45415 0.28094 0.45415 0.74371z"/>
    <path d="m50.196 65.301q0 0.62804-0.61025 0.62804h-3.6757q-0.59605 0-0.59605-0.62804 0-0.38012 0.26964-0.61149 0.38319-0.33055 0.43996-0.44623 0.05678-0.28096 0.05678-0.66108v-10.478q0-0.38012-0.05678-0.6611-0.05678-0.0992-0.43996-0.44622-0.26964-0.2479-0.26964-0.61149 0-0.62805 0.59605-0.62805h3.6757q0.61025 0 0.61025 0.62805 0 0.36359-0.26964 0.59498-0.38318 0.34705-0.45414 0.46273-0.05678 0.42971-0.05678 0.6611v10.528q0 0.42972 0.04258 0.57845t0.41155 0.44623q0.32642 0.2479 0.32642 0.64455z"/>
    <path d="m55.769 51.385q0 0.36359-0.26965 0.61149-0.38318 0.33053-0.43994 0.44622-0.04258 0.21486-0.04258 0.82637v12.66h-3.5195q-0.59605 0-0.59605-0.62804 0-0.38012 0.26964-0.61149 0.38318-0.33055 0.43994-0.44623 0.05662-0.42971 0.05662-0.66108v-10.478q0-0.23139-0.05662-0.6611-0.05678-0.0992-0.43994-0.44622-0.26964-0.2479-0.26964-0.61149 0-0.62805 0.59605-0.62805h3.6757q0.59607 0 0.59607 0.62805zm2.6539 14.544h-2.9803v-1.4048q0.95086-0.08264 1.476-1.0908 0.26964-0.52886 0.58186-1.8345 0.22707-0.9751 0.46833-0.9751 0.45414 0 0.45414 1.2726z"/>
    <path d="m68.07 58.343q0 3.0079-0.86569 5.0242-1.107 2.5617-3.406 2.8426v-1.2891q0.6812-0.0992 0.6812-1.7849v-9.5857q0-1.6858-0.6812-1.7849v-1.2891q2.2991 0.28094 3.406 2.8426 0.86569 2.0163 0.86569 5.0242zm-4.7117 7.8669q-2.2849-0.26443-3.3918-2.8426-0.86569-2.0163-0.86569-5.0242t0.86569-5.0242q1.107-2.5617 3.3918-2.8426v1.2891q-0.46833 0.06608-0.61025 0.72721-0.07097 0.33053-0.07097 1.1238v9.4535q0 0.7933 0.07097 1.1238 0.14195 0.66108 0.61025 0.7272z"/>
    <path d="m76.88 55.286q0 1.1734-0.55347 1.1734-0.31222 0-0.66701-1.1734-0.5109-1.7023-0.76637-2.2146-0.59605-1.223-1.5185-1.3057v-1.2891q0.3548 0.04952 1.1354 0.4297 0.73797 0.38012 1.0076 0.38012 0.12775 0 0.36897-0.38012 0.24128-0.38012 0.51092-0.38012 0.31222 0 0.41155 0.26443 0.07097 0.16527 0.07097 0.59498zm0.5251 3.5368q0 0.34706-0.17029 0.52886-0.22707 0.23137-0.26964 0.36359-0.11356 0.33055-0.11356 1.5866 0 0.44624 0.02839 1.3552 0.04258 0.89247 0.04258 1.3387-1.5895 2.0989-3.548 2.1981v-1.3387q0.58186-0.06608 0.58186-1.223v-3.2889q0-0.16526-0.05662-0.52886-0.04259-0.06608-0.46833-0.41316-0.25544-0.21488-0.25544-0.62804 0-0.59496 0.62442-0.59496h3.0654q0.53929 0 0.53929 0.64455zm-4.4562 7.3876q-2.2565-0.33055-3.3351-2.8922-0.83732-1.9998-0.83732-4.9746t0.83732-4.9746q1.0786-2.5286 3.3351-2.8922v1.2891q-0.45414 0.09921-0.59605 0.74374-0.07097 0.33053-0.07097 1.1073v9.4535q0 0.76025 0.07097 1.1073 0.14195 0.66108 0.59605 0.74372z"/>
    <path d="m87.421 51.418q0 0.33053-0.45415 0.76024-0.4967 0.49581-0.62444 1.1238-0.08517 0.41318-0.08517 1.4213v5.7349q0 2.3303-0.42576 3.5203-0.61025 1.7188-2.2707 2.0659v-1.4874q1.0644-0.21486 1.476-1.3056 0.26964-0.76024 0.26964-2.2477v-6.8422q0-0.95857-0.29803-1.4874-0.12775-0.23139-0.56768-0.64455-0.29801-0.28096-0.29801-0.61149 0-0.69415 0.58186-0.69415h2.1146q0.58187 0 0.58187 0.69415zm-4.2575-0.09921q0 0.39666-0.31222 0.62805-0.49672 0.39663-0.53929 0.4462-0.05662 0.3636-0.05662 0.56192v9.6022q0 0.909 0.09936 1.256 0.1845 0.62804 0.78055 0.71068l0.01419 1.5866q-0.89409 0.04952-0.93666 0.04952-1.8024 0-2.6113-1.19-0.73797-1.0908-0.73797-3.2558v-8.6437q0-0.44624-0.04258-0.6611-0.07097-0.13217-0.43994-0.46275-0.26965-0.24792-0.26965-0.59496 0-0.62805 0.61025-0.62805h3.704q0.73798 0 0.73798 0.59498z"/>
    <path d="m95.748 54.79q0 0.66108-0.39737 0.66108-0.24126 0-0.4967-0.79331-0.3548-1.0743-0.63864-1.5205-0.56768-0.85941-1.5185-0.99163v-1.3883h3.0512zm-1.2773 5.2721q0 1.0743-0.41157 1.0743-0.24125 0-0.38318-0.49582-0.14195-0.4958-0.28383-1.0082-0.24126-0.61149-0.6954-0.80981v-1.4048q0.45414-0.19832 0.6954-0.80981 0.14195-0.49582 0.28383-0.99163 0.14195-0.51235 0.38318-0.51235 0.41157 0 0.41157 1.1569zm-2.2423 5.8671h-3.5054q-0.59605 0-0.59605-0.62804 0-0.38012 0.26965-0.61149 0.36897-0.33055 0.42573-0.44623 0.05678-0.28096 0.05678-0.66108v-10.478q0-0.38012-0.05678-0.6611-0.05662-0.0992-0.42573-0.44622-0.26965-0.2479-0.26965-0.61149 0-0.62805 0.59605-0.62805h3.5054zm3.6189-3.5203-0.0142 3.5203h-3.1364v-1.4048q1.0502-0.13233 1.6037-1.0247 0.29803-0.46276 0.59605-1.5866 0.21287-0.82635 0.46833-0.82635 0.48253 0 0.48253 1.3222z"/>
  </g>
  <path transform="scale(.26458)" d="m245.28 269.21c-3.5296 0-13.976 18.676-16.074 29.83-2.69 4.7292-5.1914 6.4297-7.3066 6.4297-1.5 0-2.3281-0.51753-2.3281-2.7422 0-4.5518 5.3281-10.603 5.3281-12.361 0-0.98286-0.72315-1.5-1.5508-1.5-2.7739 0-5.5129 5.4164-6.8535 9.9434-2.8748 4.8859-5.7975 6.7637-7.3203 6.7637-1.138 0-1.5508-0.98195-1.5508-1.8613 0-2.2759 2.9473-5.4833 2.9473-6.8281 0-0.87937-1.1888-1.3458-1.8613-1.5527 1.8105-0.04769 2.9473-0.72373 2.9473-2.4824 0-2.4828-2.3797-4.1387-5.3281-4.1387-5.7937 0-11.824 6.3054-13.891 11.916-0.69852 0.67827-1.3813 0.96484-2.0918 0.96484-2.0173 0-2.2246-2.1727-2.2246-3.6211 0-4.3967 1.6562-4.8106 1.6562-6.4141 0-0.82757-0.51719-2.2754-2.2246-2.2754-1.5 0-2.5343 1.2412-2.6895 5.8965-2.0173 4.5002-5.6899 10.551-8.1211 10.551-0.82757 0-0.93164-0.93101-0.93164-3.1035 0-2.2242 0.25977-4.6556 0.25977-6.7246 0-1.9656-0.04785-2.4824-1.707-2.4824-1.8105 0-1.915 0.62062-1.9668 2.6895-0.04826 1.095-0.07168 1.7717-0.10156 2.5684-2.8995 4.9847-5.862 6.8984-7.3984 6.8984-1.138 0-1.5508-0.98195-1.5508-1.8613 0-2.2759 2.9473-5.4833 2.9473-6.8281 0-0.87937-1.1889-1.3458-1.8613-1.5527 1.8104-0.04769 2.9473-0.72373 2.9473-2.4824 0-2.4828-2.3797-4.1387-5.3281-4.1387-7.1381 0-14.637 9.5692-14.637 15.621 0 3.0518 1.9643 4.5527 4.2402 4.5527 2.638 0 4.7586-2.0685 7.5-5.3789 0 2.1208 1.3466 4.5 4.2949 4.5 3.0817 0 6.2907-2.4542 8.752-6.2871-2e-3 0.14094-0.01171 0.44779-0.01171 0.54493 0 3.6725 0.8278 6.207 3.4141 6.207 3.3105 0 6.9303-5.2763 9.4648-9.9316 0.72415 2.7932 2.1225 4.8105 4.3984 4.8105 0.78774 0 1.6232-0.27628 2.4492-0.875-0.13439 0.64239-0.22461 1.2694-0.22461 1.8574 0 3.0518 1.9643 4.5527 4.2402 4.5527 2.6381 0 4.7586-2.0685 7.5-5.3789 0 2.1208 1.3446 4.5 4.293 4.5 2.7533 0 5.6084-1.9614 7.9414-5.1113-0.01146 0.17288-0.02735 0.35427-0.02735 0.50782 0 2.5346 1.5009 4.6035 4.5527 4.6035 3.2783 0 6.3133-2.0567 8.6484-5.7441-0.00169 0.08519-0.00977 0.17632-0.00977 0.25977 0 3.0001 1.085 5.4844 4.3438 5.4844 2.4431 0 4.8071-1.4262 6.9512-3.9453-0.00312 0.08905-0.01953 0.18387-0.01953 0.27148 0 3.0518 1.9663 4.5527 4.2422 4.5527 2.638 0 4.7585-2.0685 7.5-5.3789 0 2.1208 1.3446 4.5 4.293 4.5 2.6846 0 5.4676-1.8601 7.7676-4.873-0.00109 0.07068-0.00782 0.14734-0.00782 0.21679 0 4.2933 2.0689 6.8789 6 6.8789 3.8278 0 6.6711-2.4824 8.6367-5.5859 0.36242 0.0477 0.72576 0.04883 1.0879 0.04883 2.7553 0 4.6761-1.012 6.1816-2.9082-0.01342 0.25094-0.02734 0.50114-0.02734 0.73828 0 3.0001 1.087 5.4844 4.3457 5.4844 2.64 0 5.1874-1.6668 7.4648-4.5781 0.40272 3.0802 2.7711 5.3008 6.8105 5.3008 5.5346 0 11.121-4.1366 13.914-10.344l-1.0332-0.82813c-2.638 4.9657-7.4489 8.9492-11.742 8.9492-3.9312 0-3.9824-3.311-3.9824-4.0352 0-0.67247 0.04612-0.9308 0.10157-1.1895 6.207-0.6724 13.035-4.8109 13.035-10.035 0-2.7415-1.9649-3.4648-3.7754-3.4648-5.8626 0-12.182 7.1681-13.229 13.062-1.7181 2.6779-3.7607 4.7812-5.5996 4.7812-1.3448 0-2.2246-1.0856-2.2246-3.5684 0-1.3449 0.25838-3.1026 0.56836-4.8613 7.8623-6.2071 13.967-19.242 13.967-23.846-0.04769-1.6035-0.87874-4.1387-2.1719-4.1387-3.5024 0-13.814 18.386-16.023 29.568-1.1747 2.0449-3.0014 4.3086-5.9082 4.3086-0.4137 0-0.56987-0.04882-0.93164-0.04882 1.0345-2.2242 1.5527-4.5003 1.5527-6.5176 0-3.5174-1.6039-5.1719-3.8281-5.1719-2.6379 0-4.707 2.2765-4.707 5.6387 0 2.7415 1.3443 5.4314 3.8789 6.8281-1.2931 2.3793-3.6213 4.2402-5.4316 4.2402-2.0173 0-2.6894-2.2761-2.6894-5.0176 0-4.2415 1.6039-8.9989 2.3281-10.344 6.414-3.6725 12-14.743 12-19.605-0.04769-1.6035-0.72448-3.5684-2.1211-3.5684-4.2326 0-14.125 19.086-16.082 30.348-2.6592 4.1057-5.2668 5.7051-6.6758 5.7051-1.138 0-1.5527-0.98195-1.5527-1.8613 0-2.2759 2.9492-5.4833 2.9492-6.8281 0-0.87937-1.1909-1.3458-1.8633-1.5527 1.8104-0.04769 2.9492-0.72373 2.9492-2.4824 0-2.4828-2.3798-4.1387-5.3281-4.1387-5.8251 0-11.887 6.3726-13.922 12.006-1.7347 2.7394-3.8134 4.9082-5.6816 4.9082-1.3449 0-2.2246-1.0856-2.2246-3.5684 0-1.3449 0.25838-3.1026 0.56836-4.8613 7.8624-6.2071 13.967-19.242 13.967-23.846-0.04769-1.6035-0.87874-4.1387-2.1719-4.1387zm-0.20703 4.707c0 3.4656-4.8113 13.706-10.656 20.068 2.9483-9.3624 9.3631-20.068 10.656-20.068zm56.949 0c0 3.4656-4.8112 13.706-10.656 20.068 2.9484-9.3624 9.3631-20.068 10.656-20.068zm-21.984 0.46485c-0.0477 2.4311-4.0858 10.915-8.5859 15.053 2.3276-7.1899 7.2928-14.587 8.5859-15.053zm-52.189 5.2773c-1.9138 0-4.1387 1.3448-4.1387 3 0 1.3966 1.2928 2.0176 2.5859 2.0176 1.8622 0 3.7754-1.6552 3.7754-3.1035 0-1.4483-0.98121-1.9141-2.2227-1.9141zm83.174 10.344c0.6209 0 0.8789 0.20904 0.8789 0.98438 0 3.8794-6.0511 7.9652-9.6719 8.3789 1.4484-4.2932 5.6377-9.3633 8.793-9.3633zm-148.87 0.62109c1.7587 0 2.1738 1.2928 2.1738 2.6895 0 0.72414-0.04876 1.2416-0.25977 1.9141-0.0477 0-0.15457-0.04688-0.20703-0.04688-0.155 0-0.31093 0.10225-0.41406 0.25782-2.6385 3.5185-7.5527 10.807-10.707 10.807-0.82757 0-1.1895-0.46466-1.1895-1.6543 0-4.7588 5.793-13.967 10.604-13.967zm44.277 0c1.7587 0 2.1738 1.2928 2.1738 2.6895 0 0.72414-0.04875 1.2416-0.25976 1.9141-0.0477 0-0.15458-0.04688-0.20704-0.04688-0.15499 0-0.31093 0.10225-0.41406 0.25782v-0.00391c-2.6379 3.5174-7.5517 10.811-10.707 10.811-0.82763 0-1.1894-0.46466-1.1894-1.6543 0-4.7588 5.793-13.967 10.604-13.967zm48.416 0c1.7587 0 2.1719 1.2928 2.1719 2.6895 0 0.72414-0.0468 1.2416-0.25781 1.9141-0.0477 0-0.15517-0.04688-0.20703-0.04688-0.155 0-0.31093 0.10225-0.41406 0.25782v-0.00391c-2.638 3.5174-7.5518 10.811-10.707 10.811-0.82764 0-1.1895-0.46466-1.1895-1.6543 0-4.7588 5.793-13.967 10.604-13.967zm21.725 3.4668c0.82763 0 1.5 1.1363 1.5 3.6191 0 1.6552-0.31115 3.0019-0.93164 4.3984-1.707-1.1896-2.2227-3.4149-2.2227-4.8633 0-1.7069 0.72324-3.1543 1.6543-3.1543z" fill="#361c00"/>
</svg>
