<?xml version="1.0" encoding="UTF-8"?>
<svg version="1.1" viewBox="0 0 400 400" xmlns="http://www.w3.org/2000/svg">
  <path d="m229.12 40.715c-2.0408 0.007894-4.0935 0.067234-6.1543 0.17969-65.944 3.5984-116.49 59.974-112.89 125.92 1.3515 24.765 10.371 48.498 25.807 67.91l-33.084 37.01-23.551-21.07-26.67 29.809 23.562 21.082-25.838 28.902 29.82 26.658 25.826-28.891 23.639 21.15 26.672-29.811-23.652-21.16 33.055-36.977c0.00326 0.00143 0.0065 0.00248 0.00976 0.00391 20.979 13.236 45.554 19.621 70.322 18.27 65.944-3.5984 116.49-59.974 112.89-125.92-3.486-63.883-56.5-113.31-119.76-113.07zm0.12109 40.008c42.097-0.16276 77.376 32.728 79.695 75.238 2.3945 43.881-31.238 81.396-75.119 83.791-43.881 2.3945-81.394-31.238-83.789-75.119-2.3945-43.881 31.238-81.394 75.119-83.789 1.3713-0.074827 2.7358-0.11584 4.0938-0.12109z" fill="#ef8398" fill-rule="evenodd" style="paint-order:markers stroke fill"/>
</svg>
