<?xml version="1.0" encoding="UTF-8" standalone="no"?>
<svg
   xmlns:dc="http://purl.org/dc/elements/1.1/"
   xmlns:cc="http://creativecommons.org/ns#"
   xmlns:rdf="http://www.w3.org/1999/02/22-rdf-syntax-ns#"
   xmlns:svg="http://www.w3.org/2000/svg"
   xmlns="http://www.w3.org/2000/svg"
   xmlns:sodipodi="http://sodipodi.sourceforge.net/DTD/sodipodi-0.dtd"
   xmlns:inkscape="http://www.inkscape.org/namespaces/inkscape"
   version="1.1"
   id="svg4"
   sodipodi:docname="trophy.svg"
   width="100"
   height="92.531998"
   inkscape:version="0.92.1 r">
  <metadata
     id="metadata10">
    <rdf:RDF>
      <cc:Work
         rdf:about="">
        <dc:format>image/svg+xml</dc:format>
        <dc:type
           rdf:resource="http://purl.org/dc/dcmitype/StillImage" />
        <dc:title></dc:title>
      </cc:Work>
    </rdf:RDF>
  </metadata>
  <defs
     id="defs8" />
  <sodipodi:namedview
     pagecolor="#ffffff"
     bordercolor="#666666"
     borderopacity="1"
     objecttolerance="10"
     gridtolerance="10"
     guidetolerance="10"
     inkscape:pageopacity="0"
     inkscape:pageshadow="2"
     inkscape:window-width="1680"
     inkscape:window-height="988"
     id="namedview6"
     showgrid="false"
     inkscape:zoom="9.44"
     inkscape:cx="48.805946"
     inkscape:cy="59.64215"
     inkscape:window-x="0"
     inkscape:window-y="0"
     inkscape:window-maximized="1"
     inkscape:current-layer="svg4" />
  <path
     glyph-name="trophy"
     unicode=""
     horiz-adv-x="1664"
     d="M 28.178678,45.507634 Q 23.861091,36.055618 23.861091,23.861346 H 8.9245706 v 5.601195 q 0,4.550974 5.5136764,9.45202 5.513677,4.901044 13.740431,6.593073 z M 91.075433,29.462541 V 23.861346 H 76.13891 q 0,12.194272 -4.317587,21.646288 8.226753,-1.692029 13.740431,-6.593073 5.513679,-4.901046 5.513679,-9.45202 z m 7.468256,-7.46826 v 7.46826 q 0,4.142554 -2.421348,8.343449 -2.421346,4.200897 -6.53473,7.584953 -4.113376,3.384055 -10.093818,5.688713 -5.980443,2.304658 -12.573517,2.596387 -2.450522,3.150672 -5.542849,5.542849 -2.217138,1.983756 -3.063154,4.23007 -0.846013,2.246311 -0.846013,5.221946 0,3.150673 1.779546,5.309467 1.779547,2.158793 5.688714,2.158793 4.375934,0 7.789162,2.654735 3.413228,2.654731 3.413228,6.680589 v 3.734131 q 0,0.816842 -0.525112,1.341954 -0.525112,0.525112 -1.341952,0.525112 H 25.728155 q -0.81684,0 -1.341953,-0.525112 -0.525111,-0.525112 -0.525111,-1.341954 v -3.734131 q 0,-4.025858 3.413227,-6.680589 3.413229,-2.654735 7.789163,-2.654735 3.909167,0 5.688714,-2.158793 1.779545,-2.158794 1.779545,-5.309467 0,-2.975635 -0.846013,-5.221946 -0.846014,-2.246314 -3.063154,-4.23007 Q 35.530246,56.826715 33.079724,53.676043 26.48665,53.384314 20.506208,51.079656 14.525767,48.774998 10.412388,45.390943 6.2990105,42.006887 3.8776606,37.80599 1.4563107,33.605095 1.4563107,29.462541 v -7.46826 q 0,-2.33383 1.6336819,-3.967513 1.6336819,-1.633681 3.9675131,-1.633681 H 23.861091 v -5.601195 q 0,-3.8508207 2.742251,-6.593075 2.742252,-2.7422505 6.593074,-2.7422505 h 33.607168 q 3.850823,0 6.593074,2.7422505 2.742252,2.7422543 2.742252,6.593075 v 5.601195 h 16.803583 q 2.33383,0 3.967514,1.633681 1.633682,1.633683 1.633682,3.967513 z"
     id="path2"
     inkscape:connector-curvature="0"
     style="fill:#000000;fill-opacity:0.78039216;stroke:#000000;stroke-width:2.9126215;stroke-miterlimit:4;stroke-dasharray:none" />
</svg>
