<?xml version="1.0" encoding="UTF-8"?>
<svg version="1.1" viewBox="0 0 400 400" xmlns="http://www.w3.org/2000/svg">
  <path d="m251.83 44.9v40h34.689l-53.869 53.869a119.58 119.58 0 0 0-69.223-22.074 119.58 119.58 0 0 0-119.58 119.58 119.58 119.58 0 0 0 119.58 119.58 119.58 119.58 0 0 0 119.58-119.58 119.58 119.58 0 0 0-22.072-69.221l53.867-53.867v34.688h40.002v-74.689-28.285h-28.285-74.689zm-88.402 111.8a79.572 79.572 0 0 1 79.572 79.572 79.572 79.572 0 0 1-79.572 79.572 79.572 79.572 0 0 1-79.572-79.572 79.572 79.572 0 0 1 79.572-79.572z" fill="#7ba1e4" fill-rule="evenodd" style="paint-order:markers stroke fill"/>
</svg>
