<?xml version="1.0" encoding="UTF-8"?>
<svg width="80mm" height="55mm" version="1.1" viewBox="0 0 80 55" xmlns="http://www.w3.org/2000/svg">
  <path d="m0 0v55l80-55" fill="#1bb400" fill-rule="evenodd" stroke-linecap="round" stroke-linejoin="round" stroke-width="1.1798" style="paint-order:markers fill stroke"/>
  <path transform="scale(.26458)" d="m147.47 14.461c-0.4573 0.001308-0.90962 0.12482-1.2871 0.36719-4.4581 2.8623-1.2405 22.11 1.416 37.951 0.79881 4.7235 1.9651 11.601 4.0117 14.789l1.0293-0.29688c0.9654-10.358-0.85288-48.141-3.1914-51.783-0.44377-0.69119-1.2164-1.0295-1.9785-1.0273zm-15.125 45.805c-0.73036-0.067218-1.5692 0.094727-2.459 0.66602-2.1571 1.385-2.9524 4.1004 1.3496 10.801 0.6673 7.84 0.06843 17.503-2.5918 19.211-1.1505 0.73865-2.0873-0.40467-3.4238-2.4863-2.8402-4.4237-5.159-9.4586-5.9785-12.791-0.0534-0.24132-0.30905-1.2703-0.39257-1.4004-0.79359-1.236-2.2903-1.1952-4.0879-0.041016-1.3662 0.87714-1.619 1.5919 0.70899 7.9062 0.42837 7.626 0.28721 16.261-2.8047 18.246-2.0852 1.3388-4.1505-1.5626-4.6934-2.4082-2.5479-3.9684-3.4533-12.022-3.1777-15.23-1.1414-0.82892-3.8724-0.17716-4.5195 0.23828-1.6968 1.0894-1.1232 7.7179 0.49804 13.219-0.18445 8.0456-3.5683 16.315-9.1074 19.871-5.4646 3.5085-8.2103-0.60897-8.7949-1.5195-0.54297-0.84568-0.67947-1.2165-0.81641-1.5879 8.0854-6.3856 14.236-17.684 10.018-24.254-2.2136-3.4477-5.5303-2.6041-8.0469-0.98828-8.9159 5.7245-11.69 22.755-6.7617 30.432 2.882 4.4887 8.4334 5.7008 14.617 1.7305 5.98-3.8395 9.9708-10.854 10.928-18.623 0.10689 0.18784 0.21061 0.38773 0.32031 0.55859 2.3807 3.7079 6.7176 5.2414 9.9531 3.1641 4.3862-2.8162 4.832-10.82 4.6777-17.703 0.64977 1.3283 2.0286 3.4754 2.625 4.5625 2.441 3.4855 5.1825 5.8586 8.418 3.7812 4.6738-3.0008 5.6969-12.477 5.6582-20.445 3.1854 2.2727 6.9182 3.1837 10.082 1.1523 2.5166-1.6158 4.4746-4.8932 3.6777-10.721l-1.9922-0.097657c0.30709 5.223-0.63761 7.3901-2.3633 8.498-2.6604 1.7081-4.7921-0.50637-6.2539-2.7832-1.796-2.7973-2.1629-4.9501-2.2793-6.7129-0.08829-0.77016 0.05859-1.9668-0.48438-2.8125-0.36547-0.56922-1.2847-1.3196-2.502-1.4316zm23.146 8.8398c-0.63503-0.040141-1.3298 0.22194-2.0488 0.68359-2.3009 1.4773-3.7551 4.4323-2.7109 6.0586 1.0024 1.5613 2.7869 1.3347 4.2969 0.36524 2.1571-1.385 3.1149-4.4804 2.1543-5.9766-0.48033-0.74812-1.0564-1.0907-1.6914-1.1309zm-100.1 3.9141c1.97e-4 0.00116-1.98e-4 0.002746 0 0.003907h0.001953l-0.001953-0.003907zm0 0.003907c-3.1625 2.0313-3.6218 5.2679-3.6074 7.1875 0.015118 7.6152 7.7138 28.303 12.281 43.008-3.4943-3.5445-4.3777-4.4453-15.545-16.936-8.5756-9.5608-16.381-18.237-22.996-13.99-5.5365 3.5547-10.541 16.32-6.7402 22.24 1.5454 2.407 4.2246 3.2588 8.4668 0.53516-1.0162-0.63374-2.0134-1.5548-2.6816-2.5957-2.4224-3.773-3.0987-12.892 1-15.523 0.79095-0.50783 1.1019-0.33999 1.5195 0.31055 0.66829 1.0409 1.0298 2.553 1.125 2.8594 8.4916 31.572 11.555 45.039 14.119 55.518 5.4646-3.5085 3.6536-11.072-8.4082-53.582 5.3875 5.5442 26.68 27.794 30.627 31.412 3.9907 3.685 6.9709 3.4262 10.494 1.1641-6.5571-10.213-17.086-46.536-19.654-61.607zm31.42 17.039c0.41999-0.040875 0.7725 0.20068 1.1641 0.81055 3.1325 4.8789-1.9807 15.42-6.6797 19.172-1.4533-6.6919 0.27818-16.807 4.6641-19.623 0.32356-0.20774 0.59957-0.33485 0.85156-0.35938z" fill="#fff" stroke-width="3.7795"/>
</svg>
