<?xml version="1.0" encoding="UTF-8"?>
<svg width="77.465mm" height="57.488mm" version="1.1" viewBox="0 0 77.465 57.488" xmlns="http://www.w3.org/2000/svg">
  <g transform="translate(-34.745 -103.14)">
    <path transform="matrix(1.3267 -.29981 .20839 .92214 -46.551 32.022)" d="m88.168 139.3 4.1136 9.1945-10.348-2.3857-2.3125 12.689-8.5225-8.9902-6.4943 10.266-2.5762-13.211-10.648 7.2467 3.3692-12.252-11.95 0.73213 6.8846-7.1496-7.9274-8.7842 8.4095-2.4874-3.8287-11.597 9.809 5.3525 2.372-14.922 6.8324 9.3591 8.1808-10.948 3.0597 13.189 10.164-6.8247-3.3655 12.165 12.684-2.0309-9.1141 10.085 11.41 5.1958z" fill="#1bb400" style="paint-order:markers fill stroke"/>
    <g transform="matrix(1.029 -.21545 .19492 .93099 0 0)" fill="#fff" aria-label="New!">
      <path d="m35.307 142.52c-0.94618 0-1.4838 0.68813-1.7418 1.1397-1.0322 1.7848-2.2149 7.7845-3.2471 11.913-0.25805-1.3548-0.32256-1.6988-0.98919-6.3007-0.5161-3.5267-0.98919-6.7308-2.9676-6.7308-1.6558 0-4.4514 2.2364-4.4514 4.1933 0 0.79566 0.45159 1.3978 1.7203 1.3978-0.12902-0.30106-0.21504-0.66663-0.21504-1.0107 0-1.2472 1.0967-3.4837 2.3225-3.4837 0.23655 0 0.27956 0.086 0.27956 0.30105 0 0.34407-0.12902 0.75265-0.15053 0.83867-2.4945 8.6662-3.6772 12.279-4.5589 15.117 1.6343 0 2.2794-2.0429 5.5051-13.806 0.38708 2.1074 1.8709 10.516 2.2149 11.956 0.34407 1.4623 1.0107 1.8494 2.0644 1.8494 0-3.3762 2.7095-13.462 4.2148-17.375z"/>
      <path d="m40.941 151.7c0-1.1397-0.81716-1.4408-1.5698-1.4408-2.6665 0-5.5696 3.5697-5.5696 6.1072 0 1.4838 1.0107 2.602 2.8601 2.602 2.301 0 4.6234-1.7203 5.7846-4.3008l-0.43008-0.34407c-1.0967 2.0644-3.0966 3.7202-4.8815 3.7202-1.6343 0-1.6558-1.3763-1.6558-1.6773 0-0.27955 0.02151-0.38707 0.04301-0.4946 2.5805-0.27955 5.4191-1.9999 5.4191-4.1718zm-1.5268-0.5161c0.25805 0 0.36557 0.086 0.36557 0.40858 0 1.6128-2.516 3.3116-4.0213 3.4837 0.60212-1.7848 2.344-3.8923 3.6557-3.8923z"/>
      <path d="m55.564 154.41c-0.64513 1.2688-1.1397 1.6343-1.6558 1.6343-0.79566 0-0.94618-0.83867-0.94618-1.5913 0-0.92468 0.21504-1.4838 0.43008-1.9139 0.08602-0.19353 0.27956-0.45158 0.27956-0.73114 0-0.30106-0.23655-0.92468-0.94618-0.92468-0.64513 0-1.1827 0.5161-1.1827 2.731-0.92468 1.9354-2.3655 4.1073-3.1611 4.1073-0.34407 0-0.38708-0.40858-0.38708-1.0967 0-1.4623 0.19354-2.9891 0.47309-3.8923 0.0215-0.0645 0.10752-0.34407 0.10752-0.38707 0-0.40858-0.32256-0.62363-0.86017-0.62363-0.40858 0-0.55911 0.12903-0.92468 1.9569-0.94618 1.8494-2.1504 3.8492-3.0751 3.8492-0.62362 0-0.66663-0.98919-0.66663-1.2688 0-1.3118 0.90318-3.3332 1.3978-4.0428-0.12902-0.36557-0.79566-0.62362-0.98919-0.62362-0.70964 0-1.9569 3.2041-1.9569 4.8384 0 1.2257 0.70964 2.2364 1.6773 2.2364 1.3118 0 2.4945-1.8064 3.3977-3.4407-0.04301 0.40858-0.04301 1.1182-0.06451 1.4623 0.04301 1.1827 0.30106 2.1504 1.2687 2.1504 1.3978 0 2.9031-2.0644 3.9783-3.9353 0.36557 1.0107 1.0322 1.7848 1.9784 1.7848 0.75265 0 1.6128-0.47309 2.2364-1.9569z"/>
      <path d="m56.682 155.79c1.6128-2.2794 6.3652-11.397 6.3652-12.601 0-0.36557-0.30106-0.64513-0.60212-0.64513-1.3333 0-3.2686 4.989-4.8599 9.0963-0.47309 1.2257-1.1612 3.0106-1.1612 4.0643zm-0.70964 2.4515c0.64513 0 1.2687-0.58062 1.2687-1.0752 0-0.4946-0.30106-0.66663-0.73114-0.66663-0.68814 0-1.3978 0.47309-1.3978 1.0107 0 0.5161 0.40858 0.73115 0.86017 0.73115z"/>
    </g>
  </g>
</svg>
