<?xml version="1.0" encoding="UTF-8"?>
<svg width="77.465mm" height="57.488mm" version="1.1" viewBox="0 0 77.465 57.488" xmlns="http://www.w3.org/2000/svg">
  <path d="m64.705 30.902 7.3736 7.2453-14.226 0.90248-0.42373 12.394-13.18-5.7351-6.4767 11.414-6.1709-11.41-12.617 9.8748 1.9167-12.308-15.701 4.2579 7.6439-8.657-12.348-5.7235 10.639-4.815-7.4962-9.5462 14.129 1.9949 0.037337-14.471 11.015 6.582 8.572-12.548 6.8078 11.245 12.062-9.3406-1.9299 12.227 16.405-5.6756-9.9901 12.032 16.22 1.3704z" fill="#1bb400" stroke-width="1.134" style="paint-order:markers fill stroke"/>
  <path d="m57.414 16.101c-0.03975 1.99e-4 -0.0791 0.0043-0.11782 0.0124-1.372 0.28726-2.3909 5.349-3.2277 9.5157-0.2479 1.243-0.60846 3.0529-0.40308 4.0339l0.28267 0.02376c1.2153-2.4696 4.328-11.982 4.0933-13.103-0.06235-0.2978-0.34912-0.48457-0.62735-0.48317zm-28.048 5.8369c-0.97362 0.20386-1.3925 0.96061-1.5699 1.4366-0.71424 1.884-0.76165 7.7245-1.0191 11.79-0.52961-1.2057-0.66289-1.5122-2.2459-5.6529-1.2185-3.1721-2.3304-6.0533-4.3661-5.627-1.7038 0.35674-4.1445 3.0414-3.7631 4.8633 0.15509 0.74075 0.73727 1.204 2.0428 0.93069-0.19144-0.25249-0.351-0.57471-0.41806-0.89504-0.2431-1.1611 0.44914-3.4793 1.7105-3.7434 0.24341-0.05097 0.30483 0.01993 0.34675 0.22014 0.06707 0.32033 0.01361 0.72815 0.0083 0.81287-0.87762 8.6056-1.3905 12.224-1.7446 15.056 1.6817-0.35211 1.9476-2.3926 2.974-14.039 0.80908 1.8786 3.9749 9.3871 4.6095 10.654 0.63908 1.2873 1.4003 1.5039 2.4846 1.2769-0.65804-3.143 0.16416-13.115 0.95033-17.083zm19.811 4.0065c-0.07998-3.97e-4 -0.16556 0.0078-0.25683 0.02687-0.66384 0.13899-1.1164 0.73519-0.68471 2.7972-0.57425 2.0011-1.6334 4.3337-2.452 4.5052-0.35405 0.07413-0.47772-0.29678-0.61185-0.93741-0.28503-1.3614-0.38342-2.8248-0.27182-3.7259 0.0096-0.06468 0.04352-0.3434 0.03514-0.38344-0.07964-0.38038-0.45346-0.51115-1.0067-0.39532-0.42043 0.08803-0.55011 0.24058-0.56999 2.0211-0.61313 1.9256-1.4628 4.047-2.4143 4.2463-0.6417 0.13436-0.87877-0.77735-0.93328-1.0377-0.2557-1.2213 0.27996-3.2977 0.6506-4.0649-0.20402-0.31254-0.94032-0.40963-1.1395-0.36794-0.52198 0.10929-1.0053 1.8012-1.1234 3.3135-0.80404 1.972-2.4204 3.6975-4.1253 4.0545-1.6817 0.35211-1.9717-0.92435-2.0304-1.2046-0.05449-0.26026-0.05335-0.365-0.05219-0.46974 2.6008-0.81623 5.1864-3.0294 4.763-5.0514-0.22215-1.0611-1.1221-1.1652-1.8965-1.003-2.7438 0.5745-5.0349 4.523-4.5403 6.8854 0.28922 1.3814 1.5469 2.2045 3.4499 1.8061 1.8404-0.38533 3.4885-1.743 4.4576-3.5734 0.0087 0.05675 0.01582 0.11619 0.02687 0.16898 0.23891 1.1411 1.1664 1.9293 2.1621 1.7208 1.3498-0.28263 2.2143-2.219 2.8252-3.9352 0.03538 0.38965 0.17364 1.0501 0.21859 1.3751 0.27479 1.0918 0.72926 1.9371 1.725 1.7286 1.4383-0.30116 2.5847-2.5472 3.3264-4.5207 0.57318 0.86219 1.4102 1.4389 2.3838 1.2351 0.77448-0.16216 1.5673-0.78797 1.9198-2.3037l-0.48317-0.21187c-0.41652 1.3202-0.85438 1.7672-1.3854 1.8784-0.81874 0.17142-1.1369-0.57675-1.2836-1.2774-0.18024-0.86087-0.06821-1.4281 0.06925-1.8748 0.05079-0.19871 0.1997-0.48026 0.14521-0.74052-0.05134-0.24525-0.33726-0.68142-0.8971-0.6842zm-13.721 3.1564c0.1508 0.0066 0.23448 0.09464 0.28164 0.31988 0.31437 1.5015-1.9433 3.6253-3.4587 4.1098 0.27169-1.7914 1.6532-4.1285 3.0029-4.4111 0.06638-0.01389 0.12388-0.02082 0.17415-0.0186zm18.764 1.2526c-0.09593-0.0031-0.19994 0.0084-0.31058 0.03152-0.7081 0.14826-1.3466 0.74128-1.2418 1.2418 0.1006 0.48049 0.56316 0.59287 1.0278 0.49558 0.66384-0.13899 1.1925-0.81389 1.0961-1.2743-0.07231-0.34535-0.28376-0.48525-0.57154-0.49454z" fill="#fff"/>
</svg>
