<?xml version="1.0" encoding="UTF-8" standalone="no"?>
<!-- Created with Inkscape (http://www.inkscape.org/) -->

<svg
   xmlns:dc="http://purl.org/dc/elements/1.1/"
   xmlns:cc="http://creativecommons.org/ns#"
   xmlns:rdf="http://www.w3.org/1999/02/22-rdf-syntax-ns#"
   xmlns:svg="http://www.w3.org/2000/svg"
   xmlns="http://www.w3.org/2000/svg"
   xmlns:sodipodi="http://sodipodi.sourceforge.net/DTD/sodipodi-0.dtd"
   xmlns:inkscape="http://www.inkscape.org/namespaces/inkscape"
   width="93mm"
   height="93mm"
   viewBox="0 0 93 93"
   version="1.1"
   id="svg8"
   inkscape:version="0.92.1 r"
   sodipodi:docname="unknown.svg">
  <defs
     id="defs2" />
  <sodipodi:namedview
     id="base"
     pagecolor="#ffffff"
     bordercolor="#666666"
     borderopacity="1.0"
     inkscape:pageopacity="0.0"
     inkscape:pageshadow="2"
     inkscape:zoom="2"
     inkscape:cx="167.73953"
     inkscape:cy="179.63773"
     inkscape:document-units="mm"
     inkscape:current-layer="layer1"
     showgrid="false"
     inkscape:window-width="1680"
     inkscape:window-height="988"
     inkscape:window-x="0"
     inkscape:window-y="0"
     inkscape:window-maximized="1" />
  <metadata
     id="metadata5">
    <rdf:RDF>
      <cc:Work
         rdf:about="">
        <dc:format>image/svg+xml</dc:format>
        <dc:type
           rdf:resource="http://purl.org/dc/dcmitype/StillImage" />
        <dc:title></dc:title>
      </cc:Work>
    </rdf:RDF>
  </metadata>
  <g
     inkscape:label="Layer 1"
     inkscape:groupmode="layer"
     id="layer1"
     transform="translate(0,-204)">
    <circle
       r="46.10321"
       cy="250.49998"
       cx="46.5"
       id="circle4560"
       style="opacity:1;fill:none;fill-opacity:0.99549549;stroke:#000000;stroke-width:0.79357976;stroke-miterlimit:4;stroke-dasharray:none;stroke-opacity:1" />
    <circle
       style="opacity:1;fill:#a02c2c;fill-opacity:1;stroke:#000000;stroke-width:0.79357976;stroke-miterlimit:4;stroke-dasharray:none;stroke-opacity:1"
       id="path4485"
       cx="201.17932"
       cy="156.33098"
       r="46.10321"
       transform="rotate(41.634144)" />
    <path
       id="circle4487"
       style="opacity:1;fill:#ffffff;fill-opacity:1;stroke:none;stroke-width:0.79357976;stroke-miterlimit:4;stroke-dasharray:none;stroke-opacity:1"
       sodipodi:type="arc"
       sodipodi:cx="201.17932"
       sodipodi:cy="156.33098"
       sodipodi:rx="46.10321"
       sodipodi:ry="46.10321"
       sodipodi:start="5.9341195"
       sodipodi:end="0.34906585"
       d="m 244.50217,140.56275 a 46.10321,46.10321 0 0 1 0,31.53646 l -43.32285,-15.76823 z"
       transform="rotate(41.634144)" />
    <path
       d="m -157.85647,140.56275 a 46.10321,46.10321 0 0 1 0,31.53646 l -43.32285,-15.76823 z"
       sodipodi:end="0.34906585"
       sodipodi:start="5.9341195"
       sodipodi:ry="46.10321"
       sodipodi:rx="46.10321"
       sodipodi:cy="156.33098"
       sodipodi:cx="-201.17932"
       sodipodi:type="arc"
       style="opacity:1;fill:#ffffff;fill-opacity:1;stroke:none;stroke-width:0.79357976;stroke-miterlimit:4;stroke-dasharray:none;stroke-opacity:1"
       id="path4496"
       transform="matrix(-0.74740231,-0.66437173,-0.66437173,0.74740231,0,0)" />
    <path
       transform="matrix(0.66437173,-0.74740231,-0.74740231,-0.66437173,0,0)"
       id="path4498"
       style="opacity:1;fill:#ffffff;fill-opacity:1;stroke:none;stroke-width:0.79357976;stroke-miterlimit:4;stroke-dasharray:none;stroke-opacity:1"
       sodipodi:type="arc"
       sodipodi:cx="-156.33098"
       sodipodi:cy="-201.17932"
       sodipodi:rx="46.10321"
       sodipodi:ry="46.10321"
       sodipodi:start="5.9341195"
       sodipodi:end="0.34906585"
       d="m -113.00813,-216.94755 a 46.10321,46.10321 0 0 1 0,31.53646 l -43.32285,-15.76823 z" />
    <path
       d="m 199.65383,-216.94755 a 46.10321,46.10321 0 0 1 0,31.53646 l -43.32285,-15.76823 z"
       sodipodi:end="0.34906585"
       sodipodi:start="5.9341195"
       sodipodi:ry="46.10321"
       sodipodi:rx="46.10321"
       sodipodi:cy="-201.17932"
       sodipodi:cx="156.33098"
       sodipodi:type="arc"
       style="opacity:1;fill:#ffffff;fill-opacity:1;stroke:none;stroke-width:0.79357976;stroke-miterlimit:4;stroke-dasharray:none;stroke-opacity:1"
       id="path4500"
       transform="rotate(131.63414)" />
    <circle
       id="circle4494"
       style="opacity:1;fill:#a02c2c;fill-opacity:1;stroke:none;stroke-width:0.79971796;stroke-miterlimit:4;stroke-dasharray:none;stroke-opacity:1"
       r="34.464039"
       cy="156.33098"
       cx="201.17932"
       transform="rotate(41.634144)" />
    <path
       sodipodi:nodetypes="scscscscs"
       inkscape:connector-curvature="0"
       id="path4515"
       d="m 73.048622,223.2977 c -0.97447,0.17513 -2.907602,0.6067 -2.907602,0.6067 0,0 0.201997,-1.97039 0.261689,-2.95868 0.05696,-0.94298 0.0919,-2.83262 0.0919,-2.83262 0,0 1.872516,-0.25622 2.802326,-0.42331 0.974463,-0.17512 2.907603,-0.60671 2.907603,-0.60671 0,0 -0.202005,1.97041 -0.26169,2.95868 -0.05696,0.94298 -0.0919,2.83262 -0.0919,2.83262 0,0 -1.872515,0.25622 -2.802325,0.42332 z"
       style="fill:#a02c2c;fill-opacity:1;stroke:none;stroke-width:0.08084986px;stroke-linecap:butt;stroke-linejoin:miter;stroke-opacity:1" />
    <path
       style="fill:#a02c2c;fill-opacity:1;stroke:none;stroke-width:0.09122693px;stroke-linecap:butt;stroke-linejoin:miter;stroke-opacity:1"
       d="m 74.26136,272.79715 c 0.01427,0.77037 0.161469,1.56279 0.62477,2.41305 -0.05617,-1.88447 1.51165,-2.7352 2.666103,-2.50109 1.104827,0.22405 1.669934,0.76611 1.920686,1.59385 0.384784,1.27033 0.02762,3.07121 0.441964,5.89974 -2.857601,-0.0799 -4.604201,0.48589 -5.910874,0.25265 -0.85145,-0.15196 -1.456022,-0.64964 -1.808009,-1.72061 -0.367823,-1.11905 0.293257,-2.77577 2.171322,-2.9409 -0.898711,-0.36043 -1.70188,-0.40241 -2.46965,-0.3376 -0.261413,0.0221 2.360398,-2.83923 2.363728,-2.65914 z"
       id="path4552"
       inkscape:connector-curvature="0"
       sodipodi:nodetypes="scsscsscss" />
    <path
       style="fill:#a02c2c;fill-opacity:1;stroke:none;stroke-width:0.09098136px;stroke-linecap:butt;stroke-linejoin:miter;stroke-opacity:1"
       d="m 17.181242,277.88424 c -1.345135,0.52235 -2.352961,1.43369 -2.4415,2.67904 -0.183425,2.57975 2.67378,2.44043 3.163603,2.10726 -0.273432,0.52547 -0.07689,3.37934 2.463568,2.89478 1.226383,-0.23391 2.013306,-1.34161 2.374385,-2.73871 0.410817,-1.58955 0.196645,-3.71998 0.319945,-5.95858 -2.20871,0.38486 -4.34956,0.4219 -5.879997,1.01621 z"
       id="path4556"
       inkscape:connector-curvature="0"
       sodipodi:nodetypes="sscsscs" />
    <path
       sodipodi:nodetypes="scscccscss"
       inkscape:connector-curvature="0"
       id="path4564"
       d="m 21.031447,225.5898 c -0.968719,0.22974 -1.887796,-0.007 -2.592324,-0.49787 0.848654,0.32737 3.049575,-0.61723 2.582109,-2.74223 -0.381779,-1.73544 -2.896322,-2.43684 -4.136454,-0.54913 -0.314168,-1.73164 -2.431776,-2.54935 -3.84876,-1.04697 -1.325919,1.58333 -0.265628,3.59048 1.490906,3.6995 -1.729333,1.45286 -0.738015,3.86786 1.030221,4.04356 2.165143,0.21516 2.84523,-2.08131 2.420651,-2.88575 0.570259,0.64211 0.999077,1.54097 0.798308,2.51609 -0.04367,0.21211 2.492043,-2.59333 2.255343,-2.5372 z"
       style="fill:#a02c2c;fill-opacity:1;stroke:none;stroke-width:0.08728783px;stroke-linecap:butt;stroke-linejoin:miter;stroke-opacity:1" />
    <g
       aria-label="?"
       style="font-style:normal;font-variant:normal;font-weight:normal;font-stretch:normal;font-size:50.79999924px;line-height:1.25;font-family:'Noto Sans';-inkscape-font-specification:'Noto Sans';letter-spacing:0px;word-spacing:0px;fill:#ffffff;fill-opacity:1;stroke:none;stroke-width:0.26458332"
       id="text4575"
       transform="matrix(0.99978557,0,0,0.99978557,-4.8937395,196.92815)">
      <path
         d="m 47.84529,61.39681 v -1.364258 c 0,-1.967839 0.314193,-3.563607 0.942578,-4.787305 0.628385,-1.240234 1.736328,-2.521809 3.323828,-3.844726 1.802474,-1.521355 2.984831,-2.612761 3.547071,-3.274219 0.562239,-0.661459 0.959114,-1.322917 1.190625,-1.984375 0.23151,-0.661459 0.347265,-1.430404 0.347265,-2.306836 0,-1.637109 -0.529167,-2.89388 -1.5875,-3.770312 -1.058333,-0.876433 -2.579687,-1.314649 -4.564062,-1.314649 -1.322917,0 -2.621029,0.165365 -3.894336,0.496094 -1.166263,0.306912 -2.46781,0.798948 -3.904641,1.476111 -0.27438,0.116227 -0.381761,0.0368 -0.461398,-0.121456 l -1.25739,-2.854074 c -0.08159,-0.304484 -0.006,-0.502162 0.192446,-0.604603 3.03222,-1.540808 6.239878,-2.311212 9.622975,-2.311212 3.141927,0 5.614128,0.785482 7.416602,2.356445 1.802474,1.554427 2.703711,3.737239 2.703711,6.548437 0,1.223698 -0.165365,2.306836 -0.496094,3.249414 -0.330729,0.942578 -0.835091,1.835547 -1.513086,2.678907 -0.661459,0.843359 -1.992644,2.10013 -3.993555,3.770312 -1.637109,1.405599 -2.728515,2.571419 -3.274218,3.497461 -0.529167,0.909505 -0.79375,2.116667 -0.79375,3.621484 v 0.84336 z m -1.16582,7.46621 c 0,-2.265495 1.050065,-2.968294 3.150195,-2.968294 0.959115,0 1.711524,0.289388 2.257227,0.868164 0.562239,0.56224 0.843359,0.975651 0.843359,2.10013 0,1.107943 -0.28112,1.967839 -0.843359,2.579688 -0.56224,0.595313 -1.314649,0.892969 -2.257227,0.892969 -0.926041,0 -1.686718,-0.272852 -2.282031,-0.818555 C 46.968858,70.971419 46.67947,70.086718 46.67947,68.86302 Z"
         style="font-style:normal;font-variant:normal;font-weight:normal;font-stretch:normal;font-size:50.79999924px;font-family:'Noto Sans';-inkscape-font-specification:'Noto Sans';fill:#ffffff;stroke-width:0.26458332"
         id="path4590"
         inkscape:connector-curvature="0"
         sodipodi:nodetypes="csccccssscccccscsscccsccsscscscs" />
    </g>
  </g>
</svg>
