<?xml version="1.0" encoding="UTF-8"?>
<svg width="80.4653mm" height="57.4879mm" version="1.1" viewBox="0 0 80.4653 57.4879" xmlns="http://www.w3.org/2000/svg">
  <g transform="translate(-34.7448,-103.139)">
    <path transform="matrix(1.81969 -.373845 .153282 1.24702 42.9709 180.185)" d="m39.443-20.2385-6.9882-0.690228-0.111608 7.48911-6.1593-3.79249-3.85582 6.47246-3.86936-5.48035-4.88834 4.64854-1.42459-7.76271-7.11604 2.58947 2.18638-7.06855-6.66921-1.59786 3.76597-5.63782-5.8399-4.46945 6.73876-2.72243-2.76564-6.0618 6.53092-0.500922 1.08869-6.45398 5.11134 3.6111 3.51776-6.75247 4.75588 6.48682 4.33985-5.52062 1.42459 7.76272 6.77803-2.57824-0.800365 7.52995 6.00625 1.59575-4.48906 4.88729 5.38967 3.94936-6.21762 3.99516z" fill="#009dfd" fill-rule="evenodd" style="paint-order:markers stroke fill"/>
    <path d="m90.9031 116.732c-0.214961 0.0319-0.739632 0.66888-0.623734 1.45056 0.02897 0.19542 0.130463 0.34041 0.265099 0.44028-0.214032 1.78923-1.37954 4.29867-2.39572 4.44934-0.820764 0.12169-1.20538-0.18077-1.31258-0.90382-0.153565-1.03572 0.46931-2.08701 0.396875-2.57555-0.03477-0.23451-0.288666-0.73597-0.777214-0.66353-0.05863 9e-3 -0.09766 0.0145-0.133842 0.0398-0.152022-0.21712-0.412687-0.35821-0.901237-0.28577-1.80879 0.26818-3.32501 2.79925-3.76721 4.88652l-0.184486-0.0382c-0.487534 2.30938-1.47705 3.13965-2.36471 4.10466 0.116266-3.00274-0.147706-6.0362-0.316775-6.60425-0.09581-0.32189-0.339715-0.51758-0.623734-0.43304-0.776325 0.23106-0.531971 2.7144-0.921909 4.52065l0.255281 0.23306c0.08024-0.35368 0.268607-0.96625 0.444417-1.76062 0.241676 1.98928 0.249444 3.67701 0.117822 5.03536-0.419036 0.39267-0.733692 0.6515-1.03146 0.96686-1.17011 1.19337-1.78303 2.73606-1.50689 3.66386 0.163436 0.54911 0.628496 0.86444 1.27228 0.67283 1.53371-0.45649 2.12621-3.10667 2.27945-5.70818 0.791462-0.85238 1.92727-1.73933 2.4474-3.46956 0.0019 0.15251 0.01177 0.29851 0.03204 0.43512 0.147767 0.99664 0.818751 1.61641 1.81539 1.46864 1.36794-0.20282 2.40203-1.71438 2.93884-3.75119 0.402492 0.55944 1.05161 0.76278 1.79421 0.65268 1.48519-0.22021 2.49687-2.82646 2.81947-4.69171 0.540702 0.27932 1.19006 0.48261 1.31465 1.32292 0.153564 1.03572-0.704252 2.66074-0.533302 3.81372 0.113001 0.76214 0.735499 1.18872 1.61489 1.05833 1.66107-0.24628 3.08125-2.2539 3.57756-4.02507l-0.283186-0.15813c-0.320498 1.20587-1.65912 3.2219-2.89026 3.40444-0.312671 0.0464-0.603805-0.0302-0.673343-0.4992-0.121692-0.82076 0.664051-2.25527 0.48731-3.44733-0.246282-1.66107-2.28852-1.69799-2.39572-2.42104-0.01159-0.0782 0.12777-0.6182 0.107487-0.75499-0.02029-0.1368-0.06955-0.46897-0.343133-0.4284zm-12.5388 0.23513c-0.08187 8.4e-4 -0.168961 0.0156-0.2589 0.0424-0.605909 0.18034-1.25273 0.84686-1.08365 1.4149 0.118348 0.39763 0.5403 0.49869 0.937926 0.38034 0.624846-0.18598 1.0977-0.88303 0.928627-1.45107-0.08031-0.26982-0.278387-0.38912-0.523999-0.38654zm-15.6781 1.89084c-0.271246 0.0463-0.478565 0.12338-0.614434 0.20412-0.373637 0.22202-0.391798 0.57774-0.435115 1.20096-0.0982 1.57504-0.307486 8.45504 0.851111 12.4545-1.06235-1.94252-2.35794-4.78-3.61942-6.90294-1.82661-3.07402-2.87206-3.44133-3.97598-2.78536-1.49455 0.88808-2.504 3.32686-1.61592 4.82141 0.333029 0.56045 1.08217 1.24132 1.72754 0.85783-0.10781-0.14276-0.215555-0.28564-0.346748-0.50643-0.817435-1.37566-1.17436-3.48457 0.269234-4.34237 0.475538-0.28257 0.688365-0.15657 0.839742 0.0982 0.151377 0.25476 0.22102 0.60415 0.243912 0.79737 0.922082 7.81687 1.61892 14.3657 1.71049 15.1386 1.2398-0.7367 0.287605-4.58288-1.11053-15.1732 0.158268 0.22768 0.336543 0.48912 0.59893 0.93069 1.06973 1.80025 2.90723 5.51121 4.01732 7.37939 0.777068 1.30773 1.36677 1.99163 1.97817 1.62833 0.101902-0.0606 0.108866-0.088 0.214458-0.21963-0.534873-2.48575-1.49862-9.17454-1.10949-12.2323 1.09485 3.85354 2.13626 7.46282 3.74086 10.1632 0.827526 1.39265 1.35098 1.7712 2.52284 1.07487-0.485881-0.46963-0.627973-0.47701-1.08211-1.24127-1.28166-2.1569-3.21459-7.30493-4.15633-10.5141-0.397521-1.32644-0.57617-2.32335-0.648539-2.83187zm23.1603 0.54105c-0.165703 0.36409-0.238387 0.95409-0.108003 1.83348 0.06664 0.44946 0.158145 0.79549 0.282671 1.09657-0.454332 1.78492-1.46879 3.29318-2.34818 3.42357-0.469006 0.0695-0.800563-0.28045-0.890384-0.88625-0.220207-1.48519 0.855652-5.13996 3.06389-5.46737zm-13.0747 3.25561c-0.276574-4e-3 -0.572712 0.0517-0.870749 0.17105-2.38428 0.95447-3.7004 5.48212-2.8267 7.66465 0.411152 1.02708 1.1965 1.28712 1.9668 0.97875 0.898692-0.35976 1.41929-1.39791 1.91771-3.23597 0.04408 0.21643 0.09888 0.40724 0.157613 0.55397 0.256971 0.64192 0.935823 1.11475 1.83452 0.75499 1.30218-0.52128 2.3181-2.50229 2.29547-4.79144l-0.256831-0.11007c-0.322183 2.38463-1.11431 3.80831-1.77457 4.07262-0.440174 0.17621-0.79987-0.19078-0.946711-0.55759-0.352417-0.88035 0.212278-2.55318 0.04341-2.97501-0.11013-0.27511-0.682485-0.21627-0.917258-0.16485-0.370062 1.68028-1.1139 5.08451-2.25102 5.53971-0.330131 0.13216-0.583113-0.0216-0.781347-0.51676-0.712176-1.77904-0.02387-6.0128 1.70016-6.70295 0.660262-0.26431 1.08974 0.11692 1.31 0.66714 0.08076 0.20175 0.139626 0.45526 0.165364 0.67903 0.531879-0.21292 0.825199-0.54353 0.582912-1.14877-0.227145-0.56741-0.740294-0.86919-1.34876-0.8785zm16.675 3.97651c-0.07936-2e-3 -0.15647 0.0179-0.220142 0.0558-0.696166 0.41403-0.62008 3.51771-0.116789 6.52828-0.332711 0.17489-0.607656 0.29272-0.787549 0.37672l0.181901 0.30541c0.227169-0.0432 0.451014-0.13058 0.691947-0.2279 0.238839 1.32026 0.561787 2.58482 0.93741 3.5724-0.273137 1.79431-0.861366 2.89504-1.40715 3.15329-0.428575 0.2028-0.809755-0.14101-0.978752-0.49816-0.405593-0.85715 0.05534-2.56171-0.139009-2.97243-0.126749-0.26785-0.694338-0.1742-0.925526-0.10852-0.266618 1.69977-0.80074 5.14347-1.90789 5.66736-0.321432 0.1521-0.583692 0.014-0.811837-0.46819-0.819637-1.73216-0.391326-6.00013 1.28726-6.79442 0.642863-0.30419 1.09474 0.0503 1.34824 0.58601 0.09295 0.19643 0.167328 0.44537 0.206703 0.66714 0.517864-0.24504 0.790443-0.59254 0.511598-1.18183-0.380243-0.80358-1.3302-1.00939-2.25878-0.57-2.0016 0.94714-3.04471 4.49382-2.65048 6.81613-0.415859 1.09868-1.04365 1.86327-1.572 2.03656-0.431747 0.14162-0.542727-0.19618-0.776695-0.9095-1.2191-3.71679 0.844711-12.0032 0.456819-13.1858-0.08004-0.24403-0.310277-0.37675-0.516763-0.30902-1.03244 0.33863-1.28129 5.28573-1.48208 9.36428-0.173157 3.52892-1.34794 6.15963-2.36161 6.49211-0.412975 0.13546-0.786289-0.11639-0.971-0.67954-0.474091-1.44542 0.157544-5.54086 2.18488-6.20583 0.337892-0.11082 0.612664-0.0971 0.805635 0.0476-0.01201-0.10002-0.01781-0.18106-0.04857-0.27492-0.129296-0.39421-0.491386-0.48349-1.01699-0.31109-2.32768 0.76347-3.84861 5.31693-3.16518 7.40058 0.363265 1.10752 1.28671 1.32451 1.92495 1.11518 1.14507-0.37559 2.12272-2.33926 2.68407-4.74803 0.05796 0.93737 0.160695 1.69421 0.302308 2.12596 0.215495 0.65701 0.76209 1.30934 1.70067 1.00149 0.795835-0.26103 1.54859-1.12266 2.02624-2.26084 0.03745 0.10669 0.07763 0.21052 0.123505 0.30747 0.473194 1.00001 1.27261 1.21169 2.02262 0.8568 0.875006-0.41405 1.33109-1.4825 1.71617-3.3476 0.05723 0.21333 0.124121 0.40026 0.19172 0.54312 0.295745 0.62501 1.00188 1.05586 1.87689 0.64182 0.949198-0.44915 1.68792-1.70524 1.93115-3.26647 0.06562 0.13365 0.132051 0.26094 0.199988 0.37517 0.666486 1.12066 1.52614 1.36757 2.51096 0.78187 1.14694-0.68212 1.81265-2.08973 1.97714-3.71916 0.746064 0.98351 1.9551 1.29829 3.22719 0.40153 1.59853-1.12688 2.40136-3.55381 1.90737-6.10609l-0.296096-9e-3c0.285386 2.11923-0.230005 4.4399-1.60249 5.40742-1.0011 0.70573-1.7647 0.2052-2.23139-0.45682-0.113826-0.16146-0.245665-0.38277-0.345199-0.62683 1.71553-1.47523 2.95678-4.30873 1.79576-5.95571-0.557749-0.79119-1.19444-0.63192-1.69499-0.27905-1.76328 1.24301-2.12716 4.99744-1.09812 7.07347-0.09703 1.58959-0.612846 2.80945-1.52032 3.34915-0.679185 0.40393-1.17285 0.1921-1.75855-0.79272-0.716976-1.20556-1.07702-2.7385-1.26762-4.2571l0.254765-0.15142c0.764085-0.45442 1.70828-1.10826 2.86701-1.98127l-0.181385-0.30541c-0.798492 0.58981-1.62071 1.10132-2.36781 1.54564l-0.627869 0.37362c-0.257268-2.6742-0.03413-5.19709-0.387573-5.79138-0.08836-0.14857-0.226369-0.21406-0.358634-0.21755zm7.01611 1.58284c0.127624-1e-3 0.228152 0.0879 0.334864 0.23927 0.978906 1.38862-0.279672 3.99198-1.14153 5.20381-0.645385-1.84127-0.492345-4.60762 0.541051-5.3361 0.102936-0.0726 0.189042-0.1061 0.265616-0.10698zm-18.4692 1.09296c-0.336503 2.47055-1.07039 3.88424-1.5627 4.03076-0.170413 0.0507-0.355378-0.0178-0.456822-0.35863-0.236696-0.79526 0.388895-2.15619 2.01952-3.67213zm-6.87814 10.4609c-0.137012-1e-3 -0.277638 0.0114-0.420645 0.0393-1.51249 0.29473-2.3889 2.0959-2.79879 3.50417 0.02585-1.3133 0.0078-2.33631-0.06408-2.70474-0.08691-0.44599-0.445553-0.83903-1.10484-0.71055-0.310256 0.0605-0.33033 0.16506-0.304374 0.40153 0.147367 2.00621 0.214693 3.5544 0.228409 4.80435-0.828408 1.53682-1.943 2.44499-2.64015 2.49287-0.473019 0.0325-0.671859-0.2706-0.70435-0.74362-0.0907-1.32051 1.05772-3.91421 1.04283-4.13101-0.02302-0.33506-0.761828-0.42299-0.981337-0.44752-0.647416 1.52963-2.01194 5.30643-3.23391 5.39037-0.650403 0.0447-0.776938-0.9367-0.799952-1.27176-0.0907-1.32051 0.66094-3.35257 1.04852-4.05247-0.233046-0.22162-0.618579-0.35364-0.756543-0.34416-0.591275 0.0406-1.53019 3.09562-1.4273 4.59352 0.0731 1.06429 0.727976 1.94969 1.61489 1.88877 0.985458-0.0677 1.77443-1.27013 2.41432-2.62103-0.05582 0.34047-0.09194 0.67943-0.07028 0.99477 0.0555 0.80808 0.435425 1.43549 1.48001 1.36374 1.04114-0.0715 2.20005-0.97401 3.01429-2.33164-0.02363 3.09149-0.407345 4.18631-0.606682 6.52467-0.0043 0.0813 0.415015 0.68384 0.744659 0.6196 0.07756-0.0151 0.167103-0.0726 0.21394-0.14211 0.36286-0.51351 0.691348-4.30134 0.846976-8.35711 0.265607-1.21914 1.25333-3.48462 2.61069-3.74913 0.775634-0.15114 1.23759 0.46303 1.3963 1.27744 0.385429 1.97787-1.05367 4.61346-3.12849 5.01778-0.271473 0.0529-0.484499 0.0943-0.465605 0.19121 0.03023 0.15512 0.514011 0.26248 1.19269 0.13022 2.67594-0.52146 4.02067-3.74269 3.62769-5.75934-0.224832-1.15375-1.00977-1.85907-1.96887-1.8681z" fill="#fff" stroke-width=".343011px"/>
  </g>
</svg>
