<?xml version="1.0" encoding="UTF-8"?>
<svg width="80mm" height="55mm" version="1.1" viewBox="0 0 80 55" xmlns="http://www.w3.org/2000/svg">
  <g>
    <path d="m0 0v55l80-55" fill="#009dfd" fill-rule="evenodd" stroke-linecap="round" stroke-linejoin="round" stroke-width="1.17984" style="paint-order:markers fill stroke"/>
    <path d="m40.0151 5.02037c-0.0934 0.00217-0.185206 0.030844-0.259932 0.080099-0.689785 0.454663-0.78754 3.25938-0.489376 5.98826-0.238181 0.136393-0.430557 0.242586-0.777214 0.409277l0.255799 0.469739c0.225203-0.04544 0.441024-0.146329 0.610815-0.217041 0.135345 0.977204 0.320709 1.91832 0.54157 2.69596-0.0988 1.8825-0.650057 2.93815-1.08779 3.22668-0.337228 0.222279-0.616247 0.01487-0.756544-0.24288-0.36312-0.66712-0.0013-2.1829-0.216006-2.5771-0.140298-0.257751-0.567153-0.162168-0.799436-0.09147 0.528246-0.368789 0.7586-0.787779 0.478007-1.30328-0.396132-0.727767-1.36541-0.748506-2.23914-0.172599-1.6962 1.11803-2.47756 4.08286-2.22364 6.12934-0.149437 1.28017-0.603597 2.22383-1.10898 2.55695-0.229928 0.151554-0.380834 0.06556-0.644922-0.419613-1.76609-3.24462-1.07594-10.6627-1.64538-11.7088-0.140298-0.25775-0.447034-0.323637-0.676963-0.172082-0.935037 0.61632-0.406839 5.06821 0.02687 8.69663 0.373602 3.1736-0.250232 5.62457-1.07797 6.17017-0.3219 0.212176-0.622588 0.08053-0.837157-0.313676-0.618958-1.13714-0.675347-4.68463 1.01079-5.79603 0.229928-0.151554 0.469358-0.247226 0.627351-0.186552 0.10377-0.192007 0.05157-0.364122-0.0062-0.470255-0.189815-0.348722-0.555072-0.29329-1.01493 0.0098-2.14599 1.41451-2.7361 5.84113-1.82004 7.52409 0.519923 0.955194 1.46339 0.88985 2.04587 0.505912 0.904383-0.596113 1.50251-2.32922 1.71721-4.34547 0.111995 0.358811 0.240104 0.748204 0.413411 1.0666 0.38788 0.712606 0.994029 1.13706 1.8371 0.58136 0.690888-0.455391 1.21963-1.37227 1.4826-2.48874 0.01611 0.0331 0.03192 0.06715 0.04909 0.0987 0.486913 0.894548 1.30889 0.950472 1.98334 0.505913 0.781754-0.515284 1.08002-1.53634 1.36426-3.04219 0.338362 0.621635 1.11634 1.0565 1.99006 0.480591 0.822002-0.541813 1.35754-1.68689 1.54254-3.07992 0.02793 0.05842 0.05511 0.122115 0.08371 0.174666 0.585946 1.07649 1.46447 1.19814 2.36885 0.602031 1.01625-0.669848 1.64455-1.97911 1.8805-3.49539 0.601876 0.883924 1.68543 1.10367 2.9161 0.292488 1.64015-1.08109 2.63531-3.38554 2.47272-5.75055l-0.438735-0.040308c0.0105 1.97082-0.779285 4.0779-2.05155 4.9165-1.16497 0.767875-1.70864-0.192361-1.82418-0.404627-0.107285-0.197103-0.133228-0.283057-0.159165-0.368969 1.73214-1.40954 3.0954-3.95618 2.26188-5.48752-0.437396-0.803577-1.13524-0.631646-1.67173-0.278019-1.76723 1.16485-2.49412 4.59935-1.80506 6.51433-0.201586 1.39802-0.742278 2.49834-1.49603 2.99517-0.567155 0.373834-0.992523 0.242204-1.44642-0.591695-0.536427-0.985518-0.746479-2.28933-0.861962-3.57291 0.904383-0.596114 1.83732-1.2933 2.98225-2.21279l-0.272313-0.500208c-0.839539 0.676981-1.62865 1.21736-2.74764 1.95492-0.065911-2.26393 0.252595-4.47177-0.077515-5.07824-0.092843-0.17057-0.253095-0.240815-0.40876-0.237195zm6.69882 1.28364c0.08791-0.00664 0.159824 0.05061 0.237193 0.192753 0.618959 1.13714-0.522131 3.51692-1.5291 4.34547-0.255781-1.54133 0.177038-3.84542 1.11208-4.46174 0.06898-0.045466 0.127087-0.072494 0.179835-0.076481zm-10.7461 7.37733c0.322829-0.04186 0.549632 0.202503 0.716751 0.50953 0.115538 0.212265 0.182954 0.374332 0.228925 0.611849-0.01532 0.0101-0.05443 0.0147-0.06976 0.02481-0.04599 0.03031-0.07523 0.0914-0.08113 0.157096-0.220567 1.54629-0.513451 4.64382-1.44849 5.26014-0.245255 0.161658-0.426685 0.09602-0.6165-0.252698-0.759251-1.39489-0.511395-5.22536 0.914157-6.165 0.130294-0.08588 0.248441-0.131774 0.356052-0.145728zm-21.733 5.94382c-0.226236 0.01006-0.40266 0.04905-0.502295 0.114722-0.904382 0.596114 0.44168 5.7865 1.3317 9.25835 0.46682 1.81426 0.698083 4.91666-0.988054 6.02806-0.919711 0.606218-1.66029 0.126129-2.17196-0.813904-0.51167-0.940032-0.79466-2.33967-1.16479-4.32067-0.313549-1.64746-0.681208-3.54802-1.29191-4.67-0.643715-1.18262-1.60111-1.60181-2.84272-0.783415-1.76278 1.16192-2.26267 3.57194-1.58595 4.81521 0.363121 0.667121 1.01834 0.914834 1.99936 0.268201-0.255849-0.202187-0.562033-0.535472-0.727087-0.838708-0.387879-0.712605-0.804104-2.66332 0.28422-3.38067 0.567155-0.373834 1.07528-0.09064 1.57045 0.819072 1.32869 2.44105 1.27197 6.92828 2.48512 9.15706 0.792263 1.45553 2.05123 1.77904 3.4308 0.869715 1.48687-0.980052 2.00119-2.63719 2.00246-4.47156 0.166232 0.343662 0.315897 0.656601 0.398425 0.808217 0.51167 0.940033 1.53731 1.29428 2.30374 0.789102 0.444527-0.293005 0.94119-0.949931 0.964799-1.48053-1.05767 0.697151-1.59757 0.661567-2.28255-0.596863-1.65055-3.03236-2.75762-10.7288-2.41329-11.512-0.298304-0.05059-0.574233-0.06949-0.800468-0.05943zm8.51989 2.36678c-0.376252-4e-3 -0.768933 0.115976-1.14257 0.362252-1.073 0.707253-1.46078 2.13745-1.55753 3.3755-0.233417-0.773214-0.445668-1.35456-0.561207-1.56683-0.222824-0.409369-0.713567-0.621988-1.34204-0.207739-0.321899 0.212176-0.279154 0.328899-0.177767 0.591695 1.96997 5.14979 2.22927 6.00863 2.93884 10.5265 0.0896 0.126352 0.573816 0.136853 0.819072-0.02479 0.873725-0.575908-0.445293-4.03296-1.20561-7.61091-0.07776-1.06122 0.185493-3.29462 1.22783-3.98167 0.597812-0.394041 1.13905-0.05044 1.46916 0.556038 0.742747 1.36456 0.37081 3.89613-1.53582 5.21467-0.183942 0.121242-0.359529 0.257833-0.285254 0.39429 0.107286 0.197104 0.628651 0.121298 1.28778-0.313159 2.22264-1.46502 2.49489-4.71444 1.64486-6.2761-0.371374-0.682282-0.952663-1.03299-1.57975-1.03973z" fill="#fff"/>
  </g>
</svg>
